<svg xmlns="http://www.w3.org/2000/svg" xmlns:xlink="http://www.w3.org/1999/xlink" width="40" zoomAndPan="magnify" viewBox="0 0 30 30.000001" height="40" preserveAspectRatio="xMidYMid meet" version="1.0"><defs><clipPath id="b15034e4e0"><path d="M 0.484375 0 L 29.515625 0 L 29.515625 29.03125 L 0.484375 29.03125 Z M 0.484375 0 " clip-rule="nonzero"/></clipPath><clipPath id="b0968ca185"><path d="M 13 1.25 L 18 1.25 L 18 6 L 13 6 Z M 13 1.25 " clip-rule="nonzero"/></clipPath><clipPath id="baf97f610f"><path d="M 4.273438 9 L 26.046875 9 L 26.046875 28.105469 L 4.273438 28.105469 Z M 4.273438 9 " clip-rule="nonzero"/></clipPath><clipPath id="545c83b7ca"><path d="M 12 18 L 18 18 L 18 28.105469 L 12 28.105469 Z M 12 18 " clip-rule="nonzero"/></clipPath><clipPath id="7ba42049e6"><path d="M 4.273438 11 L 26.046875 11 L 26.046875 20 L 4.273438 20 Z M 4.273438 11 " clip-rule="nonzero"/></clipPath><clipPath id="25f981587f"><path d="M 4.273438 9 L 26.046875 9 L 26.046875 19 L 4.273438 19 Z M 4.273438 9 " clip-rule="nonzero"/></clipPath></defs><g clip-path="url(#b15034e4e0)"><path fill="#ffffff" d="M 0.484375 0 L 29.515625 0 L 29.515625 65.324219 L 0.484375 65.324219 Z M 0.484375 0 " fill-opacity="1" fill-rule="nonzero"/><path fill="#ffffff" d="M 0.484375 0 L 29.515625 0 L 29.515625 29.03125 L 0.484375 29.03125 Z M 0.484375 0 " fill-opacity="1" fill-rule="nonzero"/></g><g clip-path="url(#b0968ca185)"><path fill="#e2ac9e" d="M 15.582031 5.839844 L 15.582031 3.503906 L 16.617188 3.503906 C 16.851562 3.503906 17.042969 3.3125 17.042969 3.078125 C 17.042969 2.839844 16.851562 2.652344 16.617188 2.652344 L 15.582031 2.652344 L 15.582031 1.753906 C 15.582031 1.519531 15.394531 1.328125 15.160156 1.328125 C 14.925781 1.328125 14.734375 1.519531 14.734375 1.753906 L 14.734375 2.652344 L 13.703125 2.652344 C 13.464844 2.652344 13.277344 2.839844 13.277344 3.078125 C 13.277344 3.3125 13.464844 3.503906 13.703125 3.503906 L 14.734375 3.503906 L 14.734375 5.839844 L 15.160156 5.515625 L 15.582031 5.839844 " fill-opacity="1" fill-rule="nonzero"/></g><g clip-path="url(#baf97f610f)"><path fill="#d9d9d9" d="M 15.140625 9.804688 L 4.261719 16.898438 L 4.261719 28.054688 L 26.054688 28.054688 L 26.054688 16.898438 L 15.140625 9.804688 " fill-opacity="1" fill-rule="nonzero"/></g><path fill="#d9d9d9" d="M 18.03125 11.886719 L 18.03125 7.480469 L 15.160156 5.304688 L 12.285156 7.480469 L 12.285156 11.871094 L 15.140625 10.011719 L 18.03125 11.886719 " fill-opacity="1" fill-rule="nonzero"/><g clip-path="url(#545c83b7ca)"><path fill="#e2ac9e" d="M 15.160156 18.273438 L 12.574219 20.15625 L 12.574219 28.054688 L 17.742188 28.054688 L 17.742188 20.15625 L 15.160156 18.273438 " fill-opacity="1" fill-rule="nonzero"/></g><path fill="#d59e8e" d="M 15.160156 18.273438 L 12.574219 20.15625 L 12.574219 21.226562 L 15.160156 19.34375 L 17.742188 21.226562 L 17.742188 20.15625 L 15.160156 18.273438 " fill-opacity="1" fill-rule="nonzero"/><path fill="#caf2f4" d="M 6.503906 26.21875 L 6.503906 22.824219 C 6.503906 21.886719 7.265625 21.128906 8.203125 21.128906 C 9.144531 21.128906 9.90625 21.886719 9.90625 22.824219 L 9.90625 26.21875 L 6.503906 26.21875 " fill-opacity="1" fill-rule="nonzero"/><path fill="#caf2f4" d="M 20.414062 26.21875 L 20.414062 22.824219 C 20.414062 21.886719 21.175781 21.128906 22.113281 21.128906 C 23.054688 21.128906 23.816406 21.886719 23.816406 22.824219 L 23.816406 26.21875 L 20.414062 26.21875 " fill-opacity="1" fill-rule="nonzero"/><path fill="#e2ac9e" d="M 9.90625 23.957031 L 9.90625 23.390625 L 8.488281 23.390625 L 8.488281 21.15625 C 8.394531 21.140625 8.300781 21.128906 8.203125 21.128906 C 8.105469 21.128906 8.011719 21.140625 7.921875 21.15625 L 7.921875 23.390625 L 6.503906 23.390625 L 6.503906 23.957031 L 7.921875 23.957031 L 7.921875 26.21875 L 8.488281 26.21875 L 8.488281 23.957031 L 9.90625 23.957031 " fill-opacity="1" fill-rule="nonzero"/><path fill="#e2ac9e" d="M 23.816406 23.957031 L 23.816406 23.390625 L 22.398438 23.390625 L 22.398438 21.15625 C 22.304688 21.140625 22.210938 21.128906 22.113281 21.128906 C 22.015625 21.128906 21.921875 21.140625 21.832031 21.15625 L 21.832031 23.390625 L 20.414062 23.390625 L 20.414062 23.957031 L 21.832031 23.957031 L 21.832031 26.21875 L 22.398438 26.21875 L 22.398438 23.957031 L 23.816406 23.957031 " fill-opacity="1" fill-rule="nonzero"/><path fill="#caf2f4" d="M 16.285156 15.566406 C 16.285156 16.1875 15.78125 16.691406 15.160156 16.691406 C 14.535156 16.691406 14.03125 16.1875 14.03125 15.566406 C 14.03125 14.945312 14.535156 14.441406 15.160156 14.441406 C 15.78125 14.441406 16.285156 14.945312 16.285156 15.566406 " fill-opacity="1" fill-rule="nonzero"/><path fill="#e2ac9e" d="M 15.160156 8.71875 C 14.925781 8.71875 14.734375 8.527344 14.734375 8.292969 L 14.734375 7.457031 C 14.734375 7.222656 14.925781 7.03125 15.160156 7.03125 C 15.394531 7.03125 15.582031 7.222656 15.582031 7.457031 L 15.582031 8.292969 C 15.582031 8.527344 15.394531 8.71875 15.160156 8.71875 " fill-opacity="1" fill-rule="nonzero"/><g clip-path="url(#7ba42049e6)"><path fill="#fddbd0" d="M 15.140625 11.378906 L 4.261719 18.464844 L 4.261719 19.652344 L 15.140625 12.5625 L 26.054688 19.652344 L 26.054688 18.464844 L 15.140625 11.378906 " fill-opacity="1" fill-rule="nonzero"/></g><g clip-path="url(#25f981587f)"><path fill="#e2ac9e" d="M 15.140625 9.804688 L 4.261719 16.898438 L 4.261719 18.777344 L 15.140625 11.6875 L 26.054688 18.777344 L 26.054688 16.898438 L 15.140625 9.804688 " fill-opacity="1" fill-rule="nonzero"/></g></svg>