<svg xmlns="http://www.w3.org/2000/svg" xmlns:xlink="http://www.w3.org/1999/xlink" width="40" zoomAndPan="magnify" viewBox="0 0 30 30.000001" height="40" preserveAspectRatio="xMidYMid meet" version="1.0"><defs><clipPath id="id1"><path d="M 5.347656 0 L 26.394531 0 L 26.394531 29.03125 L 5.347656 29.03125 Z M 5.347656 0 " clip-rule="nonzero"/></clipPath></defs><path fill="#d7ae54" d="M 14.914062 12.582031 L 16.347656 12.582031 L 16.347656 11.613281 L 15.464844 11.613281 L 15.867188 8.777344 L 14.921875 8.640625 L 14.441406 12.027344 C 14.421875 12.167969 14.464844 12.308594 14.550781 12.414062 C 14.644531 12.519531 14.777344 12.582031 14.914062 12.582031 " fill-opacity="1" fill-rule="nonzero"/><path fill="#d7ae54" d="M 17.996094 13.980469 L 17.566406 13.117188 C 17.011719 13.398438 16.382812 13.546875 15.757812 13.546875 L 14.4375 13.546875 L 14.4375 14.515625 L 15.757812 14.515625 C 16.53125 14.515625 17.304688 14.332031 17.996094 13.980469 " fill-opacity="1" fill-rule="nonzero"/><path fill="#d7ae54" d="M 13.957031 9.195312 C 13.957031 8.660156 13.53125 8.226562 13.003906 8.226562 C 12.472656 8.226562 12.046875 8.660156 12.046875 9.195312 C 12.046875 9.726562 12.472656 10.160156 13.003906 10.160156 C 13.53125 10.160156 13.957031 9.726562 13.957031 9.195312 " fill-opacity="1" fill-rule="nonzero"/><path fill="#d7ae54" d="M 18.738281 10.160156 C 19.265625 10.160156 19.695312 9.726562 19.695312 9.195312 C 19.695312 8.660156 19.265625 8.226562 18.738281 8.226562 C 18.210938 8.226562 17.78125 8.660156 17.78125 9.195312 C 17.78125 9.726562 18.210938 10.160156 18.738281 10.160156 " fill-opacity="1" fill-rule="nonzero"/><g clip-path="url(#id1)"><path fill="#d7ae54" d="M 25.429688 28.066406 L 6.308594 28.066406 L 6.308594 22.589844 C 6.308594 22.3125 6.355469 22.042969 6.441406 21.792969 C 6.699219 21.039062 7.3125 20.449219 8.089844 20.25 L 10.5625 19.804688 L 12.679688 19.421875 L 15.417969 27.734375 C 15.484375 27.933594 15.664062 28.066406 15.871094 28.066406 C 16.078125 28.066406 16.257812 27.933594 16.324219 27.734375 L 19.0625 19.421875 L 23.628906 20.246094 C 23.703125 20.265625 23.773438 20.292969 23.84375 20.320312 C 23.898438 20.339844 23.957031 20.355469 24.011719 20.378906 C 24.078125 20.410156 24.144531 20.449219 24.210938 20.488281 C 24.257812 20.515625 24.3125 20.539062 24.359375 20.570312 C 24.421875 20.613281 24.476562 20.660156 24.535156 20.707031 C 24.578125 20.742188 24.625 20.773438 24.664062 20.8125 C 24.71875 20.863281 24.765625 20.921875 24.816406 20.980469 C 24.851562 21.023438 24.894531 21.058594 24.925781 21.101562 C 24.972656 21.164062 25.011719 21.230469 25.054688 21.296875 C 25.082031 21.34375 25.117188 21.386719 25.140625 21.433594 C 25.179688 21.503906 25.207031 21.578125 25.238281 21.65625 C 25.257812 21.703125 25.28125 21.746094 25.300781 21.792969 C 25.328125 21.878906 25.347656 21.972656 25.367188 22.058594 C 25.375 22.101562 25.390625 22.140625 25.398438 22.179688 C 25.421875 22.316406 25.429688 22.449219 25.429688 22.589844 Z M 11.089844 8.226562 L 11.089844 6.773438 C 11.089844 6.585938 11.105469 6.402344 11.125 6.214844 C 11.132812 6.160156 11.144531 6.101562 11.152344 6.046875 C 11.171875 5.917969 11.195312 5.792969 11.222656 5.664062 C 11.238281 5.601562 11.253906 5.539062 11.273438 5.476562 C 11.304688 5.351562 11.34375 5.230469 11.390625 5.109375 C 11.410156 5.054688 11.429688 4.996094 11.449219 4.941406 C 11.460938 4.921875 11.472656 4.898438 11.484375 4.875 C 11.5 4.882812 11.523438 4.890625 11.542969 4.898438 C 11.601562 4.925781 11.660156 4.945312 11.71875 4.972656 C 11.847656 5.023438 11.976562 5.070312 12.105469 5.109375 C 12.171875 5.128906 12.238281 5.148438 12.304688 5.164062 C 12.4375 5.199219 12.574219 5.226562 12.710938 5.25 C 12.769531 5.261719 12.828125 5.273438 12.890625 5.28125 C 13.085938 5.308594 13.28125 5.324219 13.480469 5.324219 L 19.035156 5.324219 C 19.074219 5.46875 19.117188 5.621094 19.164062 5.773438 C 19.175781 5.820312 19.195312 5.867188 19.210938 5.917969 C 19.242188 6.023438 19.273438 6.125 19.3125 6.226562 C 19.332031 6.289062 19.355469 6.347656 19.378906 6.40625 C 19.414062 6.5 19.445312 6.589844 19.484375 6.683594 C 19.511719 6.746094 19.539062 6.808594 19.566406 6.871094 C 19.605469 6.957031 19.644531 7.039062 19.683594 7.125 C 19.714844 7.1875 19.746094 7.25 19.777344 7.308594 C 19.820312 7.390625 19.863281 7.46875 19.910156 7.542969 C 19.945312 7.605469 19.984375 7.660156 20.019531 7.71875 C 20.066406 7.789062 20.117188 7.859375 20.164062 7.929688 C 20.203125 7.980469 20.246094 8.03125 20.285156 8.085938 C 20.339844 8.148438 20.394531 8.210938 20.453125 8.269531 C 20.496094 8.3125 20.539062 8.359375 20.585938 8.398438 C 20.605469 8.421875 20.628906 8.445312 20.652344 8.464844 L 20.652344 10.824219 C 20.652344 12.871094 19.851562 14.800781 18.402344 16.253906 L 18.304688 16.351562 C 18.226562 16.433594 18.152344 16.511719 18.070312 16.582031 C 17.460938 17.121094 16.679688 17.417969 15.871094 17.417969 C 15.0625 17.417969 14.28125 17.121094 13.671875 16.582031 C 13.589844 16.511719 13.515625 16.433594 13.4375 16.351562 L 13.339844 16.253906 C 11.890625 14.800781 11.089844 12.871094 11.089844 10.824219 Z M 9.65625 9.675781 C 9.65625 9.457031 9.730469 9.253906 9.863281 9.082031 C 9.867188 9.082031 9.871094 9.082031 9.875 9.078125 C 9.875 9.074219 9.90625 9.035156 9.90625 9.03125 C 9.917969 9.019531 9.925781 9.003906 9.941406 8.992188 C 9.992188 8.9375 10.050781 8.894531 10.117188 8.851562 C 10.121094 8.847656 10.128906 8.847656 10.132812 8.84375 L 10.132812 10.515625 C 9.847656 10.347656 9.65625 10.035156 9.65625 9.675781 Z M 10.070312 3.875 C 10.085938 3.886719 10.097656 3.902344 10.113281 3.917969 C 10.261719 4.066406 10.425781 4.207031 10.597656 4.335938 C 10.617188 4.347656 10.628906 4.363281 10.644531 4.375 C 10.625 4.425781 10.609375 4.480469 10.589844 4.527344 C 10.554688 4.609375 10.523438 4.6875 10.496094 4.769531 C 10.445312 4.90625 10.402344 5.039062 10.363281 5.183594 C 10.339844 5.261719 10.316406 5.339844 10.296875 5.425781 C 10.261719 5.574219 10.234375 5.726562 10.210938 5.882812 C 10.199219 5.953125 10.183594 6.023438 10.175781 6.09375 C 10.152344 6.320312 10.132812 6.546875 10.132812 6.773438 L 10.132812 7.800781 C 10.105469 7.8125 10.078125 7.828125 10.046875 7.835938 C 9.957031 7.863281 9.871094 7.898438 9.785156 7.941406 C 9.761719 7.953125 9.738281 7.957031 9.714844 7.96875 C 9.238281 6.609375 9.371094 5.121094 10.070312 3.875 Z M 15.871094 0.96875 C 16.691406 0.96875 17.484375 1.136719 18.230469 1.464844 C 20.453125 2.457031 21.859375 4.769531 21.734375 7.222656 L 21.703125 7.832031 C 21.675781 7.820312 21.644531 7.820312 21.613281 7.8125 C 21.539062 7.792969 21.464844 7.777344 21.386719 7.765625 C 21.359375 7.761719 21.335938 7.753906 21.308594 7.75 C 21.28125 7.730469 21.257812 7.710938 21.230469 7.6875 C 21.195312 7.65625 21.164062 7.625 21.132812 7.589844 C 21.09375 7.550781 21.054688 7.503906 21.015625 7.457031 C 20.984375 7.421875 20.953125 7.382812 20.921875 7.335938 C 20.882812 7.285156 20.84375 7.230469 20.808594 7.171875 C 20.777344 7.125 20.75 7.078125 20.71875 7.03125 C 20.679688 6.964844 20.644531 6.894531 20.609375 6.824219 C 20.582031 6.773438 20.550781 6.722656 20.527344 6.664062 C 20.488281 6.585938 20.453125 6.503906 20.417969 6.421875 C 20.394531 6.367188 20.367188 6.308594 20.34375 6.25 C 20.304688 6.15625 20.273438 6.058594 20.238281 5.964844 C 20.214844 5.90625 20.191406 5.847656 20.171875 5.789062 C 20.132812 5.675781 20.097656 5.554688 20.0625 5.433594 C 20.046875 5.382812 20.03125 5.332031 20.015625 5.277344 C 19.964844 5.101562 19.917969 4.917969 19.871094 4.726562 C 19.820312 4.511719 19.628906 4.355469 19.40625 4.355469 L 13.480469 4.355469 C 13.308594 4.355469 13.136719 4.339844 12.964844 4.320312 C 12.453125 4.246094 11.957031 4.070312 11.511719 3.796875 C 11.511719 3.796875 11.507812 3.796875 11.507812 3.796875 C 11.234375 3.628906 10.992188 3.4375 10.785156 3.226562 C 10.652344 3.097656 10.539062 2.949219 10.425781 2.804688 C 10.421875 2.796875 10.414062 2.789062 10.40625 2.777344 C 10.40625 2.773438 10.402344 2.773438 10.402344 2.773438 C 10.011719 2.242188 9.765625 1.625 9.6875 0.96875 Z M 21.605469 10.515625 L 21.605469 8.84375 C 21.613281 8.847656 21.621094 8.847656 21.625 8.851562 C 21.6875 8.894531 21.75 8.9375 21.800781 8.992188 C 21.984375 9.175781 22.085938 9.417969 22.085938 9.675781 C 22.085938 10.035156 21.894531 10.347656 21.605469 10.515625 Z M 15.871094 20.886719 L 17.289062 21.746094 L 15.871094 26.050781 L 14.453125 21.746094 Z M 17.78125 19.894531 L 17.78125 20.246094 L 17.597656 20.804688 L 16.863281 20.363281 Z M 13.957031 20.246094 L 13.957031 19.894531 L 14.878906 20.363281 L 14.144531 20.804688 Z M 15.871094 18.386719 C 16.707031 18.386719 17.515625 18.136719 18.207031 17.683594 C 18.226562 17.671875 18.246094 17.664062 18.261719 17.652344 L 18.261719 18.390625 C 18.175781 18.390625 18.089844 18.410156 18.015625 18.457031 L 15.871094 19.757812 L 13.726562 18.457031 C 13.652344 18.410156 13.566406 18.390625 13.480469 18.390625 L 13.480469 17.652344 C 13.496094 17.664062 13.515625 17.671875 13.53125 17.679688 C 14.222656 18.136719 15.035156 18.386719 15.871094 18.386719 Z M 23.855469 19.304688 C 23.84375 19.300781 23.832031 19.296875 23.820312 19.296875 L 19.21875 18.464844 L 19.21875 16.785156 C 20.585938 15.34375 21.40625 13.519531 21.570312 11.554688 C 22.410156 11.351562 23.042969 10.589844 23.042969 9.675781 C 23.042969 9.238281 22.890625 8.828125 22.625 8.488281 L 22.6875 7.273438 C 22.835938 4.421875 21.199219 1.730469 18.613281 0.582031 C 17.746094 0.195312 16.824219 0 15.871094 0 L 9.179688 0 C 8.914062 0 8.699219 0.21875 8.699219 0.484375 C 8.699219 1.417969 8.964844 2.308594 9.449219 3.074219 C 8.425781 4.65625 8.191406 6.617188 8.851562 8.394531 L 8.964844 8.707031 C 8.796875 9 8.699219 9.328125 8.699219 9.675781 C 8.699219 10.589844 9.328125 11.351562 10.171875 11.554688 C 10.335938 13.519531 11.15625 15.34375 12.523438 16.785156 L 12.523438 18.464844 L 7.886719 19.304688 C 7.363281 19.4375 6.894531 19.695312 6.503906 20.039062 C 5.792969 20.667969 5.355469 21.582031 5.355469 22.589844 L 5.355469 28.546875 C 5.355469 28.816406 5.570312 29.03125 5.832031 29.03125 L 25.910156 29.03125 C 26.171875 29.03125 26.386719 28.816406 26.386719 28.546875 L 26.386719 22.589844 C 26.386719 21.035156 25.34375 19.679688 23.855469 19.304688 " fill-opacity="1" fill-rule="nonzero"/></g></svg>