<svg xmlns="http://www.w3.org/2000/svg" xmlns:xlink="http://www.w3.org/1999/xlink" width="40" zoomAndPan="magnify" viewBox="0 0 30 30.000001" height="40" preserveAspectRatio="xMidYMid meet" version="1.0"><defs><clipPath id="5f69f20057"><path d="M 0.484375 0 L 29.515625 0 L 29.515625 29.03125 L 0.484375 29.03125 Z M 0.484375 0 " clip-rule="nonzero"/></clipPath><clipPath id="fafba3cfd3"><path d="M 11 2.902344 L 23 2.902344 L 23 20 L 11 20 Z M 11 2.902344 " clip-rule="nonzero"/></clipPath><clipPath id="f165dd1c9f"><path d="M 3.386719 5 L 26.613281 5 L 26.613281 26.128906 L 3.386719 26.128906 Z M 3.386719 5 " clip-rule="nonzero"/></clipPath></defs><g clip-path="url(#5f69f20057)"><path fill="#ffffff" d="M 0.484375 0 L 29.515625 0 L 29.515625 29.03125 L 0.484375 29.03125 Z M 0.484375 0 " fill-opacity="1" fill-rule="nonzero"/></g><g clip-path="url(#fafba3cfd3)"><path fill="#f3ab5f" d="M 15.554688 7.355469 C 15.554688 7.363281 15.539062 7.363281 15.53125 7.355469 C 15.300781 6.675781 15.425781 5.816406 15.492188 5.113281 C 15.519531 4.753906 15.566406 4.398438 15.625 4.03125 C 15.675781 3.6875 15.703125 3.296875 15.882812 2.992188 C 15.933594 2.902344 16.050781 2.949219 16.058594 3.042969 C 16.085938 3.371094 15.980469 3.71875 15.929688 4.042969 C 15.851562 4.441406 15.800781 4.851562 15.757812 5.25 C 15.722656 5.621094 15.695312 5.992188 15.664062 6.367188 C 15.640625 6.699219 15.652344 7.042969 15.554688 7.355469 Z M 17.316406 9.042969 C 17.882812 8.042969 18.414062 7.03125 19.003906 6.046875 C 19.304688 5.558594 19.613281 5.074219 19.945312 4.601562 C 20.269531 4.136719 20.636719 3.667969 20.871094 3.152344 C 20.894531 3.101562 20.832031 3.050781 20.789062 3.089844 C 20.347656 3.464844 20.015625 3.976562 19.691406 4.457031 C 19.378906 4.933594 19.070312 5.421875 18.773438 5.917969 C 18.1875 6.914062 17.648438 7.929688 17.253906 9.019531 C 17.25 9.050781 17.300781 9.070312 17.316406 9.042969 Z M 19.824219 8.5 C 20.527344 7.84375 21.308594 7.316406 22.066406 6.726562 C 22.109375 6.691406 22.050781 6.636719 22.003906 6.652344 C 21.132812 7.046875 20.394531 7.742188 19.792969 8.472656 C 19.777344 8.488281 19.800781 8.519531 19.824219 8.5 Z M 14.4375 14.984375 C 14.195312 15.804688 13.917969 16.625 13.632812 17.433594 C 13.5 17.816406 13.351562 18.195312 13.214844 18.582031 C 13.074219 18.957031 12.847656 19.351562 12.8125 19.757812 C 12.800781 19.847656 12.929688 19.890625 12.980469 19.832031 C 13.226562 19.550781 13.339844 19.152344 13.472656 18.800781 C 13.625 18.402344 13.765625 17.992188 13.898438 17.585938 C 14.171875 16.738281 14.363281 15.894531 14.523438 15.011719 C 14.527344 14.957031 14.453125 14.933594 14.4375 14.984375 Z M 15.191406 16.351562 C 15.167969 16.765625 15.28125 17.195312 15.371094 17.59375 C 15.460938 18.003906 15.539062 18.429688 15.734375 18.800781 C 15.789062 18.890625 15.957031 18.851562 15.941406 18.738281 C 15.898438 18.34375 15.757812 17.96875 15.65625 17.585938 C 15.554688 17.171875 15.496094 16.726562 15.34375 16.328125 C 15.320312 16.25 15.203125 16.265625 15.191406 16.351562 Z M 12.261719 16.191406 C 11.792969 16.433594 11.25 16.753906 11.015625 17.25 C 10.976562 17.328125 11.058594 17.433594 11.144531 17.382812 C 11.601562 17.113281 11.949219 16.691406 12.375 16.378906 C 12.480469 16.300781 12.394531 16.125 12.261719 16.191406 Z M 12 4.863281 C 12.144531 5.183594 12.324219 5.542969 12.566406 5.796875 C 12.605469 5.832031 12.667969 5.78125 12.640625 5.734375 C 12.449219 5.429688 12.222656 5.15625 12.046875 4.835938 C 12.027344 4.804688 11.984375 4.835938 12 4.863281 Z M 12 4.863281 " fill-opacity="1" fill-rule="nonzero"/></g><g clip-path="url(#f165dd1c9f)"><path fill="#caf2f4" d="M 15.992188 8.628906 C 15.539062 10.089844 15.050781 11.484375 14.515625 12.832031 C 14 14.117188 12.929688 15.191406 11.601562 15.625 C 10.730469 15.90625 9.839844 15.871094 8.984375 15.613281 C 7.828125 18.726562 7.984375 18.574219 6.90625 21.636719 C 6.9375 21.660156 6.960938 21.679688 6.988281 21.703125 C 7.4375 22.085938 7.714844 22.6875 7.742188 23.277344 C 6.242188 22.851562 4.789062 22.28125 3.386719 21.609375 C 3.851562 21.136719 4.515625 20.863281 5.1875 20.917969 C 5.277344 20.925781 5.355469 20.933594 5.445312 20.945312 C 6.613281 17.871094 6.445312 18.085938 7.605469 15.011719 C 7.128906 14.734375 6.695312 14.394531 6.378906 13.949219 C 5.636719 12.917969 5.652344 11.539062 5.863281 10.289062 C 6.132812 8.648438 6.6875 7.058594 7.484375 5.597656 C 9.660156 6.214844 14.65625 8.011719 15.992188 8.628906 Z M 15.253906 11.257812 C 15.589844 12.753906 15.957031 14.175781 16.382812 15.5625 C 16.785156 16.886719 17.769531 18.039062 19.054688 18.578125 C 19.898438 18.925781 20.789062 18.972656 21.660156 18.78125 C 22.558594 21.980469 22.28125 21.417969 23.101562 24.558594 C 23.074219 24.582031 23.039062 24.59375 23.023438 24.617188 C 22.542969 24.964844 22.21875 25.539062 22.140625 26.128906 C 23.667969 25.816406 25.167969 25.382812 26.613281 24.8125 C 26.1875 24.300781 25.546875 23.976562 24.878906 23.976562 C 24.789062 23.976562 24.710938 23.988281 24.621094 23.992188 C 23.710938 20.839844 23.996094 21.441406 23.082031 18.289062 C 23.574219 18.046875 24.039062 17.742188 24.390625 17.328125 C 25.214844 16.367188 25.308594 14.984375 25.207031 13.71875 C 25.066406 12.0625 24.714844 10.246094 24.039062 8.722656 C 21.820312 9.179688 16.636719 10.746094 15.253906 11.257812 Z M 15.253906 11.257812 " fill-opacity="1" fill-rule="nonzero"/></g><path fill="#f19169" d="M 24.578125 15.101562 C 24.550781 16.035156 23.992188 16.921875 23.214844 17.457031 C 22.4375 17.992188 21.449219 18.195312 20.503906 18.136719 C 20.074219 18.109375 19.636719 18.035156 19.246094 17.859375 C 18.117188 17.359375 17.484375 16.167969 16.964844 15.050781 C 17.648438 14.703125 18.402344 14.84375 19.140625 15.039062 C 19.875 15.234375 20.640625 15.503906 21.394531 15.386719 C 21.953125 15.300781 22.460938 15.011719 23 14.820312 C 23.53125 14.636719 24.101562 14.804688 24.578125 15.101562 Z M 11.964844 12.398438 C 10.277344 12.988281 8.261719 12.035156 6.550781 12.542969 C 6.75 13.222656 7.234375 13.808594 7.84375 14.191406 C 8.449219 14.578125 9.167969 14.769531 9.878906 14.820312 C 10.851562 14.886719 11.878906 14.683594 12.636719 14.074219 C 13.289062 13.550781 13.703125 12.753906 13.753906 11.925781 C 12.988281 11.976562 12.679688 12.152344 11.964844 12.398438 Z M 11.964844 12.398438 " fill-opacity="1" fill-rule="nonzero"/></svg>