<svg xmlns="http://www.w3.org/2000/svg" xmlns:xlink="http://www.w3.org/1999/xlink" width="100" zoomAndPan="magnify" viewBox="0 0 75 30.000001" height="40" preserveAspectRatio="xMidYMid meet" version="1.0"><defs><clipPath id="id1"><path d="M 14 18 L 61 18 L 61 23.226562 L 14 23.226562 Z M 14 18 " clip-rule="nonzero"/></clipPath><clipPath id="id2"><path d="M 1.210938 2.902344 L 73.789062 2.902344 L 73.789062 6 L 1.210938 6 Z M 1.210938 2.902344 " clip-rule="nonzero"/></clipPath></defs><g clip-path="url(#id1)"><path fill="#d7ae54" d="M 37.25 22.816406 L 35.398438 20.980469 L 37.238281 19.136719 L 39.089844 20.972656 Z M 37.238281 18.734375 L 35.160156 20.820312 L 14.652344 20.820312 L 14.652344 21.191406 L 35.203125 21.191406 L 37.25 23.222656 L 39.277344 21.191406 L 60.355469 21.191406 L 60.355469 20.820312 L 39.339844 20.820312 L 37.238281 18.734375 " fill-opacity="1" fill-rule="nonzero"/></g><g clip-path="url(#id2)"><path fill="#d7ae54" d="M 73.777344 4.078125 L 42.183594 4.078125 C 41.679688 3.480469 40.847656 2.933594 40.078125 2.917969 C 39.183594 2.898438 38.28125 3.347656 37.824219 4.078125 C 37.765625 4.175781 37.710938 4.28125 37.664062 4.390625 C 37.628906 4.480469 37.601562 4.570312 37.578125 4.667969 C 37.554688 4.570312 37.527344 4.480469 37.492188 4.390625 C 37.449219 4.28125 37.394531 4.179688 37.332031 4.078125 C 36.875 3.347656 35.972656 2.898438 35.074219 2.917969 C 34.304688 2.9375 33.46875 3.480469 32.964844 4.078125 C 32.964844 4.078125 4.316406 4.078125 1.230469 4.078125 L 1.230469 4.390625 C 3.8125 4.390625 32.109375 4.390625 32.945312 4.390625 L 32.957031 4.402344 C 32.957031 4.402344 32.957031 4.394531 32.960938 4.390625 C 32.96875 4.363281 32.996094 4.28125 33.035156 4.21875 C 33.058594 4.183594 33.082031 4.152344 33.105469 4.117188 C 33.117188 4.105469 33.125 4.089844 33.132812 4.078125 C 33.796875 3.207031 35.105469 3.046875 36.15625 3.488281 C 36.476562 3.625 36.757812 3.828125 36.980469 4.078125 C 37.070312 4.175781 37.148438 4.277344 37.21875 4.390625 C 37.296875 4.515625 37.363281 4.652344 37.417969 4.796875 C 37.476562 4.949219 37.511719 5.097656 37.53125 5.238281 C 37.535156 5.292969 37.5625 5.554688 37.578125 5.636719 C 37.59375 5.554688 37.621094 5.292969 37.628906 5.242188 C 37.644531 5.101562 37.683594 4.953125 37.738281 4.796875 C 37.792969 4.652344 37.859375 4.515625 37.941406 4.390625 C 38.007812 4.277344 38.089844 4.175781 38.175781 4.078125 C 38.398438 3.828125 38.679688 3.625 39 3.488281 C 40.050781 3.046875 41.359375 3.203125 42.023438 4.078125 C 42.03125 4.089844 42.039062 4.097656 42.046875 4.109375 C 42.046875 4.109375 42.046875 4.113281 42.050781 4.113281 C 42.074219 4.144531 42.097656 4.179688 42.121094 4.214844 C 42.164062 4.28125 42.191406 4.367188 42.199219 4.390625 C 42.199219 4.390625 42.199219 4.398438 42.199219 4.398438 C 42.199219 4.398438 42.203125 4.394531 42.210938 4.390625 C 42.339844 4.390625 70.210938 4.390625 73.777344 4.386719 L 73.777344 4.078125 " fill-opacity="1" fill-rule="nonzero"/></g></svg>