<svg xmlns="http://www.w3.org/2000/svg" xmlns:xlink="http://www.w3.org/1999/xlink" width="100" zoomAndPan="magnify" viewBox="0 0 75 30.000001" height="40" preserveAspectRatio="xMidYMid meet" version="1.0"><defs><clipPath id="id1"><path d="M 1.210938 0 L 73.789062 0 L 73.789062 29.03125 L 1.210938 29.03125 Z M 1.210938 0 " clip-rule="nonzero"/></clipPath><clipPath id="id2"><path d="M 1.210938 13.175781 L 73.789062 13.175781 L 73.789062 16.039062 L 1.210938 16.039062 Z M 1.210938 13.175781 " clip-rule="nonzero"/></clipPath></defs><g clip-path="url(#id1)"><path fill="#ffffff" d="M 1.210938 0 L 73.789062 0 L 73.789062 36.289062 L 1.210938 36.289062 Z M 1.210938 0 " fill-opacity="1" fill-rule="nonzero"/><path fill="#ffffff" d="M 1.210938 0 L 73.789062 0 L 73.789062 29.03125 L 1.210938 29.03125 Z M 1.210938 0 " fill-opacity="1" fill-rule="nonzero"/><path fill="#ffffff" d="M 1.210938 0 L 73.789062 0 L 73.789062 29.03125 L 1.210938 29.03125 Z M 1.210938 0 " fill-opacity="1" fill-rule="nonzero"/></g><g clip-path="url(#id2)"><path fill="#d7ae54" d="M 40.457031 14.609375 C 40.457031 14.542969 40.503906 14.492188 40.566406 14.492188 L 71.089844 14.492188 L 71.714844 13.824219 L 72.339844 14.492188 L 72.894531 14.492188 C 72.945312 14.28125 73.121094 14.121094 73.335938 14.121094 C 73.585938 14.121094 73.789062 14.339844 73.789062 14.609375 C 73.789062 14.875 73.585938 15.09375 73.335938 15.09375 C 73.121094 15.09375 72.945312 14.9375 72.894531 14.726562 L 72.339844 14.726562 L 71.714844 15.390625 L 71.089844 14.726562 L 40.566406 14.726562 C 40.503906 14.726562 40.457031 14.671875 40.457031 14.609375 Z M 34.542969 14.609375 C 34.542969 14.671875 34.496094 14.726562 34.433594 14.726562 L 3.910156 14.726562 L 3.285156 15.390625 L 2.660156 14.726562 L 2.105469 14.726562 C 2.054688 14.9375 1.878906 15.09375 1.664062 15.09375 C 1.414062 15.09375 1.210938 14.875 1.210938 14.609375 C 1.210938 14.339844 1.414062 14.121094 1.664062 14.121094 C 1.878906 14.121094 2.054688 14.28125 2.105469 14.492188 L 2.660156 14.492188 L 3.285156 13.824219 L 3.910156 14.492188 L 34.433594 14.492188 C 34.496094 14.492188 34.542969 14.542969 34.542969 14.609375 Z M 39.023438 14.121094 C 39.023438 14.226562 39.964844 14.609375 40.0625 14.609375 C 39.964844 14.609375 39.023438 14.992188 39.023438 15.09375 C 39.023438 14.992188 38.664062 14.609375 38.566406 14.609375 C 38.664062 14.609375 39.023438 14.226562 39.023438 14.121094 Z M 35.976562 15.09375 C 35.976562 14.992188 35.035156 14.609375 34.9375 14.609375 C 35.035156 14.609375 35.976562 14.226562 35.976562 14.121094 C 35.976562 14.226562 36.335938 14.609375 36.433594 14.609375 C 36.335938 14.609375 35.976562 14.992188 35.976562 15.09375 Z M 36.753906 14.609375 L 37.5 13.722656 L 38.246094 14.609375 L 37.5 15.492188 Z M 37.5 13.175781 L 36.539062 14.609375 L 37.5 16.039062 L 38.460938 14.609375 L 37.5 13.175781 " fill-opacity="1" fill-rule="nonzero"/></g></svg>