<svg xmlns="http://www.w3.org/2000/svg" xmlns:xlink="http://www.w3.org/1999/xlink" width="100" zoomAndPan="magnify" viewBox="0 0 75 30.000001" height="40" preserveAspectRatio="xMidYMid meet" version="1.0"><defs><clipPath id="id1"><path d="M 1.210938 0 L 73.789062 0 L 73.789062 29.03125 L 1.210938 29.03125 Z M 1.210938 0 " clip-rule="nonzero"/></clipPath><clipPath id="id2"><path d="M 21 11.257812 L 38 11.257812 L 38 17.789062 L 21 17.789062 Z M 21 11.257812 " clip-rule="nonzero"/></clipPath><clipPath id="id3"><path d="M 26 12 L 39 12 L 39 17.789062 L 26 17.789062 Z M 26 12 " clip-rule="nonzero"/></clipPath><clipPath id="id4"><path d="M 35 11.257812 L 52 11.257812 L 52 17.789062 L 35 17.789062 Z M 35 11.257812 " clip-rule="nonzero"/></clipPath><clipPath id="id5"><path d="M 33 12 L 47 12 L 47 17.789062 L 33 17.789062 Z M 33 12 " clip-rule="nonzero"/></clipPath><clipPath id="id6"><path d="M 10.707031 14 L 20 14 L 20 15 L 10.707031 15 Z M 10.707031 14 " clip-rule="nonzero"/></clipPath><clipPath id="id7"><path d="M 53 14 L 62.242188 14 L 62.242188 15 L 53 15 Z M 53 14 " clip-rule="nonzero"/></clipPath></defs><g clip-path="url(#id1)"><path fill="#ffffff" d="M 1.210938 0 L 73.789062 0 L 73.789062 36.289062 L 1.210938 36.289062 Z M 1.210938 0 " fill-opacity="1" fill-rule="nonzero"/><path fill="#ffffff" d="M 1.210938 0 L 73.789062 0 L 73.789062 29.03125 L 1.210938 29.03125 Z M 1.210938 0 " fill-opacity="1" fill-rule="nonzero"/><path fill="#ffffff" d="M 1.210938 0 L 73.789062 0 L 73.789062 29.03125 L 1.210938 29.03125 Z M 1.210938 0 " fill-opacity="1" fill-rule="nonzero"/></g><g clip-path="url(#id2)"><path fill="#d7ae54" d="M 35.089844 12.285156 C 35.960938 11.839844 36.78125 12.605469 36.8125 13.804688 C 36.855469 15.617188 35.144531 17.089844 33.472656 17.09375 C 31.644531 17.101562 29.800781 15.628906 28.363281 14.605469 C 26.773438 13.476562 25.183594 12.285156 23.082031 12.886719 C 22.253906 13.125 21.589844 13.671875 21.210938 14.472656 C 20.679688 15.609375 21.496094 16.925781 22.71875 16.933594 C 23.027344 16.933594 23.34375 16.84375 23.636719 16.636719 C 23.941406 16.421875 24.285156 16.058594 24.269531 15.671875 C 24.257812 15.472656 24.175781 15.21875 23.882812 15.078125 C 23.539062 14.910156 23.125 15.058594 22.960938 15.40625 C 22.792969 15.753906 22.941406 16.167969 23.285156 16.335938 C 23.300781 16.339844 23.3125 16.347656 23.324219 16.351562 C 22.230469 16.582031 21.363281 15.464844 21.710938 14.539062 C 21.964844 13.867188 22.542969 13.414062 23.277344 13.214844 C 25.238281 12.683594 26.601562 13.855469 28.125 14.9375 C 29.714844 16.070312 31.453125 17.351562 33.488281 17.386719 C 35.328125 17.417969 37.238281 15.984375 37.195312 13.789062 C 37.164062 12.210938 35.957031 11.253906 34.601562 11.765625 C 33.582031 12.148438 33.050781 13.699219 34.410156 14.257812 C 34.046875 13.765625 34.183594 12.746094 35.089844 12.285156 " fill-opacity="1" fill-rule="nonzero"/></g><g clip-path="url(#id3)"><path fill="#d7ae54" d="M 38.964844 16.425781 C 38.347656 17.402344 36.960938 17.789062 35.699219 17.519531 C 33.753906 17.105469 32.425781 15.5 30.921875 14.511719 C 29.882812 13.832031 28.71875 12.929688 26.59375 13.039062 C 28.492188 12.515625 29.859375 13.394531 31.046875 14.148438 C 32.542969 15.09375 33.847656 16.769531 35.753906 17.167969 C 36.882812 17.402344 38.179688 17.179688 38.964844 16.425781 " fill-opacity="1" fill-rule="nonzero"/></g><g clip-path="url(#id4)"><path fill="#d7ae54" d="M 37.859375 12.285156 C 36.988281 11.839844 36.167969 12.605469 36.136719 13.804688 C 36.09375 15.617188 37.804688 17.089844 39.476562 17.09375 C 41.304688 17.101562 43.148438 15.628906 44.585938 14.605469 C 46.171875 13.476562 47.765625 12.285156 49.867188 12.886719 C 50.695312 13.125 51.359375 13.671875 51.734375 14.472656 C 52.269531 15.609375 51.453125 16.925781 50.230469 16.933594 C 49.921875 16.933594 49.605469 16.84375 49.308594 16.636719 C 49.007812 16.421875 48.664062 16.058594 48.679688 15.671875 C 48.6875 15.472656 48.773438 15.21875 49.066406 15.078125 C 49.410156 14.910156 49.824219 15.058594 49.988281 15.40625 C 50.152344 15.753906 50.007812 16.167969 49.660156 16.335938 C 49.648438 16.339844 49.636719 16.347656 49.625 16.351562 C 50.71875 16.582031 51.585938 15.464844 51.238281 14.539062 C 50.984375 13.867188 50.40625 13.414062 49.671875 13.214844 C 47.710938 12.683594 46.347656 13.855469 44.820312 14.9375 C 43.234375 16.070312 41.496094 17.351562 39.460938 17.386719 C 37.621094 17.417969 35.710938 15.984375 35.753906 13.789062 C 35.785156 12.210938 36.992188 11.253906 38.347656 11.765625 C 39.367188 12.148438 39.898438 13.699219 38.539062 14.257812 C 38.902344 13.765625 38.765625 12.746094 37.859375 12.285156 " fill-opacity="1" fill-rule="nonzero"/></g><g clip-path="url(#id5)"><path fill="#d7ae54" d="M 33.984375 16.425781 C 34.597656 17.402344 35.988281 17.789062 37.25 17.519531 C 39.195312 17.105469 40.519531 15.5 42.027344 14.511719 C 43.066406 13.832031 44.230469 12.929688 46.355469 13.039062 C 44.457031 12.515625 43.085938 13.394531 41.902344 14.148438 C 40.40625 15.09375 39.101562 16.769531 37.195312 17.167969 C 36.066406 17.402344 34.769531 17.179688 33.984375 16.425781 " fill-opacity="1" fill-rule="nonzero"/></g><g clip-path="url(#id6)"><path fill="#d7ae54" d="M 19.792969 14.613281 L 19.792969 14.414062 L 10.785156 14.613281 L 19.792969 14.8125 L 19.792969 14.613281 " fill-opacity="1" fill-rule="evenodd"/></g><g clip-path="url(#id7)"><path fill="#d7ae54" d="M 53.152344 14.613281 L 53.152344 14.414062 L 62.164062 14.613281 L 53.152344 14.8125 L 53.152344 14.613281 " fill-opacity="1" fill-rule="evenodd"/></g></svg>