<svg xmlns="http://www.w3.org/2000/svg" xmlns:xlink="http://www.w3.org/1999/xlink" width="100" zoomAndPan="magnify" viewBox="0 0 75 30.000001" height="40" preserveAspectRatio="xMidYMid meet" version="1.0"><defs><clipPath id="id1"><path d="M 14 2.960938 L 61 2.960938 L 61 8 L 14 8 Z M 14 2.960938 " clip-rule="nonzero"/></clipPath><clipPath id="id2"><path d="M 1.210938 20 L 73.789062 20 L 73.789062 23.28125 L 1.210938 23.28125 Z M 1.210938 20 " clip-rule="nonzero"/></clipPath></defs><g clip-path="url(#id1)"><path fill="#d7ae54" d="M 37.75 3.367188 L 39.601562 5.203125 L 37.761719 7.050781 L 35.910156 5.214844 Z M 37.761719 7.453125 L 39.839844 5.367188 L 60.347656 5.367188 L 60.347656 4.996094 L 39.796875 4.996094 L 37.75 2.964844 L 35.722656 4.996094 L 14.644531 4.996094 L 14.644531 5.367188 L 35.660156 5.367188 L 37.761719 7.453125 " fill-opacity="1" fill-rule="nonzero"/></g><g clip-path="url(#id2)"><path fill="#d7ae54" d="M 1.222656 22.109375 L 32.816406 22.105469 C 33.320312 22.707031 34.152344 23.25 34.921875 23.269531 C 35.816406 23.285156 36.71875 22.835938 37.175781 22.105469 C 37.234375 22.007812 37.289062 21.90625 37.335938 21.796875 C 37.371094 21.707031 37.398438 21.613281 37.421875 21.519531 C 37.445312 21.613281 37.472656 21.707031 37.507812 21.796875 C 37.550781 21.90625 37.605469 22.007812 37.667969 22.105469 C 38.125 22.835938 39.027344 23.285156 39.925781 23.265625 C 40.695312 23.25 41.53125 22.707031 42.035156 22.105469 C 42.035156 22.105469 70.683594 22.105469 73.769531 22.105469 L 73.769531 21.796875 C 71.1875 21.796875 42.890625 21.796875 42.054688 21.796875 L 42.042969 21.785156 C 42.042969 21.785156 42.042969 21.789062 42.039062 21.796875 C 42.03125 21.824219 42.003906 21.902344 41.964844 21.96875 C 41.941406 22.003906 41.917969 22.035156 41.894531 22.066406 C 41.894531 22.066406 41.894531 22.066406 41.894531 22.070312 C 41.882812 22.082031 41.875 22.09375 41.867188 22.105469 C 41.203125 22.980469 39.894531 23.136719 38.84375 22.695312 C 38.523438 22.5625 38.242188 22.359375 38.019531 22.105469 C 37.929688 22.011719 37.851562 21.90625 37.78125 21.796875 C 37.703125 21.667969 37.636719 21.53125 37.582031 21.386719 C 37.523438 21.234375 37.488281 21.089844 37.46875 20.949219 C 37.464844 20.894531 37.4375 20.628906 37.421875 20.550781 C 37.40625 20.632812 37.378906 20.890625 37.371094 20.941406 C 37.355469 21.085938 37.316406 21.234375 37.261719 21.386719 C 37.207031 21.53125 37.140625 21.667969 37.058594 21.796875 C 36.992188 21.90625 36.910156 22.011719 36.824219 22.105469 C 36.601562 22.359375 36.320312 22.5625 36 22.695312 C 34.949219 23.140625 33.640625 22.984375 32.976562 22.105469 C 32.96875 22.097656 32.960938 22.085938 32.953125 22.074219 C 32.953125 22.074219 32.953125 22.074219 32.949219 22.074219 C 32.925781 22.039062 32.902344 22.007812 32.878906 21.972656 C 32.835938 21.902344 32.808594 21.816406 32.800781 21.796875 C 32.800781 21.792969 32.800781 21.789062 32.800781 21.789062 C 32.800781 21.789062 32.796875 21.792969 32.789062 21.796875 C 32.660156 21.796875 4.789062 21.796875 1.222656 21.796875 L 1.222656 22.109375 " fill-opacity="1" fill-rule="nonzero"/></g></svg>