<svg xmlns="http://www.w3.org/2000/svg" xmlns:xlink="http://www.w3.org/1999/xlink" width="40" zoomAndPan="magnify" viewBox="0 0 30 30.000001" height="40" preserveAspectRatio="xMidYMid meet" version="1.0"><defs><clipPath id="id1"><path d="M 8 28 L 9 28 L 9 28.796875 L 8 28.796875 Z M 8 28 " clip-rule="nonzero"/></clipPath><clipPath id="id2"><path d="M 14 0.488281 L 16 0.488281 L 16 7 L 14 7 Z M 14 0.488281 " clip-rule="nonzero"/></clipPath><clipPath id="id3"><path d="M 0.484375 10 L 2 10 L 2 12 L 0.484375 12 Z M 0.484375 10 " clip-rule="nonzero"/></clipPath><clipPath id="id4"><path d="M 0.484375 11 L 2 11 L 2 14 L 0.484375 14 Z M 0.484375 11 " clip-rule="nonzero"/></clipPath><clipPath id="id5"><path d="M 22 26 L 25 26 L 25 28.796875 L 22 28.796875 Z M 22 26 " clip-rule="nonzero"/></clipPath><clipPath id="id6"><path d="M 28 20 L 29.515625 20 L 29.515625 23 L 28 23 Z M 28 20 " clip-rule="nonzero"/></clipPath><clipPath id="id7"><path d="M 28 21 L 29.515625 21 L 29.515625 22 L 28 22 Z M 28 21 " clip-rule="nonzero"/></clipPath></defs><path fill="#d7ae54" d="M 3.496094 4.140625 C 3.371094 4.140625 3.265625 4.039062 3.265625 3.914062 C 3.265625 3.789062 3.367188 3.6875 3.492188 3.6875 L 3.496094 3.6875 C 3.621094 3.6875 3.722656 3.789062 3.722656 3.914062 C 3.722656 4.039062 3.621094 4.140625 3.496094 4.140625 Z M 3.496094 4.140625 " fill-opacity="1" fill-rule="nonzero"/><path fill="#d7ae54" d="M 24.757812 23.773438 C 24.632812 23.773438 24.527344 23.671875 24.527344 23.546875 C 24.527344 23.417969 24.625 23.316406 24.75 23.316406 L 24.757812 23.316406 C 24.878906 23.316406 24.980469 23.417969 24.980469 23.546875 C 24.980469 23.671875 24.878906 23.773438 24.757812 23.773438 Z M 24.757812 23.773438 " fill-opacity="1" fill-rule="nonzero"/><g clip-path="url(#id1)"><path fill="#d7ae54" d="M 8.472656 28.796875 C 8.347656 28.796875 8.242188 28.695312 8.242188 28.566406 C 8.242188 28.441406 8.34375 28.339844 8.464844 28.339844 L 8.472656 28.339844 C 8.597656 28.339844 8.699219 28.441406 8.699219 28.566406 C 8.699219 28.695312 8.597656 28.796875 8.472656 28.796875 Z M 8.472656 28.796875 " fill-opacity="1" fill-rule="nonzero"/></g><path fill="#d7ae54" d="M 3.496094 21.949219 C 3.371094 21.949219 3.265625 21.847656 3.265625 21.71875 C 3.265625 21.59375 3.367188 21.492188 3.492188 21.492188 L 3.496094 21.492188 C 3.621094 21.492188 3.722656 21.59375 3.722656 21.71875 C 3.722656 21.847656 3.621094 21.949219 3.496094 21.949219 Z M 3.496094 21.949219 " fill-opacity="1" fill-rule="nonzero"/><path fill="#d7ae54" d="M 28.375 7.359375 C 28.25 7.359375 28.148438 7.257812 28.148438 7.132812 C 28.148438 7.003906 28.246094 6.902344 28.371094 6.902344 L 28.375 6.902344 C 28.5 6.902344 28.601562 7.003906 28.601562 7.132812 C 28.601562 7.257812 28.5 7.359375 28.375 7.359375 Z M 28.375 7.359375 " fill-opacity="1" fill-rule="nonzero"/><path fill="#d7ae54" d="M 15.015625 26.96875 C 9.53125 26.96875 5.066406 22.464844 5.066406 16.925781 C 5.066406 11.386719 9.53125 6.882812 15.015625 6.882812 C 17.746094 6.882812 20.296875 7.976562 22.1875 9.960938 C 22.273438 10.054688 22.273438 10.199219 22.183594 10.285156 C 22.09375 10.375 21.949219 10.371094 21.863281 10.277344 C 20.054688 8.382812 17.625 7.339844 15.015625 7.339844 C 9.777344 7.339844 5.519531 11.640625 5.519531 16.925781 C 5.519531 22.210938 9.777344 26.511719 15.015625 26.511719 C 20.253906 26.511719 24.515625 22.210938 24.515625 16.925781 C 24.515625 15.609375 24.257812 14.332031 23.742188 13.132812 C 23.695312 13.019531 23.746094 12.882812 23.863281 12.832031 C 23.976562 12.78125 24.109375 12.835938 24.160156 12.953125 C 24.695312 14.210938 24.96875 15.546875 24.96875 16.925781 C 24.96875 22.464844 20.503906 26.96875 15.015625 26.96875 Z M 15.015625 26.96875 " fill-opacity="1" fill-rule="nonzero"/><path fill="#d7ae54" d="M 17.320312 25.867188 C 17.304688 25.867188 17.292969 25.867188 17.277344 25.863281 C 17.152344 25.835938 17.074219 25.71875 17.097656 25.59375 C 17.109375 25.546875 18 21.011719 18 16.925781 C 18 12.839844 17.109375 8.304688 17.097656 8.257812 C 17.074219 8.132812 17.152344 8.015625 17.277344 7.988281 C 17.398438 7.964844 17.519531 8.042969 17.542969 8.167969 C 17.550781 8.214844 18.453125 12.792969 18.453125 16.925781 C 18.453125 21.058594 17.550781 25.636719 17.542969 25.683594 C 17.519531 25.792969 17.425781 25.867188 17.320312 25.867188 Z M 17.320312 25.867188 " fill-opacity="1" fill-rule="nonzero"/><path fill="#d7ae54" d="M 19.582031 24.953125 C 19.558594 24.953125 19.53125 24.949219 19.507812 24.941406 C 19.390625 24.898438 19.328125 24.769531 19.371094 24.648438 C 19.382812 24.609375 20.714844 20.765625 20.714844 16.925781 C 20.714844 13.085938 19.382812 9.242188 19.371094 9.203125 C 19.328125 9.082031 19.390625 8.953125 19.507812 8.910156 C 19.625 8.867188 19.753906 8.929688 19.796875 9.050781 C 19.808594 9.089844 21.167969 13.003906 21.167969 16.925781 C 21.167969 20.847656 19.808594 24.761719 19.796875 24.800781 C 19.761719 24.894531 19.675781 24.953125 19.582031 24.953125 Z M 19.582031 24.953125 " fill-opacity="1" fill-rule="nonzero"/><path fill="#d7ae54" d="M 21.84375 23.136719 C 21.8125 23.136719 21.78125 23.128906 21.75 23.117188 C 21.636719 23.0625 21.585938 22.925781 21.640625 22.8125 C 21.652344 22.785156 22.976562 19.851562 22.976562 16.925781 C 22.976562 16.03125 22.851562 15.050781 22.613281 14.011719 C 22.582031 13.886719 22.660156 13.765625 22.78125 13.738281 C 22.90625 13.707031 23.023438 13.785156 23.050781 13.90625 C 23.300781 14.980469 23.425781 15.996094 23.425781 16.925781 C 23.425781 19.953125 22.105469 22.878906 22.050781 23.003906 C 22.011719 23.085938 21.929688 23.136719 21.84375 23.136719 Z M 21.84375 23.136719 " fill-opacity="1" fill-rule="nonzero"/><path fill="#d7ae54" d="M 11.957031 15.101562 C 11.953125 15.101562 11.949219 15.101562 11.945312 15.097656 C 11.820312 15.089844 11.722656 14.984375 11.730469 14.859375 C 11.9375 11.410156 12.570312 8.199219 12.574219 8.167969 C 12.601562 8.042969 12.722656 7.964844 12.84375 7.988281 C 12.964844 8.015625 13.042969 8.132812 13.019531 8.257812 C 13.011719 8.289062 12.386719 11.46875 12.183594 14.886719 C 12.175781 15.007812 12.078125 15.101562 11.957031 15.101562 Z M 11.957031 15.101562 " fill-opacity="1" fill-rule="nonzero"/><path fill="#d7ae54" d="M 12.796875 25.867188 C 12.691406 25.867188 12.597656 25.792969 12.574219 25.683594 C 12.570312 25.652344 11.9375 22.441406 11.730469 18.996094 C 11.722656 18.867188 11.820312 18.761719 11.945312 18.753906 C 12.082031 18.742188 12.175781 18.839844 12.183594 18.964844 C 12.386719 22.382812 13.011719 25.5625 13.019531 25.59375 C 13.042969 25.71875 12.964844 25.835938 12.84375 25.863281 C 12.828125 25.867188 12.8125 25.867188 12.796875 25.867188 Z M 12.796875 25.867188 " fill-opacity="1" fill-rule="nonzero"/><path fill="#d7ae54" d="M 10.535156 24.953125 C 10.441406 24.953125 10.355469 24.894531 10.324219 24.800781 C 10.308594 24.761719 8.953125 20.847656 8.953125 16.925781 C 8.953125 13.003906 10.308594 9.089844 10.324219 9.050781 C 10.363281 8.933594 10.492188 8.871094 10.613281 8.910156 C 10.730469 8.953125 10.789062 9.082031 10.75 9.203125 C 10.734375 9.242188 9.40625 13.085938 9.40625 16.925781 C 9.40625 20.765625 10.734375 24.609375 10.75 24.648438 C 10.789062 24.769531 10.730469 24.898438 10.613281 24.941406 C 10.585938 24.949219 10.5625 24.953125 10.535156 24.953125 Z M 10.535156 24.953125 " fill-opacity="1" fill-rule="nonzero"/><path fill="#d7ae54" d="M 8.273438 23.136719 C 8.1875 23.136719 8.105469 23.085938 8.070312 23.003906 C 8.011719 22.878906 6.691406 19.953125 6.691406 16.925781 C 6.691406 13.898438 8.011719 10.972656 8.070312 10.847656 C 8.121094 10.734375 8.257812 10.683594 8.367188 10.734375 C 8.480469 10.789062 8.53125 10.925781 8.480469 11.039062 C 8.464844 11.066406 7.144531 14 7.144531 16.925781 C 7.144531 19.851562 8.464844 22.785156 8.480469 22.8125 C 8.53125 22.925781 8.480469 23.0625 8.367188 23.117188 C 8.339844 23.128906 8.304688 23.136719 8.273438 23.136719 Z M 8.273438 23.136719 " fill-opacity="1" fill-rule="nonzero"/><path fill="#d7ae54" d="M 10.265625 17.152344 L 5.976562 17.152344 C 5.851562 17.152344 5.75 17.050781 5.75 16.925781 C 5.75 16.800781 5.851562 16.699219 5.976562 16.699219 L 10.265625 16.699219 C 10.390625 16.699219 10.492188 16.800781 10.492188 16.925781 C 10.492188 17.050781 10.390625 17.152344 10.265625 17.152344 Z M 10.265625 17.152344 " fill-opacity="1" fill-rule="nonzero"/><path fill="#d7ae54" d="M 24.144531 17.152344 L 13.433594 17.152344 C 13.308594 17.152344 13.207031 17.050781 13.207031 16.925781 C 13.207031 16.800781 13.308594 16.699219 13.433594 16.699219 L 24.144531 16.699219 C 24.269531 16.699219 24.371094 16.800781 24.371094 16.925781 C 24.371094 17.050781 24.269531 17.152344 24.144531 17.152344 Z M 24.144531 17.152344 " fill-opacity="1" fill-rule="nonzero"/><path fill="#d7ae54" d="M 15.023438 20.3125 C 10.929688 20.3125 6.390625 19.402344 6.34375 19.394531 C 6.222656 19.371094 6.144531 19.25 6.167969 19.125 C 6.191406 19 6.316406 18.921875 6.433594 18.945312 C 6.480469 18.957031 10.972656 19.855469 15.023438 19.855469 C 19.070312 19.855469 23.566406 18.957031 23.609375 18.945312 C 23.730469 18.921875 23.851562 19.003906 23.875 19.125 C 23.902344 19.25 23.820312 19.371094 23.699219 19.394531 C 23.652344 19.402344 19.117188 20.3125 15.023438 20.3125 Z M 15.023438 20.3125 " fill-opacity="1" fill-rule="nonzero"/><path fill="#d7ae54" d="M 15.023438 23.050781 C 11.136719 23.050781 7.257812 21.683594 7.21875 21.667969 C 7.101562 21.625 7.039062 21.496094 7.082031 21.378906 C 7.125 21.257812 7.253906 21.195312 7.371094 21.238281 C 7.40625 21.253906 11.21875 22.59375 15.023438 22.59375 C 18.828125 22.59375 22.636719 21.253906 22.671875 21.238281 C 22.792969 21.195312 22.921875 21.257812 22.960938 21.378906 C 23.003906 21.496094 22.941406 21.625 22.824219 21.667969 C 22.785156 21.683594 18.90625 23.050781 15.023438 23.050781 Z M 15.023438 23.050781 " fill-opacity="1" fill-rule="nonzero"/><path fill="#d7ae54" d="M 15.023438 25.335938 C 12.023438 25.335938 9.121094 24 9 23.945312 C 8.886719 23.890625 8.835938 23.753906 8.890625 23.640625 C 8.941406 23.527344 9.078125 23.476562 9.1875 23.527344 C 9.21875 23.542969 12.125 24.878906 15.023438 24.878906 C 17.917969 24.878906 20.824219 23.542969 20.855469 23.527344 C 20.96875 23.476562 21.101562 23.527344 21.15625 23.640625 C 21.207031 23.753906 21.15625 23.890625 21.042969 23.945312 C 20.921875 24 18.019531 25.335938 15.023438 25.335938 Z M 15.023438 25.335938 " fill-opacity="1" fill-rule="nonzero"/><path fill="#d7ae54" d="M 6.390625 14.832031 C 6.285156 14.832031 6.191406 14.757812 6.167969 14.648438 C 6.144531 14.527344 6.222656 14.40625 6.34375 14.382812 C 6.390625 14.371094 10.929688 13.464844 15.023438 13.464844 C 19.117188 13.464844 23.652344 14.371094 23.699219 14.382812 C 23.820312 14.40625 23.902344 14.527344 23.875 14.648438 C 23.851562 14.773438 23.730469 14.855469 23.609375 14.828125 C 23.566406 14.820312 19.070312 13.921875 15.023438 13.921875 C 10.972656 13.921875 6.480469 14.820312 6.433594 14.828125 C 6.417969 14.832031 6.40625 14.832031 6.390625 14.832031 Z M 6.390625 14.832031 " fill-opacity="1" fill-rule="nonzero"/><path fill="#d7ae54" d="M 7.292969 12.550781 C 7.203125 12.550781 7.113281 12.492188 7.082031 12.398438 C 7.039062 12.28125 7.101562 12.148438 7.21875 12.105469 C 7.257812 12.09375 11.136719 10.722656 15.023438 10.722656 C 17.371094 10.722656 19.691406 11.214844 21.226562 11.625 C 21.347656 11.65625 21.417969 11.78125 21.386719 11.902344 C 21.355469 12.027344 21.234375 12.101562 21.109375 12.066406 C 19.601562 11.664062 17.320312 11.179688 15.023438 11.179688 C 11.21875 11.179688 7.40625 12.523438 7.371094 12.539062 C 7.34375 12.546875 7.320312 12.550781 7.292969 12.550781 Z M 7.292969 12.550781 " fill-opacity="1" fill-rule="nonzero"/><path fill="#d7ae54" d="M 9.09375 10.269531 C 9.007812 10.269531 8.925781 10.21875 8.890625 10.136719 C 8.835938 10.019531 8.886719 9.886719 9 9.832031 C 9.121094 9.777344 12.023438 8.441406 15.023438 8.441406 C 18.019531 8.441406 20.921875 9.777344 21.042969 9.832031 C 21.15625 9.886719 21.207031 10.019531 21.15625 10.136719 C 21.101562 10.25 20.96875 10.300781 20.855469 10.246094 C 20.824219 10.234375 17.917969 8.898438 15.023438 8.898438 C 12.125 8.898438 9.21875 10.234375 9.1875 10.246094 C 9.160156 10.261719 9.125 10.269531 9.09375 10.269531 Z M 9.09375 10.269531 " fill-opacity="1" fill-rule="nonzero"/><path fill="#d7ae54" d="M 15.023438 26.285156 C 14.898438 26.285156 14.796875 26.183594 14.796875 26.058594 L 14.796875 7.71875 C 14.796875 7.59375 14.898438 7.492188 15.023438 7.492188 C 15.148438 7.492188 15.246094 7.59375 15.246094 7.71875 L 15.246094 26.058594 C 15.246094 26.183594 15.148438 26.285156 15.023438 26.285156 Z M 15.023438 26.285156 " fill-opacity="1" fill-rule="nonzero"/><g clip-path="url(#id2)"><path fill="#d7ae54" d="M 15.015625 6.425781 C 14.890625 6.425781 14.789062 6.324219 14.789062 6.195312 L 14.789062 0.71875 C 14.789062 0.59375 14.890625 0.488281 15.015625 0.488281 C 15.140625 0.488281 15.242188 0.59375 15.242188 0.71875 L 15.242188 6.195312 C 15.242188 6.324219 15.140625 6.425781 15.015625 6.425781 Z M 15.015625 6.425781 " fill-opacity="1" fill-rule="nonzero"/></g><path fill="#d7ae54" d="M 1.671875 13.273438 C 1.546875 13.273438 1.445312 13.171875 1.445312 13.046875 C 1.445312 11.984375 2.4375 11.492188 2.480469 11.46875 C 2.589844 11.414062 2.726562 11.460938 2.78125 11.574219 C 2.835938 11.6875 2.789062 11.824219 2.675781 11.878906 C 2.644531 11.898438 1.898438 12.273438 1.898438 13.046875 C 1.898438 13.171875 1.796875 13.273438 1.671875 13.273438 Z M 1.671875 13.273438 " fill-opacity="1" fill-rule="nonzero"/><path fill="#d7ae54" d="M 2.578125 11.902344 C 2.542969 11.902344 2.511719 11.898438 2.480469 11.882812 C 2.4375 11.859375 1.445312 11.367188 1.445312 10.304688 C 1.445312 10.179688 1.546875 10.078125 1.671875 10.078125 C 1.796875 10.078125 1.898438 10.179688 1.898438 10.304688 C 1.898438 11.082031 2.667969 11.464844 2.675781 11.46875 C 2.789062 11.523438 2.835938 11.660156 2.78125 11.773438 C 2.742188 11.855469 2.660156 11.902344 2.578125 11.902344 Z M 2.578125 11.902344 " fill-opacity="1" fill-rule="nonzero"/><g clip-path="url(#id3)"><path fill="#d7ae54" d="M 0.769531 11.902344 C 0.683594 11.902344 0.605469 11.855469 0.566406 11.777344 C 0.511719 11.664062 0.558594 11.527344 0.667969 11.46875 C 0.699219 11.453125 1.445312 11.078125 1.445312 10.304688 C 1.445312 10.179688 1.546875 10.078125 1.671875 10.078125 C 1.796875 10.078125 1.898438 10.179688 1.898438 10.304688 C 1.898438 11.367188 0.910156 11.859375 0.867188 11.882812 C 0.835938 11.898438 0.800781 11.902344 0.769531 11.902344 Z M 0.769531 11.902344 " fill-opacity="1" fill-rule="nonzero"/></g><g clip-path="url(#id4)"><path fill="#d7ae54" d="M 1.671875 13.273438 C 1.546875 13.273438 1.445312 13.171875 1.445312 13.046875 C 1.445312 12.269531 0.675781 11.886719 0.671875 11.882812 C 0.558594 11.828125 0.511719 11.691406 0.5625 11.578125 C 0.617188 11.460938 0.753906 11.414062 0.867188 11.46875 C 0.910156 11.492188 1.898438 11.984375 1.898438 13.046875 C 1.898438 13.171875 1.796875 13.273438 1.671875 13.273438 Z M 1.671875 13.273438 " fill-opacity="1" fill-rule="nonzero"/></g><path fill="#d7ae54" d="M 22.933594 13.273438 C 22.808594 13.273438 22.707031 13.171875 22.707031 13.046875 C 22.707031 11.984375 23.695312 11.492188 23.738281 11.46875 C 23.851562 11.414062 23.988281 11.460938 24.039062 11.574219 C 24.09375 11.6875 24.046875 11.824219 23.9375 11.878906 C 23.90625 11.898438 23.160156 12.273438 23.160156 13.046875 C 23.160156 13.171875 23.058594 13.273438 22.933594 13.273438 Z M 22.933594 13.273438 " fill-opacity="1" fill-rule="nonzero"/><path fill="#d7ae54" d="M 23.835938 11.902344 C 23.804688 11.902344 23.769531 11.898438 23.738281 11.882812 C 23.695312 11.859375 22.707031 11.367188 22.707031 10.304688 C 22.707031 10.179688 22.808594 10.078125 22.933594 10.078125 C 23.058594 10.078125 23.160156 10.179688 23.160156 10.304688 C 23.160156 11.082031 23.929688 11.464844 23.9375 11.46875 C 24.046875 11.523438 24.09375 11.660156 24.042969 11.773438 C 24.003906 11.855469 23.921875 11.902344 23.835938 11.902344 Z M 23.835938 11.902344 " fill-opacity="1" fill-rule="nonzero"/><path fill="#d7ae54" d="M 22.027344 11.902344 C 21.945312 11.902344 21.863281 11.855469 21.824219 11.777344 C 21.769531 11.664062 21.816406 11.527344 21.929688 11.46875 C 21.960938 11.453125 22.707031 11.078125 22.707031 10.304688 C 22.707031 10.179688 22.808594 10.078125 22.933594 10.078125 C 23.058594 10.078125 23.160156 10.179688 23.160156 10.304688 C 23.160156 11.367188 22.167969 11.859375 22.125 11.882812 C 22.09375 11.898438 22.0625 11.902344 22.027344 11.902344 Z M 22.027344 11.902344 " fill-opacity="1" fill-rule="nonzero"/><path fill="#d7ae54" d="M 22.933594 13.273438 C 22.808594 13.273438 22.707031 13.171875 22.707031 13.046875 C 22.707031 12.269531 21.9375 11.886719 21.929688 11.882812 C 21.816406 11.828125 21.769531 11.691406 21.824219 11.578125 C 21.878906 11.460938 22.015625 11.414062 22.125 11.46875 C 22.167969 11.492188 23.160156 11.984375 23.160156 13.046875 C 23.160156 13.171875 23.058594 13.273438 22.933594 13.273438 Z M 22.933594 13.273438 " fill-opacity="1" fill-rule="nonzero"/><path fill="#d7ae54" d="M 11.851562 18.484375 C 11.726562 18.484375 11.625 18.382812 11.625 18.257812 C 11.625 17.195312 12.613281 16.703125 12.65625 16.683594 C 12.769531 16.625 12.902344 16.675781 12.957031 16.789062 C 13.011719 16.902344 12.964844 17.039062 12.855469 17.09375 C 12.824219 17.109375 12.078125 17.488281 12.078125 18.257812 C 12.078125 18.382812 11.976562 18.484375 11.851562 18.484375 Z M 11.851562 18.484375 " fill-opacity="1" fill-rule="nonzero"/><path fill="#d7ae54" d="M 12.753906 17.117188 C 12.722656 17.117188 12.6875 17.109375 12.65625 17.09375 C 12.613281 17.074219 11.625 16.578125 11.625 15.519531 C 11.625 15.390625 11.726562 15.289062 11.851562 15.289062 C 11.976562 15.289062 12.078125 15.390625 12.078125 15.519531 C 12.078125 16.292969 12.847656 16.679688 12.851562 16.683594 C 12.964844 16.738281 13.011719 16.875 12.957031 16.988281 C 12.921875 17.066406 12.839844 17.117188 12.753906 17.117188 Z M 12.753906 17.117188 " fill-opacity="1" fill-rule="nonzero"/><path fill="#d7ae54" d="M 10.945312 17.117188 C 10.863281 17.117188 10.78125 17.070312 10.742188 16.988281 C 10.6875 16.875 10.734375 16.738281 10.847656 16.683594 C 10.878906 16.667969 11.625 16.289062 11.625 15.519531 C 11.625 15.390625 11.726562 15.289062 11.851562 15.289062 C 11.976562 15.289062 12.078125 15.390625 12.078125 15.519531 C 12.078125 16.578125 11.085938 17.074219 11.042969 17.09375 C 11.011719 17.109375 10.980469 17.117188 10.945312 17.117188 Z M 10.945312 17.117188 " fill-opacity="1" fill-rule="nonzero"/><path fill="#d7ae54" d="M 11.851562 18.484375 C 11.726562 18.484375 11.625 18.382812 11.625 18.257812 C 11.625 17.480469 10.855469 17.097656 10.847656 17.09375 C 10.734375 17.039062 10.6875 16.902344 10.742188 16.789062 C 10.796875 16.675781 10.933594 16.625 11.042969 16.683594 C 11.085938 16.703125 12.078125 17.195312 12.078125 18.257812 C 12.078125 18.382812 11.976562 18.484375 11.851562 18.484375 Z M 11.851562 18.484375 " fill-opacity="1" fill-rule="nonzero"/><path fill="#d7ae54" d="M 11.277344 5.011719 C 11.242188 5.011719 11.207031 5.003906 11.171875 4.984375 L 10.71875 4.742188 L 10.265625 4.984375 C 10.191406 5.027344 10.097656 5.019531 10.027344 4.96875 C 9.957031 4.917969 9.921875 4.828125 9.9375 4.742188 L 10.023438 4.234375 L 9.65625 3.871094 C 9.59375 3.8125 9.574219 3.722656 9.601562 3.636719 C 9.625 3.554688 9.695312 3.496094 9.78125 3.484375 L 10.289062 3.410156 L 10.515625 2.945312 C 10.59375 2.789062 10.847656 2.789062 10.921875 2.945312 L 11.148438 3.410156 L 11.65625 3.484375 C 11.742188 3.496094 11.8125 3.554688 11.839844 3.636719 C 11.867188 3.722656 11.84375 3.8125 11.78125 3.871094 L 11.414062 4.234375 L 11.503906 4.742188 C 11.515625 4.828125 11.480469 4.917969 11.410156 4.96875 C 11.371094 4.996094 11.324219 5.011719 11.277344 5.011719 Z M 10.71875 4.257812 C 10.753906 4.257812 10.792969 4.265625 10.824219 4.285156 L 10.976562 4.367188 L 10.949219 4.191406 C 10.9375 4.117188 10.960938 4.042969 11.015625 3.992188 L 11.136719 3.867188 L 10.964844 3.84375 C 10.894531 3.832031 10.828125 3.785156 10.796875 3.71875 L 10.71875 3.5625 L 10.644531 3.71875 C 10.609375 3.785156 10.546875 3.832031 10.472656 3.84375 L 10.300781 3.867188 L 10.425781 3.992188 C 10.476562 4.042969 10.503906 4.117188 10.492188 4.191406 L 10.460938 4.367188 L 10.613281 4.285156 C 10.648438 4.265625 10.683594 4.257812 10.71875 4.257812 Z M 10.71875 4.257812 " fill-opacity="1" fill-rule="nonzero"/><g clip-path="url(#id5)"><path fill="#d7ae54" d="M 23.945312 28.75 C 23.910156 28.75 23.871094 28.742188 23.839844 28.726562 L 23.386719 28.484375 L 22.933594 28.726562 C 22.855469 28.765625 22.761719 28.761719 22.695312 28.707031 C 22.625 28.65625 22.589844 28.570312 22.605469 28.484375 L 22.691406 27.976562 L 22.324219 27.613281 C 22.261719 27.554688 22.238281 27.460938 22.265625 27.378906 C 22.292969 27.296875 22.363281 27.234375 22.449219 27.222656 L 22.957031 27.148438 L 23.183594 26.6875 C 23.21875 26.609375 23.300781 26.558594 23.386719 26.558594 C 23.472656 26.558594 23.550781 26.609375 23.589844 26.683594 L 23.816406 27.148438 L 24.324219 27.222656 C 24.40625 27.234375 24.480469 27.296875 24.503906 27.378906 C 24.53125 27.460938 24.507812 27.554688 24.449219 27.613281 L 24.082031 27.976562 L 24.167969 28.484375 C 24.183594 28.570312 24.148438 28.65625 24.078125 28.707031 C 24.039062 28.738281 23.992188 28.75 23.945312 28.75 Z M 23.386719 28 C 23.421875 28 23.457031 28.007812 23.492188 28.023438 L 23.644531 28.105469 L 23.613281 27.933594 C 23.601562 27.859375 23.625 27.785156 23.679688 27.730469 L 23.804688 27.609375 L 23.632812 27.585938 C 23.558594 27.574219 23.496094 27.527344 23.460938 27.460938 L 23.386719 27.300781 L 23.308594 27.460938 C 23.277344 27.527344 23.210938 27.574219 23.136719 27.585938 L 22.96875 27.609375 L 23.089844 27.730469 C 23.144531 27.785156 23.167969 27.859375 23.15625 27.933594 L 23.125 28.105469 L 23.28125 28.023438 C 23.3125 28.007812 23.347656 28 23.386719 28 Z M 23.386719 28 " fill-opacity="1" fill-rule="nonzero"/></g><g clip-path="url(#id6)"><path fill="#d7ae54" d="M 28.8125 22.40625 C 28.6875 22.40625 28.585938 22.300781 28.585938 22.175781 L 28.585938 20.351562 C 28.585938 20.222656 28.6875 20.121094 28.8125 20.121094 C 28.9375 20.121094 29.039062 20.222656 29.039062 20.351562 L 29.039062 22.175781 C 29.039062 22.300781 28.9375 22.40625 28.8125 22.40625 Z M 28.8125 22.40625 " fill-opacity="1" fill-rule="nonzero"/></g><g clip-path="url(#id7)"><path fill="#d7ae54" d="M 29.265625 21.492188 L 28.359375 21.492188 C 28.234375 21.492188 28.136719 21.390625 28.136719 21.261719 C 28.136719 21.136719 28.234375 21.035156 28.359375 21.035156 L 29.265625 21.035156 C 29.390625 21.035156 29.492188 21.136719 29.492188 21.261719 C 29.492188 21.390625 29.390625 21.492188 29.265625 21.492188 Z M 29.265625 21.492188 " fill-opacity="1" fill-rule="nonzero"/></g><path fill="#d7ae54" d="M 2.578125 27.882812 C 2.453125 27.882812 2.351562 27.78125 2.351562 27.65625 L 2.351562 25.828125 C 2.351562 25.703125 2.453125 25.601562 2.578125 25.601562 C 2.703125 25.601562 2.804688 25.703125 2.804688 25.828125 L 2.804688 27.65625 C 2.804688 27.78125 2.703125 27.882812 2.578125 27.882812 Z M 2.578125 27.882812 " fill-opacity="1" fill-rule="nonzero"/><path fill="#d7ae54" d="M 3.03125 26.96875 L 2.125 26.96875 C 2 26.96875 1.898438 26.867188 1.898438 26.742188 C 1.898438 26.617188 2 26.511719 2.125 26.511719 L 3.03125 26.511719 C 3.15625 26.511719 3.257812 26.617188 3.257812 26.742188 C 3.257812 26.867188 3.15625 26.96875 3.03125 26.96875 Z M 3.03125 26.96875 " fill-opacity="1" fill-rule="nonzero"/><path fill="#d7ae54" d="M 22.480469 6.882812 C 22.355469 6.882812 22.253906 6.78125 22.253906 6.652344 L 22.253906 4.828125 C 22.253906 4.699219 22.355469 4.597656 22.480469 4.597656 C 22.605469 4.597656 22.707031 4.699219 22.707031 4.828125 L 22.707031 6.652344 C 22.707031 6.78125 22.605469 6.882812 22.480469 6.882812 Z M 22.480469 6.882812 " fill-opacity="1" fill-rule="nonzero"/><path fill="#d7ae54" d="M 22.933594 5.96875 L 22.027344 5.96875 C 21.902344 5.96875 21.800781 5.867188 21.800781 5.742188 C 21.800781 5.613281 21.902344 5.511719 22.027344 5.511719 L 22.933594 5.511719 C 23.058594 5.511719 23.160156 5.613281 23.160156 5.742188 C 23.160156 5.867188 23.058594 5.96875 22.933594 5.96875 Z M 22.933594 5.96875 " fill-opacity="1" fill-rule="nonzero"/></svg>