<svg xmlns="http://www.w3.org/2000/svg" xmlns:xlink="http://www.w3.org/1999/xlink" width="40" zoomAndPan="magnify" viewBox="0 0 30 30.000001" height="40" preserveAspectRatio="xMidYMid meet" version="1.0"><defs><clipPath id="id1"><path d="M 3.074219 0 L 26.300781 0 L 26.300781 29.03125 L 3.074219 29.03125 Z M 3.074219 0 " clip-rule="nonzero"/></clipPath></defs><g clip-path="url(#id1)"><path fill="#d7ae54" d="M 13.914062 14.894531 C 13.808594 18.730469 13.898438 22.765625 13.867188 26.675781 C 13.566406 26.867188 13.371094 27.167969 12.976562 27.265625 L 12.976562 26.496094 C 10.800781 26.628906 8.519531 26.664062 6.9375 27.402344 C 8.964844 28.140625 11.824219 28.308594 14.585938 28.308594 C 17.355469 28.308594 20.199219 28.160156 22.1875 27.355469 C 20.632812 26.726562 18.53125 26.648438 16.507812 26.496094 L 16.507812 27.265625 C 16.242188 26.960938 15.722656 26.78125 15.613281 26.402344 C 15.515625 26.0625 15.613281 25.488281 15.613281 25 L 15.613281 14.894531 Z M 12.976562 9.230469 C 13.015625 10.375 14.816406 10.335938 14.71875 9.097656 C 14.679688 8.617188 14.332031 8.214844 13.644531 8.371094 C 13.234375 8.464844 12.957031 8.742188 12.976562 9.230469 Z M 15.300781 8.597656 C 15.917969 10.394531 13.855469 11.242188 12.839844 10.363281 C 12.714844 10.257812 12.613281 10.046875 12.484375 10.09375 C 12.414062 11.644531 13.351562 12.769531 14.765625 12.855469 C 16.238281 12.949219 17.417969 11.65625 17.402344 10.320312 C 17.386719 8.929688 16.328125 7.925781 14.765625 7.828125 C 14.871094 8.082031 15.1875 8.269531 15.300781 8.597656 Z M 18.652344 6.96875 C 18.210938 7.410156 17.726562 7.808594 17.355469 8.328125 C 19.109375 10.585938 17.277344 14.214844 14.09375 13.445312 C 13.464844 13.292969 12.992188 12.550781 12.574219 13.082031 C 12.761719 13.359375 13.046875 13.539062 13.289062 13.761719 C 14.105469 13.902344 15.191406 13.726562 15.925781 13.71875 C 16.085938 13.714844 16.28125 13.636719 16.328125 13.808594 C 18.871094 11.296875 21.65625 8.789062 24.066406 6.289062 C 22.445312 6.699219 20.53125 6.816406 18.652344 6.96875 Z M 11.945312 12.539062 C 12.046875 12.398438 12.167969 12.277344 12.304688 12.175781 C 10.433594 9.210938 13.839844 5.796875 16.640625 7.691406 C 16.875 7.542969 17.332031 7.160156 17.265625 7.011719 C 12.976562 7.167969 8.425781 6.976562 4.96875 6.289062 C 7.308594 8.359375 9.589844 10.488281 11.945312 12.539062 Z M 21.472656 4.066406 C 21.035156 4.527344 20.515625 5.082031 20.085938 5.515625 C 19.953125 5.648438 19.714844 5.746094 19.773438 5.925781 C 21.691406 5.742188 23.664062 5.609375 25.046875 4.882812 C 24.042969 4.421875 22.796875 4.207031 21.472656 4.066406 Z M 12.976562 3.703125 C 9.726562 3.859375 6.507812 3.882812 4.164062 4.929688 C 7.183594 6 12.164062 6.292969 16.375 6.105469 C 16.996094 6.078125 17.757812 6.199219 18.25 6.0625 C 18.589844 5.964844 19.070312 5.324219 19.371094 5.019531 C 19.550781 4.835938 19.734375 4.648438 19.90625 4.476562 C 20.078125 4.300781 20.367188 4.058594 20.308594 3.929688 C 18.019531 3.707031 15.453125 3.589844 12.976562 3.703125 Z M 22.367188 3.207031 C 23.800781 3.445312 25.320312 3.59375 26.121094 4.476562 C 26.097656 4.714844 26.320312 5.089844 26.300781 5.289062 C 26.257812 5.699219 25.550781 6.253906 25.183594 6.605469 C 22.335938 9.328125 19.207031 12.269531 16.507812 14.941406 L 16.507812 25.816406 C 18.289062 25.929688 20.375 26.023438 21.917969 26.496094 C 22.390625 26.636719 23.042969 26.789062 22.992188 27.445312 C 22.851562 28.105469 22.082031 28.238281 21.425781 28.398438 C 18.160156 29.179688 13.71875 29.144531 9.933594 28.757812 C 9.234375 28.6875 8.554688 28.605469 7.789062 28.441406 C 7.207031 28.320312 6.246094 27.984375 6.132812 27.628906 C 5.753906 26.417969 8.207031 26.246094 8.996094 26.132812 C 10.328125 25.941406 11.621094 25.863281 12.976562 25.816406 C 12.976562 22.480469 12.972656 19.578125 12.976562 16.164062 C 12.976562 15.71875 13.070312 15.125 12.976562 14.804688 C 12.886719 14.511719 12.164062 13.976562 11.765625 13.628906 C 9.242188 11.40625 6.90625 9.242188 4.390625 6.96875 C 4.003906 6.621094 3.308594 6.183594 3.179688 5.835938 C 3.140625 5.726562 3.035156 4.902344 3.09375 4.65625 C 3.3125 3.675781 5.691406 3.351562 6.757812 3.207031 C 10.839844 2.644531 15.578125 2.550781 20.039062 2.933594 C 20.425781 2.96875 20.894531 3.117188 21.160156 3.070312 C 21.621094 2.984375 22.40625 1.894531 22.722656 1.574219 C 23.21875 1.074219 23.777344 0.488281 24.289062 0.0820312 C 24.457031 -0.0546875 24.855469 -0.015625 24.914062 0.308594 C 25.007812 0.8125 24.015625 1.535156 23.707031 1.847656 C 23.144531 2.417969 22.738281 2.761719 22.367188 3.207031 " fill-opacity="1" fill-rule="evenodd"/></g></svg>