<svg xmlns="http://www.w3.org/2000/svg" xmlns:xlink="http://www.w3.org/1999/xlink" width="40" zoomAndPan="magnify" viewBox="0 0 30 30.000001" height="40" preserveAspectRatio="xMidYMid meet" version="1.0"><defs><clipPath id="id1"><path d="M 4.53125 0 L 25.578125 0 L 25.578125 29.03125 L 4.53125 29.03125 Z M 4.53125 0 " clip-rule="nonzero"/></clipPath></defs><path fill="#d7ae54" d="M 17.925781 9.996094 C 18.453125 9.996094 18.882812 9.570312 18.882812 9.042969 C 18.882812 8.519531 18.453125 8.09375 17.925781 8.09375 C 17.394531 8.09375 16.96875 8.519531 16.96875 9.042969 C 16.96875 9.570312 17.394531 9.996094 17.925781 9.996094 " fill-opacity="1" fill-rule="nonzero"/><path fill="#d7ae54" d="M 14.914062 11.5625 L 14.296875 10.949219 L 14.914062 10.332031 L 14.238281 9.660156 L 13.28125 10.609375 C 13.09375 10.796875 13.09375 11.097656 13.28125 11.285156 L 14.238281 12.234375 L 14.914062 11.5625 " fill-opacity="1" fill-rule="nonzero"/><path fill="#d7ae54" d="M 14.464844 12.851562 L 14.097656 12.851562 L 14.097656 13.800781 L 14.464844 13.800781 C 15.234375 13.800781 16.011719 13.621094 16.703125 13.277344 L 16.273438 12.425781 C 15.714844 12.703125 15.089844 12.851562 14.464844 12.851562 " fill-opacity="1" fill-rule="nonzero"/><g clip-path="url(#id1)"><path fill="#d7ae54" d="M 7.5625 7.625 C 7.632812 6.984375 7.792969 6.375 8.011719 5.792969 C 7.925781 6.230469 7.878906 6.679688 7.878906 7.140625 L 7.878906 19.144531 C 7.863281 19.148438 7.847656 19.152344 7.835938 19.160156 C 7.792969 19.167969 7.75 19.179688 7.707031 19.191406 C 7.617188 19.214844 7.53125 19.242188 7.445312 19.269531 C 7.425781 19.277344 7.40625 19.285156 7.390625 19.289062 C 6.957031 19.445312 6.550781 19.667969 6.191406 19.941406 C 6.191406 19.945312 6.1875 19.949219 6.1875 19.949219 Z M 23.921875 19.949219 C 23.921875 19.949219 23.917969 19.945312 23.914062 19.941406 C 23.558594 19.667969 23.152344 19.445312 22.71875 19.289062 C 22.699219 19.285156 22.683594 19.277344 22.664062 19.269531 C 22.578125 19.242188 22.488281 19.214844 22.402344 19.191406 C 22.359375 19.179688 22.316406 19.167969 22.273438 19.160156 C 22.261719 19.152344 22.246094 19.148438 22.230469 19.144531 L 22.230469 7.140625 C 22.230469 6.679688 22.179688 6.230469 22.097656 5.792969 C 22.316406 6.375 22.476562 6.984375 22.546875 7.625 Z M 8.835938 11.714844 C 8.851562 11.722656 8.867188 11.734375 8.882812 11.742188 L 9.9375 12.265625 C 10.246094 13.734375 11.035156 15.046875 12.183594 16.015625 L 12.183594 18.085938 C 12.183594 18.609375 11.753906 19.035156 11.226562 19.035156 L 8.835938 19.035156 Z M 21.273438 7.140625 L 21.273438 8.320312 C 21.015625 8.179688 20.722656 8.09375 20.40625 8.09375 L 19.980469 8.09375 C 18.605469 7.234375 17.628906 5.90625 17.234375 4.335938 L 16.953125 3.21875 C 16.902344 3.015625 16.71875 2.867188 16.507812 2.859375 C 16.300781 2.847656 16.101562 2.984375 16.035156 3.183594 C 15.203125 5.667969 13.089844 7.546875 10.515625 8.097656 L 10.167969 8.171875 L 9.316406 8.351562 C 9.144531 8.390625 8.984375 8.457031 8.835938 8.535156 L 8.835938 7.140625 C 8.835938 3.730469 11.625 0.957031 15.054688 0.957031 C 18.484375 0.957031 21.273438 3.730469 21.273438 7.140625 Z M 17.925781 16.015625 C 19.1875 14.949219 20.019531 13.460938 20.25 11.8125 L 20.847656 11.660156 C 21 11.625 21.140625 11.5625 21.273438 11.492188 L 21.273438 19.035156 L 18.882812 19.035156 C 18.355469 19.035156 17.925781 18.609375 17.925781 18.085938 Z M 20.40625 9.042969 C 20.886719 9.042969 21.273438 9.429688 21.273438 9.90625 C 21.273438 10.300781 21.003906 10.644531 20.617188 10.738281 L 20.316406 10.8125 L 20.316406 9.042969 Z M 9.792969 10.863281 L 9.792969 11.128906 L 9.3125 10.890625 C 9.019531 10.746094 8.835938 10.449219 8.835938 10.121094 C 8.835938 9.722656 9.121094 9.367188 9.519531 9.285156 L 9.792969 9.226562 Z M 16.609375 15.792969 C 16.449219 15.894531 16.289062 15.984375 16.125 16.070312 C 15.808594 16.226562 15.464844 16.308594 15.117188 16.316406 C 15.09375 16.316406 15.074219 16.320312 15.054688 16.320312 C 15.023438 16.320312 14.992188 16.316406 14.960938 16.3125 C 14.625 16.300781 14.292969 16.222656 13.984375 16.070312 C 13.820312 15.984375 13.660156 15.894531 13.5 15.792969 C 13.472656 15.777344 13.445312 15.757812 13.414062 15.742188 C 13.257812 15.640625 13.105469 15.535156 12.960938 15.417969 C 12.957031 15.414062 12.949219 15.414062 12.945312 15.410156 C 11.566406 14.320312 10.75 12.664062 10.75 10.863281 L 10.75 9.019531 C 10.917969 8.984375 11.078125 8.929688 11.246094 8.882812 C 11.234375 8.9375 11.226562 8.992188 11.226562 9.042969 C 11.226562 9.570312 11.65625 9.996094 12.183594 9.996094 C 12.714844 9.996094 13.140625 9.570312 13.140625 9.042969 C 13.140625 8.734375 12.992188 8.464844 12.761719 8.292969 C 14.285156 7.519531 15.554688 6.308594 16.371094 4.804688 C 16.851562 6.46875 17.898438 7.886719 19.359375 8.832031 L 19.359375 10.863281 C 19.359375 12.664062 18.542969 14.320312 17.164062 15.410156 C 17.160156 15.414062 17.152344 15.414062 17.148438 15.417969 C 17.003906 15.535156 16.851562 15.640625 16.691406 15.742188 C 16.664062 15.757812 16.636719 15.777344 16.609375 15.792969 Z M 24.621094 28.078125 L 22.851562 28.078125 C 22.890625 26.84375 22.519531 25.613281 21.75 24.59375 L 21.75 22.367188 L 20.792969 22.367188 L 20.792969 24.417969 L 15.054688 26.617188 L 9.3125 24.417969 L 9.3125 22.367188 L 8.355469 22.367188 L 8.355469 24.59375 C 7.589844 25.613281 7.21875 26.84375 7.257812 28.078125 L 5.488281 28.078125 L 5.488281 23.316406 C 5.488281 22.695312 5.664062 22.109375 5.96875 21.609375 C 6.039062 21.492188 6.113281 21.378906 6.199219 21.273438 C 6.199219 21.269531 6.203125 21.265625 6.207031 21.261719 C 6.382812 21.039062 6.589844 20.835938 6.816406 20.667969 C 6.820312 20.664062 6.824219 20.664062 6.828125 20.660156 C 7.164062 20.410156 7.542969 20.222656 7.953125 20.109375 C 7.96875 20.105469 7.988281 20.097656 8.007812 20.09375 C 8.117188 20.066406 8.230469 20.046875 8.34375 20.027344 C 8.371094 20.023438 8.398438 20.019531 8.429688 20.015625 C 8.566406 20 8.699219 19.988281 8.835938 19.988281 L 11.226562 19.988281 C 12.285156 19.988281 13.140625 19.132812 13.140625 18.085938 L 13.140625 16.695312 C 13.277344 16.773438 13.414062 16.851562 13.554688 16.917969 C 14.023438 17.152344 14.539062 17.269531 15.054688 17.269531 C 15.566406 17.269531 16.085938 17.152344 16.554688 16.917969 C 16.691406 16.851562 16.832031 16.773438 16.96875 16.695312 L 16.96875 18.085938 C 16.96875 19.132812 17.824219 19.988281 18.882812 19.988281 L 21.273438 19.988281 C 21.410156 19.988281 21.542969 20 21.679688 20.015625 C 21.707031 20.019531 21.738281 20.023438 21.765625 20.027344 C 21.878906 20.046875 21.992188 20.066406 22.101562 20.09375 C 22.121094 20.097656 22.136719 20.105469 22.15625 20.109375 C 22.566406 20.222656 22.945312 20.410156 23.285156 20.660156 C 23.285156 20.664062 23.289062 20.664062 23.292969 20.667969 C 23.519531 20.835938 23.726562 21.039062 23.902344 21.261719 C 23.90625 21.265625 23.90625 21.269531 23.910156 21.273438 C 23.992188 21.378906 24.070312 21.492188 24.140625 21.609375 C 24.445312 22.109375 24.621094 22.695312 24.621094 23.316406 Z M 8.203125 28.078125 C 8.167969 27.105469 8.4375 26.140625 9 25.320312 L 14.882812 27.570312 C 14.992188 27.609375 15.117188 27.609375 15.226562 27.570312 L 21.105469 25.320312 C 21.671875 26.140625 21.941406 27.105469 21.90625 28.078125 Z M 4.53125 28.550781 C 4.53125 28.8125 4.746094 29.027344 5.007812 29.027344 L 25.101562 29.027344 C 25.363281 29.027344 25.578125 28.8125 25.578125 28.550781 L 25.578125 23.316406 C 25.578125 22.558594 25.378906 21.851562 25.027344 21.230469 L 23.5 7.519531 C 23.019531 3.238281 19.390625 0.00390625 15.054688 0.00390625 C 10.71875 0.00390625 7.089844 3.238281 6.609375 7.519531 L 5.078125 21.230469 C 4.730469 21.851562 4.53125 22.558594 4.53125 23.316406 L 4.53125 28.550781 " fill-opacity="1" fill-rule="nonzero"/></g></svg>