<svg xmlns="http://www.w3.org/2000/svg" xmlns:xlink="http://www.w3.org/1999/xlink" width="40" zoomAndPan="magnify" viewBox="0 0 30 30.000001" height="40" preserveAspectRatio="xMidYMid meet" version="1.0"><defs><clipPath id="a3e9a63619"><path d="M 0.484375 0 L 29.515625 0 L 29.515625 29.03125 L 0.484375 29.03125 Z M 0.484375 0 " clip-rule="nonzero"/></clipPath><clipPath id="17d7dba204"><path d="M 0.484375 4.683594 L 29.515625 4.683594 L 29.515625 22.828125 L 0.484375 22.828125 Z M 0.484375 4.683594 " clip-rule="nonzero"/></clipPath></defs><g clip-path="url(#a3e9a63619)"><path fill="#ffffff" d="M 0.484375 0 L 29.515625 0 L 29.515625 36.289062 L 0.484375 36.289062 Z M 0.484375 0 " fill-opacity="1" fill-rule="nonzero"/><path fill="#ffffff" d="M 0.484375 0 L 29.515625 0 L 29.515625 29.03125 L 0.484375 29.03125 Z M 0.484375 0 " fill-opacity="1" fill-rule="nonzero"/><path fill="#ffffff" d="M 0.484375 0 L 29.515625 0 L 29.515625 29.03125 L 0.484375 29.03125 Z M 0.484375 0 " fill-opacity="1" fill-rule="nonzero"/></g><g clip-path="url(#17d7dba204)"><path fill="#ce9647" d="M 14.203125 7.320312 C 13.875 7.253906 13.554688 7.214844 13.3125 7.222656 C 13.039062 7.226562 12.890625 7.28125 12.863281 7.386719 C 12.863281 7.386719 12.863281 7.386719 12.863281 7.390625 L 12.132812 9.195312 C 12.128906 9.214844 11.386719 10.964844 11.296875 12.691406 L 8.496094 11.929688 C 8.320312 11.878906 8.136719 11.855469 7.949219 11.855469 C 7.679688 11.855469 7.40625 11.886719 7.148438 11.945312 C 6.886719 12.007812 6.625 12.089844 6.375 12.210938 C 4.667969 13.226562 0.574219 14.558594 0.53125 14.570312 C 0.503906 14.582031 0.484375 14.613281 0.496094 14.648438 C 0.503906 14.671875 0.527344 14.691406 0.558594 14.691406 C 0.5625 14.691406 0.570312 14.691406 0.574219 14.691406 C 0.617188 14.679688 4.722656 13.34375 6.4375 12.320312 C 6.671875 12.210938 6.921875 12.121094 7.175781 12.066406 C 7.433594 12.011719 7.691406 11.980469 7.953125 11.980469 C 8.125 11.980469 8.300781 12.007812 8.464844 12.046875 L 11.289062 12.824219 C 11.277344 13.257812 11.308594 13.648438 11.378906 13.996094 L 8.585938 13.324219 C 8.554688 13.316406 8.519531 13.335938 8.511719 13.367188 C 8.507812 13.394531 8.527344 13.433594 8.554688 13.4375 L 11.410156 14.125 C 11.445312 14.28125 11.496094 14.4375 11.554688 14.574219 C 11.597656 14.679688 11.683594 14.847656 11.75 14.984375 C 11.773438 15.039062 11.800781 15.082031 11.816406 15.117188 L 11.839844 15.171875 C 11.882812 15.261719 11.933594 15.359375 11.96875 15.472656 C 11.867188 15.449219 11.785156 15.429688 11.761719 15.429688 L 10.816406 14.5625 C 10.808594 14.558594 10.804688 14.550781 10.789062 14.550781 L 8.890625 13.984375 C 8.859375 13.972656 8.824219 13.992188 8.816406 14.027344 C 8.804688 14.058594 8.824219 14.09375 8.859375 14.101562 L 10.75 14.664062 L 11.550781 15.40625 C 9.070312 15.039062 7.433594 13.828125 7.414062 13.816406 C 7.390625 13.800781 7.347656 13.804688 7.328125 13.828125 C 7.3125 13.855469 7.316406 13.894531 7.339844 13.914062 C 7.359375 13.925781 9.113281 15.226562 11.746094 15.554688 C 11.910156 15.582031 12.386719 15.695312 12.386719 15.90625 C 12.386719 16.109375 11.871094 16.25 11.703125 16.277344 C 11.683594 16.277344 9.808594 16.429688 7.753906 16.277344 C 7.742188 16.277344 7.722656 16.277344 7.71875 16.289062 C 7.691406 16.308594 5.085938 18.070312 2.117188 17.554688 C 2.03125 17.519531 1.359375 17.230469 0.679688 17.664062 C 0.648438 17.679688 0.640625 17.714844 0.660156 17.746094 C 0.671875 17.765625 0.691406 17.777344 0.707031 17.777344 C 0.722656 17.777344 0.734375 17.777344 0.738281 17.765625 C 1.394531 17.355469 2.0625 17.667969 2.070312 17.667969 C 2.074219 17.667969 2.082031 17.675781 2.085938 17.675781 C 4.976562 18.1875 7.523438 16.5625 7.765625 16.40625 C 8.320312 16.445312 8.859375 16.464844 9.351562 16.472656 C 9.515625 16.566406 10.984375 17.398438 11.335938 17.445312 C 11.363281 17.453125 11.378906 17.453125 11.398438 17.453125 C 11.464844 17.453125 11.515625 17.433594 11.542969 17.390625 C 11.585938 17.332031 11.574219 17.246094 11.5 17.125 C 11.453125 17.046875 11.390625 16.96875 11.320312 16.898438 L 10.851562 16.453125 C 11.105469 16.441406 11.3125 16.433594 11.460938 16.421875 L 11.9375 16.667969 C 11.945312 16.695312 11.957031 16.722656 11.96875 16.773438 L 11.453125 19.257812 C 11.445312 19.292969 11.324219 20.074219 10.480469 20.25 L 9.972656 20.335938 C 9.808594 20.359375 9.679688 20.484375 9.644531 20.640625 C 9.644531 20.652344 9.636719 20.664062 9.636719 20.675781 C 9.636719 20.75 9.679688 20.808594 9.746094 20.839844 C 9.945312 20.921875 10.554688 21.183594 11.277344 21.328125 L 11.367188 21.34375 C 11.914062 21.453125 12.386719 21.496094 12.710938 21.496094 C 12.800781 21.496094 12.886719 21.488281 12.953125 21.484375 C 13.03125 21.476562 13.097656 21.421875 13.109375 21.34375 C 13.117188 21.320312 13.117188 21.289062 13.117188 21.265625 C 13.117188 21.128906 13.050781 21.007812 12.933594 20.929688 L 12.503906 20.652344 C 11.792969 20.164062 11.992188 19.394531 12.003906 19.359375 L 12.375 17.585938 C 12.382812 17.597656 12.386719 17.609375 12.402344 17.621094 C 12.539062 17.847656 12.660156 17.964844 12.777344 17.96875 C 12.777344 17.96875 12.777344 17.96875 12.78125 17.96875 C 12.824219 17.96875 12.886719 17.953125 12.941406 17.878906 C 12.988281 17.808594 13.007812 17.722656 12.988281 17.632812 L 12.886719 17.054688 C 12.929688 17.140625 12.988281 17.210938 13.0625 17.269531 C 13.128906 17.324219 13.195312 17.355469 13.25 17.355469 C 13.269531 17.355469 13.289062 17.347656 13.3125 17.34375 C 13.382812 17.3125 13.433594 17.234375 13.457031 17.109375 C 13.46875 17.023438 13.46875 16.929688 13.453125 16.832031 L 13.238281 15.820312 C 13.21875 15.738281 13.179688 15.664062 13.117188 15.609375 C 13.128906 15.597656 13.140625 15.585938 13.152344 15.574219 C 13.4375 15.863281 13.667969 16.054688 13.847656 16.144531 C 13.929688 16.1875 14.035156 16.242188 14.125 16.242188 C 14.167969 16.242188 14.203125 16.230469 14.234375 16.199219 C 14.351562 16.078125 14.199219 15.773438 14.144531 15.675781 L 13.742188 15.082031 C 13.761719 15.070312 13.773438 15.058594 13.785156 15.046875 C 14.242188 14.59375 14.855469 13.671875 15.1875 11.863281 C 15.390625 10.785156 15.394531 9.882812 15.394531 9.875 L 15.445312 7.9375 C 15.46875 7.648438 14.648438 7.410156 14.203125 7.320312 Z M 13.316406 7.347656 C 13.335938 7.347656 13.355469 7.347656 13.371094 7.347656 C 13.601562 7.347656 13.882812 7.378906 14.179688 7.4375 C 14.945312 7.59375 15.308594 7.832031 15.296875 7.894531 C 15.292969 7.914062 15.226562 7.96875 14.957031 7.976562 C 14.71875 7.980469 14.410156 7.949219 14.089844 7.882812 C 13.324219 7.726562 12.960938 7.492188 12.972656 7.425781 C 12.976562 7.410156 13.050781 7.355469 13.316406 7.347656 Z M 11.226562 16.96875 C 11.296875 17.035156 11.351562 17.101562 11.390625 17.167969 C 11.453125 17.277344 11.441406 17.308594 11.441406 17.308594 C 11.441406 17.3125 11.417969 17.320312 11.351562 17.3125 C 11.105469 17.277344 10.183594 16.789062 9.59375 16.460938 C 9.996094 16.460938 10.367188 16.453125 10.675781 16.441406 Z M 11.683594 16.386719 C 11.695312 16.386719 11.707031 16.386719 11.707031 16.386719 C 11.738281 16.378906 11.882812 16.355469 12.035156 16.300781 C 12.03125 16.378906 12.019531 16.464844 12 16.550781 Z M 12.824219 17.792969 C 12.796875 17.835938 12.777344 17.835938 12.769531 17.835938 C 12.742188 17.835938 12.648438 17.808594 12.496094 17.546875 C 12.46875 17.492188 12.4375 17.445312 12.40625 17.398438 C 12.4375 17.257812 12.46875 17.113281 12.492188 16.976562 L 12.527344 16.800781 C 12.550781 16.683594 12.582031 16.5625 12.617188 16.453125 C 12.625 16.472656 12.636719 16.484375 12.644531 16.5 L 12.65625 16.523438 C 12.667969 16.5625 12.671875 16.589844 12.679688 16.628906 L 12.855469 17.636719 C 12.867188 17.691406 12.855469 17.753906 12.824219 17.792969 Z M 13.316406 16.832031 C 13.335938 16.917969 13.335938 16.988281 13.324219 17.066406 C 13.3125 17.144531 13.289062 17.199219 13.257812 17.210938 C 13.234375 17.222656 13.183594 17.199219 13.128906 17.15625 C 13.042969 17.089844 12.976562 16.996094 12.941406 16.878906 L 12.757812 16.445312 C 12.734375 16.394531 12.710938 16.339844 12.671875 16.289062 C 12.765625 16.042969 12.878906 15.839844 13.019531 15.671875 C 13.0625 15.710938 13.09375 15.761719 13.105469 15.820312 Z M 14.132812 16.09375 C 14.132812 16.09375 14.089844 16.128906 13.882812 16.019531 C 13.71875 15.929688 13.5 15.75 13.21875 15.472656 C 13.226562 15.464844 13.238281 15.453125 13.246094 15.449219 L 13.28125 15.417969 C 13.324219 15.382812 13.390625 15.328125 13.464844 15.269531 C 13.519531 15.226562 13.574219 15.183594 13.621094 15.140625 L 14.015625 15.71875 C 14.113281 15.882812 14.160156 16.0625 14.132812 16.09375 Z M 13.675781 14.941406 C 13.65625 14.960938 13.632812 14.984375 13.601562 15.007812 C 13.542969 15.058594 13.46875 15.117188 13.398438 15.175781 C 13.324219 15.238281 13.25 15.292969 13.207031 15.328125 L 13.171875 15.359375 C 13.148438 15.375 13.125 15.398438 13.09375 15.425781 C 13.054688 15.460938 13.015625 15.503906 12.964844 15.550781 C 12.789062 15.742188 12.648438 15.984375 12.539062 16.285156 C 12.539062 16.285156 12.539062 16.289062 12.539062 16.289062 C 12.484375 16.441406 12.441406 16.601562 12.40625 16.773438 L 12.371094 16.945312 C 12.339844 17.089844 12.308594 17.242188 12.277344 17.390625 L 11.878906 19.316406 C 11.878906 19.324219 11.640625 20.203125 12.425781 20.742188 L 12.863281 21.019531 C 12.941406 21.066406 12.988281 21.160156 12.988281 21.253906 C 12.988281 21.273438 12.988281 21.289062 12.984375 21.308594 C 12.976562 21.332031 12.960938 21.351562 12.933594 21.351562 C 12.644531 21.375 12.078125 21.351562 11.386719 21.210938 L 11.296875 21.195312 C 10.589844 21.050781 9.988281 20.796875 9.789062 20.714844 C 9.769531 20.707031 9.753906 20.683594 9.753906 20.664062 C 9.753906 20.660156 9.753906 20.652344 9.753906 20.652344 C 9.777344 20.542969 9.867188 20.453125 9.976562 20.4375 L 10.488281 20.351562 C 11.417969 20.160156 11.554688 19.269531 11.554688 19.261719 L 12.074219 16.765625 L 12.085938 16.710938 C 12.113281 16.554688 12.140625 16.40625 12.152344 16.261719 C 12.332031 16.183594 12.492188 16.066406 12.492188 15.898438 C 12.492188 15.707031 12.285156 15.585938 12.089844 15.519531 C 12.042969 15.359375 11.980469 15.230469 11.933594 15.125 L 11.910156 15.070312 C 11.890625 15.03125 11.867188 14.984375 11.839844 14.929688 C 11.773438 14.796875 11.691406 14.628906 11.652344 14.535156 C 11.59375 14.390625 11.542969 14.226562 11.507812 14.0625 C 11.421875 13.691406 11.386719 13.257812 11.40625 12.777344 C 11.472656 11.042969 12.230469 9.261719 12.238281 9.246094 L 12.917969 7.566406 C 13.117188 7.765625 13.707031 7.933594 14.066406 8.003906 C 14.367188 8.066406 14.660156 8.101562 14.898438 8.101562 C 14.914062 8.101562 14.9375 8.101562 14.957031 8.101562 C 15.101562 8.09375 15.210938 8.082031 15.292969 8.046875 L 15.25 9.851562 C 15.25 9.886719 15.21875 13.410156 13.675781 14.941406 Z M 14.96875 10.105469 C 14.980469 10.152344 15.007812 10.320312 14.953125 10.785156 C 14.945312 10.816406 14.921875 10.839844 14.890625 10.839844 C 14.890625 10.839844 14.882812 10.839844 14.882812 10.839844 C 14.855469 10.832031 14.828125 10.804688 14.828125 10.773438 C 14.859375 10.496094 14.867188 10.332031 14.859375 10.238281 C 14.761719 10.285156 14.605469 10.304688 14.441406 10.304688 C 14.320312 10.304688 14.203125 10.296875 14.105469 10.285156 C 14.078125 10.277344 14.046875 10.253906 14.050781 10.21875 C 14.058594 10.1875 14.082031 10.160156 14.121094 10.164062 C 14.652344 10.21875 14.835938 10.136719 14.84375 10.097656 C 14.84375 10.085938 14.824219 10.039062 14.695312 9.960938 C 14.664062 9.941406 14.660156 9.90625 14.679688 9.875 C 14.695312 9.847656 14.734375 9.839844 14.761719 9.859375 C 14.910156 9.941406 14.976562 10.019531 14.96875 10.105469 Z M 13.90625 9.613281 C 13.914062 9.582031 13.949219 9.558594 13.980469 9.570312 C 14.199219 9.625 14.398438 9.691406 14.5625 9.761719 C 14.59375 9.773438 14.605469 9.808594 14.59375 9.839844 C 14.582031 9.863281 14.5625 9.875 14.539062 9.875 C 14.53125 9.875 14.519531 9.875 14.515625 9.871094 C 14.355469 9.804688 14.160156 9.738281 13.949219 9.683594 C 13.917969 9.671875 13.902344 9.640625 13.90625 9.613281 Z M 13.425781 9.519531 C 13.433594 9.492188 13.464844 9.46875 13.492188 9.472656 C 13.578125 9.484375 13.664062 9.503906 13.742188 9.519531 C 13.773438 9.527344 13.796875 9.558594 13.792969 9.59375 C 13.785156 9.625 13.761719 9.640625 13.730469 9.640625 C 13.722656 9.640625 13.722656 9.640625 13.71875 9.640625 C 13.632812 9.625 13.554688 9.613281 13.46875 9.597656 C 13.445312 9.582031 13.425781 9.550781 13.425781 9.519531 Z M 13.632812 10.085938 C 13.664062 10.09375 13.6875 10.121094 13.683594 10.160156 C 13.675781 10.1875 13.652344 10.207031 13.621094 10.207031 C 13.613281 10.207031 13.613281 10.207031 13.609375 10.207031 C 13.371094 10.160156 13.148438 10.097656 12.953125 10.027344 C 12.921875 10.015625 12.90625 9.976562 12.917969 9.949219 C 12.929688 9.917969 12.964844 9.898438 12.996094 9.914062 C 13.179688 9.976562 13.402344 10.039062 13.632812 10.085938 Z M 13.816406 10.121094 C 13.859375 10.128906 13.90625 10.136719 13.949219 10.140625 C 13.980469 10.148438 14.003906 10.175781 14.003906 10.207031 C 13.996094 10.238281 13.972656 10.261719 13.941406 10.261719 C 13.941406 10.261719 13.9375 10.261719 13.9375 10.261719 C 13.894531 10.253906 13.847656 10.25 13.804688 10.242188 C 13.773438 10.238281 13.75 10.207031 13.753906 10.171875 C 13.753906 10.140625 13.785156 10.117188 13.816406 10.121094 Z M 14.914062 11.066406 C 14.847656 11.554688 14.738281 12.113281 14.582031 12.714844 C 14.574219 12.746094 14.550781 12.765625 14.519531 12.765625 C 14.515625 12.765625 14.507812 12.765625 14.507812 12.765625 C 14.476562 12.757812 14.453125 12.722656 14.464844 12.691406 C 14.617188 12.097656 14.734375 11.542969 14.792969 11.0625 C 14.800781 11.03125 14.828125 11.007812 14.859375 11.007812 C 14.898438 11.007812 14.921875 11.039062 14.914062 11.066406 Z M 14.519531 12.945312 C 14.472656 13.121094 14.417969 13.289062 14.363281 13.449219 C 14.355469 13.472656 14.332031 13.492188 14.308594 13.492188 C 14.300781 13.492188 14.296875 13.492188 14.289062 13.488281 C 14.257812 13.472656 14.242188 13.4375 14.253906 13.410156 C 14.308594 13.25 14.363281 13.089844 14.410156 12.914062 C 14.417969 12.882812 14.453125 12.867188 14.484375 12.871094 C 14.515625 12.878906 14.53125 12.914062 14.519531 12.945312 Z M 14.289062 13.636719 C 14.1875 13.882812 14.144531 13.984375 14.023438 14.171875 C 14.011719 14.191406 13.992188 14.195312 13.972656 14.195312 C 13.960938 14.195312 13.949219 14.191406 13.9375 14.183594 C 13.90625 14.167969 13.902344 14.128906 13.917969 14.101562 C 14.035156 13.925781 14.070312 13.835938 14.175781 13.589844 C 14.1875 13.558594 14.222656 13.539062 14.253906 13.558594 C 14.285156 13.578125 14.300781 13.605469 14.289062 13.636719 Z M 13.847656 14.328125 C 13.871094 14.347656 13.875 14.390625 13.859375 14.414062 C 13.847656 14.429688 13.832031 14.441406 13.828125 14.457031 C 13.808594 14.484375 13.796875 14.496094 13.761719 14.539062 C 13.75 14.550781 13.730469 14.558594 13.71875 14.558594 C 13.707031 14.558594 13.6875 14.550781 13.675781 14.539062 C 13.652344 14.515625 13.652344 14.480469 13.667969 14.457031 C 13.699219 14.417969 13.710938 14.40625 13.730469 14.382812 C 13.738281 14.371094 13.75 14.359375 13.761719 14.339844 C 13.777344 14.3125 13.820312 14.3125 13.847656 14.328125 Z M 13.585938 14.636719 C 13.609375 14.660156 13.601562 14.695312 13.578125 14.71875 C 13.476562 14.816406 13.367188 14.894531 13.257812 14.949219 C 13.117188 15.019531 12.960938 15.058594 12.800781 15.058594 C 12.613281 15.058594 12.417969 15.003906 12.253906 14.894531 C 12.222656 14.875 12.21875 14.839844 12.238281 14.808594 C 12.253906 14.78125 12.292969 14.773438 12.320312 14.792969 C 12.582031 14.964844 12.917969 14.984375 13.195312 14.839844 C 13.300781 14.785156 13.398438 14.71875 13.492188 14.628906 C 13.523438 14.613281 13.558594 14.613281 13.585938 14.636719 Z M 12.167969 14.660156 C 12.195312 14.683594 12.1875 14.71875 12.164062 14.742188 C 12.152344 14.757812 12.140625 14.761719 12.121094 14.761719 C 12.101562 14.761719 12.089844 14.757812 12.078125 14.742188 C 12.066406 14.726562 12.046875 14.714844 12.035156 14.695312 C 11.878906 14.496094 11.746094 14.296875 11.671875 13.859375 C 11.664062 13.828125 11.691406 13.792969 11.71875 13.789062 C 11.75 13.78125 11.785156 13.804688 11.792969 13.835938 C 11.867188 14.246094 11.992188 14.429688 12.140625 14.617188 C 12.144531 14.636719 12.15625 14.648438 12.167969 14.660156 Z M 11.691406 13.625 C 11.660156 13.625 11.636719 13.601562 11.628906 13.570312 C 11.621094 13.535156 11.621094 13.5 11.617188 13.457031 C 11.617188 13.421875 11.640625 13.394531 11.671875 13.390625 C 11.707031 13.390625 11.730469 13.414062 11.738281 13.445312 C 11.746094 13.480469 11.746094 13.515625 11.75 13.550781 C 11.757812 13.582031 11.730469 13.613281 11.695312 13.617188 C 11.695312 13.625 11.695312 13.625 11.691406 13.625 Z M 11.605469 13.257812 C 11.59375 12.9375 11.609375 12.597656 11.671875 12.234375 C 11.695312 12.097656 11.714844 11.957031 11.738281 11.824219 C 11.746094 11.796875 11.773438 11.773438 11.8125 11.777344 C 11.839844 11.785156 11.867188 11.8125 11.859375 11.851562 C 11.835938 11.980469 11.8125 12.121094 11.792969 12.257812 C 11.738281 12.613281 11.71875 12.949219 11.730469 13.265625 C 11.730469 13.300781 11.707031 13.324219 11.671875 13.324219 C 11.636719 13.316406 11.609375 13.289062 11.605469 13.257812 Z M 11.773438 11.652344 C 11.78125 11.609375 11.800781 11.542969 11.804688 11.5 C 11.804688 11.496094 11.804688 11.488281 11.804688 11.488281 C 11.804688 11.488281 11.804688 11.484375 11.804688 11.484375 C 11.804688 11.476562 11.804688 11.476562 11.804688 11.46875 C 11.804688 11.464844 11.804688 11.464844 11.804688 11.464844 C 11.8125 11.441406 11.828125 11.40625 11.878906 11.417969 C 11.921875 11.421875 11.925781 11.453125 11.925781 11.488281 L 11.921875 11.5 C 11.921875 11.507812 11.914062 11.519531 11.914062 11.523438 C 11.910156 11.566406 11.894531 11.628906 11.882812 11.675781 C 11.878906 11.707031 11.855469 11.722656 11.824219 11.722656 C 11.816406 11.722656 11.816406 11.722656 11.8125 11.722656 C 11.785156 11.71875 11.761719 11.6875 11.773438 11.652344 Z M 11.859375 11.230469 C 11.914062 11 11.96875 10.777344 12.03125 10.574219 C 12.042969 10.542969 12.074219 10.527344 12.101562 10.53125 C 12.132812 10.542969 12.152344 10.574219 12.144531 10.605469 C 12.085938 10.808594 12.03125 11.027344 11.980469 11.253906 C 11.976562 11.285156 11.949219 11.300781 11.921875 11.300781 C 11.914062 11.300781 11.914062 11.300781 11.910156 11.300781 C 11.871094 11.296875 11.855469 11.261719 11.859375 11.230469 Z M 12.128906 10.261719 C 12.285156 9.761719 12.375 9.613281 12.402344 9.582031 C 12.480469 9.375 13.050781 9.417969 13.300781 9.441406 C 13.328125 9.449219 13.355469 9.480469 13.355469 9.507812 C 13.347656 9.539062 13.316406 9.5625 13.289062 9.5625 C 12.722656 9.503906 12.523438 9.585938 12.515625 9.625 C 12.511719 9.640625 12.558594 9.726562 12.824219 9.847656 C 12.855469 9.859375 12.867188 9.894531 12.855469 9.925781 C 12.84375 9.949219 12.824219 9.960938 12.800781 9.960938 C 12.796875 9.960938 12.78125 9.960938 12.777344 9.953125 C 12.617188 9.886719 12.511719 9.816406 12.457031 9.75 C 12.414062 9.839844 12.347656 10.007812 12.253906 10.296875 C 12.25 10.320312 12.222656 10.339844 12.195312 10.339844 C 12.1875 10.339844 12.183594 10.339844 12.175781 10.339844 C 12.132812 10.328125 12.113281 10.292969 12.128906 10.261719 Z M 10.230469 20.558594 C 10.246094 20.5625 11.488281 21.0625 12.632812 21.039062 C 12.660156 21.039062 12.691406 21.0625 12.691406 21.097656 C 12.691406 21.132812 12.667969 21.160156 12.632812 21.160156 C 12.605469 21.160156 12.582031 21.160156 12.558594 21.160156 C 11.410156 21.160156 10.195312 20.671875 10.183594 20.664062 C 10.152344 20.652344 10.136719 20.617188 10.152344 20.585938 C 10.164062 20.558594 10.203125 20.542969 10.230469 20.558594 Z M 11.210938 20.320312 C 11.199219 20.292969 11.210938 20.257812 11.246094 20.242188 C 11.277344 20.230469 11.3125 20.242188 11.324219 20.273438 C 11.34375 20.316406 11.410156 20.441406 11.507812 20.453125 C 11.570312 20.464844 11.640625 20.429688 11.71875 20.351562 C 11.746094 20.328125 11.78125 20.328125 11.804688 20.351562 C 11.828125 20.375 11.828125 20.414062 11.804688 20.4375 C 11.714844 20.53125 11.621094 20.582031 11.53125 20.582031 C 11.515625 20.582031 11.5 20.582031 11.484375 20.574219 C 11.308594 20.542969 11.214844 20.335938 11.210938 20.320312 Z M 13.585938 10.6875 C 13.292969 10.664062 13.097656 10.585938 13.007812 10.460938 C 12.851562 10.238281 12.460938 10.253906 12.457031 10.253906 C 12.425781 10.253906 12.394531 10.230469 12.394531 10.195312 C 12.394531 10.160156 12.417969 10.136719 12.449219 10.136719 C 12.46875 10.136719 12.910156 10.117188 13.105469 10.386719 C 13.171875 10.484375 13.347656 10.550781 13.589844 10.566406 C 13.699219 10.574219 13.820312 10.566406 13.941406 10.539062 C 14.09375 10.5 14.378906 10.472656 14.582031 10.671875 C 14.605469 10.695312 14.605469 10.730469 14.582031 10.753906 C 14.570312 10.765625 14.550781 10.773438 14.539062 10.773438 C 14.519531 10.773438 14.507812 10.765625 14.496094 10.753906 C 14.339844 10.597656 14.101562 10.628906 13.972656 10.660156 C 13.839844 10.6875 13.707031 10.699219 13.585938 10.6875 Z M 13.054688 11.332031 C 13.136719 11.332031 13.207031 11.277344 13.226562 11.195312 C 13.238281 11.152344 13.226562 11.105469 13.203125 11.066406 C 13.179688 11.03125 13.136719 11 13.09375 10.996094 C 13 10.976562 12.910156 11.039062 12.886719 11.128906 C 12.867188 11.21875 12.929688 11.308594 13.019531 11.332031 C 13.03125 11.328125 13.042969 11.332031 13.054688 11.332031 Z M 13.007812 11.144531 C 13.015625 11.121094 13.03125 11.105469 13.054688 11.105469 C 13.0625 11.105469 13.0625 11.105469 13.070312 11.105469 C 13.082031 11.105469 13.09375 11.117188 13.097656 11.128906 C 13.105469 11.140625 13.109375 11.152344 13.105469 11.164062 C 13.097656 11.195312 13.074219 11.210938 13.042969 11.207031 C 13.019531 11.199219 13 11.175781 13.007812 11.144531 Z M 12.484375 11.429688 C 12.382812 11.40625 12.273438 11.476562 12.253906 11.578125 C 12.242188 11.628906 12.253906 11.679688 12.285156 11.722656 C 12.316406 11.765625 12.359375 11.796875 12.40625 11.808594 C 12.417969 11.808594 12.429688 11.8125 12.449219 11.8125 C 12.539062 11.8125 12.625 11.746094 12.644531 11.65625 C 12.65625 11.554688 12.589844 11.445312 12.484375 11.429688 Z M 12.515625 11.632812 C 12.511719 11.675781 12.46875 11.699219 12.425781 11.691406 C 12.40625 11.6875 12.386719 11.675781 12.375 11.664062 C 12.363281 11.652344 12.363281 11.628906 12.363281 11.609375 C 12.371094 11.589844 12.382812 11.574219 12.394531 11.5625 C 12.40625 11.554688 12.417969 11.550781 12.4375 11.550781 C 12.441406 11.550781 12.449219 11.550781 12.449219 11.550781 C 12.496094 11.554688 12.527344 11.589844 12.515625 11.632812 Z M 12.726562 12.453125 C 12.714844 12.511719 12.726562 12.570312 12.757812 12.621094 C 12.796875 12.667969 12.84375 12.703125 12.90625 12.714844 C 12.921875 12.722656 12.933594 12.722656 12.953125 12.722656 C 12.996094 12.722656 13.039062 12.710938 13.082031 12.6875 C 13.128906 12.648438 13.164062 12.601562 13.179688 12.542969 C 13.191406 12.480469 13.179688 12.421875 13.148438 12.375 C 13.109375 12.324219 13.0625 12.289062 13 12.277344 C 12.941406 12.265625 12.878906 12.277344 12.832031 12.308594 C 12.777344 12.335938 12.742188 12.390625 12.726562 12.453125 Z M 12.84375 12.476562 C 12.851562 12.445312 12.867188 12.421875 12.890625 12.410156 C 12.910156 12.398438 12.929688 12.390625 12.953125 12.390625 C 12.960938 12.390625 12.964844 12.390625 12.976562 12.390625 C 13.007812 12.398438 13.03125 12.414062 13.042969 12.441406 C 13.054688 12.464844 13.070312 12.492188 13.0625 12.519531 C 13.054688 12.546875 13.039062 12.570312 13.015625 12.582031 C 12.988281 12.601562 12.960938 12.609375 12.933594 12.601562 C 12.90625 12.597656 12.878906 12.578125 12.867188 12.554688 C 12.84375 12.53125 12.835938 12.5 12.84375 12.476562 Z M 12.550781 12.957031 C 12.5625 12.957031 12.570312 12.957031 12.582031 12.957031 C 12.605469 12.957031 12.636719 12.949219 12.65625 12.933594 C 12.6875 12.914062 12.703125 12.882812 12.714844 12.847656 C 12.726562 12.8125 12.714844 12.777344 12.699219 12.746094 C 12.679688 12.714844 12.648438 12.699219 12.613281 12.6875 C 12.578125 12.679688 12.539062 12.6875 12.511719 12.703125 C 12.480469 12.722656 12.460938 12.753906 12.449219 12.789062 C 12.4375 12.824219 12.449219 12.859375 12.46875 12.890625 C 12.484375 12.933594 12.515625 12.949219 12.550781 12.957031 Z M 12.570312 12.8125 C 12.570312 12.8125 12.578125 12.8125 12.578125 12.8125 C 12.578125 12.8125 12.578125 12.8125 12.582031 12.8125 C 12.589844 12.8125 12.589844 12.820312 12.59375 12.820312 C 12.59375 12.820312 12.601562 12.824219 12.59375 12.832031 C 12.59375 12.835938 12.589844 12.835938 12.589844 12.84375 C 12.589844 12.84375 12.582031 12.847656 12.578125 12.84375 C 12.570312 12.84375 12.570312 12.835938 12.5625 12.835938 C 12.5625 12.835938 12.558594 12.832031 12.5625 12.824219 C 12.5625 12.820312 12.570312 12.8125 12.570312 12.8125 Z M 12.316406 13.789062 C 12.265625 13.773438 12.21875 13.789062 12.183594 13.8125 C 12.140625 13.835938 12.113281 13.878906 12.101562 13.925781 C 12.085938 14.023438 12.144531 14.113281 12.242188 14.136719 C 12.253906 14.136719 12.265625 14.140625 12.277344 14.140625 C 12.316406 14.140625 12.347656 14.128906 12.375 14.113281 C 12.417969 14.089844 12.441406 14.046875 12.457031 13.996094 C 12.46875 13.949219 12.457031 13.902344 12.429688 13.867188 C 12.402344 13.828125 12.359375 13.800781 12.316406 13.789062 Z M 12.332031 13.972656 C 12.328125 13.984375 12.320312 14.003906 12.308594 14.011719 C 12.296875 14.015625 12.277344 14.023438 12.265625 14.015625 C 12.238281 14.011719 12.21875 13.980469 12.222656 13.949219 C 12.230469 13.9375 12.238281 13.917969 12.25 13.914062 C 12.261719 13.90625 12.265625 13.902344 12.277344 13.902344 C 12.285156 13.902344 12.285156 13.902344 12.292969 13.902344 C 12.304688 13.90625 12.320312 13.914062 12.328125 13.925781 C 12.332031 13.945312 12.332031 13.960938 12.332031 13.972656 Z M 16.816406 11.550781 C 16.796875 11.519531 16.808594 11.484375 16.835938 11.464844 C 16.980469 11.375 17.167969 11.277344 17.367188 11.195312 C 17.398438 11.183594 17.4375 11.195312 17.449219 11.222656 C 17.460938 11.253906 17.449219 11.289062 17.417969 11.300781 C 17.21875 11.386719 17.039062 11.476562 16.902344 11.5625 C 16.890625 11.566406 16.882812 11.574219 16.871094 11.574219 C 16.847656 11.578125 16.828125 11.566406 16.816406 11.550781 Z M 17.550781 11.195312 C 17.539062 11.164062 17.558594 11.128906 17.585938 11.117188 C 17.667969 11.085938 17.746094 11.0625 17.824219 11.039062 C 17.855469 11.027344 17.890625 11.042969 17.902344 11.078125 C 17.914062 11.109375 17.898438 11.144531 17.859375 11.15625 C 17.78125 11.183594 17.707031 11.207031 17.628906 11.234375 C 17.625 11.234375 17.617188 11.242188 17.613281 11.242188 C 17.582031 11.230469 17.558594 11.21875 17.550781 11.195312 Z M 17.976562 11.054688 C 17.96875 11.027344 17.988281 10.988281 18.019531 10.984375 C 18.253906 10.921875 18.808594 10.796875 18.90625 10.988281 C 18.910156 11 19.082031 11.222656 19.324219 11.730469 C 19.335938 11.757812 19.324219 11.796875 19.292969 11.808594 C 19.289062 11.8125 19.277344 11.8125 19.269531 11.8125 C 19.246094 11.8125 19.226562 11.800781 19.214844 11.777344 C 19.070312 11.476562 18.949219 11.273438 18.875 11.15625 C 18.828125 11.230469 18.734375 11.308594 18.59375 11.398438 C 18.582031 11.40625 18.570312 11.410156 18.566406 11.410156 C 18.546875 11.410156 18.523438 11.398438 18.515625 11.378906 C 18.5 11.351562 18.503906 11.3125 18.535156 11.296875 C 18.777344 11.140625 18.808594 11.054688 18.800781 11.039062 C 18.789062 11 18.582031 10.945312 18.050781 11.089844 C 18.019531 11.105469 17.980469 11.085938 17.976562 11.054688 Z M 17.75 11.730469 C 17.738281 11.699219 17.757812 11.664062 17.789062 11.652344 C 18.007812 11.574219 18.207031 11.484375 18.378906 11.386719 C 18.40625 11.367188 18.445312 11.378906 18.460938 11.410156 C 18.480469 11.441406 18.46875 11.476562 18.4375 11.496094 C 18.261719 11.589844 18.050781 11.679688 17.832031 11.765625 C 17.824219 11.765625 17.816406 11.773438 17.8125 11.773438 C 17.78125 11.773438 17.757812 11.753906 17.75 11.730469 Z M 17.484375 11.753906 C 17.527344 11.742188 17.570312 11.730469 17.605469 11.71875 C 17.636719 11.707031 17.671875 11.722656 17.683594 11.753906 C 17.695312 11.785156 17.679688 11.820312 17.648438 11.832031 C 17.605469 11.84375 17.5625 11.863281 17.519531 11.875 C 17.515625 11.875 17.507812 11.875 17.503906 11.875 C 17.476562 11.875 17.453125 11.855469 17.441406 11.832031 C 17.4375 11.796875 17.453125 11.757812 17.484375 11.753906 Z M 16.695312 12.613281 C 16.671875 12.613281 16.644531 12.597656 16.632812 12.570312 C 16.5 12.101562 16.488281 11.902344 16.488281 11.867188 C 16.46875 11.789062 16.523438 11.699219 16.652344 11.597656 C 16.675781 11.574219 16.71875 11.578125 16.738281 11.601562 C 16.761719 11.628906 16.753906 11.667969 16.730469 11.6875 C 16.617188 11.777344 16.601562 11.832031 16.609375 11.84375 C 16.621094 11.878906 16.808594 11.929688 17.320312 11.800781 C 17.351562 11.796875 17.386719 11.8125 17.394531 11.84375 C 17.398438 11.875 17.382812 11.910156 17.351562 11.914062 C 17.191406 11.957031 16.96875 12 16.792969 12 C 16.730469 12 16.671875 11.996094 16.628906 11.980469 C 16.640625 12.085938 16.675781 12.265625 16.753906 12.542969 C 16.765625 12.570312 16.742188 12.609375 16.710938 12.613281 C 16.707031 12.613281 16.699219 12.613281 16.695312 12.613281 Z M 17.332031 14.363281 C 17.328125 14.371094 17.3125 14.371094 17.308594 14.371094 C 17.285156 14.371094 17.257812 14.359375 17.253906 14.335938 C 17.015625 13.773438 16.820312 13.257812 16.6875 12.789062 C 16.675781 12.757812 16.699219 12.722656 16.730469 12.714844 C 16.761719 12.703125 16.796875 12.726562 16.804688 12.757812 C 16.9375 13.214844 17.125 13.734375 17.363281 14.285156 C 17.375 14.316406 17.363281 14.351562 17.332031 14.363281 Z M 17.652344 15.03125 C 17.640625 15.039062 17.636719 15.039062 17.625 15.039062 C 17.597656 15.039062 17.582031 15.027344 17.570312 15.007812 C 17.488281 14.863281 17.410156 14.707031 17.339844 14.546875 C 17.328125 14.515625 17.339844 14.480469 17.367188 14.46875 C 17.398438 14.457031 17.4375 14.46875 17.449219 14.496094 C 17.519531 14.660156 17.59375 14.808594 17.671875 14.949219 C 17.695312 14.984375 17.683594 15.019531 17.652344 15.03125 Z M 20.230469 14.625 C 20.230469 14.660156 20.234375 14.695312 20.234375 14.738281 C 20.234375 14.773438 20.210938 14.796875 20.175781 14.796875 C 20.144531 14.796875 20.113281 14.773438 20.113281 14.738281 C 20.113281 14.703125 20.113281 14.664062 20.109375 14.628906 C 20.109375 14.59375 20.132812 14.570312 20.164062 14.5625 C 20.199219 14.5625 20.230469 14.585938 20.230469 14.625 Z M 19.816406 13.089844 C 19.847656 13.078125 19.882812 13.09375 19.894531 13.125 C 19.9375 13.246094 19.957031 13.304688 20 13.445312 C 20.109375 13.789062 20.179688 14.117188 20.210938 14.425781 C 20.21875 14.457031 20.191406 14.484375 20.15625 14.492188 C 20.15625 14.492188 20.152344 14.492188 20.152344 14.492188 C 20.121094 14.492188 20.097656 14.46875 20.089844 14.4375 C 20.058594 14.136719 19.988281 13.8125 19.882812 13.480469 C 19.839844 13.347656 19.824219 13.289062 19.78125 13.160156 C 19.769531 13.132812 19.785156 13.101562 19.816406 13.089844 Z M 19.652344 12.625 C 19.683594 12.613281 19.71875 12.632812 19.730469 12.660156 C 19.761719 12.742188 19.785156 12.8125 19.816406 12.898438 C 19.828125 12.925781 19.808594 12.964844 19.78125 12.976562 C 19.773438 12.976562 19.769531 12.980469 19.761719 12.980469 C 19.738281 12.980469 19.714844 12.964844 19.707031 12.9375 C 19.675781 12.859375 19.652344 12.78125 19.621094 12.703125 C 19.605469 12.675781 19.621094 12.636719 19.652344 12.625 Z M 19.332031 11.863281 C 19.359375 11.851562 19.398438 11.863281 19.410156 11.890625 C 19.5 12.085938 19.585938 12.289062 19.671875 12.5 C 19.683594 12.53125 19.664062 12.566406 19.632812 12.578125 C 19.628906 12.578125 19.621094 12.582031 19.609375 12.582031 C 19.585938 12.582031 19.5625 12.570312 19.554688 12.546875 C 19.46875 12.335938 19.386719 12.132812 19.300781 11.945312 C 19.289062 11.914062 19.300781 11.878906 19.332031 11.863281 Z M 20.476562 22.335938 C 21.917969 22.164062 22.726562 21.511719 22.730469 21.507812 C 22.757812 21.484375 22.796875 21.488281 22.816406 21.511719 C 22.839844 21.539062 22.835938 21.578125 22.8125 21.597656 C 22.773438 21.628906 21.972656 22.277344 20.492188 22.457031 C 20.492188 22.457031 20.484375 22.457031 20.484375 22.457031 C 20.453125 22.457031 20.429688 22.433594 20.421875 22.402344 C 20.417969 22.367188 20.441406 22.34375 20.476562 22.335938 Z M 21.160156 21.640625 C 21.132812 21.621094 21.128906 21.578125 21.148438 21.554688 C 21.164062 21.53125 21.207031 21.527344 21.230469 21.542969 C 21.324219 21.609375 21.394531 21.632812 21.457031 21.617188 C 21.546875 21.585938 21.597656 21.453125 21.609375 21.40625 C 21.613281 21.375 21.652344 21.351562 21.679688 21.363281 C 21.710938 21.367188 21.734375 21.40625 21.722656 21.433594 C 21.722656 21.449219 21.664062 21.671875 21.492188 21.730469 C 21.460938 21.742188 21.4375 21.742188 21.40625 21.742188 C 21.335938 21.742188 21.25 21.707031 21.160156 21.640625 Z M 17.921875 12.234375 C 17.800781 12.265625 17.671875 12.269531 17.539062 12.257812 C 17.410156 12.246094 17.179688 12.257812 17.046875 12.425781 C 17.035156 12.445312 17.015625 12.453125 17 12.453125 C 16.984375 12.453125 16.972656 12.445312 16.960938 12.441406 C 16.9375 12.421875 16.929688 12.378906 16.949219 12.355469 C 17.113281 12.136719 17.394531 12.125 17.542969 12.136719 C 17.667969 12.152344 17.78125 12.136719 17.890625 12.113281 C 18.121094 12.058594 18.28125 11.976562 18.335938 11.875 C 18.480469 11.578125 18.910156 11.53125 18.929688 11.53125 C 18.964844 11.523438 18.992188 11.550781 18.996094 11.585938 C 19.003906 11.613281 18.976562 11.644531 18.941406 11.652344 C 18.9375 11.652344 18.558594 11.691406 18.445312 11.929688 C 18.378906 12.066406 18.199219 12.167969 17.921875 12.234375 Z M 18.65625 12.679688 C 18.675781 12.636719 18.675781 12.597656 18.664062 12.554688 C 18.632812 12.46875 18.527344 12.421875 18.445312 12.453125 C 18.402344 12.46875 18.363281 12.5 18.347656 12.542969 C 18.328125 12.582031 18.328125 12.625 18.339844 12.667969 C 18.351562 12.710938 18.390625 12.746094 18.429688 12.765625 C 18.457031 12.777344 18.480469 12.78125 18.503906 12.78125 C 18.523438 12.78125 18.546875 12.777344 18.566406 12.769531 C 18.601562 12.753906 18.636719 12.714844 18.65625 12.679688 Z M 18.539062 12.625 C 18.535156 12.636719 18.527344 12.644531 18.511719 12.648438 C 18.5 12.65625 18.484375 12.65625 18.472656 12.648438 C 18.460938 12.644531 18.457031 12.632812 18.449219 12.621094 C 18.445312 12.609375 18.445312 12.597656 18.449219 12.582031 C 18.457031 12.570312 18.460938 12.566406 18.480469 12.558594 C 18.484375 12.558594 18.492188 12.558594 18.5 12.558594 C 18.515625 12.558594 18.535156 12.570312 18.546875 12.589844 C 18.546875 12.601562 18.546875 12.613281 18.539062 12.625 Z M 19.238281 12.789062 C 19.191406 12.765625 19.140625 12.765625 19.09375 12.78125 C 19.046875 12.800781 19.007812 12.835938 18.984375 12.882812 C 18.960938 12.933594 18.960938 12.980469 18.976562 13.027344 C 18.996094 13.078125 19.03125 13.113281 19.082031 13.136719 C 19.105469 13.148438 19.136719 13.15625 19.160156 13.15625 C 19.183594 13.15625 19.203125 13.148438 19.226562 13.144531 C 19.324219 13.105469 19.378906 13 19.34375 12.898438 C 19.324219 12.847656 19.289062 12.8125 19.238281 12.789062 Z M 19.183594 13.027344 C 19.167969 13.035156 19.148438 13.035156 19.128906 13.027344 C 19.113281 13.023438 19.101562 13.003906 19.09375 12.988281 C 19.085938 12.96875 19.085938 12.949219 19.09375 12.933594 C 19.101562 12.914062 19.117188 12.902344 19.136719 12.898438 C 19.140625 12.898438 19.15625 12.890625 19.160156 12.890625 C 19.171875 12.890625 19.179688 12.890625 19.191406 12.898438 C 19.210938 12.902344 19.222656 12.921875 19.226562 12.9375 C 19.238281 12.976562 19.222656 13.015625 19.183594 13.027344 Z M 18.722656 13.671875 C 18.667969 13.691406 18.621094 13.734375 18.59375 13.789062 C 18.570312 13.839844 18.566406 13.902344 18.589844 13.957031 C 18.609375 14.011719 18.648438 14.058594 18.703125 14.082031 C 18.734375 14.09375 18.765625 14.101562 18.800781 14.101562 C 18.828125 14.101562 18.855469 14.09375 18.882812 14.089844 C 18.9375 14.070312 18.984375 14.027344 19.007812 13.972656 C 19.03125 13.917969 19.039062 13.859375 19.015625 13.804688 C 18.964844 13.691406 18.839844 13.632812 18.722656 13.671875 Z M 18.894531 13.925781 C 18.882812 13.949219 18.863281 13.96875 18.832031 13.980469 C 18.808594 13.992188 18.777344 13.984375 18.753906 13.972656 C 18.730469 13.960938 18.710938 13.945312 18.699219 13.914062 C 18.6875 13.890625 18.691406 13.859375 18.703125 13.835938 C 18.71875 13.8125 18.734375 13.792969 18.765625 13.78125 C 18.777344 13.773438 18.789062 13.773438 18.800781 13.773438 C 18.84375 13.773438 18.882812 13.800781 18.898438 13.839844 C 18.90625 13.878906 18.90625 13.902344 18.894531 13.925781 Z M 19.742188 15.046875 C 19.699219 15.027344 19.652344 15.019531 19.609375 15.039062 C 19.566406 15.058594 19.53125 15.085938 19.511719 15.128906 C 19.496094 15.171875 19.488281 15.21875 19.507812 15.261719 C 19.53125 15.332031 19.597656 15.375 19.671875 15.375 C 19.6875 15.375 19.714844 15.371094 19.730469 15.363281 C 19.773438 15.347656 19.808594 15.316406 19.828125 15.273438 C 19.847656 15.230469 19.851562 15.183594 19.835938 15.140625 C 19.816406 15.097656 19.785156 15.070312 19.742188 15.046875 Z M 19.71875 15.226562 C 19.714844 15.238281 19.699219 15.25 19.6875 15.253906 C 19.675781 15.261719 19.660156 15.261719 19.644531 15.253906 C 19.632812 15.25 19.621094 15.238281 19.617188 15.226562 C 19.609375 15.214844 19.609375 15.195312 19.617188 15.183594 C 19.621094 15.171875 19.632812 15.160156 19.644531 15.152344 C 19.652344 15.152344 19.660156 15.148438 19.664062 15.148438 C 19.671875 15.148438 19.683594 15.148438 19.6875 15.152344 C 19.699219 15.160156 19.714844 15.171875 19.71875 15.183594 C 19.726562 15.203125 19.726562 15.214844 19.71875 15.226562 Z M 29.472656 18.234375 C 29.46875 18.226562 28.757812 17.875 28.027344 17.078125 C 27.246094 16.222656 25.457031 15.226562 23.929688 15.097656 C 22.476562 14.980469 22.058594 14.949219 22.007812 14.949219 L 20.601562 14.59375 C 20.4375 12.667969 19.15625 10.585938 19.140625 10.566406 L 18.144531 8.890625 C 18.03125 8.648438 17.222656 8.871094 16.804688 9.023438 C 16.488281 9.136719 16.195312 9.273438 15.996094 9.40625 C 15.765625 9.558594 15.667969 9.675781 15.699219 9.78125 L 16.039062 11.691406 C 16.042969 11.71875 16.414062 14.058594 17.515625 15.628906 L 16.292969 15.628906 C 16.277344 15.628906 15.855469 15.632812 15.820312 15.898438 C 15.8125 15.964844 15.796875 16.128906 16.710938 16.285156 L 17.339844 16.863281 C 17.410156 16.929688 17.496094 16.988281 17.59375 17.03125 L 17.816406 17.132812 L 18.691406 18.175781 C 18.734375 18.222656 18.785156 18.265625 18.84375 18.292969 L 19.171875 18.460938 L 19.644531 19.394531 C 19.792969 19.683594 20.058594 19.90625 20.441406 20.058594 C 20.496094 20.082031 20.5625 20.097656 20.625 20.125 L 20.792969 20.585938 C 20.804688 20.617188 21.121094 21.351562 20.496094 21.933594 L 20.109375 22.273438 C 20.023438 22.351562 19.972656 22.457031 19.972656 22.574219 C 19.972656 22.621094 19.980469 22.664062 20 22.710938 C 20.023438 22.78125 20.089844 22.824219 20.167969 22.824219 C 20.175781 22.824219 20.175781 22.824219 20.179688 22.824219 C 20.484375 22.808594 21.050781 22.699219 21.730469 22.453125 L 21.816406 22.421875 C 22.507812 22.167969 23.066406 21.828125 23.253906 21.710938 C 23.308594 21.683594 23.339844 21.621094 23.339844 21.5625 C 23.339844 21.542969 23.332031 21.519531 23.328125 21.5 C 23.273438 21.351562 23.121094 21.242188 22.957031 21.242188 L 22.441406 21.238281 C 21.578125 21.1875 21.339844 20.429688 21.328125 20.394531 L 21.296875 20.316406 C 22.53125 20.597656 24.304688 20.773438 25.269531 20.605469 C 26.703125 20.359375 28.484375 21.644531 28.5 21.664062 C 28.515625 21.671875 28.527344 21.675781 28.539062 21.675781 C 28.554688 21.675781 28.574219 21.671875 28.585938 21.652344 C 28.605469 21.628906 28.597656 21.585938 28.574219 21.566406 C 28.570312 21.5625 28.113281 21.230469 27.480469 20.929688 C 26.890625 20.652344 26.03125 20.351562 25.253906 20.484375 C 24.042969 20.695312 21.546875 20.359375 20.492188 19.949219 C 20.136719 19.8125 19.894531 19.613281 19.761719 19.347656 L 19.359375 18.558594 L 19.835938 18.804688 L 20.035156 19.027344 C 20.113281 19.113281 20.207031 19.179688 20.316406 19.214844 C 20.316406 19.214844 20.320312 19.214844 20.320312 19.214844 C 20.367188 19.234375 20.417969 19.246094 20.472656 19.25 L 20.777344 19.289062 L 21.5 19.660156 C 21.503906 19.667969 21.515625 19.667969 21.527344 19.667969 C 21.554688 19.667969 21.570312 19.652344 21.582031 19.636719 C 21.601562 19.605469 21.589844 19.570312 21.558594 19.558594 L 19.90625 18.703125 L 18.910156 18.1875 C 18.867188 18.160156 18.832031 18.132812 18.796875 18.097656 L 18.078125 17.242188 L 21.152344 18.613281 C 21.160156 18.621094 21.171875 18.621094 21.175781 18.621094 C 21.203125 18.621094 21.21875 18.605469 21.230469 18.582031 C 21.242188 18.554688 21.230469 18.515625 21.203125 18.503906 L 17.648438 16.921875 C 17.570312 16.886719 17.488281 16.839844 17.429688 16.777344 L 16.945312 16.332031 C 17.058594 16.355469 17.175781 16.378906 17.289062 16.410156 L 20.832031 17.335938 C 20.835938 17.335938 20.84375 17.335938 20.847656 17.335938 C 20.875 17.335938 20.898438 17.320312 20.910156 17.296875 C 20.914062 17.265625 20.898438 17.230469 20.867188 17.222656 L 17.3125 16.285156 C 17.132812 16.238281 16.949219 16.199219 16.773438 16.171875 C 16.074219 16.054688 15.941406 15.933594 15.941406 15.910156 C 15.960938 15.753906 16.289062 15.75 16.292969 15.75 L 22.253906 15.75 C 22.289062 15.75 22.3125 15.726562 22.3125 15.6875 C 22.3125 15.652344 22.289062 15.628906 22.253906 15.628906 L 20.671875 15.628906 C 20.65625 15.617188 20.617188 15.597656 20.570312 15.570312 C 20.613281 15.308594 20.625 15.019531 20.605469 14.714844 L 21.980469 15.058594 C 21.984375 15.058594 21.984375 15.058594 21.992188 15.058594 C 21.996094 15.058594 22.367188 15.082031 23.917969 15.207031 C 25.410156 15.328125 27.164062 16.308594 27.9375 17.144531 C 28.683594 17.957031 29.386719 18.3125 29.417969 18.332031 C 29.425781 18.335938 29.4375 18.335938 29.441406 18.335938 C 29.46875 18.335938 29.484375 18.324219 29.496094 18.300781 C 29.515625 18.28125 29.503906 18.246094 29.472656 18.234375 Z M 21.214844 20.425781 C 21.214844 20.429688 21.488281 21.289062 22.441406 21.34375 L 22.957031 21.351562 C 23.070312 21.351562 23.175781 21.421875 23.210938 21.53125 C 23.210938 21.539062 23.21875 21.542969 23.21875 21.550781 C 23.21875 21.566406 23.207031 21.585938 23.195312 21.597656 C 23.011719 21.710938 22.457031 22.050781 21.777344 22.296875 L 21.691406 22.324219 C 21.03125 22.566406 20.476562 22.675781 20.179688 22.691406 C 20.15625 22.691406 20.132812 22.679688 20.125 22.65625 C 20.113281 22.625 20.109375 22.589844 20.109375 22.558594 C 20.109375 22.480469 20.144531 22.402344 20.207031 22.351562 L 20.59375 22.011719 C 21.285156 21.363281 20.921875 20.53125 20.921875 20.527344 L 20.78125 20.160156 C 20.902344 20.195312 21.03125 20.230469 21.164062 20.261719 Z M 20.136719 18.960938 L 20.210938 19 L 20.222656 19.027344 C 20.222656 19.027344 20.222656 19.035156 20.222656 19.035156 C 20.191406 19.011719 20.164062 18.984375 20.136719 18.960938 Z M 20.382812 19.113281 C 20.375 19.101562 20.375 19.09375 20.371094 19.082031 L 20.464844 19.128906 C 20.441406 19.125 20.410156 19.117188 20.382812 19.113281 Z M 16.0625 9.503906 C 16.261719 9.375 16.542969 9.238281 16.847656 9.128906 C 17.328125 8.957031 17.679688 8.902344 17.871094 8.902344 C 17.976562 8.902344 18.03125 8.917969 18.042969 8.9375 C 18.050781 8.957031 18.019531 9.039062 17.792969 9.183594 C 17.59375 9.308594 17.3125 9.449219 17.011719 9.558594 C 16.699219 9.671875 16.402344 9.75 16.167969 9.773438 C 15.898438 9.804688 15.824219 9.761719 15.820312 9.75 C 15.808594 9.730469 15.839844 9.652344 16.0625 9.503906 Z M 16.160156 11.675781 L 15.84375 9.894531 C 15.886719 9.90625 15.933594 9.90625 15.988281 9.90625 C 16.042969 9.90625 16.105469 9.898438 16.179688 9.894531 C 16.421875 9.863281 16.730469 9.785156 17.046875 9.664062 C 17.363281 9.550781 17.652344 9.414062 17.855469 9.28125 C 17.976562 9.203125 18.0625 9.128906 18.109375 9.0625 L 19.03125 10.621094 C 19.046875 10.640625 20.332031 12.726562 20.476562 14.640625 C 20.503906 14.984375 20.492188 15.304688 20.441406 15.59375 C 20.441406 15.605469 20.4375 15.617188 20.4375 15.628906 L 20.167969 15.628906 C 20.230469 15.460938 20.230469 15.273438 20.230469 15.117188 C 20.230469 15.082031 20.230469 15.050781 20.230469 15.015625 C 20.230469 14.980469 20.207031 14.953125 20.167969 14.953125 C 20.136719 14.953125 20.109375 14.980469 20.109375 15.015625 C 20.109375 15.046875 20.109375 15.082031 20.109375 15.117188 C 20.109375 15.285156 20.109375 15.476562 20.035156 15.628906 L 18.105469 15.628906 C 18.105469 15.621094 18.097656 15.617188 18.097656 15.609375 L 18.066406 15.570312 C 17.988281 15.460938 17.84375 15.269531 17.777344 15.128906 C 17.761719 15.097656 17.726562 15.085938 17.695312 15.097656 C 17.667969 15.109375 17.652344 15.148438 17.667969 15.175781 C 17.738281 15.320312 17.878906 15.519531 17.957031 15.628906 L 17.660156 15.628906 C 16.542969 14.082031 16.160156 11.699219 16.160156 11.675781 Z M 17.34375 8.359375 L 17.355469 8.132812 C 17.355469 8.09375 17.386719 8.070312 17.417969 8.070312 C 17.453125 8.070312 17.476562 8.101562 17.476562 8.132812 L 17.464844 8.359375 C 17.464844 8.390625 17.4375 8.417969 17.40625 8.417969 C 17.367188 8.417969 17.339844 8.394531 17.34375 8.359375 Z M 17.363281 7.890625 L 17.375 7.566406 C 17.375 7.53125 17.40625 7.503906 17.4375 7.503906 C 17.472656 7.503906 17.496094 7.535156 17.496094 7.566406 L 17.484375 7.890625 C 17.484375 7.921875 17.453125 7.949219 17.421875 7.949219 C 17.386719 7.957031 17.363281 7.925781 17.363281 7.890625 Z M 17.386719 7.289062 L 17.410156 6.679688 C 17.410156 6.644531 17.441406 6.621094 17.472656 6.621094 C 17.507812 6.621094 17.53125 6.652344 17.53125 6.679688 L 17.507812 7.289062 C 17.507812 7.320312 17.476562 7.347656 17.449219 7.347656 C 17.410156 7.355469 17.386719 7.324219 17.386719 7.289062 Z M 17.867188 8.269531 L 18.03125 7.726562 C 18.042969 7.699219 18.074219 7.679688 18.105469 7.6875 C 18.132812 7.699219 18.152344 7.726562 18.144531 7.757812 L 17.980469 8.300781 C 17.976562 8.324219 17.953125 8.339844 17.921875 8.339844 C 17.914062 8.339844 17.910156 8.339844 17.902344 8.339844 C 17.871094 8.335938 17.855469 8.300781 17.867188 8.269531 Z M 18.144531 7.347656 L 18.199219 7.179688 C 18.214844 7.148438 18.242188 7.132812 18.273438 7.136719 C 18.304688 7.148438 18.324219 7.179688 18.316406 7.210938 L 18.261719 7.378906 C 18.253906 7.402344 18.230469 7.421875 18.199219 7.421875 C 18.195312 7.421875 18.1875 7.421875 18.183594 7.421875 C 18.152344 7.414062 18.132812 7.386719 18.144531 7.347656 Z M 18.199219 8.328125 L 18.347656 8.101562 C 18.363281 8.070312 18.402344 8.066406 18.429688 8.082031 C 18.460938 8.101562 18.46875 8.136719 18.449219 8.167969 L 18.304688 8.394531 C 18.292969 8.414062 18.273438 8.425781 18.253906 8.425781 C 18.242188 8.425781 18.230469 8.417969 18.226562 8.414062 C 18.195312 8.394531 18.183594 8.359375 18.199219 8.328125 Z M 18.503906 7.867188 L 18.609375 7.710938 C 18.625 7.679688 18.664062 7.671875 18.691406 7.691406 C 18.722656 7.710938 18.730469 7.746094 18.710938 7.777344 L 18.609375 7.933594 C 18.59375 7.949219 18.578125 7.960938 18.558594 7.960938 C 18.546875 7.960938 18.535156 7.957031 18.527344 7.949219 C 18.492188 7.933594 18.484375 7.894531 18.503906 7.867188 Z M 18.746094 7.492188 L 19.027344 7.058594 C 19.046875 7.03125 19.082031 7.023438 19.113281 7.042969 C 19.140625 7.058594 19.148438 7.097656 19.128906 7.125 L 18.851562 7.558594 C 18.839844 7.578125 18.820312 7.589844 18.800781 7.589844 C 18.789062 7.589844 18.777344 7.582031 18.773438 7.578125 C 18.734375 7.554688 18.730469 7.515625 18.746094 7.492188 Z M 19.183594 6.8125 L 19.347656 6.554688 C 19.367188 6.523438 19.402344 6.519531 19.433594 6.535156 C 19.464844 6.554688 19.46875 6.589844 19.453125 6.621094 L 19.289062 6.878906 C 19.277344 6.898438 19.257812 6.910156 19.238281 6.910156 C 19.226562 6.910156 19.214844 6.902344 19.210938 6.898438 C 19.171875 6.878906 19.167969 6.835938 19.183594 6.8125 Z M 18.480469 8.601562 L 19.214844 8.082031 C 19.246094 8.066406 19.28125 8.070312 19.300781 8.09375 C 19.320312 8.125 19.3125 8.160156 19.289062 8.179688 L 18.554688 8.695312 C 18.539062 8.703125 18.527344 8.707031 18.515625 8.707031 C 18.5 8.707031 18.480469 8.703125 18.46875 8.683594 C 18.449219 8.65625 18.457031 8.617188 18.480469 8.601562 Z M 19.851562 8.648438 C 19.839844 8.617188 19.851562 8.582031 19.882812 8.570312 L 20.441406 8.335938 C 20.472656 8.324219 20.507812 8.335938 20.519531 8.367188 C 20.53125 8.394531 20.519531 8.433594 20.492188 8.445312 L 19.933594 8.679688 C 19.925781 8.683594 19.914062 8.683594 19.90625 8.683594 C 19.882812 8.683594 19.863281 8.667969 19.851562 8.648438 Z M 19.445312 8.75 L 19.628906 8.679688 C 19.660156 8.667969 19.695312 8.679688 19.707031 8.707031 C 19.71875 8.738281 19.707031 8.773438 19.675781 8.785156 L 19.496094 8.859375 C 19.488281 8.863281 19.476562 8.863281 19.46875 8.863281 C 19.445312 8.863281 19.421875 8.851562 19.414062 8.828125 C 19.402344 8.800781 19.414062 8.761719 19.445312 8.75 Z M 19.25 8.894531 C 19.265625 8.925781 19.25 8.960938 19.222656 8.972656 L 18.855469 9.125 C 18.851562 9.128906 18.839844 9.128906 18.832031 9.128906 C 18.808594 9.128906 18.785156 9.117188 18.777344 9.09375 C 18.765625 9.0625 18.777344 9.027344 18.808594 9.015625 L 19.171875 8.863281 C 19.203125 8.847656 19.238281 8.863281 19.25 8.894531 Z M 13.730469 6.296875 L 13.75 6.085938 C 13.753906 6.054688 13.777344 6.023438 13.816406 6.03125 C 13.847656 6.035156 13.875 6.0625 13.871094 6.097656 L 13.851562 6.308594 C 13.851562 6.339844 13.820312 6.363281 13.792969 6.363281 C 13.792969 6.363281 13.785156 6.363281 13.785156 6.363281 C 13.75 6.355469 13.722656 6.324219 13.730469 6.296875 Z M 13.773438 5.828125 L 13.804688 5.519531 C 13.808594 5.488281 13.832031 5.460938 13.871094 5.464844 C 13.902344 5.472656 13.929688 5.496094 13.925781 5.53125 L 13.894531 5.839844 C 13.894531 5.867188 13.863281 5.894531 13.832031 5.894531 C 13.832031 5.894531 13.828125 5.894531 13.828125 5.894531 C 13.796875 5.894531 13.773438 5.863281 13.773438 5.828125 Z M 13.832031 5.21875 L 13.875 4.75 C 13.882812 4.71875 13.90625 4.6875 13.941406 4.695312 C 13.972656 4.703125 14.003906 4.726562 13.996094 4.761719 L 13.957031 5.230469 C 13.957031 5.261719 13.925781 5.285156 13.894531 5.285156 C 13.894531 5.285156 13.886719 5.285156 13.886719 5.285156 C 13.859375 5.277344 13.832031 5.25 13.832031 5.21875 Z M 13.246094 6.402344 L 13.109375 5.539062 C 13.105469 5.507812 13.128906 5.472656 13.160156 5.472656 C 13.191406 5.464844 13.226562 5.488281 13.226562 5.519531 L 13.367188 6.386719 C 13.371094 6.417969 13.347656 6.453125 13.316406 6.453125 C 13.3125 6.453125 13.3125 6.453125 13.304688 6.453125 C 13.273438 6.457031 13.25 6.433594 13.246094 6.402344 Z M 12.746094 5.84375 C 12.777344 5.832031 12.8125 5.851562 12.824219 5.878906 L 13.015625 6.453125 C 13.027344 6.480469 13.007812 6.519531 12.976562 6.53125 C 12.972656 6.53125 12.964844 6.535156 12.960938 6.535156 C 12.933594 6.535156 12.910156 6.519531 12.90625 6.496094 L 12.714844 5.921875 C 12.691406 5.894531 12.710938 5.855469 12.746094 5.84375 Z M 12.492188 5.09375 C 12.523438 5.082031 12.558594 5.097656 12.570312 5.128906 L 12.714844 5.554688 C 12.726562 5.585938 12.710938 5.621094 12.679688 5.632812 C 12.671875 5.632812 12.667969 5.640625 12.660156 5.640625 C 12.636719 5.640625 12.613281 5.621094 12.605469 5.597656 L 12.457031 5.171875 C 12.441406 5.140625 12.460938 5.105469 12.492188 5.09375 Z M 12.320312 4.773438 C 12.308594 4.742188 12.328125 4.707031 12.359375 4.695312 C 12.386719 4.683594 12.425781 4.703125 12.4375 4.730469 L 12.503906 4.929688 C 12.515625 4.960938 12.496094 4.996094 12.46875 5.007812 C 12.460938 5.007812 12.457031 5.015625 12.449219 5.015625 C 12.425781 5.015625 12.402344 4.996094 12.394531 4.972656 Z M 12.5625 6.722656 L 12.394531 6.519531 C 12.375 6.496094 12.375 6.453125 12.40625 6.433594 C 12.429688 6.417969 12.472656 6.417969 12.492188 6.445312 L 12.660156 6.652344 C 12.679688 6.675781 12.679688 6.71875 12.648438 6.734375 C 12.636719 6.742188 12.625 6.746094 12.613281 6.746094 C 12.59375 6.742188 12.578125 6.734375 12.5625 6.722656 Z M 12.085938 6.128906 C 12.066406 6.101562 12.066406 6.0625 12.097656 6.042969 C 12.121094 6.023438 12.164062 6.023438 12.183594 6.054688 L 12.316406 6.21875 C 12.332031 6.242188 12.332031 6.285156 12.304688 6.300781 C 12.292969 6.308594 12.277344 6.3125 12.265625 6.3125 C 12.25 6.3125 12.230469 6.308594 12.21875 6.289062 Z M 12.339844 6.902344 L 12.480469 7.019531 C 12.503906 7.042969 12.511719 7.078125 12.484375 7.101562 C 12.472656 7.113281 12.457031 7.125 12.4375 7.125 C 12.425781 7.125 12.40625 7.121094 12.402344 7.113281 L 12.261719 7 C 12.238281 6.976562 12.230469 6.941406 12.253906 6.914062 C 12.277344 6.886719 12.316406 6.878906 12.339844 6.902344 Z M 11.582031 6.433594 C 11.554688 6.410156 11.550781 6.375 11.574219 6.351562 C 11.597656 6.324219 11.636719 6.320312 11.660156 6.34375 L 12.085938 6.691406 C 12.109375 6.71875 12.113281 6.753906 12.089844 6.777344 C 12.078125 6.789062 12.058594 6.800781 12.042969 6.800781 C 12.03125 6.800781 12.011719 6.796875 12.003906 6.789062 Z M 11.222656 6.140625 C 11.199219 6.117188 11.191406 6.078125 11.214844 6.054688 C 11.242188 6.03125 11.277344 6.023438 11.300781 6.050781 L 11.445312 6.167969 C 11.472656 6.195312 11.476562 6.230469 11.453125 6.253906 C 11.441406 6.265625 11.421875 6.277344 11.40625 6.277344 C 11.390625 6.277344 11.375 6.273438 11.367188 6.265625 Z M 10.292969 8.191406 L 10.953125 8.277344 L 11.039062 8.929688 C 11.046875 8.960938 11.070312 8.984375 11.101562 8.984375 C 11.132812 8.984375 11.15625 8.960938 11.160156 8.929688 L 11.246094 8.277344 L 11.910156 8.191406 C 11.9375 8.183594 11.964844 8.160156 11.964844 8.132812 C 11.964844 8.101562 11.9375 8.078125 11.910156 8.070312 L 11.246094 7.988281 L 11.160156 7.335938 C 11.15625 7.308594 11.132812 7.28125 11.101562 7.28125 C 11.070312 7.28125 11.046875 7.308594 11.039062 7.335938 L 10.953125 7.988281 L 10.292969 8.070312 C 10.261719 8.078125 10.238281 8.101562 10.238281 8.132812 C 10.238281 8.160156 10.261719 8.191406 10.292969 8.191406 Z M 11.015625 8.101562 C 11.039062 8.09375 11.0625 8.078125 11.070312 8.046875 L 11.101562 7.8125 L 11.132812 8.046875 C 11.136719 8.078125 11.15625 8.09375 11.1875 8.101562 L 11.421875 8.132812 L 11.1875 8.160156 C 11.15625 8.167969 11.136719 8.183594 11.132812 8.214844 L 11.101562 8.449219 L 11.070312 8.214844 C 11.0625 8.183594 11.046875 8.167969 11.015625 8.160156 L 10.777344 8.132812 Z M 20.125 11.027344 C 20.125 11.054688 20.152344 11.078125 20.179688 11.085938 L 20.84375 11.167969 L 20.929688 11.824219 C 20.933594 11.855469 20.957031 11.878906 20.988281 11.878906 C 21.019531 11.878906 21.042969 11.855469 21.050781 11.824219 L 21.132812 11.167969 L 21.796875 11.085938 C 21.828125 11.078125 21.851562 11.054688 21.851562 11.027344 C 21.851562 10.996094 21.828125 10.972656 21.796875 10.964844 L 21.132812 10.882812 L 21.050781 10.230469 C 21.042969 10.199219 21.019531 10.175781 20.988281 10.175781 C 20.957031 10.175781 20.933594 10.199219 20.929688 10.230469 L 20.84375 10.882812 L 20.179688 10.964844 C 20.152344 10.972656 20.125 10.996094 20.125 11.027344 Z M 20.902344 10.996094 C 20.933594 10.988281 20.953125 10.972656 20.957031 10.941406 L 20.988281 10.707031 L 21.019531 10.941406 C 21.023438 10.972656 21.042969 10.988281 21.074219 10.996094 L 21.3125 11.027344 L 21.074219 11.054688 C 21.042969 11.0625 21.023438 11.078125 21.019531 11.109375 L 20.988281 11.34375 L 20.957031 11.109375 C 20.953125 11.078125 20.933594 11.0625 20.902344 11.054688 L 20.667969 11.027344 Z M 16.398438 7.910156 C 16.519531 7.910156 16.621094 7.804688 16.621094 7.6875 C 16.621094 7.566406 16.519531 7.464844 16.398438 7.464844 C 16.277344 7.464844 16.171875 7.566406 16.171875 7.6875 C 16.171875 7.804688 16.269531 7.910156 16.398438 7.910156 Z M 16.398438 7.582031 C 16.453125 7.582031 16.5 7.632812 16.5 7.6875 C 16.5 7.738281 16.453125 7.789062 16.398438 7.789062 C 16.34375 7.789062 16.292969 7.738281 16.292969 7.6875 C 16.292969 7.632812 16.335938 7.582031 16.398438 7.582031 Z M 22.3125 12.757812 C 22.445312 12.757812 22.554688 12.648438 22.554688 12.519531 C 22.554688 12.386719 22.445312 12.277344 22.3125 12.277344 C 22.179688 12.277344 22.070312 12.386719 22.070312 12.519531 C 22.070312 12.648438 22.171875 12.757812 22.3125 12.757812 Z M 22.3125 12.398438 C 22.378906 12.398438 22.433594 12.453125 22.433594 12.519531 C 22.433594 12.582031 22.378906 12.636719 22.3125 12.636719 C 22.246094 12.636719 22.191406 12.582031 22.191406 12.519531 C 22.183594 12.453125 22.238281 12.398438 22.3125 12.398438 Z M 9.382812 11.066406 C 9.539062 11.066406 9.660156 10.941406 9.660156 10.789062 C 9.660156 10.640625 9.535156 10.515625 9.382812 10.515625 C 9.230469 10.515625 9.101562 10.640625 9.101562 10.789062 C 9.101562 10.941406 9.230469 11.066406 9.382812 11.066406 Z M 9.382812 10.628906 C 9.472656 10.628906 9.539062 10.699219 9.539062 10.785156 C 9.539062 10.867188 9.46875 10.941406 9.382812 10.941406 C 9.296875 10.941406 9.222656 10.867188 9.222656 10.785156 C 9.222656 10.699219 9.296875 10.628906 9.382812 10.628906 Z M 10.871094 9.582031 C 10.949219 9.582031 11.015625 9.648438 11.015625 9.726562 C 11.015625 9.804688 10.949219 9.871094 10.871094 9.871094 C 10.789062 9.871094 10.722656 9.804688 10.722656 9.726562 C 10.722656 9.648438 10.785156 9.582031 10.871094 9.582031 Z M 21.304688 13.789062 C 21.378906 13.789062 21.433594 13.839844 21.433594 13.914062 C 21.433594 13.984375 21.378906 14.039062 21.304688 14.039062 C 21.230469 14.039062 21.175781 13.984375 21.175781 13.914062 C 21.175781 13.839844 21.230469 13.789062 21.304688 13.789062 Z M 15.601562 6.96875 C 15.601562 7.035156 15.546875 7.089844 15.480469 7.089844 C 15.414062 7.089844 15.359375 7.035156 15.359375 6.96875 C 15.359375 6.902344 15.414062 6.847656 15.480469 6.847656 C 15.546875 6.84375 15.601562 6.898438 15.601562 6.96875 Z M 15.601562 6.96875 " fill-opacity="1" fill-rule="nonzero"/></g></svg>