<svg xmlns="http://www.w3.org/2000/svg" xmlns:xlink="http://www.w3.org/1999/xlink" width="40" zoomAndPan="magnify" viewBox="0 0 30 30.000001" height="40" preserveAspectRatio="xMidYMid meet" version="1.0"><defs><clipPath id="adf3a0e659"><path d="M 0.484375 0 L 29.515625 0 L 29.515625 29.03125 L 0.484375 29.03125 Z M 0.484375 0 " clip-rule="nonzero"/></clipPath><clipPath id="74ed6e7834"><path d="M 0.640625 3 L 29.515625 3 L 29.515625 29.03125 L 0.640625 29.03125 Z M 0.640625 3 " clip-rule="nonzero"/></clipPath></defs><g clip-path="url(#adf3a0e659)"><path fill="#ffffff" d="M 0.484375 0 L 29.515625 0 L 29.515625 36.289062 L 0.484375 36.289062 Z M 0.484375 0 " fill-opacity="1" fill-rule="nonzero"/><path fill="#ffffff" d="M 0.484375 0 L 29.515625 0 L 29.515625 29.03125 L 0.484375 29.03125 Z M 0.484375 0 " fill-opacity="1" fill-rule="nonzero"/><path fill="#ffffff" d="M 0.484375 0 L 29.515625 0 L 29.515625 29.03125 L 0.484375 29.03125 Z M 0.484375 0 " fill-opacity="1" fill-rule="nonzero"/></g><path fill="#f3ab5f" d="M 15.851562 5.5625 C 15.851562 5.574219 15.832031 5.574219 15.820312 5.5625 C 15.535156 4.71875 15.691406 3.640625 15.773438 2.765625 C 15.808594 2.3125 15.867188 1.867188 15.9375 1.40625 C 16.003906 0.980469 16.039062 0.492188 16.261719 0.109375 C 16.324219 0 16.472656 0.0585938 16.484375 0.175781 C 16.519531 0.585938 16.382812 1.019531 16.320312 1.425781 C 16.226562 1.925781 16.160156 2.433594 16.109375 2.933594 C 16.0625 3.394531 16.027344 3.859375 15.992188 4.328125 C 15.960938 4.746094 15.972656 5.175781 15.851562 5.5625 Z M 18.050781 7.671875 C 18.761719 6.425781 19.421875 5.15625 20.160156 3.929688 C 20.535156 3.320312 20.921875 2.710938 21.339844 2.121094 C 21.742188 1.542969 22.199219 0.957031 22.492188 0.3125 C 22.523438 0.25 22.445312 0.183594 22.394531 0.230469 C 21.84375 0.703125 21.425781 1.339844 21.023438 1.941406 C 20.628906 2.539062 20.242188 3.148438 19.875 3.765625 C 19.140625 5.011719 18.46875 6.28125 17.976562 7.644531 C 17.96875 7.683594 18.035156 7.707031 18.050781 7.671875 Z M 21.1875 6.996094 C 22.066406 6.175781 23.042969 5.515625 23.988281 4.78125 C 24.039062 4.734375 23.96875 4.664062 23.910156 4.6875 C 22.820312 5.179688 21.902344 6.050781 21.144531 6.960938 C 21.128906 6.984375 21.15625 7.019531 21.1875 6.996094 Z M 14.457031 15.101562 C 14.152344 16.128906 13.804688 17.152344 13.449219 18.160156 C 13.285156 18.640625 13.097656 19.117188 12.925781 19.597656 C 12.75 20.066406 12.46875 20.558594 12.421875 21.070312 C 12.410156 21.179688 12.570312 21.230469 12.632812 21.164062 C 12.945312 20.808594 13.085938 20.3125 13.25 19.871094 C 13.441406 19.371094 13.617188 18.863281 13.78125 18.351562 C 14.121094 17.292969 14.363281 16.238281 14.5625 15.136719 C 14.566406 15.066406 14.472656 15.039062 14.457031 15.101562 Z M 15.398438 16.8125 C 15.371094 17.328125 15.511719 17.867188 15.621094 18.363281 C 15.734375 18.875 15.832031 19.40625 16.078125 19.871094 C 16.144531 19.988281 16.355469 19.933594 16.335938 19.796875 C 16.285156 19.300781 16.109375 18.832031 15.980469 18.351562 C 15.851562 17.835938 15.78125 17.28125 15.585938 16.78125 C 15.558594 16.683594 15.410156 16.699219 15.398438 16.8125 Z M 11.738281 16.609375 C 11.152344 16.914062 10.472656 17.316406 10.179688 17.933594 C 10.132812 18.035156 10.230469 18.160156 10.34375 18.097656 C 10.910156 17.761719 11.34375 17.234375 11.878906 16.84375 C 12.011719 16.746094 11.902344 16.527344 11.738281 16.609375 Z M 11.410156 2.453125 C 11.589844 2.851562 11.8125 3.296875 12.117188 3.617188 C 12.164062 3.664062 12.246094 3.597656 12.210938 3.539062 C 11.972656 3.15625 11.691406 2.816406 11.46875 2.417969 C 11.445312 2.375 11.390625 2.417969 11.410156 2.453125 Z M 11.410156 2.453125 " fill-opacity="1" fill-rule="nonzero"/><g clip-path="url(#74ed6e7834)"><path fill="#d9d9d9" d="M 16.402344 7.15625 C 15.832031 8.980469 15.222656 10.726562 14.554688 12.414062 C 13.910156 14.019531 12.570312 15.363281 10.910156 15.902344 C 9.820312 16.253906 8.707031 16.207031 7.640625 15.890625 C 6.195312 19.777344 6.394531 19.585938 5.046875 23.417969 C 5.082031 23.445312 5.109375 23.46875 5.144531 23.5 C 5.707031 23.980469 6.054688 24.734375 6.089844 25.46875 C 4.214844 24.933594 2.398438 24.222656 0.644531 23.382812 C 1.226562 22.792969 2.058594 22.449219 2.894531 22.519531 C 3.007812 22.53125 3.105469 22.535156 3.21875 22.554688 C 4.675781 18.710938 4.464844 18.976562 5.917969 15.136719 C 5.320312 14.789062 4.78125 14.367188 4.382812 13.808594 C 3.457031 12.515625 3.476562 10.796875 3.738281 9.230469 C 4.078125 7.179688 4.769531 5.191406 5.765625 3.367188 C 8.484375 4.136719 14.730469 6.386719 16.402344 7.15625 Z M 15.476562 10.441406 C 15.898438 12.3125 16.355469 14.09375 16.886719 15.824219 C 17.390625 17.476562 18.621094 18.921875 20.226562 19.59375 C 21.28125 20.027344 22.394531 20.085938 23.484375 19.847656 C 24.601562 23.847656 24.257812 23.144531 25.28125 27.066406 C 25.246094 27.097656 25.207031 27.113281 25.183594 27.144531 C 24.585938 27.578125 24.179688 28.296875 24.082031 29.03125 C 25.992188 28.644531 27.867188 28.097656 29.671875 27.386719 C 29.136719 26.75 28.339844 26.34375 27.503906 26.34375 C 27.390625 26.34375 27.292969 26.355469 27.179688 26.359375 C 26.042969 22.421875 26.402344 23.171875 25.257812 19.234375 C 25.875 18.933594 26.453125 18.550781 26.894531 18.035156 C 27.925781 16.828125 28.042969 15.101562 27.914062 13.519531 C 27.738281 11.449219 27.296875 9.179688 26.453125 7.273438 C 23.683594 7.847656 17.203125 9.804688 15.476562 10.441406 Z M 15.476562 10.441406 " fill-opacity="1" fill-rule="nonzero"/></g><path fill="#000000" d="M 27.128906 15.246094 C 27.09375 16.417969 26.394531 17.523438 25.421875 18.191406 C 24.449219 18.863281 23.21875 19.117188 22.035156 19.042969 C 21.496094 19.007812 20.953125 18.914062 20.464844 18.695312 C 19.054688 18.070312 18.261719 16.578125 17.613281 15.183594 C 18.46875 14.746094 19.410156 14.925781 20.332031 15.171875 C 21.25 15.414062 22.207031 15.75 23.148438 15.605469 C 23.847656 15.496094 24.480469 15.136719 25.152344 14.898438 C 25.820312 14.667969 26.53125 14.875 27.128906 15.246094 Z M 11.367188 11.867188 C 9.257812 12.605469 6.738281 11.414062 4.601562 12.046875 C 4.847656 12.898438 5.457031 13.628906 6.21875 14.109375 C 6.972656 14.589844 7.871094 14.835938 8.761719 14.898438 C 9.972656 14.980469 11.257812 14.726562 12.207031 13.964844 C 13.019531 13.3125 13.535156 12.3125 13.601562 11.277344 C 12.644531 11.339844 12.257812 11.5625 11.367188 11.867188 Z M 11.367188 11.867188 " fill-opacity="1" fill-rule="nonzero"/></svg>