<svg xmlns="http://www.w3.org/2000/svg" xmlns:xlink="http://www.w3.org/1999/xlink" width="40" zoomAndPan="magnify" viewBox="0 0 30 30.000001" height="40" preserveAspectRatio="xMidYMid meet" version="1.0"><defs><clipPath id="c6664abe24"><path d="M 0.484375 0 L 29.515625 0 L 29.515625 29.03125 L 0.484375 29.03125 Z M 0.484375 0 " clip-rule="nonzero"/></clipPath><clipPath id="abea7f3d30"><path d="M 0.75 3 L 29.515625 3 L 29.515625 26.855469 L 0.75 26.855469 Z M 0.75 3 " clip-rule="nonzero"/></clipPath></defs><g clip-path="url(#c6664abe24)"><path fill="#ffffff" d="M 0.484375 0 L 29.515625 0 L 29.515625 36.289062 L 0.484375 36.289062 Z M 0.484375 0 " fill-opacity="1" fill-rule="nonzero"/><path fill="#ffffff" d="M 0.484375 0 L 29.515625 0 L 29.515625 29.03125 L 0.484375 29.03125 Z M 0.484375 0 " fill-opacity="1" fill-rule="nonzero"/><path fill="#ffffff" d="M 0.484375 0 L 29.515625 0 L 29.515625 29.03125 L 0.484375 29.03125 Z M 0.484375 0 " fill-opacity="1" fill-rule="nonzero"/></g><g clip-path="url(#abea7f3d30)"><path fill="#000000" d="M 29.71875 22.414062 C 29.683594 22.261719 29.558594 22.152344 29.351562 22.085938 C 28.898438 21.941406 27.964844 22.082031 27.007812 22.402344 C 26.472656 22.117188 26.070312 21.761719 25.847656 21.371094 C 25.582031 20.902344 23.234375 15.445312 23.242188 15 C 23.25 14.730469 23.320312 14.535156 23.746094 14.042969 C 24.324219 13.375 24.726562 12.378906 24.6875 11.296875 C 25.035156 9.113281 22.488281 5.667969 21.519531 4.359375 C 21.417969 4.226562 21.324219 4.097656 21.242188 3.984375 C 20.8125 3.398438 20.613281 3.128906 20.515625 3.113281 C 20.464844 3.117188 20.417969 3.128906 20.371094 3.148438 C 20.371094 3.144531 20.371094 3.140625 20.367188 3.136719 C 20.269531 2.902344 18.925781 3.402344 17.8125 3.863281 C 16.894531 4.242188 15.703125 4.800781 15.226562 5.300781 C 15.152344 5.378906 15.222656 5.675781 15.386719 6.390625 C 15.488281 6.8125 15.621094 7.386719 15.765625 8.105469 C 16.121094 9.867188 16.710938 12.8125 18.695312 14.09375 C 19.835938 14.832031 20.660156 14.996094 21.257812 15.117188 C 21.640625 15.191406 21.917969 15.246094 22.125 15.417969 C 22.542969 15.761719 23.535156 17.832031 25.066406 21.566406 C 25.308594 22.152344 25.410156 22.679688 25.371094 23.144531 C 25.160156 23.273438 24.957031 23.414062 24.765625 23.574219 C 24.335938 23.9375 24.121094 24.261719 24.175781 24.457031 C 24.203125 24.542969 24.257812 24.589844 24.347656 24.59375 C 24.542969 24.625 24.867188 24.46875 25.105469 24.109375 L 25.109375 24.101562 C 25.292969 23.820312 25.398438 23.511719 25.425781 23.179688 C 25.921875 22.886719 26.445312 22.648438 26.992188 22.46875 C 27.570312 22.761719 28.175781 22.96875 28.816406 23.082031 C 28.835938 23.085938 28.84375 23.078125 28.847656 23.058594 C 28.851562 23.039062 28.84375 23.027344 28.824219 23.023438 C 28.214844 22.914062 27.628906 22.71875 27.074219 22.441406 C 28 22.132812 28.894531 22.003906 29.335938 22.140625 C 29.519531 22.203125 29.632812 22.296875 29.664062 22.425781 C 29.722656 22.65625 29.539062 23 29.152344 23.394531 C 28.296875 24.265625 25.363281 25.667969 23.84375 25.300781 C 23.558594 25.230469 23.402344 25.113281 23.375 24.949219 C 23.332031 24.652344 23.707031 24.269531 23.90625 24.09375 C 23.945312 24.0625 23.984375 24.035156 24.019531 24 C 24.039062 23.980469 24.039062 23.972656 24.035156 23.964844 C 24.027344 23.949219 24.015625 23.945312 24 23.945312 C 23.960938 23.972656 23.925781 24 23.890625 24.03125 C 23.828125 24.078125 23.742188 24.140625 23.617188 24.230469 C 23.546875 24.28125 23.476562 24.335938 23.414062 24.390625 C 22.628906 25.070312 21.703125 25.820312 20.617188 26.109375 C 18.65625 26.636719 16.800781 26.410156 15.480469 25.875 C 16.25 25.441406 16.753906 24.910156 16.941406 24.488281 C 17.140625 24.050781 17.132812 23.679688 16.917969 23.441406 C 16.710938 23.214844 16.324219 23.140625 15.957031 23.257812 C 15.601562 23.363281 15.378906 23.597656 15.289062 23.957031 C 15.15625 23.582031 14.890625 23.351562 14.5 23.265625 C 14.148438 23.183594 13.800781 23.28125 13.609375 23.503906 C 13.421875 23.726562 13.40625 24.046875 13.558594 24.414062 C 13.785156 24.945312 14.433594 25.488281 15.351562 25.878906 C 15.09375 26.015625 14.828125 26.132812 14.550781 26.230469 C 13.511719 26.59375 11.835938 26.859375 9.753906 26.035156 C 8.742188 25.628906 7.824219 25.066406 7.007812 24.347656 C 6.945312 24.292969 6.878906 24.242188 6.804688 24.191406 C 6.683594 24.105469 6.597656 24.039062 6.539062 23.996094 C 6.503906 23.964844 6.46875 23.9375 6.429688 23.914062 C 6.414062 23.910156 6.402344 23.914062 6.398438 23.929688 C 6.394531 23.9375 6.390625 23.945312 6.410156 23.964844 C 6.445312 24 6.484375 24.027344 6.523438 24.054688 C 6.71875 24.226562 7.089844 24.609375 7.042969 24.894531 C 7.019531 25.054688 6.863281 25.171875 6.585938 25.238281 C 5.09375 25.601562 2.21875 24.226562 1.378906 23.371094 C 0.996094 22.984375 0.820312 22.648438 0.875 22.421875 C 0.90625 22.296875 1.015625 22.203125 1.195312 22.144531 C 1.671875 21.992188 2.691406 22.164062 3.691406 22.53125 C 3.296875 22.828125 2.753906 23.074219 1.945312 23.238281 C 1.925781 23.242188 1.917969 23.253906 1.921875 23.273438 C 1.925781 23.292969 1.9375 23.300781 1.957031 23.296875 C 2.796875 23.125 3.355469 22.863281 3.757812 22.554688 C 4.199219 22.71875 4.625 22.921875 5.03125 23.160156 C 5.058594 23.488281 5.164062 23.789062 5.34375 24.066406 L 5.347656 24.074219 C 5.582031 24.425781 5.898438 24.582031 6.09375 24.550781 C 6.179688 24.542969 6.234375 24.5 6.257812 24.414062 C 6.3125 24.222656 6.101562 23.90625 5.679688 23.546875 C 5.492188 23.390625 5.296875 23.25 5.085938 23.125 C 5.050781 22.671875 5.148438 22.15625 5.386719 21.582031 C 6.890625 17.914062 7.859375 15.886719 8.269531 15.546875 C 8.472656 15.378906 8.746094 15.324219 9.121094 15.25 C 9.710938 15.132812 10.515625 14.972656 11.636719 14.25 C 13.582031 12.992188 14.164062 10.101562 14.511719 8.371094 C 14.652344 7.667969 14.785156 7.101562 14.878906 6.6875 C 15.042969 5.988281 15.113281 5.699219 15.039062 5.621094 C 14.675781 5.238281 13.796875 4.75 12.5 4.210938 C 11.648438 3.855469 10.207031 3.296875 10.101562 3.550781 C 10.101562 3.550781 10.101562 3.550781 10.097656 3.550781 C 10.019531 3.515625 9.9375 3.488281 9.851562 3.476562 C 9.753906 3.492188 9.558594 3.753906 9.136719 4.328125 C 9.054688 4.441406 8.964844 4.566406 8.863281 4.699219 C 7.902344 6 5.339844 9.460938 5.769531 11.597656 C 5.804688 11.765625 5.84375 11.9375 5.894531 12.109375 C 5.96875 12.953125 6.25 13.703125 6.679688 14.195312 C 7.097656 14.683594 7.167969 14.871094 7.175781 15.136719 C 7.183594 15.5625 4.898438 20.867188 4.617188 21.386719 C 4.402344 21.78125 4.160156 22.164062 3.742188 22.492188 C 2.71875 22.113281 1.667969 21.933594 1.179688 22.089844 C 0.976562 22.152344 0.855469 22.261719 0.820312 22.410156 C 0.757812 22.652344 0.941406 23.011719 1.335938 23.414062 C 2.183594 24.273438 5.089844 25.660156 6.597656 25.296875 C 6.941406 25.210938 7.109375 25.058594 7.105469 24.835938 C 7.101562 24.648438 6.964844 24.4375 6.8125 24.265625 C 6.871094 24.308594 6.921875 24.351562 6.96875 24.390625 C 7.792969 25.117188 8.714844 25.683594 9.730469 26.089844 C 10.753906 26.492188 11.675781 26.636719 12.476562 26.636719 C 13.191406 26.636719 13.890625 26.519531 14.570312 26.285156 C 14.863281 26.183594 15.148438 26.058594 15.421875 25.910156 C 16.753906 26.460938 18.640625 26.699219 20.632812 26.167969 C 21.730469 25.871094 22.664062 25.117188 23.449219 24.433594 C 23.5 24.390625 23.554688 24.347656 23.613281 24.304688 C 23.460938 24.480469 23.320312 24.695312 23.316406 24.886719 C 23.308594 25.113281 23.480469 25.269531 23.828125 25.355469 C 24.015625 25.398438 24.203125 25.417969 24.398438 25.417969 C 26.007812 25.417969 28.425781 24.214844 29.191406 23.4375 C 29.59375 23.027344 29.78125 22.664062 29.71875 22.414062 Z M 25.058594 24.070312 L 25.054688 24.078125 C 24.832031 24.417969 24.535156 24.566406 24.355469 24.539062 C 24.292969 24.535156 24.25 24.503906 24.234375 24.441406 C 24.214844 24.378906 24.203125 24.128906 24.804688 23.617188 C 24.980469 23.46875 25.167969 23.335938 25.363281 23.214844 C 25.332031 23.527344 25.230469 23.808594 25.058594 24.070312 Z M 16.777344 9.480469 C 16.667969 9.527344 16.625 9.5625 16.632812 9.605469 C 16.644531 9.652344 16.71875 9.699219 17.183594 9.695312 C 19.332031 9.675781 22.136719 9.269531 23.257812 8.867188 C 23.613281 8.929688 23.84375 9.03125 23.933594 9.167969 C 24.367188 9.808594 24.601562 10.519531 24.632812 11.292969 C 24.625 11.324219 24.621094 11.351562 24.617188 11.378906 C 24.332031 12.785156 23.578125 14.492188 21.585938 14.644531 C 20.152344 14.753906 18.339844 13.660156 17.671875 12.613281 C 17.292969 12.015625 16.308594 9.601562 16.40625 9.40625 C 16.503906 9.207031 18.867188 8.699219 20.335938 8.523438 C 21.105469 8.4375 21.871094 8.390625 22.644531 8.386719 C 23.199219 8.386719 23.617188 8.421875 23.679688 8.496094 C 23.699219 8.515625 23.703125 8.535156 23.691406 8.5625 C 23.65625 8.636719 23.507812 8.71875 23.265625 8.804688 C 21.542969 8.5 17.464844 9.199219 16.777344 9.480469 Z M 23.140625 8.851562 C 22.007812 9.21875 19.371094 9.621094 17.183594 9.636719 C 16.78125 9.640625 16.707031 9.605469 16.691406 9.59375 C 16.761719 9.476562 18.171875 9.144531 19.957031 8.941406 C 21.34375 8.777344 22.445312 8.75 23.140625 8.851562 Z M 25.433594 23.109375 C 25.460938 22.644531 25.355469 22.125 25.121094 21.546875 C 23.582031 17.800781 22.589844 15.722656 22.164062 15.375 C 21.945312 15.195312 21.648438 15.136719 21.269531 15.058594 C 20.675781 14.941406 19.859375 14.777344 18.726562 14.046875 C 16.765625 12.777344 16.175781 9.847656 15.820312 8.09375 C 15.679688 7.375 15.542969 6.796875 15.445312 6.375 C 15.304688 5.785156 15.214844 5.398438 15.269531 5.339844 C 15.640625 4.949219 16.527344 4.457031 17.835938 3.914062 C 19.457031 3.246094 20.019531 3.136719 20.214844 3.136719 C 20.300781 3.136719 20.3125 3.15625 20.316406 3.160156 C 20.316406 3.164062 20.316406 3.167969 20.316406 3.171875 C 19.726562 3.390625 18.042969 4.175781 17.957031 4.214844 C 17.554688 4.402344 15.539062 5.347656 15.464844 5.480469 C 15.457031 5.496094 15.457031 5.507812 15.46875 5.523438 C 15.496094 5.550781 15.539062 5.601562 18.105469 4.53125 C 19.171875 4.085938 20.253906 3.488281 20.363281 3.210938 C 20.410156 3.191406 20.457031 3.175781 20.503906 3.171875 C 20.582031 3.183594 20.824219 3.515625 21.195312 4.019531 C 21.28125 4.132812 21.371094 4.257812 21.472656 4.394531 C 22.386719 5.632812 24.726562 8.789062 24.664062 10.953125 C 24.582031 10.292969 24.355469 9.6875 23.980469 9.132812 C 23.886719 8.992188 23.671875 8.890625 23.371094 8.828125 C 23.578125 8.746094 23.707031 8.664062 23.742188 8.585938 C 23.765625 8.539062 23.761719 8.496094 23.726562 8.457031 C 23.546875 8.246094 21.417969 8.335938 20.332031 8.464844 C 19.0625 8.617188 16.476562 9.128906 16.351562 9.382812 C 16.234375 9.628906 17.296875 12.125 17.625 12.640625 C 18.296875 13.707031 20.140625 14.8125 21.589844 14.703125 C 23.527344 14.554688 24.316406 12.96875 24.632812 11.582031 C 24.597656 12.539062 24.222656 13.40625 23.703125 14.003906 C 23.265625 14.507812 23.191406 14.71875 23.183594 15 C 23.175781 15.449219 25.53125 20.929688 25.800781 21.398438 C 26.023438 21.792969 26.410156 22.144531 26.925781 22.429688 C 26.40625 22.609375 25.90625 22.835938 25.433594 23.109375 Z M 20.28125 3.242188 C 20.109375 3.453125 19.335938 3.957031 18.085938 4.476562 C 16.34375 5.203125 15.757812 5.414062 15.574219 5.464844 C 16.054688 5.15625 19.371094 3.59375 20.28125 3.242188 Z M 5.640625 23.589844 C 6.234375 24.089844 6.21875 24.335938 6.203125 24.398438 C 6.183594 24.457031 6.144531 24.488281 6.082031 24.492188 C 5.90625 24.519531 5.617188 24.375 5.394531 24.042969 L 5.390625 24.035156 C 5.222656 23.78125 5.125 23.5 5.09375 23.199219 C 5.285156 23.316406 5.46875 23.445312 5.640625 23.589844 Z M 5.933594 11.832031 C 5.902344 10.878906 6.136719 9.996094 6.582031 9.402344 C 6.660156 9.296875 6.816406 9.21875 7.050781 9.164062 C 8.261719 9.53125 11.476562 9.882812 12.707031 9.960938 C 13.253906 9.996094 13.265625 9.941406 13.273438 9.910156 C 13.285156 9.871094 13.238281 9.839844 13.1875 9.816406 C 12.828125 9.644531 11.328125 9.320312 9.847656 9.144531 C 9.035156 9.046875 7.777344 8.941406 7.046875 9.109375 C 6.8125 9.039062 6.667969 8.96875 6.636719 8.902344 C 6.628906 8.886719 6.632812 8.875 6.648438 8.863281 C 6.785156 8.695312 8.105469 8.519531 10.136719 8.785156 C 12.441406 9.085938 13.597656 9.671875 13.691406 9.867188 C 13.785156 10.0625 13.019531 12.195312 12.636719 12.792969 C 11.984375 13.824219 10.203125 14.894531 8.796875 14.789062 C 7.085938 14.65625 6.304688 13.351562 5.953125 12.101562 C 5.945312 12.011719 5.9375 11.921875 5.933594 11.832031 Z M 7.160156 9.140625 C 7.570312 9.066406 8.179688 9.054688 8.960938 9.113281 C 10.832031 9.253906 13.058594 9.742188 13.214844 9.898438 C 13.1875 9.90625 13.085938 9.925781 12.710938 9.902344 C 11.371094 9.820312 8.375 9.472656 7.160156 9.140625 Z M 4.667969 21.414062 C 4.925781 20.9375 7.242188 15.601562 7.230469 15.136719 C 7.226562 14.859375 7.152344 14.65625 6.722656 14.160156 C 6.355469 13.734375 6.097656 13.121094 5.992188 12.421875 C 6.386719 13.589844 7.1875 14.722656 8.792969 14.84375 C 8.859375 14.851562 8.929688 14.851562 8.996094 14.851562 C 10.386719 14.851562 12.054688 13.820312 12.6875 12.824219 C 13.011719 12.308594 13.863281 10.085938 13.746094 9.84375 C 13.632812 9.609375 12.421875 9.023438 10.144531 8.730469 C 8.132812 8.464844 6.773438 8.621094 6.601562 8.824219 C 6.574219 8.855469 6.566406 8.886719 6.585938 8.925781 C 6.613281 8.992188 6.746094 9.0625 6.949219 9.132812 C 6.761719 9.1875 6.613281 9.261719 6.535156 9.367188 C 6.085938 9.964844 5.847656 10.855469 5.875 11.808594 C 5.859375 11.734375 5.84375 11.660156 5.828125 11.585938 C 5.402344 9.472656 7.953125 6.03125 8.910156 4.734375 C 9.011719 4.597656 9.101562 4.476562 9.183594 4.363281 C 9.546875 3.871094 9.785156 3.542969 9.859375 3.53125 C 9.945312 3.546875 10.023438 3.574219 10.101562 3.609375 C 10.179688 3.855469 11.070312 4.390625 12.210938 4.867188 C 14.730469 5.914062 14.773438 5.871094 14.800781 5.839844 C 14.8125 5.824219 14.8125 5.8125 14.804688 5.796875 C 14.734375 5.667969 12.753906 4.738281 12.359375 4.554688 C 12.28125 4.519531 10.808594 3.832031 10.152344 3.574219 L 10.152344 3.570312 C 10.15625 3.5625 10.277344 3.347656 12.476562 4.261719 C 13.765625 4.800781 14.636719 5.28125 14.996094 5.660156 C 15.046875 5.714844 14.960938 6.097656 14.824219 6.675781 C 14.726562 7.089844 14.59375 7.65625 14.453125 8.363281 C 14.109375 10.082031 13.53125 12.957031 11.605469 14.199219 C 10.492188 14.917969 9.691406 15.078125 9.109375 15.195312 C 8.738281 15.269531 8.449219 15.328125 8.230469 15.503906 C 7.816406 15.847656 6.839844 17.882812 5.332031 21.558594 C 5.101562 22.125 4.996094 22.636719 5.027344 23.089844 C 4.636719 22.863281 4.230469 22.671875 3.808594 22.515625 C 4.210938 22.1875 4.453125 21.808594 4.667969 21.414062 Z M 10.175781 3.640625 C 11.179688 4.046875 14.226562 5.484375 14.695312 5.78125 C 14.511719 5.730469 13.929688 5.519531 12.234375 4.8125 C 11.074219 4.328125 10.3125 3.839844 10.175781 3.640625 Z M 15.414062 25.847656 C 14.488281 25.457031 13.835938 24.917969 13.613281 24.390625 C 13.46875 24.046875 13.480469 23.746094 13.652344 23.542969 C 13.816406 23.367188 14.015625 23.285156 14.253906 23.292969 C 14.332031 23.292969 14.410156 23.304688 14.484375 23.320312 C 14.910156 23.414062 15.171875 23.671875 15.269531 24.089844 C 15.273438 24.105469 15.285156 24.113281 15.300781 24.113281 C 15.316406 24.109375 15.324219 24.101562 15.328125 24.085938 C 15.363281 23.722656 15.605469 23.433594 15.976562 23.3125 C 16.320312 23.199219 16.683594 23.269531 16.875 23.480469 C 17.070312 23.699219 17.078125 24.050781 16.890625 24.464844 C 16.703125 24.882812 16.191406 25.417969 15.414062 25.847656 Z M 15.414062 25.847656 " fill-opacity="1" fill-rule="nonzero"/></g></svg>