<svg xmlns="http://www.w3.org/2000/svg" xmlns:xlink="http://www.w3.org/1999/xlink" width="40" zoomAndPan="magnify" viewBox="0 0 30 30.000001" height="40" preserveAspectRatio="xMidYMid meet" version="1.0"><defs><clipPath id="id1"><path d="M 0.484375 0 L 29.515625 0 L 29.515625 29.03125 L 0.484375 29.03125 Z M 0.484375 0 " clip-rule="nonzero"/></clipPath><clipPath id="id2"><path d="M 10 0.429688 L 24 0.429688 L 24 22 L 10 22 Z M 10 0.429688 " clip-rule="nonzero"/></clipPath><clipPath id="id3"><path d="M 1.066406 3 L 28.644531 3 L 28.644531 28.734375 L 1.066406 28.734375 Z M 1.066406 3 " clip-rule="nonzero"/></clipPath></defs><g clip-path="url(#id1)"><path fill="#ffffff" d="M 0.484375 0 L 29.515625 0 L 29.515625 36.289062 L 0.484375 36.289062 Z M 0.484375 0 " fill-opacity="1" fill-rule="nonzero"/><path fill="#ffffff" d="M 0.484375 0 L 29.515625 0 L 29.515625 29.03125 L 0.484375 29.03125 Z M 0.484375 0 " fill-opacity="1" fill-rule="nonzero"/><path fill="#ffffff" d="M 0.484375 0 L 29.515625 0 L 29.515625 29.03125 L 0.484375 29.03125 Z M 0.484375 0 " fill-opacity="1" fill-rule="nonzero"/></g><g clip-path="url(#id2)"><path fill="#f3ab5f" d="M 15.511719 5.851562 C 15.511719 5.863281 15.496094 5.863281 15.484375 5.851562 C 15.210938 5.027344 15.363281 3.976562 15.441406 3.125 C 15.472656 2.683594 15.53125 2.246094 15.597656 1.800781 C 15.65625 1.382812 15.691406 0.910156 15.902344 0.535156 C 15.964844 0.429688 16.101562 0.484375 16.113281 0.597656 C 16.148438 1 16.019531 1.421875 15.957031 1.816406 C 15.867188 2.304688 15.808594 2.800781 15.757812 3.285156 C 15.714844 3.738281 15.679688 4.191406 15.644531 4.648438 C 15.617188 5.054688 15.628906 5.472656 15.511719 5.851562 Z M 17.605469 7.910156 C 18.277344 6.695312 18.90625 5.457031 19.609375 4.257812 C 19.964844 3.664062 20.332031 3.070312 20.726562 2.496094 C 21.113281 1.929688 21.546875 1.359375 21.824219 0.734375 C 21.851562 0.671875 21.78125 0.609375 21.730469 0.652344 C 21.207031 1.113281 20.8125 1.734375 20.425781 2.320312 C 20.054688 2.902344 19.6875 3.496094 19.335938 4.101562 C 18.640625 5.316406 18 6.550781 17.53125 7.878906 C 17.527344 7.917969 17.589844 7.941406 17.605469 7.910156 Z M 20.582031 7.246094 C 21.417969 6.449219 22.347656 5.808594 23.242188 5.089844 C 23.292969 5.042969 23.226562 4.976562 23.171875 5 C 22.136719 5.480469 21.261719 6.328125 20.542969 7.214844 C 20.527344 7.234375 20.554688 7.269531 20.582031 7.246094 Z M 14.1875 15.152344 C 13.898438 16.152344 13.570312 17.152344 13.230469 18.136719 C 13.074219 18.605469 12.898438 19.066406 12.734375 19.535156 C 12.570312 19.992188 12.300781 20.472656 12.257812 20.972656 C 12.246094 21.078125 12.394531 21.128906 12.457031 21.0625 C 12.753906 20.71875 12.886719 20.230469 13.042969 19.800781 C 13.226562 19.316406 13.390625 18.820312 13.546875 18.320312 C 13.871094 17.289062 14.097656 16.257812 14.289062 15.1875 C 14.292969 15.117188 14.203125 15.089844 14.1875 15.152344 Z M 15.085938 16.820312 C 15.054688 17.320312 15.191406 17.847656 15.296875 18.332031 C 15.402344 18.828125 15.496094 19.351562 15.730469 19.800781 C 15.789062 19.914062 15.992188 19.863281 15.972656 19.726562 C 15.925781 19.25 15.757812 18.789062 15.636719 18.320312 C 15.511719 17.820312 15.445312 17.277344 15.261719 16.789062 C 15.234375 16.695312 15.09375 16.710938 15.085938 16.820312 Z M 11.605469 16.621094 C 11.050781 16.921875 10.402344 17.308594 10.125 17.914062 C 10.082031 18.011719 10.175781 18.136719 10.28125 18.074219 C 10.820312 17.746094 11.234375 17.230469 11.738281 16.851562 C 11.867188 16.757812 11.761719 16.542969 11.605469 16.621094 Z M 11.292969 2.816406 C 11.464844 3.207031 11.679688 3.644531 11.96875 3.953125 C 12.011719 4 12.089844 3.9375 12.054688 3.878906 C 11.828125 3.507812 11.5625 3.175781 11.347656 2.785156 C 11.328125 2.746094 11.277344 2.785156 11.292969 2.816406 Z M 11.292969 2.816406 " fill-opacity="1" fill-rule="nonzero"/></g><g clip-path="url(#id3)"><path fill="#dbefe1" d="M 16.035156 7.40625 C 15.496094 9.183594 14.917969 10.886719 14.28125 12.53125 C 13.671875 14.09375 12.394531 15.40625 10.820312 15.929688 C 9.785156 16.277344 8.726562 16.230469 7.714844 15.921875 C 6.339844 19.710938 6.53125 19.523438 5.25 23.257812 C 5.28125 23.289062 5.3125 23.308594 5.34375 23.339844 C 5.878906 23.808594 6.207031 24.542969 6.242188 25.257812 C 4.460938 24.738281 2.734375 24.046875 1.070312 23.226562 C 1.621094 22.648438 2.410156 22.316406 3.207031 22.382812 C 3.3125 22.394531 3.40625 22.402344 3.511719 22.417969 C 4.898438 18.671875 4.699219 18.933594 6.078125 15.1875 C 5.511719 14.847656 5 14.433594 4.621094 13.890625 C 3.742188 12.632812 3.757812 10.953125 4.007812 9.429688 C 4.332031 7.429688 4.988281 5.492188 5.933594 3.710938 C 8.515625 4.460938 14.449219 6.65625 16.035156 7.40625 Z M 15.15625 10.609375 C 15.558594 12.433594 15.992188 14.167969 16.496094 15.859375 C 16.976562 17.46875 18.144531 18.875 19.671875 19.53125 C 20.671875 19.953125 21.730469 20.011719 22.765625 19.777344 C 23.828125 23.675781 23.5 22.992188 24.472656 26.820312 C 24.441406 26.847656 24.402344 26.863281 24.378906 26.890625 C 23.8125 27.316406 23.425781 28.015625 23.332031 28.734375 C 25.148438 28.355469 26.925781 27.824219 28.640625 27.128906 C 28.136719 26.507812 27.378906 26.113281 26.582031 26.113281 C 26.476562 26.113281 26.382812 26.125 26.277344 26.128906 C 25.195312 22.289062 25.535156 23.023438 24.449219 19.179688 C 25.035156 18.886719 25.585938 18.511719 26.003906 18.011719 C 26.984375 16.835938 27.09375 15.152344 26.972656 13.609375 C 26.804688 11.59375 26.386719 9.378906 25.585938 7.519531 C 22.953125 8.078125 16.796875 9.988281 15.15625 10.609375 Z M 15.15625 10.609375 " fill-opacity="1" fill-rule="nonzero"/></g><path fill="#0e6655" d="M 26.226562 15.292969 C 26.191406 16.433594 25.53125 17.511719 24.605469 18.164062 C 23.683594 18.820312 22.515625 19.066406 21.390625 18.992188 C 20.878906 18.960938 20.359375 18.871094 19.898438 18.65625 C 18.558594 18.042969 17.804688 16.59375 17.1875 15.230469 C 18 14.808594 18.898438 14.980469 19.769531 15.21875 C 20.644531 15.457031 21.550781 15.785156 22.449219 15.644531 C 23.109375 15.535156 23.710938 15.1875 24.351562 14.953125 C 24.984375 14.726562 25.660156 14.929688 26.226562 15.292969 Z M 11.253906 12 C 9.25 12.714844 6.859375 11.558594 4.828125 12.175781 C 5.058594 13.003906 5.640625 13.714844 6.363281 14.1875 C 7.082031 14.65625 7.933594 14.890625 8.777344 14.953125 C 9.929688 15.035156 11.148438 14.785156 12.050781 14.042969 C 12.824219 13.40625 13.3125 12.433594 13.375 11.421875 C 12.46875 11.484375 12.101562 11.699219 11.253906 12 Z M 11.253906 12 " fill-opacity="1" fill-rule="nonzero"/></svg>