<svg xmlns="http://www.w3.org/2000/svg" xmlns:xlink="http://www.w3.org/1999/xlink" width="40" zoomAndPan="magnify" viewBox="0 0 30 30.000001" height="40" preserveAspectRatio="xMidYMid meet" version="1.0"><defs><clipPath id="id1"><path d="M 0.484375 0 L 29.515625 0 L 29.515625 29.03125 L 0.484375 29.03125 Z M 0.484375 0 " clip-rule="nonzero"/></clipPath><clipPath id="id2"><path d="M 0.800781 3 L 29.515625 3 L 29.515625 29.03125 L 0.800781 29.03125 Z M 0.800781 3 " clip-rule="nonzero"/></clipPath></defs><g clip-path="url(#id1)"><path fill="#ffffff" d="M 0.484375 0 L 29.515625 0 L 29.515625 36.289062 L 0.484375 36.289062 Z M 0.484375 0 " fill-opacity="1" fill-rule="nonzero"/><path fill="#ffffff" d="M 0.484375 0 L 29.515625 0 L 29.515625 29.03125 L 0.484375 29.03125 Z M 0.484375 0 " fill-opacity="1" fill-rule="nonzero"/><path fill="#ffffff" d="M 0.484375 0 L 29.515625 0 L 29.515625 29.03125 L 0.484375 29.03125 Z M 0.484375 0 " fill-opacity="1" fill-rule="nonzero"/></g><path fill="#f3ab5f" d="M 16.007812 5.5625 C 16.007812 5.574219 15.992188 5.574219 15.980469 5.5625 C 15.691406 4.71875 15.851562 3.640625 15.933594 2.765625 C 15.96875 2.3125 16.027344 1.867188 16.097656 1.40625 C 16.160156 0.980469 16.195312 0.492188 16.417969 0.109375 C 16.484375 0 16.628906 0.0585938 16.640625 0.175781 C 16.675781 0.585938 16.542969 1.019531 16.476562 1.425781 C 16.382812 1.925781 16.320312 2.433594 16.265625 2.933594 C 16.21875 3.394531 16.183594 3.859375 16.148438 4.328125 C 16.121094 4.746094 16.132812 5.175781 16.007812 5.5625 Z M 18.210938 7.671875 C 18.921875 6.425781 19.582031 5.15625 20.320312 3.929688 C 20.695312 3.320312 21.082031 2.710938 21.496094 2.121094 C 21.902344 1.542969 22.359375 0.957031 22.652344 0.3125 C 22.679688 0.25 22.605469 0.183594 22.550781 0.230469 C 22 0.703125 21.585938 1.339844 21.179688 1.941406 C 20.789062 2.539062 20.402344 3.148438 20.03125 3.765625 C 19.300781 5.011719 18.628906 6.28125 18.136719 7.644531 C 18.128906 7.683594 18.195312 7.707031 18.210938 7.671875 Z M 21.34375 6.996094 C 22.222656 6.175781 23.203125 5.515625 24.144531 4.78125 C 24.199219 4.734375 24.128906 4.664062 24.070312 4.6875 C 22.980469 5.179688 22.058594 6.050781 21.304688 6.960938 C 21.285156 6.984375 21.316406 7.019531 21.34375 6.996094 Z M 14.613281 15.101562 C 14.308594 16.128906 13.964844 17.152344 13.605469 18.160156 C 13.441406 18.640625 13.253906 19.117188 13.085938 19.597656 C 12.910156 20.066406 12.628906 20.558594 12.582031 21.070312 C 12.570312 21.179688 12.726562 21.230469 12.792969 21.164062 C 13.101562 20.808594 13.242188 20.3125 13.40625 19.871094 C 13.601562 19.371094 13.777344 18.863281 13.941406 18.351562 C 14.28125 17.292969 14.519531 16.238281 14.71875 15.136719 C 14.726562 15.066406 14.632812 15.039062 14.613281 15.101562 Z M 15.558594 16.8125 C 15.527344 17.328125 15.667969 17.867188 15.78125 18.363281 C 15.890625 18.875 15.992188 19.40625 16.238281 19.871094 C 16.300781 19.988281 16.511719 19.933594 16.496094 19.796875 C 16.441406 19.300781 16.265625 18.832031 16.136719 18.351562 C 16.007812 17.835938 15.9375 17.28125 15.746094 16.78125 C 15.714844 16.683594 15.570312 16.699219 15.558594 16.8125 Z M 11.894531 16.609375 C 11.308594 16.914062 10.628906 17.316406 10.335938 17.933594 C 10.289062 18.035156 10.390625 18.160156 10.5 18.097656 C 11.070312 17.761719 11.503906 17.234375 12.035156 16.84375 C 12.171875 16.746094 12.058594 16.527344 11.894531 16.609375 Z M 11.566406 2.453125 C 11.75 2.851562 11.972656 3.296875 12.277344 3.617188 C 12.324219 3.664062 12.40625 3.597656 12.371094 3.539062 C 12.128906 3.15625 11.847656 2.816406 11.625 2.417969 C 11.601562 2.375 11.550781 2.417969 11.566406 2.453125 Z M 11.566406 2.453125 " fill-opacity="1" fill-rule="nonzero"/><g clip-path="url(#id2)"><path fill="#edddba" d="M 16.558594 7.15625 C 15.992188 8.980469 15.382812 10.726562 14.714844 12.414062 C 14.070312 14.019531 12.726562 15.363281 11.070312 15.902344 C 9.980469 16.253906 8.867188 16.207031 7.800781 15.890625 C 6.351562 19.777344 6.550781 19.585938 5.203125 23.417969 C 5.238281 23.445312 5.269531 23.46875 5.304688 23.5 C 5.867188 23.980469 6.210938 24.734375 6.246094 25.46875 C 4.371094 24.933594 2.554688 24.222656 0.804688 23.382812 C 1.382812 22.792969 2.214844 22.449219 3.054688 22.519531 C 3.164062 22.53125 3.265625 22.535156 3.375 22.554688 C 4.835938 18.710938 4.625 18.976562 6.078125 15.136719 C 5.480469 14.789062 4.941406 14.367188 4.542969 13.808594 C 3.617188 12.515625 3.632812 10.796875 3.898438 9.230469 C 4.238281 7.179688 4.929688 5.191406 5.925781 3.367188 C 8.644531 4.136719 14.890625 6.386719 16.558594 7.15625 Z M 15.632812 10.441406 C 16.054688 12.3125 16.511719 14.09375 17.046875 15.824219 C 17.550781 17.476562 18.78125 18.921875 20.382812 19.59375 C 21.4375 20.027344 22.550781 20.085938 23.640625 19.847656 C 24.761719 23.847656 24.414062 23.144531 25.441406 27.066406 C 25.40625 27.097656 25.363281 27.113281 25.339844 27.144531 C 24.742188 27.578125 24.339844 28.296875 24.238281 29.03125 C 26.148438 28.644531 28.023438 28.097656 29.828125 27.386719 C 29.296875 26.75 28.5 26.34375 27.660156 26.34375 C 27.550781 26.34375 27.449219 26.355469 27.339844 26.359375 C 26.203125 22.421875 26.558594 23.171875 25.417969 19.234375 C 26.03125 18.933594 26.613281 18.550781 27.050781 18.035156 C 28.082031 16.828125 28.199219 15.101562 28.070312 13.519531 C 27.894531 11.449219 27.457031 9.179688 26.613281 7.273438 C 23.839844 7.847656 17.363281 9.804688 15.632812 10.441406 Z M 15.632812 10.441406 " fill-opacity="1" fill-rule="nonzero"/></g><path fill="#d7ae54" d="M 27.285156 15.246094 C 27.25 16.417969 26.554688 17.523438 25.582031 18.191406 C 24.609375 18.863281 23.378906 19.117188 22.195312 19.042969 C 21.65625 19.007812 21.109375 18.914062 20.625 18.695312 C 19.214844 18.070312 18.421875 16.578125 17.773438 15.183594 C 18.628906 14.746094 19.570312 14.925781 20.488281 15.171875 C 21.410156 15.414062 22.363281 15.75 23.308594 15.605469 C 24.003906 15.496094 24.636719 15.136719 25.3125 14.898438 C 25.980469 14.667969 26.6875 14.875 27.285156 15.246094 Z M 11.527344 11.867188 C 9.417969 12.605469 6.898438 11.414062 4.757812 12.046875 C 5.003906 12.898438 5.613281 13.628906 6.375 14.109375 C 7.132812 14.589844 8.027344 14.835938 8.917969 14.898438 C 10.132812 14.980469 11.414062 14.726562 12.363281 13.964844 C 13.179688 13.3125 13.695312 12.3125 13.757812 11.277344 C 12.804688 11.339844 12.417969 11.5625 11.527344 11.867188 Z M 11.527344 11.867188 " fill-opacity="1" fill-rule="nonzero"/></svg>