<svg xmlns="http://www.w3.org/2000/svg" xmlns:xlink="http://www.w3.org/1999/xlink" width="40" zoomAndPan="magnify" viewBox="0 0 30 30.000001" height="40" preserveAspectRatio="xMidYMid meet" version="1.0"><defs><clipPath id="6f53dae0a7"><path d="M 0.484375 3.507812 L 29.515625 3.507812 L 29.515625 25.28125 L 0.484375 25.28125 Z M 0.484375 3.507812 " clip-rule="nonzero"/></clipPath></defs><g clip-path="url(#6f53dae0a7)"><path fill="#ce9647" d="M 14.015625 6.671875 C 13.621094 6.589844 13.234375 6.546875 12.941406 6.554688 C 12.613281 6.5625 12.441406 6.628906 12.402344 6.75 C 12.402344 6.75 12.402344 6.75 12.402344 6.757812 L 11.527344 8.921875 C 11.523438 8.945312 10.632812 11.046875 10.523438 13.117188 L 7.164062 12.203125 C 6.953125 12.144531 6.734375 12.117188 6.507812 12.117188 C 6.1875 12.117188 5.859375 12.152344 5.546875 12.222656 C 5.230469 12.296875 4.917969 12.398438 4.621094 12.542969 C 2.570312 13.761719 -2.339844 15.359375 -2.390625 15.371094 C -2.429688 15.386719 -2.449219 15.421875 -2.4375 15.464844 C -2.429688 15.496094 -2.398438 15.515625 -2.363281 15.515625 C -2.355469 15.515625 -2.347656 15.515625 -2.339844 15.515625 C -2.289062 15.503906 2.636719 13.898438 4.691406 12.671875 C 4.976562 12.542969 5.277344 12.433594 5.582031 12.367188 C 5.886719 12.304688 6.199219 12.265625 6.515625 12.265625 C 6.71875 12.265625 6.929688 12.296875 7.125 12.347656 L 10.515625 13.277344 C 10.5 13.796875 10.539062 14.265625 10.625 14.6875 L 7.273438 13.878906 C 7.234375 13.871094 7.191406 13.890625 7.183594 13.929688 C 7.175781 13.964844 7.199219 14.007812 7.234375 14.015625 L 10.660156 14.835938 C 10.707031 15.027344 10.761719 15.214844 10.835938 15.378906 C 10.886719 15.503906 10.988281 15.703125 11.070312 15.871094 C 11.097656 15.933594 11.128906 15.984375 11.148438 16.03125 L 11.179688 16.09375 C 11.230469 16.203125 11.289062 16.316406 11.332031 16.457031 C 11.207031 16.425781 11.113281 16.40625 11.085938 16.40625 L 9.949219 15.363281 C 9.941406 15.359375 9.933594 15.351562 9.917969 15.351562 L 7.636719 14.671875 C 7.601562 14.65625 7.558594 14.679688 7.550781 14.722656 C 7.535156 14.757812 7.558594 14.800781 7.601562 14.808594 L 9.867188 15.488281 L 10.828125 16.375 C 7.855469 15.933594 5.886719 14.484375 5.867188 14.46875 C 5.835938 14.449219 5.785156 14.453125 5.765625 14.484375 C 5.742188 14.511719 5.75 14.5625 5.777344 14.585938 C 5.800781 14.597656 7.90625 16.160156 11.0625 16.554688 C 11.257812 16.585938 11.835938 16.722656 11.835938 16.976562 C 11.835938 17.222656 11.214844 17.386719 11.011719 17.421875 C 10.988281 17.421875 8.738281 17.605469 6.273438 17.421875 C 6.257812 17.421875 6.238281 17.421875 6.230469 17.4375 C 6.199219 17.460938 3.074219 19.574219 -0.488281 18.953125 C -0.589844 18.910156 -1.402344 18.5625 -2.21875 19.082031 C -2.253906 19.105469 -2.261719 19.148438 -2.238281 19.183594 C -2.222656 19.207031 -2.203125 19.222656 -2.179688 19.222656 C -2.167969 19.222656 -2.152344 19.222656 -2.144531 19.207031 C -1.355469 18.714844 -0.554688 19.089844 -0.546875 19.089844 C -0.539062 19.089844 -0.535156 19.097656 -0.527344 19.097656 C 2.941406 19.710938 5.996094 17.761719 6.289062 17.574219 C 6.953125 17.625 7.601562 17.648438 8.191406 17.652344 C 8.386719 17.769531 10.152344 18.765625 10.574219 18.824219 C 10.601562 18.832031 10.625 18.832031 10.648438 18.832031 C 10.726562 18.832031 10.785156 18.808594 10.820312 18.757812 C 10.871094 18.6875 10.859375 18.585938 10.769531 18.441406 C 10.710938 18.347656 10.640625 18.253906 10.550781 18.167969 L 9.992188 17.632812 C 10.296875 17.617188 10.546875 17.609375 10.71875 17.597656 L 11.296875 17.890625 C 11.304688 17.921875 11.316406 17.957031 11.332031 18.015625 L 10.710938 20.996094 C 10.707031 21.039062 10.558594 21.980469 9.546875 22.1875 L 8.933594 22.289062 C 8.738281 22.320312 8.585938 22.472656 8.539062 22.660156 C 8.539062 22.671875 8.535156 22.6875 8.535156 22.703125 C 8.535156 22.789062 8.585938 22.859375 8.664062 22.898438 C 8.90625 22.996094 9.632812 23.308594 10.5 23.480469 L 10.609375 23.503906 C 11.265625 23.632812 11.835938 23.683594 12.222656 23.683594 C 12.332031 23.683594 12.433594 23.675781 12.511719 23.667969 C 12.609375 23.664062 12.6875 23.597656 12.703125 23.503906 C 12.710938 23.472656 12.710938 23.4375 12.710938 23.410156 C 12.710938 23.242188 12.628906 23.097656 12.492188 23.003906 L 11.972656 22.671875 C 11.121094 22.089844 11.359375 21.164062 11.375 21.121094 L 11.820312 18.988281 C 11.828125 19.003906 11.835938 19.019531 11.847656 19.035156 C 12.015625 19.308594 12.164062 19.445312 12.300781 19.453125 C 12.300781 19.453125 12.300781 19.453125 12.308594 19.453125 C 12.359375 19.453125 12.433594 19.429688 12.5 19.34375 C 12.554688 19.257812 12.578125 19.15625 12.554688 19.046875 L 12.433594 18.355469 C 12.484375 18.457031 12.554688 18.542969 12.644531 18.613281 C 12.722656 18.679688 12.804688 18.714844 12.871094 18.714844 C 12.890625 18.714844 12.914062 18.707031 12.941406 18.703125 C 13.03125 18.664062 13.089844 18.570312 13.117188 18.417969 C 13.132812 18.320312 13.132812 18.203125 13.109375 18.085938 L 12.855469 16.875 C 12.832031 16.773438 12.78125 16.6875 12.710938 16.621094 C 12.722656 16.605469 12.738281 16.59375 12.753906 16.578125 C 13.097656 16.925781 13.371094 17.15625 13.585938 17.265625 C 13.6875 17.316406 13.808594 17.378906 13.917969 17.378906 C 13.96875 17.378906 14.015625 17.367188 14.050781 17.328125 C 14.1875 17.183594 14.007812 16.816406 13.941406 16.699219 L 13.460938 15.984375 C 13.480469 15.972656 13.496094 15.957031 13.511719 15.941406 C 14.058594 15.402344 14.792969 14.296875 15.195312 12.121094 C 15.433594 10.828125 15.441406 9.746094 15.441406 9.738281 L 15.5 7.414062 C 15.53125 7.066406 14.546875 6.777344 14.015625 6.671875 Z M 12.949219 6.707031 C 12.972656 6.707031 12.992188 6.707031 13.015625 6.707031 C 13.292969 6.707031 13.628906 6.742188 13.984375 6.816406 C 14.902344 7.003906 15.339844 7.285156 15.328125 7.363281 C 15.320312 7.386719 15.238281 7.449219 14.917969 7.457031 C 14.632812 7.464844 14.261719 7.429688 13.875 7.347656 C 12.957031 7.160156 12.519531 6.878906 12.535156 6.800781 C 12.542969 6.777344 12.628906 6.714844 12.949219 6.707031 Z M 10.441406 18.253906 C 10.523438 18.332031 10.589844 18.414062 10.640625 18.492188 C 10.710938 18.621094 10.699219 18.65625 10.699219 18.65625 C 10.699219 18.664062 10.667969 18.671875 10.589844 18.664062 C 10.296875 18.621094 9.1875 18.035156 8.480469 17.640625 C 8.964844 17.640625 9.40625 17.632812 9.78125 17.617188 Z M 10.988281 17.554688 C 11.003906 17.554688 11.019531 17.554688 11.019531 17.554688 C 11.054688 17.546875 11.230469 17.515625 11.414062 17.453125 C 11.40625 17.546875 11.390625 17.648438 11.367188 17.746094 Z M 12.359375 19.242188 C 12.324219 19.292969 12.300781 19.292969 12.292969 19.292969 C 12.257812 19.292969 12.148438 19.257812 11.964844 18.945312 C 11.929688 18.882812 11.894531 18.824219 11.855469 18.765625 C 11.894531 18.601562 11.929688 18.425781 11.957031 18.261719 L 12.003906 18.050781 C 12.03125 17.90625 12.066406 17.761719 12.113281 17.632812 C 12.121094 17.652344 12.132812 17.667969 12.140625 17.691406 L 12.15625 17.71875 C 12.171875 17.761719 12.175781 17.796875 12.183594 17.84375 L 12.394531 19.054688 C 12.410156 19.121094 12.394531 19.191406 12.359375 19.242188 Z M 12.949219 18.085938 C 12.972656 18.1875 12.972656 18.273438 12.957031 18.367188 C 12.941406 18.460938 12.914062 18.527344 12.878906 18.542969 C 12.847656 18.558594 12.789062 18.527344 12.722656 18.476562 C 12.621094 18.398438 12.542969 18.28125 12.5 18.144531 L 12.28125 17.625 C 12.25 17.558594 12.222656 17.496094 12.175781 17.4375 C 12.285156 17.140625 12.425781 16.894531 12.59375 16.695312 C 12.644531 16.746094 12.679688 16.800781 12.695312 16.875 Z M 13.925781 17.199219 C 13.925781 17.199219 13.875 17.242188 13.628906 17.113281 C 13.429688 17.003906 13.167969 16.789062 12.832031 16.457031 C 12.839844 16.449219 12.855469 16.433594 12.863281 16.425781 L 12.90625 16.390625 C 12.957031 16.347656 13.039062 16.28125 13.125 16.210938 C 13.191406 16.160156 13.257812 16.109375 13.316406 16.058594 L 13.789062 16.75 C 13.90625 16.945312 13.964844 17.164062 13.925781 17.199219 Z M 13.378906 15.820312 C 13.359375 15.839844 13.328125 15.871094 13.292969 15.898438 C 13.21875 15.957031 13.132812 16.03125 13.042969 16.101562 C 12.957031 16.171875 12.871094 16.238281 12.820312 16.28125 L 12.773438 16.316406 C 12.746094 16.339844 12.71875 16.367188 12.679688 16.398438 C 12.636719 16.441406 12.585938 16.492188 12.527344 16.550781 C 12.316406 16.78125 12.148438 17.070312 12.015625 17.429688 C 12.015625 17.429688 12.015625 17.4375 12.015625 17.4375 C 11.953125 17.617188 11.902344 17.8125 11.855469 18.015625 L 11.8125 18.222656 C 11.777344 18.398438 11.742188 18.578125 11.703125 18.757812 L 11.222656 21.070312 C 11.222656 21.078125 10.9375 22.132812 11.878906 22.78125 L 12.402344 23.113281 C 12.5 23.171875 12.554688 23.28125 12.554688 23.394531 C 12.554688 23.417969 12.554688 23.4375 12.550781 23.460938 C 12.542969 23.488281 12.519531 23.511719 12.492188 23.511719 C 12.140625 23.539062 11.464844 23.511719 10.632812 23.34375 L 10.523438 23.324219 C 9.675781 23.148438 8.957031 22.847656 8.714844 22.746094 C 8.695312 22.738281 8.671875 22.710938 8.671875 22.6875 C 8.671875 22.679688 8.671875 22.671875 8.671875 22.671875 C 8.699219 22.542969 8.808594 22.433594 8.941406 22.414062 L 9.554688 22.3125 C 10.667969 22.082031 10.835938 21.011719 10.835938 21.003906 L 11.457031 18.007812 L 11.46875 17.941406 C 11.507812 17.753906 11.535156 17.574219 11.550781 17.402344 C 11.769531 17.308594 11.957031 17.171875 11.957031 16.96875 C 11.957031 16.738281 11.710938 16.59375 11.476562 16.511719 C 11.417969 16.316406 11.347656 16.167969 11.289062 16.035156 L 11.257812 15.972656 C 11.238281 15.929688 11.207031 15.871094 11.179688 15.804688 C 11.097656 15.648438 10.996094 15.445312 10.953125 15.328125 C 10.878906 15.15625 10.820312 14.960938 10.777344 14.765625 C 10.675781 14.316406 10.632812 13.796875 10.652344 13.21875 C 10.734375 11.140625 11.644531 9.003906 11.652344 8.980469 L 12.46875 6.964844 C 12.710938 7.203125 13.417969 7.40625 13.847656 7.492188 C 14.210938 7.566406 14.5625 7.609375 14.84375 7.609375 C 14.867188 7.609375 14.894531 7.609375 14.917969 7.609375 C 15.09375 7.601562 15.222656 7.585938 15.320312 7.542969 L 15.269531 9.710938 C 15.269531 9.753906 15.230469 13.976562 13.378906 15.820312 Z M 14.933594 10.015625 C 14.945312 10.070312 14.976562 10.273438 14.910156 10.828125 C 14.902344 10.867188 14.875 10.894531 14.835938 10.894531 C 14.835938 10.894531 14.832031 10.894531 14.832031 10.894531 C 14.792969 10.886719 14.765625 10.851562 14.765625 10.816406 C 14.800781 10.484375 14.808594 10.289062 14.800781 10.171875 C 14.683594 10.230469 14.496094 10.253906 14.296875 10.253906 C 14.152344 10.253906 14.015625 10.246094 13.898438 10.230469 C 13.859375 10.222656 13.824219 10.195312 13.832031 10.152344 C 13.839844 10.113281 13.867188 10.078125 13.914062 10.085938 C 14.554688 10.152344 14.773438 10.050781 14.78125 10.007812 C 14.78125 9.992188 14.757812 9.933594 14.605469 9.839844 C 14.566406 9.820312 14.5625 9.777344 14.582031 9.738281 C 14.605469 9.703125 14.648438 9.695312 14.683594 9.71875 C 14.859375 9.820312 14.941406 9.914062 14.933594 10.015625 Z M 13.65625 9.421875 C 13.664062 9.386719 13.707031 9.355469 13.746094 9.371094 C 14.007812 9.4375 14.246094 9.515625 14.445312 9.601562 C 14.480469 9.617188 14.496094 9.660156 14.480469 9.695312 C 14.464844 9.726562 14.445312 9.738281 14.414062 9.738281 C 14.40625 9.738281 14.394531 9.738281 14.386719 9.730469 C 14.195312 9.652344 13.964844 9.574219 13.707031 9.507812 C 13.671875 9.492188 13.648438 9.457031 13.65625 9.421875 Z M 13.082031 9.3125 C 13.089844 9.277344 13.125 9.25 13.160156 9.253906 C 13.261719 9.269531 13.367188 9.292969 13.460938 9.3125 C 13.496094 9.320312 13.527344 9.355469 13.519531 9.398438 C 13.511719 9.4375 13.480469 9.457031 13.445312 9.457031 C 13.4375 9.457031 13.4375 9.457031 13.429688 9.457031 C 13.328125 9.4375 13.234375 9.421875 13.132812 9.40625 C 13.101562 9.386719 13.082031 9.347656 13.082031 9.3125 Z M 13.328125 9.992188 C 13.367188 10 13.394531 10.035156 13.386719 10.078125 C 13.378906 10.113281 13.351562 10.136719 13.316406 10.136719 C 13.308594 10.136719 13.308594 10.136719 13.300781 10.136719 C 13.015625 10.078125 12.746094 10.007812 12.511719 9.921875 C 12.476562 9.90625 12.453125 9.863281 12.46875 9.828125 C 12.484375 9.789062 12.527344 9.769531 12.5625 9.78125 C 12.78125 9.863281 13.050781 9.933594 13.328125 9.992188 Z M 13.546875 10.035156 C 13.597656 10.042969 13.65625 10.050781 13.707031 10.058594 C 13.746094 10.066406 13.773438 10.101562 13.773438 10.136719 C 13.765625 10.171875 13.738281 10.203125 13.699219 10.203125 C 13.699219 10.203125 13.695312 10.203125 13.695312 10.203125 C 13.640625 10.195312 13.585938 10.1875 13.535156 10.179688 C 13.496094 10.171875 13.46875 10.136719 13.476562 10.09375 C 13.476562 10.058594 13.511719 10.027344 13.546875 10.035156 Z M 14.867188 11.167969 C 14.785156 11.753906 14.65625 12.425781 14.464844 13.148438 C 14.457031 13.183594 14.429688 13.207031 14.394531 13.207031 C 14.386719 13.207031 14.378906 13.207031 14.378906 13.207031 C 14.34375 13.199219 14.3125 13.15625 14.328125 13.117188 C 14.511719 12.402344 14.648438 11.738281 14.722656 11.164062 C 14.730469 11.125 14.765625 11.097656 14.800781 11.097656 C 14.84375 11.097656 14.875 11.132812 14.867188 11.167969 Z M 14.394531 13.421875 C 14.335938 13.632812 14.269531 13.835938 14.203125 14.027344 C 14.195312 14.058594 14.167969 14.078125 14.136719 14.078125 C 14.132812 14.078125 14.125 14.078125 14.117188 14.074219 C 14.078125 14.058594 14.058594 14.015625 14.074219 13.976562 C 14.136719 13.789062 14.203125 13.597656 14.261719 13.386719 C 14.269531 13.351562 14.3125 13.328125 14.347656 13.335938 C 14.386719 13.34375 14.40625 13.386719 14.394531 13.421875 Z M 14.117188 14.253906 C 13.992188 14.550781 13.941406 14.671875 13.796875 14.894531 C 13.78125 14.917969 13.757812 14.925781 13.738281 14.925781 C 13.722656 14.925781 13.707031 14.917969 13.695312 14.910156 C 13.65625 14.886719 13.648438 14.84375 13.671875 14.808594 C 13.808594 14.597656 13.855469 14.492188 13.976562 14.195312 C 13.992188 14.160156 14.035156 14.136719 14.074219 14.160156 C 14.109375 14.179688 14.132812 14.214844 14.117188 14.253906 Z M 13.585938 15.082031 C 13.613281 15.105469 13.621094 15.15625 13.597656 15.183594 C 13.585938 15.207031 13.570312 15.21875 13.5625 15.234375 C 13.539062 15.269531 13.527344 15.285156 13.480469 15.335938 C 13.46875 15.351562 13.445312 15.359375 13.429688 15.359375 C 13.417969 15.359375 13.394531 15.351562 13.378906 15.335938 C 13.351562 15.308594 13.351562 15.265625 13.371094 15.234375 C 13.410156 15.191406 13.425781 15.175781 13.445312 15.148438 C 13.453125 15.132812 13.46875 15.121094 13.480469 15.097656 C 13.503906 15.0625 13.554688 15.0625 13.585938 15.082031 Z M 13.269531 15.453125 C 13.300781 15.480469 13.292969 15.523438 13.261719 15.550781 C 13.140625 15.667969 13.007812 15.761719 12.878906 15.828125 C 12.710938 15.914062 12.519531 15.957031 12.332031 15.957031 C 12.105469 15.957031 11.871094 15.890625 11.675781 15.761719 C 11.636719 15.742188 11.632812 15.695312 11.652344 15.660156 C 11.675781 15.625 11.71875 15.617188 11.753906 15.640625 C 12.066406 15.847656 12.46875 15.871094 12.804688 15.695312 C 12.929688 15.632812 13.042969 15.550781 13.160156 15.445312 C 13.199219 15.421875 13.242188 15.421875 13.269531 15.453125 Z M 11.574219 15.480469 C 11.601562 15.507812 11.59375 15.550781 11.566406 15.582031 C 11.550781 15.597656 11.535156 15.601562 11.515625 15.601562 C 11.492188 15.601562 11.476562 15.597656 11.464844 15.582031 C 11.449219 15.558594 11.425781 15.546875 11.414062 15.523438 C 11.222656 15.285156 11.0625 15.046875 10.976562 14.519531 C 10.96875 14.484375 10.996094 14.441406 11.035156 14.433594 C 11.070312 14.425781 11.113281 14.453125 11.121094 14.492188 C 11.207031 14.980469 11.359375 15.207031 11.535156 15.429688 C 11.542969 15.453125 11.558594 15.464844 11.574219 15.480469 Z M 10.996094 14.238281 C 10.960938 14.238281 10.929688 14.210938 10.925781 14.171875 C 10.917969 14.128906 10.917969 14.085938 10.910156 14.035156 C 10.910156 13.992188 10.9375 13.964844 10.976562 13.957031 C 11.019531 13.957031 11.046875 13.984375 11.054688 14.023438 C 11.0625 14.066406 11.0625 14.109375 11.070312 14.152344 C 11.078125 14.1875 11.046875 14.222656 11.003906 14.230469 C 11.003906 14.238281 11.003906 14.238281 10.996094 14.238281 Z M 10.894531 13.796875 C 10.878906 13.414062 10.902344 13.003906 10.976562 12.570312 C 11.003906 12.402344 11.027344 12.238281 11.054688 12.078125 C 11.0625 12.042969 11.097656 12.015625 11.144531 12.019531 C 11.179688 12.027344 11.207031 12.066406 11.199219 12.109375 C 11.171875 12.265625 11.144531 12.433594 11.121094 12.597656 C 11.054688 13.023438 11.035156 13.429688 11.046875 13.804688 C 11.046875 13.847656 11.019531 13.878906 10.976562 13.878906 C 10.929688 13.871094 10.902344 13.835938 10.894531 13.796875 Z M 11.097656 11.871094 C 11.105469 11.820312 11.128906 11.738281 11.136719 11.6875 C 11.136719 11.683594 11.136719 11.675781 11.136719 11.675781 C 11.136719 11.675781 11.136719 11.667969 11.136719 11.667969 C 11.136719 11.660156 11.136719 11.660156 11.136719 11.652344 C 11.136719 11.644531 11.136719 11.644531 11.136719 11.644531 C 11.144531 11.617188 11.164062 11.574219 11.222656 11.589844 C 11.273438 11.59375 11.28125 11.632812 11.28125 11.675781 L 11.273438 11.6875 C 11.273438 11.695312 11.265625 11.710938 11.265625 11.71875 C 11.257812 11.769531 11.246094 11.839844 11.230469 11.898438 C 11.222656 11.933594 11.195312 11.957031 11.15625 11.957031 C 11.148438 11.957031 11.148438 11.957031 11.144531 11.957031 C 11.113281 11.949219 11.085938 11.914062 11.097656 11.871094 Z M 11.199219 11.363281 C 11.265625 11.089844 11.332031 10.824219 11.40625 10.578125 C 11.417969 10.542969 11.457031 10.519531 11.492188 10.527344 C 11.527344 10.542969 11.550781 10.578125 11.542969 10.613281 C 11.46875 10.859375 11.40625 11.117188 11.347656 11.394531 C 11.339844 11.429688 11.308594 11.449219 11.273438 11.449219 C 11.265625 11.449219 11.265625 11.449219 11.257812 11.449219 C 11.214844 11.445312 11.195312 11.402344 11.199219 11.363281 Z M 11.523438 10.203125 C 11.710938 9.601562 11.820312 9.421875 11.847656 9.386719 C 11.945312 9.140625 12.628906 9.191406 12.929688 9.21875 C 12.964844 9.226562 12.992188 9.261719 12.992188 9.300781 C 12.988281 9.335938 12.949219 9.363281 12.914062 9.363281 C 12.234375 9.292969 11.996094 9.394531 11.988281 9.4375 C 11.980469 9.457031 12.039062 9.558594 12.359375 9.703125 C 12.394531 9.71875 12.410156 9.761719 12.394531 9.796875 C 12.382812 9.828125 12.359375 9.839844 12.332031 9.839844 C 12.324219 9.839844 12.308594 9.839844 12.300781 9.832031 C 12.113281 9.753906 11.980469 9.667969 11.914062 9.585938 C 11.863281 9.695312 11.785156 9.898438 11.675781 10.246094 C 11.667969 10.273438 11.636719 10.296875 11.601562 10.296875 C 11.59375 10.296875 11.585938 10.296875 11.578125 10.296875 C 11.527344 10.28125 11.507812 10.238281 11.523438 10.203125 Z M 9.246094 22.558594 C 9.261719 22.566406 10.757812 23.164062 12.125 23.136719 C 12.164062 23.136719 12.199219 23.164062 12.199219 23.207031 C 12.199219 23.25 12.171875 23.28125 12.125 23.28125 C 12.097656 23.28125 12.066406 23.28125 12.039062 23.28125 C 10.660156 23.28125 9.203125 22.695312 9.1875 22.6875 C 9.152344 22.671875 9.132812 22.628906 9.152344 22.59375 C 9.167969 22.558594 9.210938 22.542969 9.246094 22.558594 Z M 10.421875 22.277344 C 10.40625 22.238281 10.421875 22.195312 10.464844 22.183594 C 10.5 22.167969 10.546875 22.183594 10.558594 22.21875 C 10.582031 22.269531 10.660156 22.421875 10.777344 22.433594 C 10.851562 22.449219 10.9375 22.40625 11.035156 22.3125 C 11.0625 22.28125 11.105469 22.28125 11.136719 22.3125 C 11.164062 22.339844 11.164062 22.382812 11.136719 22.414062 C 11.027344 22.527344 10.917969 22.585938 10.808594 22.585938 C 10.785156 22.585938 10.769531 22.585938 10.75 22.578125 C 10.539062 22.542969 10.429688 22.289062 10.421875 22.277344 Z M 13.269531 10.714844 C 12.921875 10.683594 12.6875 10.589844 12.578125 10.441406 C 12.390625 10.171875 11.921875 10.195312 11.914062 10.195312 C 11.878906 10.195312 11.84375 10.164062 11.84375 10.121094 C 11.84375 10.078125 11.871094 10.050781 11.90625 10.050781 C 11.929688 10.050781 12.460938 10.027344 12.695312 10.351562 C 12.773438 10.46875 12.988281 10.546875 13.277344 10.570312 C 13.410156 10.578125 13.554688 10.570312 13.699219 10.535156 C 13.882812 10.492188 14.226562 10.453125 14.464844 10.691406 C 14.496094 10.722656 14.496094 10.765625 14.464844 10.792969 C 14.453125 10.808594 14.429688 10.816406 14.414062 10.816406 C 14.394531 10.816406 14.378906 10.808594 14.363281 10.792969 C 14.175781 10.605469 13.890625 10.640625 13.738281 10.679688 C 13.578125 10.714844 13.417969 10.730469 13.269531 10.714844 Z M 12.636719 11.488281 C 12.730469 11.488281 12.820312 11.421875 12.839844 11.320312 C 12.855469 11.269531 12.839844 11.210938 12.8125 11.167969 C 12.78125 11.125 12.730469 11.089844 12.679688 11.082031 C 12.570312 11.0625 12.460938 11.132812 12.433594 11.242188 C 12.410156 11.351562 12.484375 11.457031 12.59375 11.488281 C 12.609375 11.480469 12.621094 11.488281 12.636719 11.488281 Z M 12.578125 11.261719 C 12.585938 11.234375 12.609375 11.210938 12.636719 11.210938 C 12.644531 11.210938 12.644531 11.210938 12.652344 11.210938 C 12.664062 11.210938 12.679688 11.226562 12.6875 11.242188 C 12.695312 11.257812 12.703125 11.269531 12.695312 11.285156 C 12.6875 11.320312 12.660156 11.34375 12.621094 11.335938 C 12.59375 11.328125 12.570312 11.300781 12.578125 11.261719 Z M 11.953125 11.601562 C 11.828125 11.574219 11.695312 11.660156 11.675781 11.78125 C 11.660156 11.839844 11.675781 11.90625 11.710938 11.957031 C 11.746094 12.007812 11.796875 12.042969 11.855469 12.058594 C 11.871094 12.058594 11.886719 12.066406 11.90625 12.066406 C 12.015625 12.066406 12.121094 11.984375 12.140625 11.878906 C 12.15625 11.753906 12.074219 11.625 11.953125 11.601562 Z M 11.988281 11.847656 C 11.980469 11.898438 11.929688 11.925781 11.878906 11.921875 C 11.855469 11.914062 11.835938 11.898438 11.820312 11.882812 C 11.804688 11.871094 11.804688 11.839844 11.804688 11.820312 C 11.8125 11.796875 11.828125 11.777344 11.84375 11.761719 C 11.855469 11.753906 11.871094 11.746094 11.894531 11.746094 C 11.902344 11.746094 11.90625 11.746094 11.90625 11.746094 C 11.964844 11.753906 12.003906 11.796875 11.988281 11.847656 Z M 12.242188 12.832031 C 12.230469 12.902344 12.242188 12.976562 12.28125 13.03125 C 12.324219 13.089844 12.382812 13.132812 12.453125 13.148438 C 12.476562 13.15625 12.492188 13.15625 12.511719 13.15625 C 12.5625 13.15625 12.613281 13.140625 12.664062 13.113281 C 12.722656 13.070312 12.769531 13.011719 12.78125 12.9375 C 12.796875 12.867188 12.78125 12.792969 12.746094 12.738281 C 12.703125 12.679688 12.644531 12.636719 12.570312 12.621094 C 12.5 12.605469 12.425781 12.621094 12.367188 12.65625 C 12.300781 12.691406 12.257812 12.757812 12.242188 12.832031 Z M 12.382812 12.859375 C 12.390625 12.824219 12.410156 12.792969 12.441406 12.78125 C 12.460938 12.765625 12.484375 12.757812 12.511719 12.757812 C 12.519531 12.757812 12.527344 12.757812 12.542969 12.757812 C 12.578125 12.765625 12.609375 12.785156 12.621094 12.816406 C 12.636719 12.84375 12.652344 12.878906 12.644531 12.910156 C 12.636719 12.945312 12.613281 12.976562 12.585938 12.988281 C 12.554688 13.011719 12.519531 13.019531 12.492188 13.011719 C 12.453125 13.003906 12.425781 12.980469 12.410156 12.953125 C 12.382812 12.925781 12.375 12.886719 12.382812 12.859375 Z M 12.03125 13.4375 C 12.046875 13.4375 12.054688 13.4375 12.066406 13.4375 C 12.097656 13.4375 12.132812 13.429688 12.15625 13.40625 C 12.191406 13.386719 12.214844 13.351562 12.230469 13.308594 C 12.242188 13.261719 12.230469 13.21875 12.207031 13.183594 C 12.183594 13.148438 12.148438 13.125 12.105469 13.113281 C 12.0625 13.105469 12.015625 13.113281 11.980469 13.132812 C 11.945312 13.15625 11.921875 13.191406 11.90625 13.234375 C 11.894531 13.277344 11.90625 13.320312 11.929688 13.355469 C 11.953125 13.40625 11.988281 13.429688 12.03125 13.4375 Z M 12.054688 13.261719 C 12.054688 13.261719 12.0625 13.261719 12.0625 13.261719 C 12.0625 13.261719 12.0625 13.261719 12.066406 13.261719 C 12.074219 13.261719 12.074219 13.269531 12.082031 13.269531 C 12.082031 13.269531 12.089844 13.277344 12.082031 13.285156 C 12.082031 13.292969 12.074219 13.292969 12.074219 13.300781 C 12.074219 13.300781 12.066406 13.308594 12.0625 13.300781 C 12.054688 13.300781 12.054688 13.292969 12.046875 13.292969 C 12.046875 13.292969 12.039062 13.285156 12.046875 13.277344 C 12.046875 13.269531 12.054688 13.261719 12.054688 13.261719 Z M 11.746094 14.433594 C 11.6875 14.417969 11.632812 14.433594 11.585938 14.460938 C 11.535156 14.492188 11.507812 14.542969 11.492188 14.597656 C 11.46875 14.714844 11.542969 14.824219 11.660156 14.851562 C 11.675781 14.851562 11.6875 14.859375 11.703125 14.859375 C 11.746094 14.859375 11.785156 14.84375 11.820312 14.824219 C 11.871094 14.792969 11.902344 14.742188 11.914062 14.6875 C 11.929688 14.628906 11.914062 14.570312 11.886719 14.527344 C 11.847656 14.484375 11.796875 14.449219 11.746094 14.433594 Z M 11.769531 14.65625 C 11.761719 14.671875 11.753906 14.691406 11.742188 14.699219 C 11.726562 14.707031 11.703125 14.714844 11.6875 14.707031 C 11.652344 14.699219 11.632812 14.664062 11.636719 14.628906 C 11.644531 14.613281 11.652344 14.59375 11.667969 14.585938 C 11.683594 14.578125 11.6875 14.570312 11.703125 14.570312 C 11.710938 14.570312 11.710938 14.570312 11.71875 14.570312 C 11.734375 14.578125 11.753906 14.585938 11.761719 14.597656 C 11.769531 14.621094 11.769531 14.644531 11.769531 14.65625 Z M 17.148438 11.746094 C 17.125 11.710938 17.140625 11.667969 17.171875 11.644531 C 17.34375 11.539062 17.570312 11.421875 17.8125 11.320312 C 17.847656 11.304688 17.890625 11.320312 17.90625 11.355469 C 17.921875 11.394531 17.90625 11.4375 17.871094 11.449219 C 17.628906 11.550781 17.417969 11.660156 17.25 11.761719 C 17.234375 11.769531 17.226562 11.777344 17.214844 11.777344 C 17.183594 11.78125 17.164062 11.769531 17.148438 11.746094 Z M 18.03125 11.320312 C 18.015625 11.285156 18.039062 11.242188 18.074219 11.226562 C 18.167969 11.191406 18.261719 11.164062 18.359375 11.132812 C 18.394531 11.117188 18.4375 11.140625 18.453125 11.183594 C 18.46875 11.21875 18.445312 11.261719 18.402344 11.277344 C 18.308594 11.304688 18.21875 11.335938 18.125 11.371094 C 18.117188 11.371094 18.109375 11.378906 18.101562 11.378906 C 18.066406 11.363281 18.039062 11.351562 18.03125 11.320312 Z M 18.539062 11.15625 C 18.53125 11.117188 18.554688 11.074219 18.589844 11.066406 C 18.875 10.996094 19.539062 10.84375 19.65625 11.074219 C 19.664062 11.089844 19.867188 11.355469 20.160156 11.964844 C 20.171875 12 20.160156 12.042969 20.121094 12.058594 C 20.113281 12.066406 20.101562 12.066406 20.09375 12.066406 C 20.0625 12.066406 20.042969 12.050781 20.027344 12.019531 C 19.851562 11.660156 19.707031 11.414062 19.617188 11.277344 C 19.5625 11.363281 19.453125 11.457031 19.285156 11.566406 C 19.269531 11.574219 19.253906 11.582031 19.246094 11.582031 C 19.226562 11.582031 19.195312 11.566406 19.1875 11.542969 C 19.167969 11.507812 19.175781 11.464844 19.210938 11.445312 C 19.503906 11.257812 19.539062 11.15625 19.53125 11.132812 C 19.515625 11.089844 19.269531 11.023438 18.628906 11.199219 C 18.589844 11.210938 18.546875 11.191406 18.539062 11.15625 Z M 18.269531 11.964844 C 18.257812 11.925781 18.277344 11.882812 18.3125 11.871094 C 18.578125 11.777344 18.816406 11.667969 19.019531 11.550781 C 19.058594 11.53125 19.101562 11.542969 19.125 11.582031 C 19.144531 11.617188 19.128906 11.660156 19.09375 11.683594 C 18.882812 11.796875 18.628906 11.90625 18.367188 12.007812 C 18.359375 12.007812 18.351562 12.015625 18.34375 12.015625 C 18.308594 12.015625 18.277344 11.992188 18.269531 11.964844 Z M 17.949219 11.992188 C 18 11.976562 18.050781 11.964844 18.097656 11.949219 C 18.132812 11.933594 18.175781 11.957031 18.191406 11.992188 C 18.207031 12.027344 18.183594 12.070312 18.148438 12.085938 C 18.097656 12.101562 18.042969 12.121094 17.992188 12.136719 C 17.988281 12.136719 17.980469 12.136719 17.972656 12.136719 C 17.941406 12.136719 17.914062 12.117188 17.898438 12.085938 C 17.890625 12.042969 17.914062 12 17.949219 11.992188 Z M 17.003906 13.023438 C 16.972656 13.023438 16.945312 13.003906 16.929688 12.976562 C 16.769531 12.410156 16.753906 12.171875 16.753906 12.128906 C 16.734375 12.035156 16.796875 11.925781 16.953125 11.804688 C 16.980469 11.777344 17.03125 11.78125 17.054688 11.8125 C 17.082031 11.839844 17.074219 11.890625 17.046875 11.914062 C 16.90625 12.019531 16.894531 12.085938 16.902344 12.101562 C 16.914062 12.144531 17.140625 12.203125 17.753906 12.050781 C 17.789062 12.042969 17.832031 12.066406 17.839844 12.101562 C 17.847656 12.136719 17.824219 12.179688 17.789062 12.1875 C 17.601562 12.238281 17.332031 12.289062 17.117188 12.289062 C 17.046875 12.289062 16.972656 12.28125 16.921875 12.265625 C 16.9375 12.390625 16.980469 12.605469 17.074219 12.9375 C 17.089844 12.976562 17.0625 13.019531 17.023438 13.023438 C 17.015625 13.023438 17.011719 13.023438 17.003906 13.023438 Z M 17.769531 15.125 C 17.761719 15.132812 17.746094 15.132812 17.738281 15.132812 C 17.710938 15.132812 17.679688 15.121094 17.671875 15.089844 C 17.390625 14.417969 17.15625 13.796875 16.996094 13.234375 C 16.980469 13.199219 17.011719 13.15625 17.046875 13.148438 C 17.082031 13.132812 17.125 13.164062 17.132812 13.199219 C 17.292969 13.746094 17.519531 14.367188 17.804688 15.03125 C 17.820312 15.070312 17.804688 15.113281 17.769531 15.125 Z M 18.152344 15.929688 C 18.140625 15.933594 18.132812 15.933594 18.117188 15.933594 C 18.089844 15.933594 18.066406 15.921875 18.050781 15.898438 C 17.957031 15.726562 17.863281 15.539062 17.773438 15.34375 C 17.761719 15.308594 17.773438 15.265625 17.8125 15.25 C 17.847656 15.234375 17.890625 15.25 17.90625 15.285156 C 17.992188 15.480469 18.082031 15.660156 18.175781 15.828125 C 18.207031 15.871094 18.191406 15.914062 18.152344 15.929688 Z M 21.246094 15.4375 C 21.246094 15.480469 21.25 15.523438 21.25 15.574219 C 21.25 15.617188 21.222656 15.648438 21.179688 15.648438 C 21.140625 15.648438 21.105469 15.617188 21.105469 15.574219 C 21.105469 15.53125 21.105469 15.488281 21.097656 15.445312 C 21.097656 15.402344 21.128906 15.371094 21.164062 15.363281 C 21.207031 15.363281 21.246094 15.394531 21.246094 15.4375 Z M 20.75 13.597656 C 20.785156 13.582031 20.828125 13.601562 20.84375 13.640625 C 20.894531 13.785156 20.917969 13.855469 20.96875 14.023438 C 21.097656 14.433594 21.1875 14.832031 21.222656 15.199219 C 21.230469 15.234375 21.199219 15.269531 21.15625 15.277344 C 21.15625 15.277344 21.148438 15.277344 21.148438 15.277344 C 21.113281 15.277344 21.085938 15.25 21.078125 15.214844 C 21.039062 14.851562 20.953125 14.460938 20.828125 14.066406 C 20.777344 13.90625 20.757812 13.835938 20.703125 13.683594 C 20.691406 13.644531 20.710938 13.609375 20.75 13.597656 Z M 20.550781 13.039062 C 20.589844 13.023438 20.632812 13.046875 20.648438 13.082031 C 20.683594 13.175781 20.710938 13.261719 20.75 13.363281 C 20.761719 13.402344 20.742188 13.445312 20.703125 13.457031 C 20.699219 13.457031 20.691406 13.464844 20.683594 13.464844 C 20.652344 13.464844 20.625 13.445312 20.617188 13.414062 C 20.582031 13.320312 20.550781 13.226562 20.515625 13.132812 C 20.492188 13.097656 20.515625 13.054688 20.550781 13.039062 Z M 20.164062 12.121094 C 20.203125 12.109375 20.246094 12.121094 20.261719 12.160156 C 20.371094 12.390625 20.472656 12.636719 20.574219 12.886719 C 20.589844 12.925781 20.566406 12.96875 20.53125 12.980469 C 20.523438 12.980469 20.515625 12.988281 20.5 12.988281 C 20.472656 12.988281 20.441406 12.976562 20.433594 12.945312 C 20.332031 12.691406 20.230469 12.449219 20.128906 12.222656 C 20.113281 12.1875 20.128906 12.144531 20.164062 12.121094 Z M 21.542969 24.695312 C 23.269531 24.484375 24.238281 23.707031 24.246094 23.699219 C 24.277344 23.667969 24.328125 23.675781 24.347656 23.707031 C 24.378906 23.734375 24.371094 23.785156 24.34375 23.808594 C 24.296875 23.84375 23.335938 24.621094 21.558594 24.839844 C 21.558594 24.839844 21.550781 24.839844 21.550781 24.839844 C 21.515625 24.839844 21.484375 24.808594 21.476562 24.773438 C 21.46875 24.730469 21.5 24.703125 21.542969 24.695312 Z M 22.359375 23.855469 C 22.332031 23.835938 22.324219 23.785156 22.34375 23.757812 C 22.367188 23.726562 22.417969 23.71875 22.445312 23.742188 C 22.554688 23.820312 22.644531 23.851562 22.714844 23.828125 C 22.824219 23.792969 22.882812 23.632812 22.898438 23.574219 C 22.90625 23.539062 22.949219 23.511719 22.984375 23.523438 C 23.023438 23.53125 23.050781 23.574219 23.039062 23.613281 C 23.039062 23.625 22.964844 23.894531 22.761719 23.964844 C 22.722656 23.980469 22.695312 23.980469 22.660156 23.980469 C 22.570312 23.980469 22.46875 23.9375 22.359375 23.855469 Z M 18.476562 12.570312 C 18.328125 12.605469 18.175781 12.613281 18.015625 12.597656 C 17.863281 12.585938 17.585938 12.597656 17.425781 12.800781 C 17.410156 12.824219 17.390625 12.832031 17.367188 12.832031 C 17.351562 12.832031 17.335938 12.824219 17.324219 12.816406 C 17.292969 12.792969 17.285156 12.742188 17.308594 12.714844 C 17.503906 12.453125 17.839844 12.441406 18.023438 12.453125 C 18.167969 12.46875 18.308594 12.453125 18.4375 12.425781 C 18.714844 12.359375 18.90625 12.261719 18.96875 12.136719 C 19.144531 11.78125 19.664062 11.726562 19.683594 11.726562 C 19.726562 11.71875 19.757812 11.746094 19.765625 11.789062 C 19.773438 11.828125 19.742188 11.863281 19.699219 11.871094 C 19.691406 11.871094 19.238281 11.921875 19.101562 12.203125 C 19.019531 12.367188 18.808594 12.492188 18.476562 12.570312 Z M 19.355469 13.105469 C 19.378906 13.054688 19.378906 13.003906 19.363281 12.953125 C 19.328125 12.851562 19.203125 12.792969 19.101562 12.832031 C 19.050781 12.851562 19.007812 12.886719 18.984375 12.9375 C 18.964844 12.988281 18.964844 13.039062 18.976562 13.089844 C 18.992188 13.140625 19.035156 13.183594 19.085938 13.207031 C 19.117188 13.21875 19.144531 13.226562 19.175781 13.226562 C 19.195312 13.226562 19.226562 13.21875 19.246094 13.214844 C 19.292969 13.191406 19.335938 13.148438 19.355469 13.105469 Z M 19.21875 13.039062 C 19.210938 13.054688 19.203125 13.0625 19.183594 13.070312 C 19.167969 13.074219 19.152344 13.074219 19.136719 13.070312 C 19.125 13.0625 19.117188 13.046875 19.109375 13.03125 C 19.101562 13.019531 19.101562 13.003906 19.109375 12.988281 C 19.117188 12.976562 19.125 12.96875 19.144531 12.960938 C 19.152344 12.960938 19.160156 12.960938 19.167969 12.960938 C 19.1875 12.960938 19.210938 12.976562 19.226562 12.996094 C 19.226562 13.011719 19.226562 13.023438 19.21875 13.039062 Z M 20.054688 13.234375 C 20 13.207031 19.941406 13.207031 19.882812 13.226562 C 19.824219 13.25 19.78125 13.292969 19.75 13.351562 C 19.722656 13.40625 19.722656 13.464844 19.742188 13.523438 C 19.765625 13.582031 19.808594 13.625 19.867188 13.652344 C 19.894531 13.667969 19.933594 13.675781 19.960938 13.675781 C 19.992188 13.675781 20.011719 13.667969 20.042969 13.660156 C 20.160156 13.617188 20.222656 13.488281 20.179688 13.363281 C 20.160156 13.308594 20.113281 13.261719 20.054688 13.234375 Z M 19.992188 13.523438 C 19.96875 13.53125 19.945312 13.53125 19.925781 13.523438 C 19.902344 13.515625 19.890625 13.496094 19.882812 13.472656 C 19.875 13.453125 19.875 13.429688 19.882812 13.40625 C 19.890625 13.386719 19.910156 13.371094 19.933594 13.363281 C 19.941406 13.363281 19.953125 13.355469 19.960938 13.355469 C 19.976562 13.355469 19.984375 13.355469 20 13.363281 C 20.019531 13.371094 20.035156 13.394531 20.042969 13.414062 C 20.054688 13.457031 20.035156 13.507812 19.992188 13.523438 Z M 19.4375 14.296875 C 19.371094 14.316406 19.3125 14.367188 19.285156 14.433594 C 19.253906 14.5 19.246094 14.570312 19.277344 14.636719 C 19.296875 14.699219 19.347656 14.757812 19.414062 14.789062 C 19.453125 14.800781 19.488281 14.808594 19.53125 14.808594 C 19.5625 14.808594 19.597656 14.800781 19.625 14.792969 C 19.691406 14.773438 19.75 14.722656 19.78125 14.65625 C 19.808594 14.59375 19.816406 14.519531 19.785156 14.453125 C 19.726562 14.316406 19.574219 14.246094 19.4375 14.296875 Z M 19.640625 14.597656 C 19.625 14.628906 19.605469 14.648438 19.566406 14.664062 C 19.539062 14.679688 19.503906 14.671875 19.472656 14.65625 C 19.445312 14.644531 19.421875 14.621094 19.40625 14.585938 C 19.394531 14.554688 19.402344 14.519531 19.414062 14.492188 C 19.429688 14.460938 19.453125 14.441406 19.488281 14.425781 C 19.503906 14.417969 19.515625 14.417969 19.53125 14.417969 C 19.582031 14.417969 19.625 14.449219 19.648438 14.5 C 19.65625 14.542969 19.65625 14.570312 19.640625 14.597656 Z M 20.660156 15.941406 C 20.609375 15.921875 20.550781 15.914062 20.5 15.933594 C 20.449219 15.957031 20.40625 15.992188 20.382812 16.042969 C 20.363281 16.09375 20.355469 16.152344 20.378906 16.203125 C 20.40625 16.289062 20.488281 16.339844 20.574219 16.339844 C 20.597656 16.339844 20.625 16.332031 20.648438 16.324219 C 20.699219 16.304688 20.742188 16.269531 20.761719 16.21875 C 20.785156 16.167969 20.792969 16.109375 20.769531 16.058594 C 20.75 16.007812 20.710938 15.972656 20.660156 15.941406 Z M 20.632812 16.160156 C 20.625 16.171875 20.609375 16.1875 20.597656 16.195312 C 20.582031 16.203125 20.558594 16.203125 20.542969 16.195312 C 20.53125 16.1875 20.515625 16.171875 20.507812 16.160156 C 20.5 16.144531 20.5 16.125 20.507812 16.109375 C 20.515625 16.09375 20.53125 16.078125 20.542969 16.074219 C 20.550781 16.074219 20.558594 16.066406 20.566406 16.066406 C 20.574219 16.066406 20.589844 16.066406 20.597656 16.074219 C 20.609375 16.078125 20.625 16.09375 20.632812 16.109375 C 20.640625 16.128906 20.640625 16.144531 20.632812 16.160156 Z M 32.335938 19.769531 C 32.332031 19.761719 31.476562 19.335938 30.601562 18.382812 C 29.664062 17.359375 27.519531 16.160156 25.683594 16.007812 C 23.941406 15.863281 23.4375 15.828125 23.378906 15.828125 L 21.6875 15.402344 C 21.492188 13.089844 19.953125 10.589844 19.941406 10.570312 L 18.746094 8.554688 C 18.605469 8.265625 17.636719 8.535156 17.132812 8.714844 C 16.753906 8.851562 16.40625 9.015625 16.164062 9.175781 C 15.886719 9.355469 15.769531 9.5 15.808594 9.625 L 16.214844 11.921875 C 16.222656 11.949219 16.667969 14.757812 17.988281 16.644531 L 16.519531 16.644531 C 16.5 16.644531 15.996094 16.648438 15.953125 16.96875 C 15.945312 17.046875 15.925781 17.242188 17.023438 17.429688 L 17.773438 18.125 C 17.863281 18.203125 17.964844 18.273438 18.082031 18.324219 L 18.351562 18.449219 L 19.402344 19.699219 C 19.453125 19.753906 19.507812 19.804688 19.582031 19.84375 L 19.976562 20.042969 L 20.542969 21.164062 C 20.71875 21.511719 21.039062 21.777344 21.5 21.957031 C 21.566406 21.988281 21.644531 22.007812 21.71875 22.039062 L 21.921875 22.59375 C 21.9375 22.628906 22.316406 23.511719 21.566406 24.210938 L 21.097656 24.617188 C 20.996094 24.710938 20.9375 24.839844 20.9375 24.976562 C 20.9375 25.035156 20.945312 25.085938 20.96875 25.144531 C 20.996094 25.230469 21.078125 25.28125 21.171875 25.28125 C 21.179688 25.28125 21.179688 25.28125 21.1875 25.28125 C 21.550781 25.257812 22.226562 25.128906 23.042969 24.832031 L 23.148438 24.796875 C 23.976562 24.492188 24.648438 24.082031 24.875 23.945312 C 24.941406 23.90625 24.976562 23.835938 24.976562 23.761719 C 24.976562 23.742188 24.96875 23.710938 24.960938 23.691406 C 24.894531 23.511719 24.714844 23.378906 24.515625 23.378906 L 23.898438 23.375 C 22.863281 23.316406 22.578125 22.40625 22.5625 22.363281 L 22.527344 22.269531 C 24.007812 22.609375 26.136719 22.816406 27.292969 22.613281 C 29.015625 22.320312 31.148438 23.863281 31.171875 23.886719 C 31.1875 23.894531 31.199219 23.902344 31.214844 23.902344 C 31.238281 23.902344 31.257812 23.894531 31.273438 23.871094 C 31.296875 23.84375 31.289062 23.792969 31.257812 23.769531 C 31.25 23.761719 30.703125 23.367188 29.945312 23.003906 C 29.238281 22.671875 28.203125 22.3125 27.273438 22.472656 C 25.820312 22.722656 22.824219 22.320312 21.558594 21.828125 C 21.136719 21.660156 20.84375 21.421875 20.683594 21.105469 L 20.203125 20.160156 L 20.769531 20.457031 L 21.011719 20.722656 C 21.105469 20.824219 21.214844 20.902344 21.347656 20.945312 C 21.347656 20.945312 21.355469 20.945312 21.355469 20.945312 C 21.410156 20.96875 21.46875 20.984375 21.535156 20.992188 L 21.898438 21.035156 L 22.769531 21.480469 C 22.773438 21.488281 22.789062 21.488281 22.804688 21.488281 C 22.832031 21.488281 22.855469 21.472656 22.871094 21.453125 C 22.890625 21.417969 22.878906 21.375 22.839844 21.359375 L 20.859375 20.332031 L 19.664062 19.710938 C 19.613281 19.683594 19.566406 19.648438 19.523438 19.605469 L 18.664062 18.578125 L 22.351562 20.226562 C 22.359375 20.230469 22.375 20.230469 22.382812 20.230469 C 22.410156 20.230469 22.433594 20.21875 22.445312 20.1875 C 22.460938 20.152344 22.445312 20.109375 22.410156 20.09375 L 18.148438 18.195312 C 18.050781 18.152344 17.957031 18.09375 17.882812 18.023438 L 17.300781 17.488281 C 17.441406 17.515625 17.578125 17.546875 17.714844 17.582031 L 21.964844 18.695312 C 21.972656 18.695312 21.980469 18.695312 21.988281 18.695312 C 22.015625 18.695312 22.046875 18.671875 22.0625 18.644531 C 22.066406 18.605469 22.046875 18.5625 22.007812 18.558594 L 17.746094 17.429688 C 17.527344 17.371094 17.308594 17.328125 17.097656 17.292969 C 16.257812 17.15625 16.097656 17.011719 16.097656 16.984375 C 16.121094 16.792969 16.515625 16.789062 16.519531 16.789062 L 23.671875 16.789062 C 23.714844 16.789062 23.746094 16.757812 23.746094 16.714844 C 23.746094 16.671875 23.714844 16.644531 23.671875 16.644531 L 21.777344 16.644531 C 21.753906 16.628906 21.710938 16.605469 21.652344 16.570312 C 21.703125 16.261719 21.71875 15.914062 21.695312 15.546875 L 23.34375 15.957031 C 23.351562 15.957031 23.351562 15.957031 23.359375 15.957031 C 23.367188 15.957031 23.808594 15.984375 25.667969 16.136719 C 27.460938 16.28125 29.566406 17.460938 30.492188 18.460938 C 31.390625 19.4375 32.234375 19.863281 32.273438 19.886719 C 32.277344 19.894531 32.292969 19.894531 32.300781 19.894531 C 32.332031 19.894531 32.351562 19.878906 32.367188 19.847656 C 32.386719 19.828125 32.375 19.785156 32.335938 19.769531 Z M 22.425781 22.398438 C 22.425781 22.40625 22.753906 23.4375 23.898438 23.503906 L 24.515625 23.511719 C 24.65625 23.511719 24.777344 23.597656 24.824219 23.726562 C 24.824219 23.734375 24.832031 23.742188 24.832031 23.75 C 24.832031 23.769531 24.816406 23.792969 24.800781 23.808594 C 24.582031 23.945312 23.917969 24.347656 23.101562 24.644531 L 23 24.679688 C 22.207031 24.96875 21.542969 25.097656 21.1875 25.121094 C 21.15625 25.121094 21.128906 25.105469 21.121094 25.078125 C 21.105469 25.042969 21.097656 25 21.097656 24.960938 C 21.097656 24.867188 21.140625 24.773438 21.214844 24.710938 L 21.683594 24.304688 C 22.511719 23.523438 22.074219 22.527344 22.074219 22.519531 L 21.90625 22.082031 C 22.054688 22.125 22.207031 22.167969 22.367188 22.203125 Z M 21.136719 20.644531 L 21.222656 20.6875 L 21.238281 20.722656 C 21.238281 20.722656 21.238281 20.730469 21.238281 20.730469 C 21.199219 20.703125 21.164062 20.671875 21.136719 20.644531 Z M 21.425781 20.824219 C 21.417969 20.808594 21.417969 20.800781 21.410156 20.789062 L 21.527344 20.847656 C 21.5 20.839844 21.464844 20.832031 21.425781 20.824219 Z M 16.246094 9.292969 C 16.484375 9.140625 16.820312 8.972656 17.183594 8.84375 C 17.761719 8.632812 18.183594 8.570312 18.417969 8.570312 C 18.539062 8.570312 18.605469 8.589844 18.621094 8.613281 C 18.628906 8.632812 18.589844 8.734375 18.320312 8.910156 C 18.082031 9.0625 17.746094 9.226562 17.382812 9.355469 C 17.011719 9.492188 16.652344 9.585938 16.367188 9.617188 C 16.046875 9.652344 15.960938 9.601562 15.953125 9.585938 C 15.9375 9.566406 15.976562 9.472656 16.246094 9.292969 Z M 16.359375 11.898438 L 15.980469 9.761719 C 16.03125 9.777344 16.089844 9.777344 16.15625 9.777344 C 16.222656 9.777344 16.296875 9.769531 16.382812 9.761719 C 16.675781 9.726562 17.046875 9.632812 17.425781 9.488281 C 17.804688 9.347656 18.152344 9.183594 18.394531 9.023438 C 18.539062 8.929688 18.640625 8.84375 18.699219 8.765625 L 19.808594 10.636719 C 19.824219 10.65625 21.367188 13.164062 21.542969 15.457031 C 21.574219 15.871094 21.558594 16.253906 21.5 16.601562 C 21.5 16.613281 21.492188 16.628906 21.492188 16.644531 L 21.171875 16.644531 C 21.246094 16.441406 21.246094 16.21875 21.246094 16.03125 C 21.246094 15.984375 21.246094 15.949219 21.246094 15.90625 C 21.246094 15.863281 21.214844 15.835938 21.171875 15.835938 C 21.136719 15.835938 21.097656 15.863281 21.097656 15.90625 C 21.097656 15.941406 21.097656 15.984375 21.097656 16.03125 C 21.097656 16.230469 21.097656 16.460938 21.011719 16.644531 L 18.695312 16.644531 C 18.695312 16.636719 18.6875 16.628906 18.6875 16.621094 L 18.648438 16.570312 C 18.554688 16.441406 18.378906 16.210938 18.300781 16.042969 C 18.285156 16.007812 18.242188 15.992188 18.207031 16.007812 C 18.167969 16.023438 18.152344 16.066406 18.167969 16.101562 C 18.257812 16.273438 18.421875 16.511719 18.519531 16.644531 L 18.160156 16.644531 C 16.820312 14.789062 16.359375 11.925781 16.359375 11.898438 Z M 17.78125 7.917969 L 17.796875 7.644531 C 17.796875 7.601562 17.832031 7.574219 17.871094 7.574219 C 17.914062 7.574219 17.941406 7.609375 17.941406 7.644531 L 17.929688 7.917969 C 17.929688 7.957031 17.890625 7.992188 17.855469 7.992188 C 17.8125 7.992188 17.773438 7.964844 17.78125 7.917969 Z M 17.804688 7.355469 L 17.820312 6.964844 C 17.820312 6.921875 17.855469 6.894531 17.890625 6.894531 C 17.933594 6.894531 17.964844 6.929688 17.964844 6.964844 L 17.949219 7.355469 C 17.949219 7.394531 17.914062 7.429688 17.878906 7.429688 C 17.832031 7.4375 17.804688 7.398438 17.804688 7.355469 Z M 17.832031 6.632812 L 17.863281 5.90625 C 17.863281 5.863281 17.898438 5.832031 17.933594 5.832031 C 17.980469 5.832031 18.007812 5.867188 18.007812 5.90625 L 17.980469 6.632812 C 17.980469 6.671875 17.941406 6.707031 17.90625 6.707031 C 17.863281 6.714844 17.832031 6.675781 17.832031 6.632812 Z M 18.410156 7.8125 L 18.605469 7.160156 C 18.621094 7.125 18.65625 7.105469 18.695312 7.109375 C 18.730469 7.125 18.75 7.160156 18.746094 7.199219 L 18.546875 7.847656 C 18.539062 7.875 18.511719 7.898438 18.476562 7.898438 C 18.46875 7.898438 18.460938 7.898438 18.453125 7.898438 C 18.417969 7.890625 18.394531 7.847656 18.410156 7.8125 Z M 18.746094 6.707031 L 18.808594 6.503906 C 18.824219 6.46875 18.859375 6.445312 18.898438 6.453125 C 18.933594 6.46875 18.957031 6.503906 18.949219 6.539062 L 18.882812 6.742188 C 18.875 6.773438 18.847656 6.792969 18.808594 6.792969 C 18.804688 6.792969 18.796875 6.792969 18.789062 6.792969 C 18.75 6.785156 18.730469 6.75 18.746094 6.707031 Z M 18.808594 7.882812 L 18.984375 7.609375 C 19.007812 7.574219 19.050781 7.566406 19.085938 7.585938 C 19.125 7.609375 19.128906 7.652344 19.109375 7.6875 L 18.933594 7.964844 C 18.917969 7.984375 18.898438 8 18.875 8 C 18.859375 8 18.847656 7.992188 18.839844 7.984375 C 18.804688 7.964844 18.789062 7.917969 18.808594 7.882812 Z M 19.175781 7.328125 L 19.296875 7.140625 C 19.320312 7.105469 19.363281 7.097656 19.402344 7.117188 C 19.4375 7.140625 19.445312 7.183594 19.421875 7.21875 L 19.296875 7.40625 C 19.285156 7.429688 19.261719 7.441406 19.238281 7.441406 C 19.226562 7.441406 19.210938 7.4375 19.203125 7.429688 C 19.160156 7.40625 19.152344 7.363281 19.175781 7.328125 Z M 19.464844 6.878906 L 19.800781 6.359375 C 19.824219 6.324219 19.867188 6.316406 19.902344 6.339844 C 19.941406 6.359375 19.945312 6.402344 19.925781 6.4375 L 19.589844 6.960938 C 19.574219 6.980469 19.554688 6.996094 19.53125 6.996094 C 19.515625 6.996094 19.503906 6.988281 19.496094 6.980469 C 19.453125 6.953125 19.445312 6.910156 19.464844 6.878906 Z M 19.992188 6.0625 L 20.1875 5.753906 C 20.210938 5.71875 20.253906 5.710938 20.289062 5.730469 C 20.324219 5.753906 20.332031 5.796875 20.3125 5.832031 L 20.113281 6.144531 C 20.101562 6.164062 20.078125 6.179688 20.054688 6.179688 C 20.042969 6.179688 20.027344 6.171875 20.019531 6.164062 C 19.976562 6.144531 19.96875 6.09375 19.992188 6.0625 Z M 19.144531 8.207031 L 20.027344 7.585938 C 20.0625 7.566406 20.105469 7.574219 20.128906 7.601562 C 20.152344 7.636719 20.144531 7.679688 20.113281 7.703125 L 19.234375 8.324219 C 19.21875 8.332031 19.203125 8.339844 19.1875 8.339844 C 19.167969 8.339844 19.144531 8.332031 19.128906 8.308594 C 19.109375 8.273438 19.117188 8.230469 19.144531 8.207031 Z M 20.792969 8.265625 C 20.777344 8.230469 20.792969 8.1875 20.828125 8.171875 L 21.5 7.890625 C 21.535156 7.875 21.578125 7.890625 21.59375 7.925781 C 21.609375 7.964844 21.59375 8.007812 21.558594 8.019531 L 20.886719 8.300781 C 20.878906 8.308594 20.867188 8.308594 20.859375 8.308594 C 20.828125 8.308594 20.808594 8.289062 20.792969 8.265625 Z M 20.304688 8.390625 L 20.523438 8.300781 C 20.558594 8.289062 20.601562 8.300781 20.617188 8.339844 C 20.632812 8.375 20.617188 8.417969 20.582031 8.433594 L 20.363281 8.519531 C 20.355469 8.527344 20.339844 8.527344 20.332031 8.527344 C 20.304688 8.527344 20.273438 8.511719 20.269531 8.484375 C 20.253906 8.445312 20.269531 8.402344 20.304688 8.390625 Z M 20.070312 8.5625 C 20.085938 8.597656 20.070312 8.640625 20.035156 8.65625 L 19.597656 8.835938 C 19.589844 8.84375 19.574219 8.84375 19.566406 8.84375 C 19.539062 8.84375 19.507812 8.828125 19.503906 8.800781 C 19.488281 8.765625 19.503906 8.722656 19.539062 8.707031 L 19.976562 8.527344 C 20.011719 8.503906 20.054688 8.527344 20.070312 8.5625 Z M 13.445312 5.441406 L 13.46875 5.191406 C 13.476562 5.152344 13.503906 5.117188 13.546875 5.125 C 13.585938 5.132812 13.621094 5.160156 13.613281 5.203125 L 13.589844 5.457031 C 13.589844 5.492188 13.554688 5.523438 13.519531 5.523438 C 13.519531 5.523438 13.511719 5.523438 13.511719 5.523438 C 13.46875 5.515625 13.4375 5.480469 13.445312 5.441406 Z M 13.496094 4.878906 L 13.535156 4.511719 C 13.539062 4.476562 13.570312 4.4375 13.613281 4.445312 C 13.648438 4.453125 13.6875 4.480469 13.679688 4.527344 L 13.640625 4.894531 C 13.640625 4.929688 13.605469 4.960938 13.570312 4.960938 C 13.570312 4.960938 13.5625 4.960938 13.5625 4.960938 C 13.527344 4.960938 13.496094 4.921875 13.496094 4.878906 Z M 13.570312 4.148438 L 13.621094 3.585938 C 13.628906 3.550781 13.65625 3.515625 13.699219 3.523438 C 13.738281 3.527344 13.773438 3.558594 13.765625 3.601562 L 13.714844 4.164062 C 13.714844 4.199219 13.679688 4.230469 13.640625 4.230469 C 13.640625 4.230469 13.636719 4.230469 13.636719 4.230469 C 13.597656 4.222656 13.570312 4.1875 13.570312 4.148438 Z M 12.863281 5.574219 L 12.703125 4.53125 C 12.695312 4.496094 12.722656 4.453125 12.761719 4.453125 C 12.796875 4.445312 12.839844 4.476562 12.839844 4.511719 L 13.007812 5.550781 C 13.015625 5.585938 12.988281 5.628906 12.949219 5.628906 C 12.941406 5.628906 12.941406 5.628906 12.9375 5.628906 C 12.898438 5.636719 12.871094 5.609375 12.863281 5.574219 Z M 12.265625 4.902344 C 12.300781 4.886719 12.34375 4.910156 12.359375 4.945312 L 12.585938 5.628906 C 12.601562 5.667969 12.578125 5.710938 12.542969 5.722656 C 12.535156 5.722656 12.527344 5.730469 12.519531 5.730469 C 12.492188 5.730469 12.460938 5.710938 12.453125 5.679688 L 12.230469 4.996094 C 12.199219 4.960938 12.222656 4.914062 12.265625 4.902344 Z M 11.957031 4 C 11.996094 3.984375 12.039062 4.003906 12.054688 4.042969 L 12.230469 4.554688 C 12.242188 4.589844 12.222656 4.632812 12.183594 4.648438 C 12.175781 4.648438 12.171875 4.65625 12.164062 4.65625 C 12.132812 4.65625 12.105469 4.632812 12.097656 4.605469 L 11.914062 4.09375 C 11.902344 4.054688 11.921875 4.011719 11.957031 4 Z M 11.753906 3.617188 C 11.742188 3.578125 11.761719 3.535156 11.796875 3.523438 C 11.835938 3.507812 11.878906 3.527344 11.894531 3.566406 L 11.972656 3.804688 C 11.988281 3.839844 11.964844 3.882812 11.929688 3.898438 C 11.921875 3.898438 11.914062 3.90625 11.90625 3.90625 C 11.878906 3.90625 11.847656 3.882812 11.84375 3.855469 Z M 12.046875 5.957031 L 11.84375 5.710938 C 11.820312 5.679688 11.820312 5.628906 11.855469 5.609375 C 11.886719 5.585938 11.9375 5.585938 11.957031 5.625 L 12.164062 5.867188 C 12.183594 5.898438 12.183594 5.949219 12.148438 5.96875 C 12.132812 5.976562 12.121094 5.984375 12.105469 5.984375 C 12.082031 5.976562 12.0625 5.96875 12.046875 5.957031 Z M 11.46875 5.242188 C 11.449219 5.210938 11.449219 5.160156 11.484375 5.140625 C 11.515625 5.117188 11.566406 5.117188 11.585938 5.152344 L 11.746094 5.347656 C 11.769531 5.378906 11.769531 5.429688 11.734375 5.449219 C 11.71875 5.457031 11.703125 5.464844 11.6875 5.464844 C 11.667969 5.464844 11.644531 5.457031 11.632812 5.4375 Z M 11.777344 6.171875 L 11.945312 6.308594 C 11.972656 6.339844 11.980469 6.382812 11.953125 6.410156 C 11.9375 6.425781 11.914062 6.4375 11.894531 6.4375 C 11.878906 6.4375 11.855469 6.433594 11.847656 6.425781 L 11.683594 6.289062 C 11.652344 6.257812 11.644531 6.214844 11.675781 6.1875 C 11.703125 6.152344 11.746094 6.144531 11.777344 6.171875 Z M 10.867188 5.609375 C 10.835938 5.578125 10.828125 5.535156 10.859375 5.507812 C 10.886719 5.480469 10.929688 5.472656 10.960938 5.5 L 11.46875 5.917969 C 11.5 5.949219 11.507812 5.992188 11.476562 6.019531 C 11.464844 6.035156 11.441406 6.050781 11.417969 6.050781 C 11.40625 6.050781 11.382812 6.042969 11.375 6.035156 Z M 10.4375 5.253906 C 10.40625 5.226562 10.398438 5.183594 10.429688 5.152344 C 10.457031 5.125 10.5 5.117188 10.53125 5.148438 L 10.707031 5.292969 C 10.734375 5.320312 10.742188 5.363281 10.710938 5.390625 C 10.699219 5.40625 10.675781 5.421875 10.652344 5.421875 C 10.640625 5.421875 10.617188 5.414062 10.609375 5.40625 Z M 9.320312 7.71875 L 10.113281 7.820312 L 10.21875 8.605469 C 10.222656 8.640625 10.253906 8.671875 10.289062 8.671875 C 10.328125 8.671875 10.355469 8.640625 10.363281 8.605469 L 10.464844 7.820312 L 11.257812 7.71875 C 11.296875 7.710938 11.324219 7.679688 11.324219 7.644531 C 11.324219 7.609375 11.296875 7.582031 11.257812 7.574219 L 10.464844 7.472656 L 10.363281 6.691406 C 10.355469 6.65625 10.328125 6.628906 10.289062 6.628906 C 10.253906 6.628906 10.222656 6.65625 10.21875 6.691406 L 10.113281 7.472656 L 9.320312 7.574219 C 9.285156 7.582031 9.253906 7.609375 9.253906 7.644531 C 9.253906 7.679688 9.285156 7.71875 9.320312 7.71875 Z M 10.1875 7.609375 C 10.21875 7.601562 10.246094 7.582031 10.253906 7.542969 L 10.289062 7.261719 L 10.328125 7.542969 C 10.332031 7.582031 10.355469 7.601562 10.390625 7.609375 L 10.675781 7.644531 L 10.390625 7.679688 C 10.355469 7.6875 10.332031 7.710938 10.328125 7.746094 L 10.289062 8.027344 L 10.253906 7.746094 C 10.246094 7.710938 10.222656 7.6875 10.1875 7.679688 L 9.902344 7.644531 Z M 21.121094 11.117188 C 21.121094 11.15625 21.148438 11.183594 21.1875 11.191406 L 21.980469 11.292969 L 22.082031 12.078125 C 22.089844 12.117188 22.117188 12.144531 22.15625 12.144531 C 22.191406 12.144531 22.222656 12.117188 22.226562 12.078125 L 22.332031 11.292969 L 23.125 11.191406 C 23.160156 11.183594 23.191406 11.15625 23.191406 11.117188 C 23.191406 11.082031 23.160156 11.054688 23.125 11.046875 L 22.332031 10.945312 L 22.226562 10.164062 C 22.222656 10.128906 22.191406 10.101562 22.15625 10.101562 C 22.117188 10.101562 22.089844 10.128906 22.082031 10.164062 L 21.980469 10.945312 L 21.1875 11.046875 C 21.148438 11.054688 21.121094 11.082031 21.121094 11.117188 Z M 22.054688 11.082031 C 22.089844 11.074219 22.113281 11.054688 22.117188 11.019531 L 22.15625 10.734375 L 22.191406 11.019531 C 22.199219 11.054688 22.222656 11.074219 22.257812 11.082031 L 22.542969 11.117188 L 22.257812 11.15625 C 22.222656 11.164062 22.199219 11.183594 22.191406 11.21875 L 22.15625 11.5 L 22.117188 11.21875 C 22.113281 11.183594 22.089844 11.164062 22.054688 11.15625 L 21.769531 11.117188 Z M 16.644531 7.378906 C 16.792969 7.378906 16.914062 7.253906 16.914062 7.109375 C 16.914062 6.964844 16.792969 6.84375 16.644531 6.84375 C 16.5 6.84375 16.375 6.964844 16.375 7.109375 C 16.375 7.253906 16.492188 7.378906 16.644531 7.378906 Z M 16.644531 6.988281 C 16.710938 6.988281 16.769531 7.046875 16.769531 7.109375 C 16.769531 7.175781 16.710938 7.234375 16.644531 7.234375 C 16.578125 7.234375 16.519531 7.175781 16.519531 7.109375 C 16.519531 7.046875 16.574219 6.988281 16.644531 6.988281 Z M 23.746094 13.199219 C 23.90625 13.199219 24.035156 13.070312 24.035156 12.910156 C 24.035156 12.75 23.90625 12.621094 23.746094 12.621094 C 23.582031 12.621094 23.453125 12.75 23.453125 12.910156 C 23.453125 13.070312 23.578125 13.199219 23.746094 13.199219 Z M 23.746094 12.765625 C 23.824219 12.765625 23.890625 12.832031 23.890625 12.910156 C 23.890625 12.988281 23.824219 13.054688 23.746094 13.054688 C 23.664062 13.054688 23.597656 12.988281 23.597656 12.910156 C 23.589844 12.832031 23.65625 12.765625 23.746094 12.765625 Z M 8.226562 11.167969 C 8.417969 11.167969 8.5625 11.019531 8.5625 10.835938 C 8.5625 10.65625 8.410156 10.503906 8.226562 10.503906 C 8.046875 10.503906 7.890625 10.65625 7.890625 10.835938 C 7.890625 11.019531 8.046875 11.167969 8.226562 11.167969 Z M 8.226562 10.640625 C 8.335938 10.640625 8.417969 10.730469 8.417969 10.828125 C 8.417969 10.929688 8.328125 11.019531 8.226562 11.019531 C 8.125 11.019531 8.039062 10.929688 8.039062 10.828125 C 8.039062 10.730469 8.125 10.640625 8.226562 10.640625 Z M 10.011719 9.386719 C 10.109375 9.386719 10.1875 9.464844 10.1875 9.558594 C 10.1875 9.652344 10.109375 9.730469 10.011719 9.730469 C 9.917969 9.730469 9.839844 9.652344 9.839844 9.558594 C 9.839844 9.464844 9.910156 9.386719 10.011719 9.386719 Z M 22.535156 14.433594 C 22.621094 14.433594 22.6875 14.5 22.6875 14.585938 C 22.6875 14.671875 22.621094 14.738281 22.535156 14.738281 C 22.445312 14.738281 22.382812 14.671875 22.382812 14.585938 C 22.382812 14.5 22.445312 14.433594 22.535156 14.433594 Z M 15.691406 6.25 C 15.691406 6.332031 15.625 6.394531 15.542969 6.394531 C 15.464844 6.394531 15.398438 6.332031 15.398438 6.25 C 15.398438 6.171875 15.464844 6.105469 15.542969 6.105469 C 15.625 6.101562 15.691406 6.164062 15.691406 6.25 Z M 15.691406 6.25 " fill-opacity="1" fill-rule="nonzero"/></g></svg>