<svg xmlns="http://www.w3.org/2000/svg" xmlns:xlink="http://www.w3.org/1999/xlink" width="40" zoomAndPan="magnify" viewBox="0 0 30 30.000001" height="40" preserveAspectRatio="xMidYMid meet" version="1.0"><defs><clipPath id="id1"><path d="M 0.484375 0 L 29.515625 0 L 29.515625 29.03125 L 0.484375 29.03125 Z M 0.484375 0 " clip-rule="nonzero"/></clipPath><clipPath id="id2"><path d="M 8 9 L 22 9 L 22 29.03125 L 8 29.03125 Z M 8 9 " clip-rule="nonzero"/></clipPath><clipPath id="id3"><path d="M 7.476562 1 L 22.71875 1 L 22.71875 21 L 7.476562 21 Z M 7.476562 1 " clip-rule="nonzero"/></clipPath></defs><g clip-path="url(#id1)"><path fill="#ffffff" d="M 0.484375 0 L 29.515625 0 L 29.515625 36.289062 L 0.484375 36.289062 Z M 0.484375 0 " fill-opacity="1" fill-rule="nonzero"/><path fill="#ffffff" d="M 0.484375 0 L 29.515625 0 L 29.515625 29.03125 L 0.484375 29.03125 Z M 0.484375 0 " fill-opacity="1" fill-rule="nonzero"/><path fill="#ffffff" d="M 0.484375 0 L 29.515625 0 L 29.515625 29.03125 L 0.484375 29.03125 Z M 0.484375 0 " fill-opacity="1" fill-rule="nonzero"/></g><g clip-path="url(#id2)"><path fill="#f7f3f0" d="M 17.425781 16.71875 L 17.425781 10.855469 L 17.609375 10.855469 L 17.609375 9.632812 L 12.589844 9.632812 L 12.589844 10.855469 L 12.773438 10.855469 L 12.773438 16.71875 L 8.199219 20.832031 L 8.199219 28.648438 L 12.765625 28.648438 L 12.765625 28.644531 L 12.773438 28.644531 L 12.773438 28.648438 L 12.765625 28.648438 L 12.765625 29.03125 L 17.429688 29.03125 L 17.429688 28.648438 L 17.425781 28.648438 L 17.425781 28.644531 L 17.429688 28.644531 L 17.429688 28.648438 L 22 28.648438 L 22 20.832031 Z M 14.9375 26.164062 L 14.785156 26.164062 L 14.785156 25.714844 L 14.9375 25.714844 Z M 15.503906 26.164062 L 15.351562 26.164062 L 15.351562 25.714844 L 15.503906 25.714844 Z M 15.503906 26.164062 " fill-opacity="1" fill-rule="evenodd"/></g><path fill="#abdbf7" d="M 14.417969 11.464844 L 15.09375 11.203125 L 15.757812 11.433594 L 15.960938 11.964844 L 15.960938 14.769531 L 14.238281 14.769531 L 14.238281 11.957031 Z M 14.238281 18.5 L 14.238281 21.316406 L 15.960938 21.316406 L 15.960938 18.511719 L 15.757812 17.976562 L 15.09375 17.746094 L 14.417969 18.007812 Z M 9.316406 21.839844 L 9.316406 25.886719 L 11.792969 25.886719 L 11.792969 21.851562 L 11.503906 21.085938 L 10.550781 20.753906 L 9.574219 21.128906 Z M 18.402344 21.839844 L 18.402344 25.886719 L 20.878906 25.886719 L 20.878906 21.851562 L 20.589844 21.085938 L 19.636719 20.753906 L 18.660156 21.128906 Z M 18.402344 21.839844 " fill-opacity="1" fill-rule="evenodd"/><path fill="#f7ece1" d="M 14.125 14.835938 L 16.074219 14.835938 L 16.074219 15.222656 L 14.125 15.222656 Z M 14.125 21.765625 L 16.074219 21.765625 L 16.074219 21.382812 L 14.125 21.382812 Z M 9.152344 26.53125 L 11.960938 26.53125 L 11.960938 25.976562 L 9.152344 25.976562 Z M 18.238281 26.53125 L 21.046875 26.53125 L 21.046875 25.976562 L 18.238281 25.976562 Z M 18.238281 26.53125 " fill-opacity="1" fill-rule="evenodd"/><path fill="#61c2a2" d="M 13.765625 28.335938 L 13.765625 24.886719 C 13.765625 22.871094 16.433594 22.871094 16.433594 24.886719 L 16.433594 28.335938 Z M 15.890625 12.019531 L 15.890625 12.058594 L 15.890625 12.050781 C 15.890625 12.039062 15.890625 12.03125 15.890625 12.019531 Z M 15.097656 11.117188 C 14.59375 11.117188 14.183594 11.523438 14.183594 12.019531 L 14.183594 14.839844 L 16.015625 14.839844 L 16.015625 12.019531 C 16.011719 11.523438 15.605469 11.117188 15.097656 11.117188 Z M 15.039062 14.703125 L 14.3125 14.703125 L 14.3125 13.894531 L 15.039062 13.894531 Z M 15.039062 13.832031 L 14.3125 13.832031 L 14.3125 13.042969 L 15.039062 13.042969 Z M 15.039062 12.929688 L 14.3125 12.929688 L 14.3125 12.121094 L 15.039062 12.121094 Z M 15.039062 12.058594 L 14.3125 12.058594 L 14.3125 12.023438 L 14.308594 12.023438 C 14.324219 11.625 14.636719 11.300781 15.039062 11.269531 Z M 15.890625 14.703125 L 15.160156 14.703125 L 15.160156 13.894531 L 15.890625 13.894531 Z M 15.890625 13.832031 L 15.160156 13.832031 L 15.160156 13.042969 L 15.890625 13.042969 Z M 15.890625 12.929688 L 15.160156 12.929688 L 15.160156 12.121094 L 15.890625 12.121094 Z M 15.890625 12.058594 L 15.160156 12.058594 L 15.160156 11.269531 C 15.558594 11.300781 15.875 11.625 15.890625 12.019531 C 15.890625 12.03125 15.890625 12.039062 15.890625 12.050781 Z M 15.890625 18.59375 L 15.890625 18.601562 L 15.890625 18.566406 C 15.890625 18.574219 15.890625 18.585938 15.890625 18.59375 Z M 14.3125 18.566406 L 14.3125 18.601562 L 14.308594 18.601562 L 14.308594 18.59375 C 14.308594 18.585938 14.308594 18.574219 14.308594 18.566406 Z M 15.097656 17.660156 C 14.59375 17.664062 14.1875 18.066406 14.183594 18.5625 L 14.183594 21.386719 L 16.015625 21.386719 L 16.015625 18.5625 C 16.011719 18.066406 15.605469 17.664062 15.097656 17.660156 Z M 15.039062 21.246094 L 14.3125 21.25 L 14.3125 20.441406 L 15.039062 20.441406 Z M 15.039062 20.375 L 14.3125 20.375 L 14.3125 19.589844 L 15.039062 19.589844 Z M 15.039062 19.472656 L 14.3125 19.472656 L 14.3125 18.664062 L 15.039062 18.664062 Z M 15.039062 18.601562 L 14.308594 18.601562 L 14.308594 18.59375 C 14.308594 18.585938 14.308594 18.574219 14.308594 18.566406 C 14.324219 18.167969 14.636719 17.84375 15.039062 17.816406 Z M 15.890625 21.246094 L 15.160156 21.246094 L 15.160156 20.441406 L 15.890625 20.441406 Z M 15.890625 20.375 L 15.160156 20.375 L 15.160156 19.589844 L 15.890625 19.589844 Z M 15.890625 19.472656 L 15.160156 19.472656 L 15.160156 18.664062 L 15.890625 18.664062 Z M 15.890625 18.601562 L 15.160156 18.601562 L 15.160156 17.816406 C 15.558594 17.847656 15.875 18.167969 15.890625 18.566406 C 15.890625 18.574219 15.890625 18.585938 15.890625 18.59375 Z M 15.160156 17.730469 L 15.160156 17.816406 C 15.140625 17.816406 15.121094 17.8125 15.097656 17.8125 C 15.078125 17.8125 15.058594 17.816406 15.039062 17.816406 L 15.039062 17.730469 Z M 15.160156 17.730469 L 15.160156 17.816406 C 15.140625 17.816406 15.121094 17.8125 15.097656 17.8125 C 15.078125 17.8125 15.058594 17.816406 15.039062 17.816406 L 15.039062 17.730469 Z M 9.421875 21.933594 L 9.421875 21.984375 L 9.417969 21.984375 L 9.417969 21.972656 C 9.417969 21.960938 9.417969 21.945312 9.417969 21.933594 Z M 10.554688 20.632812 C 9.832031 20.632812 9.242188 21.214844 9.238281 21.929688 L 9.238281 25.984375 L 11.871094 25.984375 L 11.871094 21.929688 C 11.871094 21.214844 11.28125 20.632812 10.554688 20.632812 Z M 10.472656 23.402344 L 10.472656 24.53125 L 9.421875 24.53125 L 9.421875 23.402344 Z M 9.421875 23.234375 L 9.421875 22.074219 L 10.46875 22.074219 L 10.46875 23.234375 Z M 9.417969 21.972656 C 9.417969 21.960938 9.417969 21.945312 9.417969 21.933594 C 9.441406 21.363281 9.894531 20.898438 10.46875 20.855469 L 10.46875 21.984375 L 9.417969 21.984375 Z M 9.421875 24.625 L 10.46875 24.625 L 10.46875 25.785156 L 9.421875 25.789062 Z M 11.695312 25.785156 L 10.640625 25.785156 L 10.640625 24.625 L 11.695312 24.625 Z M 11.695312 24.53125 L 10.640625 24.53125 L 10.640625 23.402344 L 11.695312 23.402344 Z M 11.695312 23.234375 L 10.640625 23.234375 L 10.640625 22.074219 L 11.695312 22.074219 Z M 11.695312 21.984375 L 10.640625 21.984375 L 10.640625 20.855469 C 11.234375 20.898438 11.691406 21.386719 11.695312 21.972656 Z M 19.644531 20.632812 C 18.917969 20.632812 18.328125 21.214844 18.328125 21.929688 L 18.328125 25.984375 L 20.957031 25.984375 L 20.957031 21.929688 C 20.957031 21.214844 20.367188 20.632812 19.640625 20.632812 Z M 19.558594 25.785156 L 18.507812 25.789062 L 18.507812 24.625 L 19.558594 24.625 Z M 19.558594 24.53125 L 18.507812 24.53125 L 18.507812 23.402344 L 19.558594 23.402344 Z M 19.558594 23.234375 L 18.507812 23.234375 L 18.507812 22.074219 L 19.558594 22.074219 Z M 19.558594 21.984375 L 18.507812 21.984375 L 18.507812 21.933594 L 18.503906 21.933594 C 18.527344 21.363281 18.980469 20.898438 19.558594 20.855469 Z M 20.78125 25.785156 L 19.726562 25.785156 L 19.726562 24.625 L 20.78125 24.625 Z M 20.78125 24.53125 L 19.726562 24.53125 L 19.726562 23.402344 L 20.78125 23.402344 Z M 20.78125 23.234375 L 19.726562 23.234375 L 19.726562 22.074219 L 20.78125 22.074219 Z M 20.78125 21.984375 L 19.726562 21.984375 L 19.726562 20.855469 C 20.320312 20.898438 20.777344 21.386719 20.78125 21.972656 Z M 20.78125 21.984375 " fill-opacity="1" fill-rule="nonzero"/><g clip-path="url(#id3)"><path fill="#0e6655" d="M 22.71875 20.832031 L 22 20.832031 L 17.320312 16.621094 L 12.878906 16.621094 L 8.199219 20.832031 L 7.476562 20.832031 L 12.472656 16.375 L 12.46875 16.375 L 12.773438 15.695312 L 17.425781 15.695312 L 17.730469 16.375 L 17.722656 16.375 Z M 16.828125 9.707031 L 15.097656 1.421875 L 13.371094 9.707031 Z M 16.828125 9.707031 " fill-opacity="1" fill-rule="evenodd"/></g><path fill="#f7ece1" d="M 14.9375 26.164062 L 14.785156 26.164062 L 14.785156 25.714844 L 14.9375 25.714844 Z M 15.503906 25.714844 L 15.351562 25.714844 L 15.351562 26.164062 L 15.503906 26.164062 Z M 15.503906 25.714844 " fill-opacity="1" fill-rule="evenodd"/><path fill="#f7ece1" d="M 12.773438 9.761719 L 13.546875 9.761719 L 13.546875 28.648438 L 12.773438 28.648438 Z M 16.648438 9.761719 L 17.425781 9.761719 L 17.425781 28.648438 L 16.648438 28.648438 Z M 16.648438 9.761719 " fill-opacity="1" fill-rule="evenodd"/><path fill="#f7ece1" d="M 12.589844 9.632812 L 17.609375 9.632812 L 17.609375 10.855469 L 12.589844 10.855469 Z M 12.589844 9.632812 " fill-opacity="1" fill-rule="nonzero"/><path fill="#f7ece1" d="M 14.996094 0.00390625 L 15.203125 0.00390625 L 15.203125 1.925781 L 14.996094 1.925781 Z M 14.996094 0.00390625 " fill-opacity="1" fill-rule="nonzero"/><path fill="#f7ece1" d="M 14.296875 0.449219 L 15.90625 0.449219 L 15.90625 0.652344 L 14.296875 0.652344 Z M 14.296875 0.449219 " fill-opacity="1" fill-rule="nonzero"/></svg>