<svg xmlns="http://www.w3.org/2000/svg" xmlns:xlink="http://www.w3.org/1999/xlink" width="40" zoomAndPan="magnify" viewBox="0 0 30 30.000001" height="40" preserveAspectRatio="xMidYMid meet" version="1.0"><defs><clipPath id="id1"><path d="M 2 11 L 28 11 L 28 22.871094 L 2 22.871094 Z M 2 11 " clip-rule="nonzero"/></clipPath><clipPath id="id2"><path d="M 25 21 L 29.515625 21 L 29.515625 22.871094 L 25 22.871094 Z M 25 21 " clip-rule="nonzero"/></clipPath><clipPath id="id3"><path d="M 0.484375 21 L 5 21 L 5 22.871094 L 0.484375 22.871094 Z M 0.484375 21 " clip-rule="nonzero"/></clipPath><clipPath id="id4"><path d="M 2 21 L 28 21 L 28 22.871094 L 2 22.871094 Z M 2 21 " clip-rule="nonzero"/></clipPath><clipPath id="id5"><path d="M 12 6.175781 L 19 6.175781 L 19 13 L 12 13 Z M 12 6.175781 " clip-rule="nonzero"/></clipPath></defs><g clip-path="url(#id1)"><path fill="#d7ae54" d="M 26.605469 22.863281 L 3.632812 22.863281 C 3.273438 22.863281 2.976562 22.570312 2.976562 22.207031 C 2.976562 16.152344 8.425781 11.222656 15.117188 11.222656 C 21.8125 11.222656 27.257812 16.152344 27.257812 22.207031 C 27.257812 22.570312 26.964844 22.863281 26.605469 22.863281 Z M 4.3125 21.550781 L 25.925781 21.550781 C 25.546875 16.523438 20.84375 12.535156 15.117188 12.535156 C 9.394531 12.535156 4.691406 16.523438 4.3125 21.550781 Z M 4.3125 21.550781 " fill-opacity="1" fill-rule="nonzero"/></g><g clip-path="url(#id2)"><path fill="#d7ae54" d="M 28.839844 22.863281 L 26.605469 22.863281 C 26.242188 22.863281 25.949219 22.570312 25.949219 22.207031 C 25.949219 21.84375 26.242188 21.550781 26.605469 21.550781 L 28.839844 21.550781 C 29.199219 21.550781 29.492188 21.84375 29.492188 22.207031 C 29.492188 22.570312 29.199219 22.863281 28.839844 22.863281 Z M 28.839844 22.863281 " fill-opacity="1" fill-rule="nonzero"/></g><g clip-path="url(#id3)"><path fill="#d7ae54" d="M 3.632812 22.863281 L 1.15625 22.863281 C 0.792969 22.863281 0.5 22.570312 0.5 22.207031 C 0.5 21.84375 0.792969 21.550781 1.15625 21.550781 L 3.632812 21.550781 C 3.996094 21.550781 4.289062 21.84375 4.289062 22.207031 C 4.289062 22.570312 3.996094 22.863281 3.632812 22.863281 Z M 3.632812 22.863281 " fill-opacity="1" fill-rule="nonzero"/></g><g clip-path="url(#id4)"><path fill="#d7ae54" d="M 26.605469 22.863281 L 3.632812 22.863281 C 3.273438 22.863281 2.976562 22.570312 2.976562 22.207031 C 2.976562 21.84375 3.273438 21.550781 3.632812 21.550781 L 26.605469 21.550781 C 26.964844 21.550781 27.257812 21.84375 27.257812 22.207031 C 27.257812 22.570312 26.964844 22.863281 26.605469 22.863281 Z M 26.605469 22.863281 " fill-opacity="1" fill-rule="nonzero"/></g><g clip-path="url(#id5)"><path fill="#d7ae54" d="M 15.339844 12.535156 C 13.585938 12.535156 12.160156 11.109375 12.160156 9.351562 C 12.160156 7.597656 13.585938 6.167969 15.339844 6.167969 C 17.089844 6.167969 18.515625 7.597656 18.515625 9.351562 C 18.515625 11.109375 17.089844 12.535156 15.339844 12.535156 Z M 15.339844 7.480469 C 14.308594 7.480469 13.46875 8.320312 13.46875 9.351562 C 13.46875 10.382812 14.308594 11.222656 15.339844 11.222656 C 16.367188 11.222656 17.207031 10.382812 17.207031 9.351562 C 17.207031 8.320312 16.367188 7.480469 15.339844 7.480469 Z M 15.339844 7.480469 " fill-opacity="1" fill-rule="nonzero"/></g><path fill="#d7ae54" d="M 6.339844 20.28125 C 6.324219 20.28125 6.308594 20.28125 6.289062 20.277344 C 5.929688 20.25 5.660156 19.933594 5.6875 19.574219 C 5.976562 15.910156 10.390625 14.046875 10.578125 13.96875 C 10.910156 13.832031 11.292969 13.988281 11.429688 14.324219 C 11.570312 14.65625 11.410156 15.039062 11.078125 15.179688 C 11.039062 15.195312 7.21875 16.816406 6.992188 19.675781 C 6.964844 20.019531 6.679688 20.28125 6.339844 20.28125 Z M 6.339844 20.28125 " fill-opacity="1" fill-rule="nonzero"/></svg>