<svg xmlns="http://www.w3.org/2000/svg" xmlns:xlink="http://www.w3.org/1999/xlink" width="40" zoomAndPan="magnify" viewBox="0 0 30 30.000001" height="40" preserveAspectRatio="xMidYMid meet" version="1.0"><defs><clipPath id="63e3f676b8"><path d="M 10.136719 2 L 19.570312 2 L 19.570312 29 L 10.136719 29 Z M 10.136719 2 " clip-rule="nonzero"/></clipPath><clipPath id="b773dc7523"><path d="M 13 7 L 17 7 L 17 9 L 13 9 Z M 13 7 " clip-rule="nonzero"/></clipPath><clipPath id="e64f557391"><path d="M 13.496094 7.550781 L 16.335938 7.546875 C 16.410156 7.710938 16.507812 7.921875 16.566406 8.121094 L 13.285156 8.121094 C 13.347656 7.929688 13.363281 7.847656 13.496094 7.550781 Z M 13.496094 7.550781 " clip-rule="nonzero"/></clipPath><linearGradient x1="-0.000000192603" gradientTransform="matrix(3.282279, 0, 0, 0.575071, 13.285297, 7.547962)" y1="0.5" x2="1" gradientUnits="userSpaceOnUse" y2="0.5" id="0a18f76320"><stop stop-opacity="1" stop-color="rgb(86.698914%, 86.698914%, 86.698914%)" offset="0"/><stop stop-opacity="1" stop-color="rgb(86.851501%, 86.851501%, 86.851501%)" offset="0.25"/><stop stop-opacity="1" stop-color="rgb(87.176514%, 87.176514%, 87.176514%)" offset="0.257812"/><stop stop-opacity="1" stop-color="rgb(87.519836%, 87.519836%, 87.519836%)" offset="0.265625"/><stop stop-opacity="1" stop-color="rgb(87.861633%, 87.861633%, 87.861633%)" offset="0.273438"/><stop stop-opacity="1" stop-color="rgb(88.204956%, 88.204956%, 88.204956%)" offset="0.28125"/><stop stop-opacity="1" stop-color="rgb(88.546753%, 88.546753%, 88.546753%)" offset="0.289062"/><stop stop-opacity="1" stop-color="rgb(88.88855%, 88.88855%, 88.88855%)" offset="0.296875"/><stop stop-opacity="1" stop-color="rgb(89.231873%, 89.231873%, 89.231873%)" offset="0.304688"/><stop stop-opacity="1" stop-color="rgb(89.573669%, 89.573669%, 89.573669%)" offset="0.3125"/><stop stop-opacity="1" stop-color="rgb(89.916992%, 89.916992%, 89.916992%)" offset="0.320313"/><stop stop-opacity="1" stop-color="rgb(90.258789%, 90.258789%, 90.258789%)" offset="0.328125"/><stop stop-opacity="1" stop-color="rgb(90.602112%, 90.602112%, 90.602112%)" offset="0.335938"/><stop stop-opacity="1" stop-color="rgb(90.943909%, 90.943909%, 90.943909%)" offset="0.34375"/><stop stop-opacity="1" stop-color="rgb(91.285706%, 91.285706%, 91.285706%)" offset="0.351562"/><stop stop-opacity="1" stop-color="rgb(91.629028%, 91.629028%, 91.629028%)" offset="0.359375"/><stop stop-opacity="1" stop-color="rgb(91.970825%, 91.970825%, 91.970825%)" offset="0.367188"/><stop stop-opacity="1" stop-color="rgb(92.314148%, 92.314148%, 92.314148%)" offset="0.375"/><stop stop-opacity="1" stop-color="rgb(92.655945%, 92.655945%, 92.655945%)" offset="0.382813"/><stop stop-opacity="1" stop-color="rgb(92.999268%, 92.999268%, 92.999268%)" offset="0.390625"/><stop stop-opacity="1" stop-color="rgb(93.341064%, 93.341064%, 93.341064%)" offset="0.398438"/><stop stop-opacity="1" stop-color="rgb(93.682861%, 93.682861%, 93.682861%)" offset="0.40625"/><stop stop-opacity="1" stop-color="rgb(94.026184%, 94.026184%, 94.026184%)" offset="0.414063"/><stop stop-opacity="1" stop-color="rgb(94.367981%, 94.367981%, 94.367981%)" offset="0.421875"/><stop stop-opacity="1" stop-color="rgb(94.711304%, 94.711304%, 94.711304%)" offset="0.429688"/><stop stop-opacity="1" stop-color="rgb(95.053101%, 95.053101%, 95.053101%)" offset="0.4375"/><stop stop-opacity="1" stop-color="rgb(95.396423%, 95.396423%, 95.396423%)" offset="0.445313"/><stop stop-opacity="1" stop-color="rgb(95.73822%, 95.73822%, 95.73822%)" offset="0.453125"/><stop stop-opacity="1" stop-color="rgb(96.080017%, 96.080017%, 96.080017%)" offset="0.460938"/><stop stop-opacity="1" stop-color="rgb(96.42334%, 96.42334%, 96.42334%)" offset="0.46875"/><stop stop-opacity="1" stop-color="rgb(96.765137%, 96.765137%, 96.765137%)" offset="0.476562"/><stop stop-opacity="1" stop-color="rgb(97.108459%, 97.108459%, 97.108459%)" offset="0.484375"/><stop stop-opacity="1" stop-color="rgb(97.450256%, 97.450256%, 97.450256%)" offset="0.492188"/><stop stop-opacity="1" stop-color="rgb(97.792053%, 97.792053%, 97.792053%)" offset="0.5"/><stop stop-opacity="1" stop-color="rgb(97.850037%, 97.850037%, 97.850037%)" offset="0.507812"/><stop stop-opacity="1" stop-color="rgb(97.587585%, 97.587585%, 97.587585%)" offset="0.515625"/><stop stop-opacity="1" stop-color="rgb(97.293091%, 97.293091%, 97.293091%)" offset="0.523438"/><stop stop-opacity="1" stop-color="rgb(97.000122%, 97.000122%, 97.000122%)" offset="0.53125"/><stop stop-opacity="1" stop-color="rgb(96.705627%, 96.705627%, 96.705627%)" offset="0.539062"/><stop stop-opacity="1" stop-color="rgb(96.411133%, 96.411133%, 96.411133%)" offset="0.546875"/><stop stop-opacity="1" stop-color="rgb(96.116638%, 96.116638%, 96.116638%)" offset="0.554688"/><stop stop-opacity="1" stop-color="rgb(95.823669%, 95.823669%, 95.823669%)" offset="0.5625"/><stop stop-opacity="1" stop-color="rgb(95.529175%, 95.529175%, 95.529175%)" offset="0.570313"/><stop stop-opacity="1" stop-color="rgb(95.23468%, 95.23468%, 95.23468%)" offset="0.578125"/><stop stop-opacity="1" stop-color="rgb(94.940186%, 94.940186%, 94.940186%)" offset="0.585938"/><stop stop-opacity="1" stop-color="rgb(94.647217%, 94.647217%, 94.647217%)" offset="0.59375"/><stop stop-opacity="1" stop-color="rgb(94.352722%, 94.352722%, 94.352722%)" offset="0.601562"/><stop stop-opacity="1" stop-color="rgb(94.058228%, 94.058228%, 94.058228%)" offset="0.609375"/><stop stop-opacity="1" stop-color="rgb(93.765259%, 93.765259%, 93.765259%)" offset="0.617188"/><stop stop-opacity="1" stop-color="rgb(93.470764%, 93.470764%, 93.470764%)" offset="0.625"/><stop stop-opacity="1" stop-color="rgb(93.17627%, 93.17627%, 93.17627%)" offset="0.632812"/><stop stop-opacity="1" stop-color="rgb(92.881775%, 92.881775%, 92.881775%)" offset="0.640625"/><stop stop-opacity="1" stop-color="rgb(92.588806%, 92.588806%, 92.588806%)" offset="0.648438"/><stop stop-opacity="1" stop-color="rgb(92.294312%, 92.294312%, 92.294312%)" offset="0.65625"/><stop stop-opacity="1" stop-color="rgb(91.999817%, 91.999817%, 91.999817%)" offset="0.664062"/><stop stop-opacity="1" stop-color="rgb(91.706848%, 91.706848%, 91.706848%)" offset="0.671875"/><stop stop-opacity="1" stop-color="rgb(91.412354%, 91.412354%, 91.412354%)" offset="0.679688"/><stop stop-opacity="1" stop-color="rgb(91.117859%, 91.117859%, 91.117859%)" offset="0.6875"/><stop stop-opacity="1" stop-color="rgb(90.823364%, 90.823364%, 90.823364%)" offset="0.695313"/><stop stop-opacity="1" stop-color="rgb(90.530396%, 90.530396%, 90.530396%)" offset="0.703125"/><stop stop-opacity="1" stop-color="rgb(90.235901%, 90.235901%, 90.235901%)" offset="0.710938"/><stop stop-opacity="1" stop-color="rgb(89.941406%, 89.941406%, 89.941406%)" offset="0.71875"/><stop stop-opacity="1" stop-color="rgb(89.646912%, 89.646912%, 89.646912%)" offset="0.726563"/><stop stop-opacity="1" stop-color="rgb(89.353943%, 89.353943%, 89.353943%)" offset="0.734375"/><stop stop-opacity="1" stop-color="rgb(89.059448%, 89.059448%, 89.059448%)" offset="0.742188"/><stop stop-opacity="1" stop-color="rgb(88.764954%, 88.764954%, 88.764954%)" offset="0.75"/><stop stop-opacity="1" stop-color="rgb(88.471985%, 88.471985%, 88.471985%)" offset="0.757812"/><stop stop-opacity="1" stop-color="rgb(88.17749%, 88.17749%, 88.17749%)" offset="0.765625"/><stop stop-opacity="1" stop-color="rgb(87.882996%, 87.882996%, 87.882996%)" offset="0.773438"/><stop stop-opacity="1" stop-color="rgb(87.588501%, 87.588501%, 87.588501%)" offset="0.78125"/><stop stop-opacity="1" stop-color="rgb(87.295532%, 87.295532%, 87.295532%)" offset="0.789062"/><stop stop-opacity="1" stop-color="rgb(87.001038%, 87.001038%, 87.001038%)" offset="0.796875"/><stop stop-opacity="1" stop-color="rgb(86.776733%, 86.776733%, 86.776733%)" offset="0.8125"/><stop stop-opacity="1" stop-color="rgb(86.698914%, 86.698914%, 86.698914%)" offset="0.875"/><stop stop-opacity="1" stop-color="rgb(86.698914%, 86.698914%, 86.698914%)" offset="1"/></linearGradient></defs><path fill="#e9c6af" d="M 18.007812 3.007812 C 17.660156 2.730469 17.371094 2.871094 16.863281 3.035156 C 17.019531 3.542969 16.964844 4.003906 16.859375 4.554688 C 17.367188 4.328125 17.445312 4.222656 17.957031 4.515625 C 18.414062 4.039062 18.421875 3.453125 18.007812 3.007812 Z M 18.007812 3.007812 " fill-opacity="1" fill-rule="nonzero"/><path fill="#e9c6af" d="M 11.890625 3.042969 C 12.222656 2.742188 12.515625 2.867188 13.035156 3.003906 C 12.902344 3.515625 12.980469 3.976562 13.113281 4.519531 C 12.59375 4.324219 12.511719 4.222656 12.015625 4.542969 C 11.535156 4.09375 11.5 3.511719 11.890625 3.042969 Z M 11.890625 3.042969 " fill-opacity="1" fill-rule="nonzero"/><path fill="#e9c6af" d="M 15.222656 1.480469 L 15.222656 13.664062 L 15.230469 25.246094 C 17.160156 26.570312 17.183594 28.117188 18 28.472656 L 17.109375 28.472656 C 16.832031 27.636719 15.667969 25.976562 15.222656 25.910156 L 15.222656 27.898438 L 14.59375 27.898438 L 14.59375 25.910156 C 14.148438 25.972656 12.984375 27.65625 12.964844 28.472656 L 12.085938 28.472656 C 12.804688 28.121094 12.691406 26.546875 14.59375 25.246094 L 14.59375 1.484375 C 14.140625 1.003906 14.445312 0.359375 14.917969 0.0117188 C 15.359375 0.355469 15.667969 0.980469 15.222656 1.484375 Z M 15.222656 1.480469 " fill-opacity="1" fill-rule="nonzero"/><path fill="#e9c6af" d="M 12.609375 12.992188 C 16.636719 12.980469 13.902344 12.980469 17.199219 12.992188 C 17.410156 11.089844 17.144531 9.726562 16.289062 7.519531 C 17.007812 5.195312 17.183594 4.011719 16.941406 3.109375 C 16.886719 2.933594 16.078125 2.835938 15.558594 2.839844 C 15.355469 2.839844 15.621094 2.136719 15.34375 2.136719 C 14.925781 2.140625 14.808594 2.144531 14.507812 2.140625 C 14.15625 2.140625 14.492188 2.824219 14.277344 2.835938 C 13.527344 2.878906 13 2.902344 12.957031 3.101562 C 12.742188 4.050781 12.851562 5.195312 13.566406 7.519531 C 12.851562 9.28125 12.476562 11.089844 12.609375 12.992188 Z M 12.609375 12.992188 " fill-opacity="1" fill-rule="nonzero"/><g clip-path="url(#63e3f676b8)"><path fill="#000000" d="M 10.136719 28.402344 C 11.226562 28.039062 11.625 27.574219 13.054688 28.386719 C 13.730469 28.773438 13.703125 27.25 14.601562 28.410156 C 15.078125 29.023438 15.472656 27.347656 16.371094 28.421875 C 16.808594 28.949219 18.378906 27.242188 19.570312 28.402344 C 18.628906 25.960938 16.507812 19.746094 17.453125 15.265625 C 17.804688 13.617188 17.4375 10.0625 16.328125 7.53125 C 16.613281 6.667969 17.09375 5.808594 17.207031 5.140625 C 17.359375 4.214844 17.203125 3.414062 16.972656 3.074219 C 16.765625 2.804688 15.867188 4.175781 15.105469 5.417969 C 14.886719 5.773438 15.097656 5.773438 14.214844 4.53125 C 13.9375 4.140625 13.019531 2.808594 12.953125 3.015625 C 12.796875 3.570312 12.457031 4.246094 12.601562 5.160156 C 12.695312 5.746094 13.175781 6.589844 13.496094 7.558594 C 12.433594 10.175781 12.269531 13.601562 12.558594 15.265625 C 13.550781 19.695312 11.269531 26.027344 10.136719 28.402344 Z M 10.136719 28.402344 " fill-opacity="1" fill-rule="nonzero"/></g><g clip-path="url(#b773dc7523)"><g clip-path="url(#e64f557391)"><path fill="url(#0a18f76320)" d="M 13.285156 7.546875 L 13.285156 8.121094 L 16.566406 8.121094 L 16.566406 7.546875 Z M 13.285156 7.546875 " fill-rule="nonzero"/></g></g><path stroke-linecap="butt" transform="matrix(0.0117095, 0, 0, 0.0120613, 8.073098, 5.898326)" fill-opacity="1" fill="#f2f2f2" fill-rule="nonzero" stroke-linejoin="miter" d="M 603.9076 -13.269286 C 603.9076 -3.229434 597.235645 4.867221 589.229299 4.867221 C 580.889356 4.867221 574.217401 -3.229434 574.217401 -13.269286 C 574.217401 -22.985272 580.889356 -31.081927 589.229299 -31.081927 C 597.235645 -31.081927 603.9076 -22.985272 603.9076 -13.269286 Z M 603.9076 -13.269286 " stroke="#cccccc" stroke-width="1" stroke-opacity="1" stroke-miterlimit="4"/><path stroke-linecap="butt" transform="matrix(0.0117095, 0, 0, 0.0120613, 8.073098, 5.898326)" fill-opacity="1" fill="#f2f2f2" fill-rule="nonzero" stroke-linejoin="miter" d="M 586.22692 -39.826315 C 584.892529 -44.360441 586.22692 -50.513899 587.561311 -53.104829 C 588.895702 -56.019625 592.231679 -58.286688 594.233265 -58.286688 C 596.234852 -57.315089 599.237232 -55.048026 599.904427 -51.485498 C 600.571622 -45.979772 599.904427 -42.093378 597.902841 -38.854716 C 596.234852 -36.263786 593.56607 -32.377392 591.564484 -31.081927 C 588.895702 -33.348991 587.561311 -36.587653 586.22692 -39.826315 Z M 586.22692 -39.826315 " stroke="#cccccc" stroke-width="1" stroke-opacity="1" stroke-miterlimit="4"/><path stroke-linecap="butt" transform="matrix(0.0117095, 0, 0, 0.0120613, 8.073098, 5.898326)" fill-opacity="1" fill="#f2f2f2" fill-rule="nonzero" stroke-linejoin="miter" d="M 574.884597 -34.644455 C 571.882217 -37.883117 570.214228 -44.036575 570.547826 -46.951371 C 570.547826 -50.190033 572.549412 -54.076427 574.217401 -55.371892 C 576.218988 -55.371892 579.888563 -55.048026 581.890149 -51.809364 C 584.892529 -47.599103 585.893322 -43.712709 585.559724 -39.826315 C 585.226127 -36.911519 584.225333 -32.053526 583.22454 -29.786462 C 579.888563 -30.434195 577.553379 -32.701258 574.884597 -34.644455 Z M 574.884597 -34.644455 " stroke="#cccccc" stroke-width="1" stroke-opacity="1" stroke-miterlimit="4"/><path stroke-linecap="butt" transform="matrix(0.0117095, 0, 0, 0.0120613, 8.073098, 5.898326)" fill-opacity="1" fill="#f2f2f2" fill-rule="nonzero" stroke-linejoin="miter" d="M 598.570036 -38.206984 C 599.570829 -42.74111 603.9076 -47.275237 606.242784 -48.570702 C 608.911566 -50.190033 612.914739 -49.866167 614.582728 -48.894568 C 615.583521 -46.951371 616.917912 -43.064977 615.583521 -39.502448 C 613.581934 -34.644455 611.24675 -31.72966 607.910773 -30.434195 C 605.241991 -29.462596 600.90522 -27.843265 598.570036 -27.843265 C 597.569243 -31.405793 598.236438 -34.968322 598.570036 -38.206984 Z M 598.570036 -38.206984 " stroke="#cccccc" stroke-width="1" stroke-opacity="1" stroke-miterlimit="4"/><path stroke-linecap="butt" transform="matrix(0.0117095, 0, 0, 0.0120613, 8.073098, 5.898326)" fill-opacity="1" fill="#f2f2f2" fill-rule="nonzero" stroke-linejoin="miter" d="M 568.54624 -24.280737 C 564.543067 -24.280737 559.872698 -28.167131 558.20471 -30.758061 C 556.536721 -33.348991 555.869525 -37.559251 556.536721 -39.826315 C 558.20471 -41.445646 561.207089 -43.388843 564.543067 -42.417244 C 569.213435 -41.121779 572.215815 -38.854716 574.217401 -35.616054 C 575.551792 -32.701258 577.553379 -28.490998 577.886976 -25.900068 C 574.884597 -24.280737 571.882217 -24.280737 568.54624 -24.280737 Z M 568.54624 -24.280737 " stroke="#cccccc" stroke-width="1" stroke-opacity="1" stroke-miterlimit="4"/><path stroke-linecap="butt" transform="matrix(0.0117095, 0, 0, 0.0120613, 8.073098, 5.898326)" fill-opacity="1" fill="#f2f2f2" fill-rule="nonzero" stroke-linejoin="miter" d="M 566.544653 -10.678356 C 562.875078 -9.059025 557.203916 -10.35449 554.868732 -11.973821 C 552.19995 -13.269286 550.198364 -17.15568 549.864766 -19.422744 C 550.865559 -21.689807 552.867146 -24.604603 556.203123 -25.576202 C 560.873492 -26.5478 564.543067 -25.576202 567.211849 -23.633005 C 569.547033 -21.689807 573.216608 -18.775012 574.217401 -16.507948 C 572.215815 -13.593152 569.547033 -12.297687 566.544653 -10.678356 Z M 566.544653 -10.678356 " stroke="#cccccc" stroke-width="1" stroke-opacity="1" stroke-miterlimit="4"/><path stroke-linecap="butt" transform="matrix(0.0117095, 0, 0, 0.0120613, 8.073098, 5.898326)" fill-opacity="1" fill="#f2f2f2" fill-rule="nonzero" stroke-linejoin="miter" d="M 593.232472 13.935475 C 592.898875 18.469602 595.567656 23.975327 597.569243 26.242391 C 599.570829 28.509454 603.240404 29.804919 605.241991 29.157186 C 606.90998 27.861722 609.245164 24.62306 608.911566 20.736665 C 608.24437 15.554806 606.90998 11.992278 603.9076 9.401348 C 601.906013 7.458151 598.236438 4.543355 595.901254 3.895623 C 594.233265 6.810418 593.56607 10.372947 593.232472 13.935475 Z M 593.232472 13.935475 " stroke="#cccccc" stroke-width="1" stroke-opacity="1" stroke-miterlimit="4"/><path stroke-linecap="butt" transform="matrix(0.0117095, 0, 0, 0.0120613, 8.073098, 5.898326)" fill-opacity="1" fill="#f2f2f2" fill-rule="nonzero" stroke-linejoin="miter" d="M 580.889356 11.992278 C 578.220574 15.878672 577.886976 22.03213 578.887769 24.946926 C 579.554965 28.185588 582.223747 31.42425 584.225333 32.071982 C 586.22692 31.748116 589.562897 30.452651 590.897288 26.890123 C 592.898875 22.03213 593.232472 18.145735 592.231679 14.259341 C 591.230886 11.668411 589.229299 6.810418 587.561311 5.191087 C 584.558931 6.486552 582.890942 9.401348 580.889356 11.992278 Z M 580.889356 11.992278 " stroke="#cccccc" stroke-width="1" stroke-opacity="1" stroke-miterlimit="4"/><path stroke-linecap="butt" transform="matrix(0.0117095, 0, 0, 0.0120613, 8.073098, 5.898326)" fill-opacity="1" fill="#f2f2f2" fill-rule="nonzero" stroke-linejoin="miter" d="M 603.9076 7.782017 C 605.909186 11.992278 610.913152 14.907073 613.581934 15.23094 C 616.584314 16.202538 620.253889 14.583207 621.58828 12.963876 C 622.255476 10.696813 622.589073 6.810418 620.253889 3.895623 C 617.251509 -0.314638 614.24913 -2.257835 610.579555 -2.581701 C 607.910773 -2.581701 603.574002 -2.905568 601.238818 -1.933969 C 601.238818 1.628559 602.573209 4.867221 603.9076 7.782017 Z M 603.9076 7.782017 " stroke="#cccccc" stroke-width="1" stroke-opacity="1" stroke-miterlimit="4"/><path stroke-linecap="butt" transform="matrix(0.0117095, 0, 0, 0.0120613, 8.073098, 5.898326)" fill-opacity="1" fill="#f2f2f2" fill-rule="nonzero" stroke-linejoin="miter" d="M 572.215815 3.895623 C 568.212642 4.867221 564.209469 9.725214 563.208676 12.64001 C 561.874285 15.554806 561.874285 19.765066 562.875078 21.708264 C 564.876664 23.003728 568.212642 24.299193 571.215021 22.679862 C 575.551792 20.412799 578.220574 17.498003 579.554965 13.935475 C 580.22216 11.020679 581.556551 6.162686 581.556551 3.571756 C 578.220574 2.600158 575.218194 3.24789 572.215815 3.895623 Z M 572.215815 3.895623 " stroke="#cccccc" stroke-width="1" stroke-opacity="1" stroke-miterlimit="4"/><path stroke-linecap="butt" transform="matrix(0.0117095, 0, 0, 0.0120613, 8.073098, 5.898326)" fill-opacity="1" fill="#f2f2f2" fill-rule="nonzero" stroke-linejoin="miter" d="M 569.213435 -8.411293 C 565.210262 -10.030624 559.539101 -8.735159 557.203916 -7.115828 C 554.535135 -5.496497 552.533548 -1.933969 552.533548 0.333094 C 553.200744 2.600158 555.20233 5.83882 558.538307 6.486552 C 563.542273 7.458151 566.878251 6.810418 569.880631 4.543355 C 572.215815 2.924024 575.551792 -0.314638 576.886183 -2.581701 C 574.884597 -5.496497 571.882217 -6.791962 569.213435 -8.411293 Z M 569.213435 -8.411293 " stroke="#cccccc" stroke-width="1" stroke-opacity="1" stroke-miterlimit="4"/><path stroke-linecap="butt" transform="matrix(0.0117095, 0, 0, 0.0120613, 8.073098, 5.898326)" fill-opacity="1" fill="#f2f2f2" fill-rule="nonzero" stroke-linejoin="miter" d="M 610.913152 -3.877166 C 614.582728 -1.286237 620.253889 -0.96237 622.922671 -1.933969 C 625.591453 -2.581701 628.260235 -5.820363 628.92743 -8.087427 C 628.593833 -10.35449 627.259442 -13.917018 624.257062 -15.536349 C 619.920291 -17.803413 616.250716 -17.803413 612.914739 -16.507948 C 610.579555 -15.536349 606.242784 -13.269286 604.574795 -11.326089 C 605.909186 -8.087427 608.577968 -6.14423 610.913152 -3.877166 Z M 610.913152 -3.877166 " stroke="#cccccc" stroke-width="1" stroke-opacity="1" stroke-miterlimit="4"/><path stroke-linecap="butt" transform="matrix(0.0117095, 0, 0, 0.0120613, 8.073098, 5.898326)" fill-opacity="1" fill="#f2f2f2" fill-rule="nonzero" stroke-linejoin="miter" d="M 607.577175 -28.814864 C 609.912359 -32.377392 615.583521 -34.644455 618.252303 -34.320589 C 621.254682 -34.644455 624.59066 -32.701258 625.925051 -30.758061 C 625.925051 -28.490998 625.591453 -24.280737 623.256269 -22.013674 C 619.253096 -18.451145 616.250716 -17.15568 612.581141 -17.15568 C 609.912359 -17.479547 605.241991 -18.451145 603.240404 -19.74661 C 603.9076 -23.309138 605.575589 -25.900068 607.577175 -28.814864 Z M 607.577175 -28.814864 " stroke="#cccccc" stroke-width="1" stroke-opacity="1" stroke-miterlimit="4"/></svg>