<svg xmlns="http://www.w3.org/2000/svg" xmlns:xlink="http://www.w3.org/1999/xlink" width="40" zoomAndPan="magnify" viewBox="0 0 30 30.000001" height="40" preserveAspectRatio="xMidYMid meet" version="1.0"><defs><clipPath id="id1"><path d="M 0.484375 0 L 29.515625 0 L 29.515625 29.03125 L 0.484375 29.03125 Z M 0.484375 0 " clip-rule="nonzero"/></clipPath><clipPath id="id2"><path d="M 20 18 L 24.289062 18 L 24.289062 29 L 20 29 Z M 20 18 " clip-rule="nonzero"/></clipPath><clipPath id="id3"><path d="M 5.417969 18 L 24.289062 18 L 24.289062 29 L 5.417969 29 Z M 5.417969 18 " clip-rule="nonzero"/></clipPath></defs><g clip-path="url(#id1)"><path fill="#ffffff" d="M 0.484375 0 L 29.515625 0 L 29.515625 36.289062 L 0.484375 36.289062 Z M 0.484375 0 " fill-opacity="1" fill-rule="nonzero"/><path fill="#ffffff" d="M 0.484375 0 L 29.515625 0 L 29.515625 29.03125 L 0.484375 29.03125 Z M 0.484375 0 " fill-opacity="1" fill-rule="nonzero"/><path fill="#ffffff" d="M 0.484375 0 L 29.515625 0 L 29.515625 29.03125 L 0.484375 29.03125 Z M 0.484375 0 " fill-opacity="1" fill-rule="nonzero"/></g><path fill="#0e6655" d="M 17.207031 27.585938 C 17.046875 27.585938 16.914062 27.453125 16.914062 27.289062 L 16.914062 25.261719 C 16.914062 24.097656 15.984375 23.152344 14.839844 23.152344 C 13.695312 23.152344 12.765625 24.097656 12.765625 25.261719 L 12.765625 27.289062 C 12.765625 27.453125 12.636719 27.585938 12.476562 27.585938 C 12.3125 27.585938 12.183594 27.453125 12.183594 27.289062 L 12.183594 25.261719 C 12.183594 23.773438 13.375 22.5625 14.839844 22.5625 C 16.304688 22.5625 17.5 23.773438 17.5 25.261719 L 17.5 27.289062 C 17.5 27.453125 17.367188 27.585938 17.207031 27.585938 " fill-opacity="1" fill-rule="nonzero"/><path fill="#0e6655" d="M 17.773438 14.210938 C 17.613281 14.210938 17.484375 14.074219 17.484375 13.914062 L 17.484375 7.265625 L 14.839844 5.132812 L 12.199219 7.265625 L 12.199219 13.914062 C 12.199219 14.074219 12.066406 14.210938 11.90625 14.210938 C 11.746094 14.210938 11.613281 14.074219 11.613281 13.914062 L 11.613281 7.125 C 11.613281 7.035156 11.65625 6.949219 11.726562 6.890625 L 14.660156 4.523438 C 14.765625 4.4375 14.917969 4.4375 15.023438 4.523438 L 17.957031 6.890625 C 18.027344 6.949219 18.066406 7.035156 18.066406 7.125 L 18.066406 13.914062 C 18.066406 14.074219 17.9375 14.210938 17.773438 14.210938 " fill-opacity="1" fill-rule="nonzero"/><path fill="#0e6655" d="M 20.601562 27.585938 C 20.441406 27.585938 20.3125 27.453125 20.3125 27.289062 L 20.3125 16.449219 L 14.839844 12.070312 L 9.371094 16.449219 L 9.371094 27.289062 C 9.371094 27.453125 9.238281 27.585938 9.078125 27.585938 C 8.917969 27.585938 8.785156 27.453125 8.785156 27.289062 L 8.785156 16.304688 C 8.785156 16.214844 8.828125 16.128906 8.898438 16.074219 L 14.660156 11.460938 C 14.765625 11.378906 14.914062 11.378906 15.019531 11.460938 L 20.785156 16.074219 C 20.855469 16.128906 20.894531 16.214844 20.894531 16.304688 L 20.894531 27.289062 C 20.894531 27.453125 20.765625 27.585938 20.601562 27.585938 " fill-opacity="1" fill-rule="nonzero"/><g clip-path="url(#id2)"><path fill="#0e6655" d="M 23.980469 28.960938 C 23.820312 28.960938 23.691406 28.828125 23.691406 28.664062 L 23.691406 21.5625 L 20.421875 18.949219 C 20.296875 18.847656 20.273438 18.660156 20.375 18.535156 C 20.472656 18.40625 20.65625 18.382812 20.785156 18.484375 L 24.164062 21.1875 C 24.234375 21.242188 24.273438 21.328125 24.273438 21.421875 L 24.273438 28.664062 C 24.273438 28.828125 24.144531 28.960938 23.980469 28.960938 " fill-opacity="1" fill-rule="nonzero"/></g><g clip-path="url(#id3)"><path fill="#0e6655" d="M 23.980469 28.960938 L 5.699219 28.960938 C 5.539062 28.960938 5.40625 28.828125 5.40625 28.664062 L 5.40625 21.421875 C 5.40625 21.328125 5.449219 21.242188 5.519531 21.1875 L 8.898438 18.484375 C 9.023438 18.382812 9.207031 18.40625 9.304688 18.535156 C 9.40625 18.660156 9.386719 18.847656 9.257812 18.949219 L 5.992188 21.5625 L 5.992188 28.371094 L 23.980469 28.371094 C 24.144531 28.371094 24.273438 28.503906 24.273438 28.664062 C 24.273438 28.828125 24.144531 28.960938 23.980469 28.960938 " fill-opacity="1" fill-rule="nonzero"/></g><path fill="#0e6655" d="M 14.839844 16.164062 C 13.984375 16.164062 13.285156 16.871094 13.285156 17.738281 C 13.285156 18.609375 13.984375 19.316406 14.839844 19.316406 C 15.699219 19.316406 16.394531 18.609375 16.394531 17.738281 C 16.394531 16.871094 15.699219 16.164062 14.839844 16.164062 Z M 14.839844 19.910156 C 13.660156 19.910156 12.703125 18.933594 12.703125 17.738281 C 12.703125 16.542969 13.660156 15.570312 14.839844 15.570312 C 16.019531 15.570312 16.976562 16.542969 16.976562 17.738281 C 16.976562 18.933594 16.019531 19.910156 14.839844 19.910156 " fill-opacity="1" fill-rule="nonzero"/><path fill="#0e6655" d="M 14.839844 5.050781 C 14.679688 5.050781 14.550781 4.917969 14.550781 4.753906 L 14.550781 0.367188 C 14.550781 0.203125 14.679688 0.0703125 14.839844 0.0703125 C 15 0.0703125 15.132812 0.203125 15.132812 0.367188 L 15.132812 4.753906 C 15.132812 4.917969 15 5.050781 14.839844 5.050781 " fill-opacity="1" fill-rule="nonzero"/><path fill="#0e6655" d="M 16.277344 2.457031 L 13.40625 2.457031 C 13.242188 2.457031 13.113281 2.324219 13.113281 2.160156 C 13.113281 1.996094 13.242188 1.863281 13.40625 1.863281 L 16.277344 1.863281 C 16.4375 1.863281 16.566406 1.996094 16.566406 2.160156 C 16.566406 2.324219 16.4375 2.457031 16.277344 2.457031 " fill-opacity="1" fill-rule="nonzero"/></svg>