<svg xmlns="http://www.w3.org/2000/svg" xmlns:xlink="http://www.w3.org/1999/xlink" width="100" zoomAndPan="magnify" viewBox="0 0 75 30.000001" height="40" preserveAspectRatio="xMidYMid meet" version="1.0"><defs><clipPath id="id1"><path d="M 49 15 L 73.789062 15 L 73.789062 16 L 49 16 Z M 49 15 " clip-rule="nonzero"/></clipPath><clipPath id="id2"><path d="M 1.210938 15 L 26 15 L 26 16 L 1.210938 16 Z M 1.210938 15 " clip-rule="nonzero"/></clipPath><clipPath id="id3"><path d="M 27 11.511719 L 48 11.511719 L 48 17.316406 L 27 17.316406 Z M 27 11.511719 " clip-rule="nonzero"/></clipPath></defs><g clip-path="url(#id1)"><path fill="#d7ae54" d="M 49.445312 15.351562 C 49.214844 15.363281 49.195312 15.734375 49.414062 15.78125 C 49.640625 15.835938 49.875 15.800781 50.101562 15.808594 C 57.71875 15.808594 65.335938 15.808594 72.953125 15.808594 C 73.167969 15.804688 73.390625 15.832031 73.605469 15.789062 C 73.714844 15.769531 73.789062 15.664062 73.789062 15.558594 C 73.785156 15.410156 73.632812 15.324219 73.492188 15.339844 C 65.753906 15.339844 58.015625 15.339844 50.28125 15.339844 C 50.003906 15.347656 49.722656 15.320312 49.445312 15.351562 Z M 49.445312 15.351562 " fill-opacity="1" fill-rule="nonzero"/></g><g clip-path="url(#id2)"><path fill="#d7ae54" d="M 25.554688 15.351562 C 25.785156 15.363281 25.804688 15.734375 25.585938 15.78125 C 25.359375 15.835938 25.125 15.800781 24.898438 15.808594 C 17.28125 15.808594 9.664062 15.808594 2.046875 15.808594 C 1.832031 15.804688 1.609375 15.832031 1.394531 15.789062 C 1.285156 15.769531 1.210938 15.664062 1.210938 15.558594 C 1.214844 15.410156 1.363281 15.324219 1.507812 15.339844 C 9.246094 15.339844 16.980469 15.339844 24.71875 15.339844 C 24.996094 15.347656 25.277344 15.320312 25.554688 15.351562 Z M 25.554688 15.351562 " fill-opacity="1" fill-rule="nonzero"/></g><path fill="#d7ae54" d="M 47.855469 15.554688 C 47.835938 15.886719 48.222656 16.175781 48.546875 16.046875 C 48.808594 15.96875 48.953125 15.6875 48.882812 15.4375 C 48.832031 15.242188 48.648438 15.082031 48.441406 15.070312 C 48.144531 15.023438 47.851562 15.265625 47.855469 15.554688 Z M 48.640625 15.488281 C 48.71875 15.664062 48.515625 15.875 48.324219 15.832031 C 48.199219 15.804688 48.097656 15.683594 48.101562 15.558594 C 48.113281 15.425781 48.230469 15.320312 48.359375 15.296875 C 48.480469 15.296875 48.601562 15.375 48.640625 15.488281 Z M 48.640625 15.488281 " fill-opacity="1" fill-rule="nonzero"/><path fill="#d7ae54" d="M 27.144531 15.554688 C 27.164062 15.886719 26.777344 16.175781 26.449219 16.046875 C 26.191406 15.96875 26.042969 15.6875 26.117188 15.4375 C 26.167969 15.242188 26.347656 15.082031 26.558594 15.070312 C 26.851562 15.023438 27.144531 15.265625 27.144531 15.554688 Z M 26.355469 15.488281 C 26.277344 15.664062 26.484375 15.875 26.671875 15.832031 C 26.800781 15.804688 26.902344 15.683594 26.898438 15.558594 C 26.886719 15.425781 26.769531 15.320312 26.640625 15.296875 C 26.519531 15.296875 26.398438 15.375 26.355469 15.488281 Z M 26.355469 15.488281 " fill-opacity="1" fill-rule="nonzero"/><g clip-path="url(#id3)"><path fill="#d7ae54" d="M 37.5 16.539062 C 37.621094 16.53125 37.746094 16.523438 37.871094 16.507812 C 39.242188 16.375 40.546875 15.851562 41.71875 15.164062 C 42.300781 14.828125 42.820312 14.402344 43.402344 14.0625 C 43.976562 13.722656 44.625 13.457031 45.308594 13.4375 C 46.046875 13.449219 46.761719 13.878906 47.097656 14.511719 C 47.355469 14.992188 47.378906 15.5625 47.234375 16.078125 C 47.148438 16.398438 47 16.714844 46.742188 16.9375 C 46.5 17.152344 46.167969 17.253906 45.84375 17.242188 C 45.40625 17.253906 44.929688 17.085938 44.691406 16.714844 C 44.414062 16.300781 44.527344 15.664062 44.980469 15.414062 C 45.296875 15.230469 45.699219 15.28125 46.019531 15.433594 C 46.171875 15.5 46.210938 15.679688 46.324219 15.789062 C 46.363281 15.675781 46.40625 15.554688 46.371094 15.4375 C 46.320312 15.25 46.164062 15.105469 45.992188 15.015625 C 45.722656 14.875 45.398438 14.859375 45.105469 14.921875 C 44.6875 15.019531 44.355469 15.371094 44.277344 15.777344 C 44.222656 16.074219 44.257812 16.398438 44.425781 16.660156 C 44.648438 17.035156 45.09375 17.246094 45.527344 17.285156 C 45.847656 17.289062 46.171875 17.3125 46.476562 17.203125 C 46.9375 17.054688 47.296875 16.679688 47.457031 16.242188 C 47.636719 15.742188 47.644531 15.183594 47.46875 14.679688 C 47.246094 14.042969 46.695312 13.539062 46.042969 13.316406 C 45.699219 13.1875 45.324219 13.195312 44.960938 13.226562 C 44.09375 13.355469 43.328125 13.8125 42.636719 14.3125 C 42.203125 14.636719 41.757812 14.945312 41.285156 15.214844 C 40.132812 15.863281 38.835938 16.339844 37.5 16.410156 C 36.160156 16.339844 34.863281 15.863281 33.710938 15.214844 C 33.238281 14.945312 32.796875 14.636719 32.359375 14.3125 C 31.667969 13.8125 30.902344 13.355469 30.035156 13.226562 C 29.675781 13.195312 29.296875 13.1875 28.953125 13.316406 C 28.300781 13.539062 27.75 14.042969 27.53125 14.679688 C 27.355469 15.183594 27.363281 15.742188 27.542969 16.242188 C 27.699219 16.679688 28.0625 17.054688 28.519531 17.203125 C 28.824219 17.3125 29.152344 17.289062 29.46875 17.285156 C 29.90625 17.246094 30.347656 17.035156 30.570312 16.660156 C 30.738281 16.398438 30.777344 16.074219 30.722656 15.777344 C 30.644531 15.371094 30.308594 15.019531 29.894531 14.921875 C 29.597656 14.859375 29.273438 14.875 29.007812 15.015625 C 28.832031 15.105469 28.679688 15.25 28.625 15.4375 C 28.589844 15.554688 28.636719 15.675781 28.671875 15.789062 C 28.785156 15.679688 28.824219 15.5 28.980469 15.433594 C 29.300781 15.28125 29.699219 15.230469 30.019531 15.414062 C 30.472656 15.664062 30.582031 16.300781 30.308594 16.714844 C 30.066406 17.085938 29.589844 17.253906 29.152344 17.242188 C 28.828125 17.253906 28.496094 17.152344 28.253906 16.9375 C 28 16.714844 27.847656 16.398438 27.761719 16.078125 C 27.617188 15.5625 27.640625 14.992188 27.898438 14.511719 C 28.238281 13.878906 28.953125 13.449219 29.691406 13.4375 C 30.375 13.457031 31.019531 13.722656 31.597656 14.0625 C 32.175781 14.402344 32.695312 14.828125 33.277344 15.164062 C 34.449219 15.851562 35.753906 16.375 37.128906 16.507812 C 37.25 16.523438 37.375 16.53125 37.5 16.539062 Z M 37.5 16.089844 C 38.175781 16.070312 38.859375 15.84375 39.339844 15.371094 C 39.753906 14.957031 40.035156 14.433594 40.488281 14.054688 C 40.714844 13.847656 40.988281 13.695312 41.246094 13.527344 C 40.972656 13.503906 40.699219 13.433594 40.421875 13.417969 C 40 13.414062 39.5625 13.429688 39.175781 13.605469 C 38.597656 13.855469 38.1875 14.355469 37.609375 14.605469 C 37.574219 14.621094 37.535156 14.632812 37.5 14.644531 C 37.460938 14.632812 37.425781 14.621094 37.386719 14.605469 C 36.808594 14.355469 36.398438 13.855469 35.824219 13.605469 C 35.433594 13.429688 34.996094 13.414062 34.574219 13.417969 C 34.296875 13.433594 34.027344 13.503906 33.75 13.527344 C 34.007812 13.695312 34.28125 13.847656 34.511719 14.054688 C 34.960938 14.433594 35.246094 14.957031 35.65625 15.371094 C 36.136719 15.84375 36.824219 16.070312 37.5 16.089844 Z M 37.5 14.9375 C 37.667969 14.886719 37.832031 14.8125 37.984375 14.714844 C 38.496094 14.398438 38.863281 13.878906 39.4375 13.652344 C 39.953125 13.46875 40.523438 13.433594 41.054688 13.570312 C 40.679688 13.804688 40.3125 14.054688 40.007812 14.371094 C 39.589844 14.804688 39.210938 15.3125 38.628906 15.550781 C 38.273438 15.703125 37.886719 15.789062 37.5 15.8125 C 37.109375 15.789062 36.726562 15.703125 36.367188 15.550781 C 35.785156 15.3125 35.410156 14.804688 34.992188 14.371094 C 34.683594 14.054688 34.316406 13.804688 33.941406 13.570312 C 34.472656 13.433594 35.042969 13.46875 35.558594 13.652344 C 36.132812 13.878906 36.5 14.398438 37.015625 14.714844 C 37.164062 14.8125 37.328125 14.886719 37.5 14.9375 Z M 37.5 14.472656 C 37.828125 14.25 38.085938 13.925781 38.226562 13.558594 C 38.433594 13.019531 38.410156 12.355469 38.019531 11.898438 C 37.882812 11.730469 37.699219 11.601562 37.5 11.515625 C 37.296875 11.601562 37.117188 11.730469 36.976562 11.898438 C 36.589844 12.359375 36.5625 13.019531 36.769531 13.558594 C 36.910156 13.925781 37.167969 14.25 37.5 14.472656 Z M 37.5 11.625 C 37.738281 11.742188 37.941406 11.921875 38.066406 12.15625 C 38.238281 12.449219 38.253906 12.800781 38.21875 13.128906 C 38.148438 13.59375 37.882812 14.027344 37.5 14.316406 C 37.113281 14.027344 36.847656 13.59375 36.777344 13.128906 C 36.742188 12.800781 36.757812 12.449219 36.933594 12.15625 C 37.054688 11.921875 37.257812 11.742188 37.5 11.625 Z M 37.5 11.625 " fill-opacity="1" fill-rule="nonzero"/></g><path fill="#d7ae54" d="M 43.414062 16.351562 C 43.324219 16.140625 43.113281 16.015625 42.921875 15.902344 C 42.304688 15.5625 41.546875 15.574219 40.882812 15.773438 C 40.527344 15.882812 40.167969 16.015625 39.871094 16.238281 C 40.757812 16.214844 41.550781 16.640625 42.398438 16.808594 C 42.660156 16.855469 42.9375 16.847656 43.183594 16.75 C 43.339844 16.691406 43.480469 16.519531 43.414062 16.351562 Z M 42.460938 16.558594 C 41.703125 16.425781 40.972656 16.125 40.191406 16.148438 C 40.679688 15.96875 41.199219 15.851562 41.726562 15.855469 C 42.253906 15.875 42.820312 16.039062 43.164062 16.449219 C 42.957031 16.574219 42.699219 16.59375 42.460938 16.558594 Z M 42.460938 16.558594 " fill-opacity="1" fill-rule="nonzero"/><path fill="#d7ae54" d="M 31.585938 16.351562 C 31.675781 16.140625 31.886719 16.015625 32.078125 15.902344 C 32.695312 15.5625 33.453125 15.574219 34.117188 15.773438 C 34.472656 15.882812 34.832031 16.015625 35.128906 16.238281 C 34.242188 16.214844 33.449219 16.640625 32.601562 16.808594 C 32.339844 16.855469 32.0625 16.847656 31.816406 16.75 C 31.660156 16.691406 31.519531 16.519531 31.585938 16.351562 Z M 32.539062 16.558594 C 33.296875 16.425781 34.027344 16.125 34.808594 16.148438 C 34.320312 15.96875 33.800781 15.851562 33.273438 15.855469 C 32.746094 15.875 32.179688 16.039062 31.835938 16.449219 C 32.042969 16.574219 32.300781 16.59375 32.539062 16.558594 Z M 32.539062 16.558594 " fill-opacity="1" fill-rule="nonzero"/></svg>