<svg xmlns="http://www.w3.org/2000/svg" xmlns:xlink="http://www.w3.org/1999/xlink" width="40" zoomAndPan="magnify" viewBox="0 0 30 30.000001" height="40" preserveAspectRatio="xMidYMid meet" version="1.0"><defs><clipPath id="id1"><path d="M 15 2.902344 L 24 2.902344 L 24 10 L 15 10 Z M 15 2.902344 " clip-rule="nonzero"/></clipPath><clipPath id="id2"><path d="M 19 2.902344 L 24 2.902344 L 24 10 L 19 10 Z M 19 2.902344 " clip-rule="nonzero"/></clipPath><clipPath id="id3"><path d="M 15 2.902344 L 20 2.902344 L 20 10 L 15 10 Z M 15 2.902344 " clip-rule="nonzero"/></clipPath><clipPath id="id4"><path d="M 18 2.902344 L 22 2.902344 L 22 5 L 18 5 Z M 18 2.902344 " clip-rule="nonzero"/></clipPath><clipPath id="id5"><path d="M 20 2.902344 L 24 2.902344 L 24 5 L 20 5 Z M 20 2.902344 " clip-rule="nonzero"/></clipPath><clipPath id="id6"><path d="M 15 2.902344 L 18 2.902344 L 18 5 L 15 5 Z M 15 2.902344 " clip-rule="nonzero"/></clipPath><clipPath id="id7"><path d="M 15 2.902344 L 20 2.902344 L 20 5 L 15 5 Z M 15 2.902344 " clip-rule="nonzero"/></clipPath><clipPath id="id8"><path d="M 0.484375 3 L 19 3 L 19 22 L 0.484375 22 Z M 0.484375 3 " clip-rule="nonzero"/></clipPath><clipPath id="id9"><path d="M 0.484375 3 L 15 3 L 15 18 L 0.484375 18 Z M 0.484375 3 " clip-rule="nonzero"/></clipPath><clipPath id="id10"><path d="M 0.484375 3 L 16 3 L 16 20 L 0.484375 20 Z M 0.484375 3 " clip-rule="nonzero"/></clipPath><clipPath id="id11"><path d="M 10 8 L 28.789062 8 L 28.789062 26.128906 L 10 26.128906 Z M 10 8 " clip-rule="nonzero"/></clipPath></defs><g clip-path="url(#id1)"><path fill="#50c6df" d="M 19.882812 9.199219 L 23.90625 4.59375 L 22.5625 2.914062 L 17.199219 2.914062 L 15.855469 4.59375 L 19.882812 9.199219 " fill-opacity="1" fill-rule="nonzero"/></g><g clip-path="url(#id2)"><path fill="#5ecbe9" d="M 22.5625 2.914062 L 20.722656 2.914062 L 21.558594 4.660156 L 19.882812 9.199219 L 23.90625 4.59375 L 22.5625 2.914062 " fill-opacity="1" fill-rule="nonzero"/></g><g clip-path="url(#id3)"><path fill="#48a6d0" d="M 17.199219 2.914062 L 19.039062 2.914062 L 18.203125 4.660156 L 19.882812 9.199219 L 15.855469 4.59375 L 17.199219 2.914062 " fill-opacity="1" fill-rule="nonzero"/></g><g clip-path="url(#id4)"><path fill="#8ad9e7" d="M 21.496094 4.53125 L 18.265625 4.53125 L 19.039062 2.914062 L 20.722656 2.914062 L 21.496094 4.53125 " fill-opacity="1" fill-rule="nonzero"/></g><g clip-path="url(#id5)"><path fill="#92dbee" d="M 23.855469 4.53125 L 21.496094 4.53125 L 20.722656 2.914062 L 22.5625 2.914062 L 23.855469 4.53125 " fill-opacity="1" fill-rule="nonzero"/></g><g clip-path="url(#id6)"><path fill="#f3fbfb" d="M 15.90625 4.53125 L 17.199219 2.914062 L 15.90625 4.53125 " fill-opacity="1" fill-rule="nonzero"/></g><g clip-path="url(#id7)"><path fill="#83c2de" d="M 18.265625 4.53125 L 15.90625 4.53125 L 17.199219 2.914062 L 19.039062 2.914062 L 18.265625 4.53125 " fill-opacity="1" fill-rule="nonzero"/></g><g clip-path="url(#id8)"><path fill="#f5ba3a" d="M 9.394531 5.496094 C 5.367188 5.496094 2.089844 8.796875 2.089844 12.855469 C 2.089844 16.910156 5.367188 20.210938 9.394531 20.210938 C 13.421875 20.210938 16.695312 16.910156 16.695312 12.855469 C 16.695312 8.796875 13.421875 5.496094 9.394531 5.496094 M 9.394531 21.828125 C 7.015625 21.828125 4.777344 20.894531 3.09375 19.199219 C 1.410156 17.503906 0.484375 15.25 0.484375 12.855469 C 0.484375 10.457031 1.410156 8.203125 3.09375 6.507812 C 4.777344 4.8125 7.015625 3.882812 9.394531 3.882812 C 11.773438 3.882812 14.011719 4.8125 15.691406 6.507812 C 17.375 8.203125 18.300781 10.457031 18.300781 12.855469 C 18.300781 15.25 17.375 17.503906 15.691406 19.199219 C 14.011719 20.894531 11.773438 21.828125 9.394531 21.828125 " fill-opacity="1" fill-rule="nonzero"/></g><g clip-path="url(#id9)"><path fill="#ffffff" d="M 4.128906 17.949219 C 2.882812 16.640625 2.105469 14.867188 2.089844 12.917969 C 2.105469 14.867188 2.882812 16.640625 4.132812 17.949219 L 4.128906 17.949219 M 0.5 13.382812 C 0.5 13.378906 0.5 13.378906 0.5 13.378906 C 0.5 13.378906 0.5 13.378906 0.5 13.382812 M 0.5 13.375 L 0.5 13.375 M 0.5 13.367188 L 0.5 13.367188 M 0.5 13.363281 C 0.5 13.359375 0.5 13.359375 0.5 13.359375 C 0.5 13.359375 0.5 13.359375 0.5 13.363281 M 0.5 13.355469 C 0.5 13.355469 0.5 13.351562 0.5 13.351562 C 0.5 13.351562 0.5 13.355469 0.5 13.355469 M 0.496094 13.347656 C 0.496094 13.347656 0.496094 13.347656 0.496094 13.34375 C 0.496094 13.347656 0.496094 13.347656 0.496094 13.347656 M 0.496094 13.34375 C 0.496094 13.339844 0.496094 13.339844 0.496094 13.335938 C 0.496094 13.339844 0.496094 13.339844 0.496094 13.34375 M 0.496094 13.335938 C 0.496094 13.332031 0.496094 13.332031 0.496094 13.328125 C 0.496094 13.332031 0.496094 13.332031 0.496094 13.335938 M 0.496094 13.328125 C 0.496094 13.328125 0.496094 13.324219 0.496094 13.324219 C 0.496094 13.324219 0.496094 13.328125 0.496094 13.328125 M 0.496094 13.320312 C 0.488281 13.167969 0.484375 13.011719 0.484375 12.855469 C 0.484375 13.011719 0.488281 13.167969 0.496094 13.320312 M 2.089844 12.917969 C 2.089844 12.914062 2.089844 12.914062 2.089844 12.910156 C 2.089844 12.914062 2.089844 12.914062 2.089844 12.917969 M 2.089844 12.910156 C 2.089844 12.910156 2.089844 12.90625 2.089844 12.90625 C 2.089844 12.90625 2.089844 12.910156 2.089844 12.910156 M 2.089844 12.90625 C 2.089844 12.902344 2.089844 12.902344 2.089844 12.898438 C 2.089844 12.902344 2.089844 12.902344 2.089844 12.90625 M 2.089844 12.898438 C 2.089844 12.898438 2.089844 12.894531 2.089844 12.894531 C 2.089844 12.894531 2.089844 12.898438 2.089844 12.898438 M 2.089844 12.894531 C 2.089844 12.890625 2.089844 12.890625 2.089844 12.886719 C 2.089844 12.890625 2.089844 12.890625 2.089844 12.894531 M 2.089844 12.886719 C 2.089844 12.886719 2.089844 12.882812 2.089844 12.882812 C 2.089844 12.882812 2.089844 12.886719 2.089844 12.886719 M 2.089844 12.882812 C 2.089844 12.878906 2.089844 12.878906 2.089844 12.875 C 2.089844 12.878906 2.089844 12.878906 2.089844 12.882812 M 2.089844 12.875 C 2.089844 12.875 2.089844 12.871094 2.089844 12.871094 C 2.089844 12.871094 2.089844 12.875 2.089844 12.875 M 2.089844 12.871094 C 2.089844 12.867188 2.089844 12.867188 2.089844 12.863281 C 2.089844 12.867188 2.089844 12.867188 2.089844 12.871094 M 2.089844 12.863281 C 2.089844 12.863281 2.089844 12.859375 2.089844 12.859375 C 2.089844 12.859375 2.089844 12.863281 2.089844 12.863281 M 2.089844 12.855469 L 2.089844 12.855469 M 0.484375 12.855469 C 0.484375 10.457031 1.410156 8.203125 3.09375 6.507812 C 4.777344 4.8125 7.011719 3.882812 9.394531 3.882812 C 7.015625 3.882812 4.777344 4.8125 3.09375 6.507812 C 1.410156 8.203125 0.484375 10.457031 0.484375 12.855469 M 14.453125 7.554688 C 13.171875 6.3125 11.449219 5.539062 9.546875 5.5 C 11.449219 5.539062 13.171875 6.3125 14.453125 7.550781 L 14.453125 7.554688 M 9.546875 5.5 C 9.546875 5.5 9.542969 5.5 9.542969 5.5 C 9.542969 5.5 9.546875 5.5 9.546875 5.5 M 9.542969 5.5 C 9.539062 5.5 9.539062 5.5 9.539062 5.5 C 9.539062 5.5 9.539062 5.5 9.542969 5.5 M 9.535156 5.5 C 9.535156 5.5 9.53125 5.5 9.53125 5.5 C 9.53125 5.5 9.535156 5.5 9.535156 5.5 M 9.53125 5.5 C 9.527344 5.5 9.527344 5.5 9.527344 5.5 C 9.527344 5.5 9.527344 5.5 9.53125 5.5 M 9.523438 5.5 C 9.523438 5.5 9.523438 5.5 9.519531 5.5 C 9.523438 5.5 9.523438 5.5 9.523438 5.5 M 9.519531 5.5 C 9.519531 5.5 9.515625 5.5 9.515625 5.5 C 9.515625 5.5 9.515625 5.5 9.519531 5.5 M 9.511719 5.5 C 9.511719 5.5 9.511719 5.5 9.507812 5.5 C 9.511719 5.5 9.511719 5.5 9.511719 5.5 M 9.507812 5.5 C 9.507812 5.5 9.503906 5.5 9.503906 5.5 C 9.503906 5.5 9.503906 5.5 9.507812 5.5 M 9.5 5.5 C 9.5 5.5 9.5 5.5 9.496094 5.5 C 9.5 5.5 9.5 5.5 9.5 5.5 M 9.496094 5.5 C 9.496094 5.5 9.492188 5.5 9.492188 5.5 C 9.492188 5.5 9.496094 5.5 9.496094 5.5 M 9.488281 5.5 C 9.488281 5.5 9.488281 5.5 9.484375 5.5 C 9.488281 5.5 9.488281 5.5 9.488281 5.5 M 9.484375 5.5 C 9.484375 5.5 9.480469 5.5 9.480469 5.5 C 9.480469 5.5 9.484375 5.5 9.484375 5.5 M 9.476562 5.5 L 9.476562 5.5 M 9.472656 5.5 C 9.472656 5.5 9.46875 5.5 9.46875 5.5 C 9.46875 5.5 9.472656 5.5 9.472656 5.5 M 9.464844 5.496094 C 9.464844 5.496094 9.464844 5.496094 9.460938 5.496094 C 9.464844 5.496094 9.464844 5.496094 9.464844 5.496094 M 9.460938 5.496094 C 9.460938 5.496094 9.457031 5.496094 9.457031 5.496094 C 9.457031 5.496094 9.460938 5.496094 9.460938 5.496094 M 9.453125 5.496094 L 9.453125 5.496094 M 9.449219 5.496094 C 9.449219 5.496094 9.445312 5.496094 9.445312 5.496094 C 9.445312 5.496094 9.449219 5.496094 9.449219 5.496094 M 9.441406 5.496094 L 9.441406 5.496094 M 9.4375 5.496094 C 9.4375 5.496094 9.433594 5.496094 9.433594 5.496094 C 9.433594 5.496094 9.4375 5.496094 9.4375 5.496094 M 9.429688 5.496094 L 9.429688 5.496094 M 9.425781 5.496094 C 9.425781 5.496094 9.421875 5.496094 9.421875 5.496094 C 9.421875 5.496094 9.425781 5.496094 9.425781 5.496094 M 9.417969 5.496094 L 9.417969 5.496094 M 9.414062 5.496094 C 9.414062 5.496094 9.410156 5.496094 9.410156 5.496094 C 9.410156 5.496094 9.414062 5.496094 9.414062 5.496094 M 9.40625 5.496094 L 9.40625 5.496094 M 9.402344 5.496094 C 9.402344 5.496094 9.398438 5.496094 9.398438 5.496094 C 9.398438 5.496094 9.402344 5.496094 9.402344 5.496094 M 9.535156 3.882812 L 9.535156 3.882812 M 9.53125 3.882812 C 9.53125 3.882812 9.53125 3.882812 9.527344 3.882812 C 9.53125 3.882812 9.53125 3.882812 9.53125 3.882812 M 9.523438 3.882812 L 9.523438 3.882812 M 9.515625 3.882812 L 9.515625 3.882812 M 9.511719 3.882812 C 9.507812 3.882812 9.507812 3.882812 9.507812 3.882812 C 9.507812 3.882812 9.507812 3.882812 9.511719 3.882812 M 9.503906 3.882812 C 9.503906 3.882812 9.503906 3.882812 9.5 3.882812 C 9.503906 3.882812 9.503906 3.882812 9.503906 3.882812 M 9.496094 3.882812 L 9.496094 3.882812 M 9.488281 3.882812 L 9.488281 3.882812 M 9.484375 3.882812 C 9.480469 3.882812 9.480469 3.882812 9.480469 3.882812 C 9.480469 3.882812 9.480469 3.882812 9.484375 3.882812 M 9.476562 3.882812 C 9.476562 3.882812 9.472656 3.882812 9.472656 3.882812 C 9.472656 3.882812 9.476562 3.882812 9.476562 3.882812 M 9.46875 3.882812 C 9.46875 3.882812 9.46875 3.882812 9.464844 3.882812 C 9.46875 3.882812 9.46875 3.882812 9.46875 3.882812 M 9.460938 3.882812 L 9.460938 3.882812 M 9.457031 3.882812 C 9.453125 3.882812 9.453125 3.882812 9.453125 3.882812 C 9.453125 3.882812 9.453125 3.882812 9.457031 3.882812 M 9.449219 3.882812 C 9.449219 3.882812 9.445312 3.882812 9.445312 3.882812 C 9.445312 3.882812 9.449219 3.882812 9.449219 3.882812 M 9.441406 3.882812 C 9.441406 3.882812 9.441406 3.882812 9.4375 3.882812 C 9.441406 3.882812 9.441406 3.882812 9.441406 3.882812 M 9.433594 3.882812 C 9.433594 3.882812 9.433594 3.882812 9.429688 3.882812 C 9.433594 3.882812 9.433594 3.882812 9.433594 3.882812 M 9.429688 3.882812 C 9.425781 3.882812 9.425781 3.882812 9.425781 3.882812 C 9.425781 3.882812 9.425781 3.882812 9.429688 3.882812 M 9.421875 3.882812 C 9.417969 3.882812 9.417969 3.882812 9.417969 3.882812 C 9.417969 3.882812 9.417969 3.882812 9.421875 3.882812 M 9.414062 3.882812 C 9.414062 3.882812 9.410156 3.882812 9.410156 3.882812 C 9.410156 3.882812 9.414062 3.882812 9.414062 3.882812 M 9.40625 3.882812 C 9.40625 3.882812 9.40625 3.882812 9.402344 3.882812 C 9.40625 3.882812 9.40625 3.882812 9.40625 3.882812 M 9.398438 3.882812 C 9.398438 3.882812 9.394531 3.882812 9.394531 3.882812 C 9.394531 3.882812 9.398438 3.882812 9.398438 3.882812 " fill-opacity="1" fill-rule="nonzero"/></g><g clip-path="url(#id10)"><path fill="#f8cd6e" d="M 2.992188 19.09375 C 1.5 17.539062 0.625 15.535156 0.5 13.386719 C 0.5 13.386719 0.5 13.382812 0.5 13.382812 C 0.5 13.378906 0.5 13.378906 0.5 13.378906 C 0.5 13.378906 0.5 13.375 0.5 13.375 C 0.5 13.371094 0.5 13.371094 0.5 13.367188 C 0.5 13.363281 0.5 13.363281 0.5 13.363281 C 0.5 13.359375 0.5 13.359375 0.5 13.359375 C 0.5 13.355469 0.5 13.355469 0.5 13.355469 C 0.5 13.355469 0.5 13.351562 0.5 13.351562 C 0.5 13.351562 0.5 13.347656 0.496094 13.347656 C 0.496094 13.347656 0.496094 13.347656 0.496094 13.34375 C 0.496094 13.339844 0.496094 13.339844 0.496094 13.335938 C 0.496094 13.332031 0.496094 13.332031 0.496094 13.328125 C 0.496094 13.328125 0.496094 13.324219 0.496094 13.324219 C 0.496094 13.320312 0.496094 13.320312 0.496094 13.320312 C 0.488281 13.167969 0.484375 13.011719 0.484375 12.855469 C 0.484375 10.457031 1.410156 8.203125 3.09375 6.507812 C 4.777344 4.8125 7.015625 3.882812 9.394531 3.882812 C 9.394531 3.882812 9.398438 3.882812 9.398438 3.882812 C 9.402344 3.882812 9.402344 3.882812 9.402344 3.882812 C 9.40625 3.882812 9.40625 3.882812 9.40625 3.882812 C 9.410156 3.882812 9.410156 3.882812 9.410156 3.882812 C 9.410156 3.882812 9.414062 3.882812 9.414062 3.882812 C 9.414062 3.882812 9.417969 3.882812 9.417969 3.882812 C 9.417969 3.882812 9.417969 3.882812 9.421875 3.882812 C 9.421875 3.882812 9.421875 3.882812 9.425781 3.882812 C 9.425781 3.882812 9.425781 3.882812 9.429688 3.882812 C 9.433594 3.882812 9.433594 3.882812 9.433594 3.882812 C 9.4375 3.882812 9.4375 3.882812 9.4375 3.882812 C 9.441406 3.882812 9.441406 3.882812 9.441406 3.882812 C 9.441406 3.882812 9.445312 3.882812 9.445312 3.882812 C 9.445312 3.882812 9.449219 3.882812 9.449219 3.882812 C 9.449219 3.882812 9.453125 3.882812 9.453125 3.882812 C 9.453125 3.882812 9.453125 3.882812 9.457031 3.882812 C 9.457031 3.882812 9.457031 3.882812 9.460938 3.882812 C 9.464844 3.882812 9.464844 3.882812 9.464844 3.882812 C 9.46875 3.882812 9.46875 3.882812 9.46875 3.882812 C 9.46875 3.882812 9.472656 3.882812 9.472656 3.882812 C 9.472656 3.882812 9.476562 3.882812 9.476562 3.882812 C 9.476562 3.882812 9.480469 3.882812 9.480469 3.882812 C 9.480469 3.882812 9.480469 3.882812 9.484375 3.882812 C 9.484375 3.882812 9.484375 3.882812 9.488281 3.882812 C 9.492188 3.882812 9.492188 3.882812 9.496094 3.882812 C 9.496094 3.882812 9.5 3.882812 9.5 3.882812 C 9.503906 3.882812 9.503906 3.882812 9.503906 3.882812 C 9.503906 3.882812 9.507812 3.882812 9.507812 3.882812 C 9.507812 3.882812 9.507812 3.882812 9.511719 3.882812 C 9.511719 3.882812 9.515625 3.882812 9.515625 3.882812 C 9.519531 3.882812 9.519531 3.882812 9.523438 3.882812 C 9.527344 3.882812 9.527344 3.882812 9.527344 3.882812 C 9.53125 3.882812 9.53125 3.882812 9.53125 3.882812 C 9.53125 3.882812 9.535156 3.882812 9.535156 3.882812 C 11.816406 3.917969 13.953125 4.8125 15.589844 6.40625 L 14.453125 7.550781 C 13.171875 6.3125 11.449219 5.539062 9.546875 5.5 C 9.546875 5.5 9.542969 5.5 9.542969 5.5 C 9.539062 5.5 9.539062 5.5 9.539062 5.5 C 9.535156 5.5 9.535156 5.5 9.535156 5.5 C 9.535156 5.5 9.53125 5.5 9.53125 5.5 C 9.527344 5.5 9.527344 5.5 9.527344 5.5 C 9.527344 5.5 9.523438 5.5 9.523438 5.5 C 9.523438 5.5 9.523438 5.5 9.519531 5.5 C 9.515625 5.5 9.515625 5.5 9.515625 5.5 C 9.515625 5.5 9.515625 5.5 9.511719 5.5 C 9.511719 5.5 9.511719 5.5 9.507812 5.5 C 9.503906 5.5 9.503906 5.5 9.503906 5.5 C 9.503906 5.5 9.503906 5.5 9.5 5.5 C 9.5 5.5 9.5 5.5 9.496094 5.5 C 9.496094 5.5 9.492188 5.5 9.492188 5.5 C 9.492188 5.5 9.492188 5.5 9.488281 5.5 C 9.488281 5.5 9.488281 5.5 9.484375 5.5 C 9.484375 5.5 9.480469 5.5 9.480469 5.5 C 9.480469 5.5 9.480469 5.5 9.476562 5.5 C 9.472656 5.5 9.472656 5.5 9.472656 5.5 C 9.472656 5.5 9.46875 5.5 9.46875 5.5 C 9.46875 5.5 9.46875 5.5 9.464844 5.496094 C 9.464844 5.496094 9.464844 5.496094 9.460938 5.496094 C 9.460938 5.496094 9.457031 5.496094 9.457031 5.496094 C 9.457031 5.496094 9.457031 5.496094 9.453125 5.496094 C 9.449219 5.496094 9.449219 5.496094 9.449219 5.496094 C 9.449219 5.496094 9.445312 5.496094 9.445312 5.496094 C 9.445312 5.496094 9.445312 5.496094 9.441406 5.496094 C 9.4375 5.496094 9.4375 5.496094 9.4375 5.496094 C 9.4375 5.496094 9.433594 5.496094 9.433594 5.496094 C 9.433594 5.496094 9.433594 5.496094 9.429688 5.496094 C 9.425781 5.496094 9.425781 5.496094 9.425781 5.496094 C 9.425781 5.496094 9.421875 5.496094 9.421875 5.496094 C 9.421875 5.496094 9.421875 5.496094 9.417969 5.496094 C 9.414062 5.496094 9.414062 5.496094 9.414062 5.496094 C 9.414062 5.496094 9.410156 5.496094 9.410156 5.496094 C 9.410156 5.496094 9.410156 5.496094 9.40625 5.496094 C 9.402344 5.496094 9.402344 5.496094 9.402344 5.496094 C 9.402344 5.496094 9.398438 5.496094 9.398438 5.496094 C 9.398438 5.496094 9.394531 5.496094 9.394531 5.496094 C 9.328125 5.496094 9.265625 5.5 9.199219 5.5 C 5.261719 5.605469 2.089844 8.863281 2.089844 12.855469 C 2.089844 12.855469 2.089844 12.859375 2.089844 12.859375 C 2.089844 12.859375 2.089844 12.863281 2.089844 12.863281 C 2.089844 12.867188 2.089844 12.867188 2.089844 12.871094 C 2.089844 12.871094 2.089844 12.875 2.089844 12.875 C 2.089844 12.878906 2.089844 12.878906 2.089844 12.882812 C 2.089844 12.882812 2.089844 12.886719 2.089844 12.886719 C 2.089844 12.890625 2.089844 12.890625 2.089844 12.894531 C 2.089844 12.894531 2.089844 12.898438 2.089844 12.898438 C 2.089844 12.902344 2.089844 12.902344 2.089844 12.90625 C 2.089844 12.90625 2.089844 12.910156 2.089844 12.910156 C 2.089844 12.914062 2.089844 12.914062 2.089844 12.917969 C 2.105469 14.867188 2.882812 16.640625 4.128906 17.949219 L 2.992188 19.09375 " fill-opacity="1" fill-rule="nonzero"/></g><g clip-path="url(#id11)"><path fill="#dba922" d="M 26.179688 10.800781 C 24.496094 9.109375 22.261719 8.175781 19.882812 8.175781 C 18.96875 8.175781 18.078125 8.3125 17.230469 8.578125 C 17.488281 9.054688 17.703125 9.558594 17.867188 10.074219 C 18.507812 9.890625 19.183594 9.789062 19.882812 9.789062 C 23.90625 9.789062 27.183594 13.089844 27.183594 17.148438 C 27.183594 21.203125 23.90625 24.503906 19.882812 24.503906 C 17.605469 24.503906 15.566406 23.449219 14.226562 21.800781 C 14.210938 21.777344 14.191406 21.753906 14.175781 21.734375 C 14.152344 21.703125 14.125 21.671875 14.101562 21.640625 C 14.085938 21.617188 14.066406 21.59375 14.050781 21.570312 C 14.015625 21.523438 13.984375 21.480469 13.949219 21.433594 C 13.933594 21.410156 13.914062 21.382812 13.898438 21.359375 C 13.871094 21.324219 13.847656 21.289062 13.824219 21.253906 C 13.800781 21.21875 13.78125 21.183594 13.757812 21.152344 C 13.734375 21.117188 13.714844 21.082031 13.695312 21.050781 C 13.675781 21.023438 13.660156 20.996094 13.644531 20.972656 C 13.617188 20.921875 13.585938 20.875 13.558594 20.828125 C 13.167969 20.148438 12.882812 19.402344 12.722656 18.609375 L 12.722656 18.601562 C 12.710938 18.554688 12.703125 18.507812 12.695312 18.460938 L 12.691406 18.453125 C 12.683594 18.402344 12.675781 18.355469 12.667969 18.308594 L 12.667969 18.304688 C 12.621094 18.003906 12.589844 17.695312 12.582031 17.382812 C 12.578125 17.304688 12.578125 17.226562 12.578125 17.148438 C 12.578125 14.371094 14.113281 11.945312 16.375 10.695312 C 16.214844 10.171875 16 9.671875 15.730469 9.203125 C 14.949219 9.617188 14.226562 10.15625 13.582031 10.800781 C 11.898438 12.496094 10.972656 14.75 10.972656 17.148438 C 10.972656 17.226562 10.972656 17.304688 10.976562 17.382812 C 10.976562 17.402344 10.976562 17.421875 10.976562 17.445312 C 10.976562 17.46875 10.980469 17.496094 10.980469 17.519531 C 10.980469 17.570312 10.984375 17.617188 10.988281 17.664062 C 10.988281 17.6875 10.988281 17.710938 10.992188 17.730469 C 10.992188 17.765625 10.996094 17.804688 11 17.839844 C 11 17.863281 11.003906 17.882812 11.003906 17.90625 C 11.007812 17.941406 11.007812 17.972656 11.011719 18.007812 C 11.015625 18.027344 11.015625 18.050781 11.019531 18.070312 C 11.023438 18.105469 11.027344 18.144531 11.03125 18.179688 C 11.03125 18.195312 11.035156 18.214844 11.035156 18.234375 C 11.042969 18.277344 11.046875 18.324219 11.054688 18.367188 L 11.058594 18.394531 C 11.074219 18.507812 11.089844 18.617188 11.109375 18.730469 L 11.113281 18.753906 C 11.121094 18.800781 11.132812 18.847656 11.140625 18.898438 L 11.144531 18.921875 C 11.15625 18.972656 11.167969 19.023438 11.175781 19.074219 L 11.179688 19.085938 C 11.230469 19.3125 11.289062 19.535156 11.355469 19.757812 L 11.355469 19.761719 C 11.570312 20.476562 11.875 21.160156 12.261719 21.800781 C 12.628906 22.40625 13.070312 22.976562 13.582031 23.492188 C 15.265625 25.1875 17.5 26.121094 19.882812 26.121094 C 22.261719 26.121094 24.496094 25.1875 26.179688 23.492188 C 27.863281 21.796875 28.789062 19.542969 28.789062 17.148438 C 28.789062 14.75 27.863281 12.496094 26.179688 10.800781 " fill-opacity="1" fill-rule="nonzero"/></g><path fill="#ffffff" d="M 12.574219 22.285156 C 12.464844 22.125 12.359375 21.964844 12.261719 21.800781 C 12.359375 21.964844 12.464844 22.125 12.574219 22.285156 M 11.40625 19.925781 C 11.121094 19.039062 10.972656 18.105469 10.972656 17.148438 C 10.972656 17.226562 10.972656 17.304688 10.976562 17.382812 C 10.976562 17.402344 10.976562 17.421875 10.976562 17.445312 C 10.976562 17.46875 10.980469 17.496094 10.980469 17.519531 C 10.980469 17.570312 10.984375 17.617188 10.988281 17.664062 C 10.988281 17.6875 10.988281 17.710938 10.992188 17.730469 C 10.992188 17.765625 10.996094 17.804688 11 17.839844 C 11 17.863281 11.003906 17.882812 11.003906 17.90625 C 11.007812 17.941406 11.007812 17.972656 11.011719 18.007812 C 11.015625 18.027344 11.015625 18.050781 11.019531 18.070312 C 11.023438 18.105469 11.027344 18.144531 11.03125 18.179688 C 11.03125 18.195312 11.035156 18.214844 11.035156 18.234375 C 11.042969 18.277344 11.046875 18.324219 11.054688 18.367188 L 11.058594 18.394531 C 11.074219 18.507812 11.089844 18.617188 11.109375 18.730469 L 11.113281 18.753906 C 11.121094 18.800781 11.132812 18.847656 11.140625 18.898438 L 11.144531 18.921875 C 11.15625 18.972656 11.167969 19.023438 11.175781 19.074219 L 11.179688 19.085938 C 11.230469 19.3125 11.289062 19.535156 11.355469 19.757812 L 11.355469 19.761719 C 11.371094 19.816406 11.386719 19.871094 11.40625 19.925781 " fill-opacity="1" fill-rule="nonzero"/><path fill="#f8cd6e" d="M 11.707031 20.726562 C 11.59375 20.464844 11.492188 20.199219 11.40625 19.925781 C 11.492188 20.199219 11.59375 20.464844 11.707031 20.726562 " fill-opacity="1" fill-rule="nonzero"/><path fill="#ffffff" d="M 10.972656 17.148438 C 10.972656 14.75 11.898438 12.496094 13.582031 10.800781 C 14.226562 10.15625 14.949219 9.617188 15.730469 9.203125 C 14.949219 9.617188 14.226562 10.15625 13.582031 10.800781 C 11.898438 12.496094 10.972656 14.75 10.972656 17.148438 " fill-opacity="1" fill-rule="nonzero"/><path fill="#e5bf59" d="M 13.480469 23.386719 C 13.148438 23.042969 12.84375 22.671875 12.574219 22.285156 C 12.464844 22.125 12.359375 21.964844 12.261719 21.800781 C 12.050781 21.453125 11.867188 21.097656 11.707031 20.726562 C 11.59375 20.464844 11.492188 20.199219 11.40625 19.925781 C 11.386719 19.871094 11.371094 19.816406 11.355469 19.761719 L 11.355469 19.757812 C 11.289062 19.535156 11.230469 19.3125 11.179688 19.085938 L 11.175781 19.074219 C 11.167969 19.023438 11.15625 18.972656 11.144531 18.921875 L 11.140625 18.898438 C 11.132812 18.847656 11.121094 18.800781 11.113281 18.753906 L 11.109375 18.730469 C 11.089844 18.617188 11.074219 18.507812 11.058594 18.394531 L 11.054688 18.367188 C 11.046875 18.324219 11.042969 18.277344 11.035156 18.234375 C 11.035156 18.214844 11.03125 18.195312 11.03125 18.179688 C 11.027344 18.144531 11.023438 18.105469 11.019531 18.070312 C 11.015625 18.050781 11.015625 18.027344 11.011719 18.007812 C 11.007812 17.972656 11.007812 17.941406 11.003906 17.90625 C 11.003906 17.882812 11 17.863281 11 17.839844 C 10.996094 17.804688 10.992188 17.765625 10.992188 17.730469 C 10.988281 17.710938 10.988281 17.6875 10.988281 17.664062 C 10.984375 17.617188 10.980469 17.570312 10.980469 17.519531 C 10.980469 17.496094 10.976562 17.46875 10.976562 17.445312 C 10.976562 17.421875 10.976562 17.402344 10.976562 17.382812 C 10.972656 17.304688 10.972656 17.226562 10.972656 17.148438 C 10.972656 14.75 11.898438 12.496094 13.582031 10.800781 C 14.226562 10.15625 14.949219 9.617188 15.730469 9.203125 L 16.371094 10.695312 C 14.113281 11.949219 12.578125 14.371094 12.578125 17.148438 C 12.578125 19.121094 13.355469 20.917969 14.617188 22.242188 L 13.480469 23.386719 " fill-opacity="1" fill-rule="nonzero"/><path fill="#ffffff" d="M 24.9375 11.847656 C 23.957031 10.894531 22.707031 10.214844 21.320312 9.933594 C 22.707031 10.214844 23.957031 10.894531 24.941406 11.847656 L 24.9375 11.847656 " fill-opacity="1" fill-rule="nonzero"/><path fill="#f8cd6e" d="M 17.875 10.097656 L 17.230469 8.582031 C 17.488281 9.058594 17.703125 9.558594 17.867188 10.074219 L 17.875 10.097656 " fill-opacity="1" fill-rule="nonzero"/><path fill="#ffffff" d="M 21.320312 9.933594 C 21.316406 9.933594 21.316406 9.933594 21.316406 9.933594 C 21.316406 9.933594 21.316406 9.933594 21.320312 9.933594 M 21.3125 9.933594 L 21.3125 9.933594 M 21.308594 9.933594 C 21.304688 9.933594 21.304688 9.933594 21.304688 9.929688 C 21.304688 9.933594 21.304688 9.933594 21.308594 9.933594 M 17.230469 8.578125 C 17.808594 8.394531 18.40625 8.273438 19.019531 8.214844 C 18.40625 8.273438 17.808594 8.394531 17.230469 8.578125 " fill-opacity="1" fill-rule="nonzero"/><path fill="#84d7e7" d="M 19.503906 8.183594 C 19.628906 8.175781 19.75 8.175781 19.875 8.175781 C 19.75 8.175781 19.628906 8.175781 19.503906 8.183594 " fill-opacity="1" fill-rule="nonzero"/><path fill="#7cbddc" d="M 19.019531 8.214844 C 19.179688 8.199219 19.34375 8.1875 19.503906 8.183594 C 19.34375 8.1875 19.179688 8.199219 19.019531 8.214844 " fill-opacity="1" fill-rule="nonzero"/><path fill="#e5bf59" d="M 24.941406 11.847656 C 23.957031 10.894531 22.707031 10.214844 21.320312 9.933594 C 21.316406 9.933594 21.316406 9.933594 21.316406 9.933594 C 21.316406 9.933594 21.3125 9.933594 21.3125 9.933594 C 21.308594 9.933594 21.308594 9.933594 21.308594 9.933594 C 21.304688 9.933594 21.304688 9.933594 21.304688 9.929688 C 20.84375 9.839844 20.367188 9.789062 19.882812 9.789062 C 19.183594 9.789062 18.507812 9.890625 17.867188 10.074219 C 17.703125 9.558594 17.488281 9.058594 17.230469 8.582031 L 17.230469 8.578125 C 17.808594 8.394531 18.40625 8.273438 19.019531 8.214844 C 19.179688 8.199219 19.34375 8.1875 19.503906 8.183594 C 19.628906 8.175781 19.75 8.175781 19.875 8.175781 C 19.878906 8.175781 19.878906 8.175781 19.882812 8.175781 C 19.882812 8.175781 19.886719 8.175781 19.886719 8.175781 C 19.886719 8.175781 19.890625 8.175781 19.890625 8.175781 C 19.890625 8.175781 19.894531 8.175781 19.894531 8.175781 C 19.894531 8.175781 19.898438 8.175781 19.898438 8.175781 C 19.898438 8.175781 19.898438 8.175781 19.902344 8.175781 C 19.902344 8.175781 19.902344 8.175781 19.90625 8.175781 C 19.90625 8.175781 19.90625 8.175781 19.910156 8.175781 C 19.914062 8.175781 19.914062 8.175781 19.914062 8.175781 C 19.917969 8.175781 19.917969 8.175781 19.917969 8.175781 C 19.921875 8.175781 19.921875 8.175781 19.921875 8.175781 C 19.921875 8.175781 19.925781 8.175781 19.925781 8.175781 C 19.925781 8.175781 19.925781 8.175781 19.929688 8.175781 C 19.929688 8.175781 19.929688 8.175781 19.933594 8.175781 C 19.933594 8.175781 19.933594 8.175781 19.9375 8.175781 C 19.9375 8.175781 19.9375 8.175781 19.941406 8.175781 C 19.945312 8.175781 19.945312 8.175781 19.945312 8.175781 C 19.949219 8.175781 19.949219 8.175781 19.949219 8.175781 C 19.949219 8.175781 19.953125 8.175781 19.953125 8.175781 C 19.953125 8.175781 19.957031 8.175781 19.957031 8.175781 C 19.957031 8.175781 19.960938 8.175781 19.960938 8.175781 C 19.960938 8.175781 19.960938 8.175781 19.964844 8.175781 C 19.964844 8.175781 19.964844 8.175781 19.96875 8.175781 C 19.972656 8.175781 19.972656 8.175781 19.976562 8.175781 C 19.980469 8.175781 19.980469 8.175781 19.980469 8.175781 C 19.984375 8.175781 19.984375 8.175781 19.984375 8.175781 C 19.984375 8.175781 19.988281 8.175781 19.988281 8.175781 C 19.988281 8.175781 19.988281 8.175781 19.992188 8.175781 C 19.992188 8.175781 19.996094 8.175781 19.996094 8.175781 C 20 8.175781 20 8.175781 20.003906 8.175781 C 20.003906 8.175781 20.007812 8.175781 20.011719 8.175781 C 20.011719 8.175781 20.015625 8.175781 20.015625 8.175781 C 20.019531 8.175781 20.023438 8.175781 20.023438 8.175781 C 22.300781 8.210938 24.441406 9.105469 26.078125 10.699219 L 24.941406 11.847656 " fill-opacity="1" fill-rule="nonzero"/></svg>