<svg xmlns="http://www.w3.org/2000/svg" xmlns:xlink="http://www.w3.org/1999/xlink" width="40" zoomAndPan="magnify" viewBox="0 0 30 30.000001" height="40" preserveAspectRatio="xMidYMid meet" version="1.0"><defs><clipPath id="id1"><path d="M 3.96875 0 L 25 0 L 25 29 L 3.96875 29 Z M 3.96875 0 " clip-rule="nonzero"/></clipPath><clipPath id="id2"><path d="M 3.96875 6 L 25 6 L 25 26 L 3.96875 26 Z M 3.96875 6 " clip-rule="nonzero"/></clipPath></defs><g clip-path="url(#id1)"><path fill="#f4eadc" d="M 22.257812 11.984375 L 24.332031 10.753906 L 24.367188 10.769531 C 24.375 10.773438 24.382812 10.773438 24.390625 10.773438 C 24.414062 10.773438 24.433594 10.761719 24.441406 10.742188 C 24.457031 10.710938 24.445312 10.679688 24.414062 10.664062 L 24.363281 10.640625 L 23.75 8.914062 L 23.769531 8.898438 C 23.796875 8.882812 23.804688 8.84375 23.785156 8.820312 C 23.765625 8.792969 23.730469 8.785156 23.703125 8.804688 L 23.675781 8.824219 L 22.339844 8.195312 L 22.335938 8.160156 C 22.335938 8.136719 22.316406 8.117188 22.296875 8.109375 C 22.277344 8.097656 22.25 8.097656 22.230469 8.113281 L 22.203125 8.132812 L 20.867188 7.503906 L 20.863281 7.46875 C 20.859375 7.4375 20.832031 7.414062 20.800781 7.417969 C 20.769531 7.417969 20.746094 7.445312 20.75 7.480469 L 20.75 7.496094 L 19.023438 8.128906 L 18.96875 8.105469 C 18.941406 8.089844 18.90625 8.105469 18.894531 8.132812 C 18.878906 8.160156 18.890625 8.195312 18.921875 8.210938 L 18.957031 8.226562 L 19.339844 10.613281 C 19.148438 11.015625 19.140625 11.453125 19.28125 11.839844 C 18.574219 11.648438 17.855469 11.574219 17.148438 11.609375 C 16.292969 8.863281 13.734375 6.867188 10.710938 6.867188 C 6.988281 6.867188 3.96875 9.894531 3.96875 13.628906 C 3.96875 17.363281 6.988281 20.390625 10.710938 20.390625 C 10.828125 20.390625 10.945312 20.390625 11.058594 20.382812 C 11.605469 22.128906 12.851562 23.648438 14.632812 24.484375 C 18.003906 26.070312 22.019531 24.613281 23.601562 21.234375 C 25.015625 18.207031 24 14.664062 21.351562 12.816406 C 21.738281 12.675781 22.070312 12.386719 22.257812 11.984375 M 10.792969 19.113281 C 10.765625 19.113281 10.738281 19.117188 10.710938 19.117188 C 7.695312 19.117188 5.242188 16.65625 5.242188 13.628906 C 5.242188 10.605469 7.695312 8.144531 10.710938 8.144531 C 13.089844 8.144531 15.117188 9.671875 15.871094 11.800781 C 13.96875 12.273438 12.285156 13.574219 11.390625 15.492188 C 10.839844 16.664062 10.65625 17.914062 10.792969 19.113281 Z M 12.542969 16.035156 C 13.265625 14.488281 14.617188 13.4375 16.152344 13.046875 C 16.171875 13.238281 16.183594 13.433594 16.183594 13.628906 C 16.183594 16.191406 14.425781 18.34375 12.054688 18.949219 C 11.953125 17.980469 12.101562 16.976562 12.542969 16.035156 Z M 22.449219 20.691406 C 21.167969 23.429688 17.90625 24.613281 15.171875 23.328125 C 13.796875 22.683594 12.8125 21.527344 12.339844 20.191406 C 15.277344 19.460938 17.457031 16.800781 17.457031 13.628906 C 17.457031 13.375 17.441406 13.125 17.414062 12.878906 C 18.21875 12.863281 19.039062 13.03125 19.816406 13.394531 C 22.550781 14.679688 23.730469 17.953125 22.449219 20.691406 Z M 17.1875 5.800781 L 18.585938 6.0625 L 17.1875 6.324219 L 16.925781 7.726562 L 16.664062 6.324219 L 15.269531 6.0625 L 16.664062 5.800781 L 16.925781 4.402344 Z M 19.425781 3.058594 L 17.242188 2.648438 L 19.425781 2.242188 L 19.835938 0.0507812 L 20.242188 2.242188 L 22.425781 2.648438 L 20.242188 3.058594 L 19.835938 5.25 Z M 7.285156 23.464844 L 5.886719 23.726562 L 5.625 25.125 L 5.363281 23.726562 L 3.96875 23.464844 L 5.363281 23.203125 L 5.625 21.800781 L 5.886719 23.203125 Z M 9.441406 25.96875 L 11.621094 26.378906 L 9.441406 26.789062 L 9.03125 28.980469 L 8.621094 26.789062 L 6.4375 26.378906 L 8.621094 25.96875 L 9.03125 23.78125 Z M 9.441406 25.96875 " fill-opacity="1" fill-rule="nonzero"/></g><g clip-path="url(#id2)"><path fill="#d59f35" d="M 21.351562 12.816406 C 21.738281 12.675781 22.070312 12.386719 22.257812 11.984375 L 21.34375 11.558594 L 21.339844 11.5625 C 21.332031 11.582031 21.3125 11.589844 21.292969 11.589844 C 21.28125 11.589844 21.269531 11.585938 21.261719 11.582031 C 21.238281 11.566406 21.230469 11.535156 21.242188 11.507812 L 20.355469 11.089844 C 20.34375 11.113281 20.324219 11.125 20.300781 11.125 C 20.296875 11.125 20.289062 11.125 20.285156 11.121094 C 20.253906 11.113281 20.238281 11.078125 20.246094 11.050781 L 20.25 11.042969 L 20.023438 10.9375 L 19.339844 10.613281 C 19.148438 11.015625 19.140625 11.453125 19.28125 11.839844 C 18.574219 11.648438 17.855469 11.574219 17.148438 11.609375 C 16.292969 8.863281 13.734375 6.867188 10.710938 6.867188 C 6.988281 6.867188 3.96875 9.894531 3.96875 13.628906 C 3.96875 17.363281 6.988281 20.390625 10.710938 20.390625 C 10.828125 20.390625 10.945312 20.390625 11.058594 20.382812 C 11.605469 22.128906 12.851562 23.648438 14.632812 24.484375 C 18.003906 26.070312 22.019531 24.613281 23.601562 21.234375 C 25.015625 18.207031 24 14.664062 21.351562 12.816406 Z M 10.792969 19.113281 C 10.765625 19.113281 10.738281 19.117188 10.710938 19.117188 C 7.695312 19.117188 5.242188 16.65625 5.242188 13.628906 C 5.242188 10.605469 7.695312 8.144531 10.710938 8.144531 C 13.089844 8.144531 15.117188 9.671875 15.871094 11.800781 C 13.96875 12.273438 12.285156 13.574219 11.390625 15.492188 C 10.839844 16.664062 10.65625 17.914062 10.792969 19.113281 Z M 12.542969 16.035156 C 13.265625 14.488281 14.617188 13.4375 16.152344 13.046875 C 16.171875 13.238281 16.183594 13.433594 16.183594 13.628906 C 16.183594 16.191406 14.425781 18.34375 12.054688 18.949219 C 11.953125 17.980469 12.101562 16.976562 12.542969 16.035156 Z M 22.449219 20.691406 C 21.167969 23.429688 17.90625 24.613281 15.171875 23.328125 C 13.796875 22.683594 12.8125 21.527344 12.339844 20.191406 C 15.277344 19.460938 17.457031 16.800781 17.457031 13.628906 C 17.457031 13.375 17.441406 13.125 17.414062 12.878906 C 18.21875 12.863281 19.039062 13.03125 19.816406 13.394531 C 22.550781 14.679688 23.730469 17.953125 22.449219 20.691406 Z M 22.449219 20.691406 " fill-opacity="1" fill-rule="nonzero"/></g><path fill="#dd855f" d="M 24.414062 10.664062 L 24.363281 10.640625 L 22.527344 9.777344 L 23.75 8.914062 L 23.769531 8.898438 C 23.796875 8.882812 23.804688 8.84375 23.785156 8.820312 C 23.765625 8.792969 23.730469 8.785156 23.703125 8.804688 L 23.675781 8.824219 L 22.460938 9.679688 L 22.339844 8.195312 L 22.335938 8.160156 C 22.335938 8.136719 22.316406 8.117188 22.296875 8.109375 C 22.277344 8.097656 22.25 8.097656 22.230469 8.113281 L 22.203125 8.132812 L 20.988281 8.988281 L 20.867188 7.503906 L 20.863281 7.46875 C 20.859375 7.4375 20.832031 7.414062 20.800781 7.417969 C 20.769531 7.417969 20.746094 7.445312 20.75 7.480469 L 20.75 7.496094 L 20.871094 9 L 19.023438 8.128906 L 18.96875 8.105469 C 18.941406 8.089844 18.90625 8.105469 18.894531 8.132812 C 18.878906 8.160156 18.890625 8.195312 18.921875 8.210938 L 18.957031 8.226562 L 20.855469 9.117188 L 20.25 11.042969 L 20.246094 11.050781 C 20.238281 11.078125 20.253906 11.113281 20.285156 11.121094 C 20.289062 11.125 20.296875 11.125 20.300781 11.125 C 20.324219 11.125 20.34375 11.113281 20.355469 11.089844 C 20.355469 11.089844 20.355469 11.085938 20.355469 11.085938 L 20.960938 9.167969 L 22.328125 9.8125 L 21.242188 11.5 C 21.242188 11.503906 21.242188 11.503906 21.242188 11.507812 C 21.230469 11.535156 21.238281 11.566406 21.261719 11.582031 C 21.269531 11.585938 21.28125 11.589844 21.292969 11.589844 C 21.3125 11.589844 21.332031 11.582031 21.339844 11.5625 L 21.34375 11.558594 L 22.433594 9.859375 L 24.332031 10.753906 L 24.367188 10.769531 C 24.375 10.773438 24.382812 10.773438 24.390625 10.773438 C 24.414062 10.773438 24.433594 10.761719 24.441406 10.742188 C 24.457031 10.710938 24.445312 10.679688 24.414062 10.664062 Z M 21.054688 9.085938 L 22.226562 8.257812 L 22.34375 9.691406 Z M 21.054688 9.085938 " fill-opacity="1" fill-rule="nonzero"/></svg>