<svg xmlns="http://www.w3.org/2000/svg" xmlns:xlink="http://www.w3.org/1999/xlink" width="40" zoomAndPan="magnify" viewBox="0 0 30 30.000001" height="40" preserveAspectRatio="xMidYMid meet" version="1.0"><defs><clipPath id="id1"><path d="M 0.484375 4.15625 L 29.515625 4.15625 L 29.515625 25.203125 L 0.484375 25.203125 Z M 0.484375 4.15625 " clip-rule="nonzero"/></clipPath></defs><g clip-path="url(#id1)"><path fill="#d7ae54" d="M 3.605469 4.15625 C 1.886719 4.15625 0.496094 5.566406 0.496094 7.3125 C 0.535156 12.101562 0.496094 17.167969 0.496094 22.046875 C 0.496094 23.726562 1.78125 25.085938 3.410156 25.1875 L 26.523438 25.203125 C 28.183594 25.136719 29.503906 23.75 29.503906 22.046875 L 29.503906 6.769531 C 29.253906 5.28125 27.980469 4.15625 26.445312 4.15625 C 18.835938 4.160156 11.214844 4.15625 3.605469 4.15625 Z M 3.554688 5.816406 L 26.542969 5.816406 L 15.421875 17.113281 C 15.21875 17.320312 14.894531 17.320312 14.691406 17.113281 Z M 27.949219 6.621094 L 27.949219 21.929688 C 27.949219 22.84375 27.625 23.359375 26.980469 23.542969 L 19.144531 15.566406 Z M 2.230469 6.6875 L 10.890625 15.484375 L 2.972656 23.527344 C 2.429688 23.339844 2.242188 22.898438 2.230469 22.292969 Z M 11.988281 16.585938 L 14.691406 19.347656 C 14.894531 19.554688 15.21875 19.554688 15.421875 19.347656 L 18.042969 16.683594 L 24.875 23.625 L 5.0625 23.625 Z M 11.988281 16.585938 " fill-opacity="1" fill-rule="nonzero"/></g></svg>