<svg xmlns="http://www.w3.org/2000/svg" xmlns:xlink="http://www.w3.org/1999/xlink" width="40" zoomAndPan="magnify" viewBox="0 0 30 89.999999" height="120" preserveAspectRatio="xMidYMid meet" version="1.0"><defs><clipPath id="71a238f66c"><path d="M 13 14.582031 L 18 14.582031 L 18 16 L 13 16 Z M 13 14.582031 " clip-rule="nonzero"/></clipPath><clipPath id="0ce009b1c1"><path d="M 0 15 L 30 15 L 30 75.332031 L 0 75.332031 Z M 0 15 " clip-rule="nonzero"/></clipPath></defs><g clip-path="url(#71a238f66c)"><path stroke-linecap="butt" transform="matrix(0.0521715, 0, 0, 0.0521012, 0.000678568, 14.58261)" fill="none" stroke-linejoin="miter" d="M 275.295699 -0.0110996 L 305.244974 -0.0110996 C 314.229756 2.987872 322.989919 6.961509 330.177745 13.1094 C 330.926476 14.15904 331.750081 15.133706 332.573687 16.108371 C 322.615553 12.959451 313.331278 7.936174 303.148524 5.686946 C 285.927692 2.163155 267.80838 6.361714 252.459377 14.383963 C 251.860392 14.009091 251.186533 13.709194 250.587548 13.409297 C 258.149739 7.8612 265.936551 2.163155 275.295699 -0.0110996 Z M 275.295699 -0.0110996 " stroke="#010101" stroke-width="0.1" stroke-opacity="1" stroke-miterlimit="10"/><path fill="#010101" d="M 14.363281 14.582031 L 15.925781 14.582031 C 16.394531 14.738281 16.851562 14.945312 17.226562 15.265625 C 17.265625 15.320312 17.308594 15.371094 17.351562 15.421875 C 16.832031 15.257812 16.347656 14.996094 15.816406 14.878906 C 14.917969 14.695312 13.972656 14.914062 13.171875 15.332031 C 13.140625 15.3125 13.105469 15.296875 13.074219 15.28125 C 13.46875 14.992188 13.875 14.695312 14.363281 14.582031 " fill-opacity="1" fill-rule="nonzero"/></g><g clip-path="url(#0ce009b1c1)"><path stroke-linecap="butt" transform="matrix(0.0521715, 0, 0, 0.0521012, 0.000678568, 14.58261)" fill="none" stroke-linejoin="miter" d="M 268.557112 19.557188 C 277.092656 16.633191 286.152311 18.282625 294.987347 17.83278 C 307.865535 16.78314 319.695498 23.380877 330.626984 29.378819 C 333.097799 30.803331 335.643487 28.629076 337.81481 27.654411 C 336.541965 24.580465 335.194248 21.581494 333.996277 18.507548 C 337.81481 20.082008 338.863034 24.355542 340.585117 27.654411 C 333.621911 36.651325 322.690426 40.999833 313.106658 46.54793 C 306.293198 49.621875 299.629485 52.920744 292.441659 54.945049 C 299.704358 64.691706 306.967057 74.513337 311.98356 85.609531 C 316.251332 95.206239 320.818596 104.802947 323.289411 115.074424 C 315.951839 106.152484 311.159955 95.281213 302.699285 87.183991 C 300.22847 89.283271 296.634557 91.232602 296.484811 94.906342 C 296.634557 101.35413 298.58126 107.65197 300.078724 113.94981 C 302.549539 125.270926 305.843959 136.442095 307.640916 147.91316 C 310.111731 163.057965 313.555897 178.277744 313.481024 193.722446 C 315.277981 204.443769 313.331278 215.390014 315.128234 226.111336 C 315.427727 241.031219 315.128234 255.951101 315.277981 270.870983 C 320.369357 266.672423 324.786875 261.649146 328.231042 255.951101 C 338.563541 239.081887 344.478523 219.963445 349.719646 200.919977 C 357.80595 169.130882 362.522961 136.517069 364.319917 103.753307 C 363.795805 91.832396 365.742508 79.611588 362.223468 68.065549 C 361.10037 62.442478 352.86432 61.467812 353.463305 55.094998 C 352.415081 49.846798 356.008994 45.123418 355.185389 40.025167 C 351.741222 31.178202 341.708215 27.129591 337.81481 18.507548 C 350.318632 21.131648 359.977273 30.128562 369.935406 37.551016 C 378.920189 44.748547 389.177815 50.596541 396.215895 59.968326 C 408.345351 73.913543 426.614408 79.536614 443.910114 84.035071 C 469.516744 90.407885 495.49774 95.806033 521.927974 96.780699 C 533.683065 100.754336 541.469876 112.90017 541.993988 125.120978 C 543.940691 147.91316 547.609477 170.555393 550.230039 193.272601 C 551.20339 198.595775 550.829024 204.068897 550.754151 209.467046 C 554.797303 211.11648 558.990202 212.69094 562.060002 215.989808 C 559.214821 220.788162 554.572684 224.761799 553.449586 230.38487 C 552.775727 234.133585 555.845528 236.757685 558.24147 239.006913 C 560.337919 240.581373 560.787158 243.280447 561.53589 245.679624 C 558.990202 246.65429 556.519386 247.628955 554.048571 248.678595 C 556.294767 256.101049 560.637412 262.848735 561.835383 270.64606 C 565.878535 292.688499 565.05493 315.255758 569.098082 337.373172 C 571.344277 354.092437 572.467375 370.96165 573.5156 387.830864 C 574.638697 393.154038 573.5156 398.62716 574.93819 403.87536 L 574.93819 435.364559 C 572.991487 445.785984 572.167882 456.357358 570.445799 466.853757 C 561.236397 474.201237 553.07522 483.048202 542.892466 489.196094 C 536.004133 493.544602 529.34042 498.193008 522.52696 502.61649 C 505.306127 514.387453 486.81245 524.059135 469.441871 535.605174 C 471.388574 541.003323 470.040856 546.851317 471.089081 552.399414 C 474.83274 607.505511 478.426653 662.686583 482.320059 717.867655 C 473.41015 723.115855 462.778157 723.640675 452.74515 724.465392 C 452.670277 742.684143 449.226111 760.752945 448.851745 778.971695 C 448.02814 794.041526 445.033212 808.886434 444.209607 823.956265 C 443.011636 844.87409 438.294625 865.342069 435.82381 886.109945 C 430.88218 921.197909 420.474807 955.236233 413.811094 989.949326 C 412.613123 998.796292 414.110586 1007.718231 412.837742 1016.565197 C 412.014137 1028.111236 413.286981 1039.73225 412.238757 1051.278289 C 411.115659 1057.42618 412.08901 1063.72402 411.265405 1069.946886 C 409.393576 1083.592205 407.896112 1097.462447 409.618195 1111.257715 C 410.067434 1150.019419 417.47988 1188.481226 418.078865 1227.24293 C 419.726075 1236.464767 418.078865 1245.836552 419.351709 1255.133363 C 420.100441 1265.479814 418.827597 1275.90124 420.474807 1286.172716 C 419.726075 1303.641724 424.143593 1320.660886 427.36314 1337.680048 C 429.684209 1351.175419 434.775586 1364.595816 443.835241 1375.017241 C 445.856817 1378.166161 449.825096 1376.891598 452.894897 1377.116521 C 459.259118 1378.616007 460.457089 1386.113435 465.847958 1388.962458 C 470.190603 1391.736506 474.682994 1394.360606 478.801019 1397.434552 C 482.245186 1401.333214 484.341635 1406.131568 484.191889 1411.379768 C 485.913972 1412.804279 487.636055 1414.303765 489.283265 1415.803251 C 489.283265 1418.277402 489.283265 1420.676579 489.358138 1423.15073 C 483.368283 1425.549907 477.378429 1428.024059 471.388574 1430.348262 C 459.109371 1435.296564 445.557324 1437.020973 432.454517 1435.071641 C 425.641057 1434.096976 418.677851 1434.546821 412.014137 1432.822413 C 406.099155 1429.373596 398.986203 1428.248982 393.595333 1423.825499 C 387.904971 1417.977505 384.535678 1409.65536 377.048359 1405.756697 C 374.128305 1403.88234 370.908758 1405.306851 367.91383 1405.831671 C 366.49124 1407.331157 365.143523 1408.830642 363.795805 1410.330128 C 356.308487 1410.480077 349.120661 1408.0809 342.232328 1405.606748 C 334.969628 1402.532803 326.958198 1399.983677 321.567328 1393.91076 C 320.818596 1387.163075 320.369357 1380.415389 320.44423 1373.667704 C 319.321133 1366.845044 319.770372 1359.872436 319.171386 1352.974802 C 317.000064 1352.599931 314.753868 1352.225059 312.582546 1351.925162 C 312.058434 1349.301062 311.684068 1346.601988 311.234828 1343.977888 C 310.036857 1334.531129 304.346495 1326.134009 305.020354 1316.387352 C 305.244974 1306.640695 306.81731 1296.969013 306.892184 1287.297331 C 303.897256 1263.680432 300.078724 1240.063533 299.105372 1216.296685 C 299.629485 1201.976597 297.682782 1187.806458 296.035572 1173.711293 C 294.612981 1162.165253 295.211967 1150.469265 293.040644 1138.9982 C 287.050789 1100.461419 280.162456 1062.074586 273.498743 1023.612779 C 266.38579 981.027387 258.524105 938.516968 253.058363 895.631679 C 252.309631 914.975044 252.908616 934.393383 252.75887 953.736748 C 252.75887 1002.470031 252.683997 1051.203315 252.75887 1099.936599 C 254.106587 1108.70859 252.833743 1117.555555 254.331207 1126.252572 C 254.780446 1131.725694 254.031714 1137.198817 254.930192 1142.67194 C 257.101515 1165.239199 252.908616 1187.656509 250.362928 1209.998845 C 248.565972 1222.444576 249.23983 1234.965281 249.164957 1247.485987 C 249.389577 1273.27714 247.667493 1299.518139 239.506316 1324.184678 C 237.110374 1330.782414 233.591334 1337.755023 235.388291 1344.952554 C 236.736008 1361.896742 233.291842 1378.765955 232.992349 1395.710143 C 227.60148 1401.78306 219.664922 1404.40716 212.10273 1406.431465 C 204.540538 1408.305822 196.753727 1410.330128 188.966915 1408.980591 C 184.998637 1406.731363 180.955485 1404.482134 176.238474 1403.957314 C 173.31842 1404.707057 170.248619 1405.081928 167.628057 1406.731363 C 159.541753 1411.679665 154.749869 1420.676579 146.214326 1425.025087 C 140.823457 1427.87411 134.608982 1428.248982 128.993493 1430.573184 C 121.056936 1434.321899 112.072153 1434.17195 103.686356 1435.971333 C 97.846248 1437.545793 92.006139 1435.896358 86.166031 1435.821384 C 69.619057 1434.471847 54.19518 1427.949085 38.247192 1424.050422 C 38.322065 1420.976476 38.621558 1417.977505 39.669782 1415.128482 C 41.541612 1414.228791 43.413442 1413.254125 45.360144 1412.429408 C 45.73451 1407.106234 47.756086 1401.708086 52.323351 1398.63414 C 58.837318 1394.510555 66.17489 1391.736506 72.913477 1387.912818 C 76.582263 1385.663589 78.978205 1381.914875 82.422372 1379.365749 C 86.465524 1377.116521 91.332281 1378.241135 95.674925 1378.091187 C 103.386864 1373.367807 107.879255 1365.420533 112.671139 1358.073053 C 117.612769 1348.401371 122.32978 1337.5301 120.008711 1326.433906 C 119.334852 1315.187764 117.912262 1304.016596 116.864037 1292.770453 C 118.885613 1291.121019 123.677497 1291.046045 123.228258 1287.522253 C 122.030287 1265.029969 117.612769 1242.537684 120.45795 1219.970425 C 121.131809 1195.678757 126.372932 1171.761961 127.121664 1147.545268 C 128.544254 1139.223123 127.04679 1130.751029 128.244761 1122.428883 C 129.292986 1106.909207 127.421156 1091.314556 129.218113 1075.869854 C 127.421156 1046.55491 122.030287 1017.614837 116.339925 988.899686 C 114.093729 969.556321 108.852606 950.812751 106.905903 931.469386 C 104.734581 912.200995 104.285342 892.85763 100.990922 873.739188 C 97.022643 848.847727 95.150813 823.731342 92.155886 798.764906 C 91.032788 779.946361 94.402081 761.277765 96.273911 742.609168 C 97.471882 735.411637 96.872896 728.064158 98.445233 721.016575 C 98.669853 720.341806 99.268838 718.917295 99.493458 718.242527 C 92.605125 715.093607 84.96806 713.669095 78.004854 710.670124 C 75.159672 709.845407 72.314491 707.746127 69.244691 708.795767 C 70.292915 705.946744 70.667281 702.872799 71.041647 699.873827 C 77.855107 644.992653 84.893187 590.111478 91.78152 535.230303 C 90.883042 531.631537 91.78152 527.358003 89.610197 524.209084 C 84.74344 519.485704 79.053078 515.662015 73.437589 511.838327 C 64.153314 505.390539 56.06701 497.443265 47.306847 490.320708 C 41.167246 485.597328 36.899474 478.924617 31.733224 473.151597 C 24.171033 463.479915 16.459094 453.883207 9.945127 443.386807 C 6.051722 436.864044 1.78395 430.341282 0.660852 422.618931 C -0.836612 415.571348 0.885472 408.448791 0.885472 401.326235 C 1.78395 378.758976 7.099946 356.566588 8.297917 333.999329 C 9.870254 316.755244 12.640562 299.661108 15.785236 282.641945 C 18.480671 268.846677 21.775091 255.126384 23.572047 241.181167 C 23.946413 236.307839 28.663424 233.158919 28.738297 228.285591 C 25.818243 227.011028 21.101232 224.461902 23.197681 220.563239 C 25.668496 217.714217 29.711648 216.589603 32.781449 214.415348 C 33.155815 212.915863 33.605054 211.416377 34.054293 209.916891 C 32.33221 207.742637 30.46038 205.493409 29.636775 202.71936 C 28.513677 196.496495 31.733224 190.723475 32.856322 184.725532 C 36.674855 165.007296 41.0175 145.364034 46.558115 126.020669 C 48.954057 118.448267 49.553043 110.426019 52.323351 102.92859 C 54.120307 97.380493 59.511177 93.706754 64.976919 92.207268 C 81.823386 87.85876 99.193965 86.2843 116.190178 82.835483 C 130.56583 79.611588 145.465594 77.737231 159.017641 71.58934 C 166.879326 68.140523 175.339996 65.2915 181.704216 59.293558 C 185.373003 55.319921 188.293057 50.596541 192.785448 47.522596 C 203.267694 40.025167 215.097657 34.552045 225.879396 27.504462 C 224.08244 33.277482 221.686498 38.750604 219.814668 44.523624 C 217.793092 50.821464 218.766444 57.944021 222.135737 63.642066 C 221.012639 71.514366 217.26898 78.786871 214.648418 86.2843 C 210.380647 97.455468 209.257549 109.526327 208.658563 121.372264 C 207.086226 131.418818 208.80831 141.465371 209.631915 151.436951 C 214.049433 178.652616 222.659849 205.493409 236.586262 229.485179 C 245.571044 246.054496 254.780446 262.773761 266.760156 277.393746 C 267.209395 277.168823 268.033 276.793951 268.482239 276.569028 L 266.909902 274.169851 C 267.134522 257.750484 266.685283 241.331116 267.059649 224.911748 C 268.781732 215.764885 266.984775 206.468074 268.557112 197.321212 C 269.305844 182.851175 269.605337 168.456113 270.803308 154.061051 C 273.798235 133.593072 282.857891 114.47463 284.729721 93.781728 C 282.333779 90.857731 279.638344 88.158657 277.017782 85.459582 C 273.873109 87.034042 270.803308 88.833425 269.006351 91.907371 C 263.765228 98.20521 260.321062 105.777613 254.106587 111.250736 C 256.652276 100.82931 262.791877 91.757422 266.685283 81.860817 C 271.701786 72.564006 274.696714 61.467812 283.906116 55.244947 C 277.916261 51.646181 271.402293 49.17203 265.187819 46.02311 C 254.331207 40.924859 242.576117 36.276453 233.890827 27.804359 C 232.617983 22.406211 238.383218 21.656468 242.276624 22.181288 C 241.078653 23.230928 239.955555 24.280568 238.832457 25.405182 C 240.180175 27.354514 241.752512 29.228871 243.175102 31.103228 C 251.33628 26.679745 259.57233 22.106314 268.557112 19.557188 Z M 268.557112 19.557188 " stroke="#010101" stroke-width="0.1" stroke-opacity="1" stroke-miterlimit="10"/><path fill="#010101" d="M 14.011719 15.601562 C 14.457031 15.449219 14.929688 15.535156 15.390625 15.511719 C 16.0625 15.457031 16.679688 15.800781 17.25 16.113281 C 17.378906 16.1875 17.511719 16.074219 17.625 16.023438 C 17.558594 15.863281 17.488281 15.707031 17.425781 15.546875 C 17.625 15.628906 17.679688 15.851562 17.769531 16.023438 C 17.40625 16.492188 16.835938 16.71875 16.335938 17.007812 C 15.980469 17.167969 15.632812 17.339844 15.257812 17.445312 C 15.636719 17.953125 16.015625 18.464844 16.277344 19.042969 C 16.5 19.542969 16.738281 20.042969 16.867188 20.578125 C 16.484375 20.113281 16.234375 19.546875 15.792969 19.125 C 15.664062 19.234375 15.476562 19.335938 15.46875 19.527344 C 15.476562 19.863281 15.578125 20.191406 15.65625 20.519531 C 15.785156 21.109375 15.957031 21.691406 16.050781 22.289062 C 16.179688 23.078125 16.359375 23.871094 16.355469 24.675781 C 16.449219 25.234375 16.347656 25.804688 16.441406 26.363281 C 16.457031 27.140625 16.441406 27.917969 16.449219 28.695312 C 16.714844 28.476562 16.945312 28.214844 17.125 27.917969 C 17.664062 27.039062 17.972656 26.042969 18.246094 25.050781 C 18.667969 23.394531 18.914062 21.695312 19.007812 19.988281 C 18.980469 19.367188 19.082031 18.730469 18.898438 18.128906 C 18.839844 17.835938 18.410156 17.785156 18.441406 17.453125 C 18.386719 17.179688 18.574219 16.933594 18.53125 16.667969 C 18.351562 16.207031 17.828125 15.996094 17.625 15.546875 C 18.277344 15.683594 18.78125 16.152344 19.300781 16.539062 C 19.769531 16.914062 20.304688 17.21875 20.671875 17.707031 C 21.304688 18.433594 22.257812 18.726562 23.160156 18.960938 C 24.496094 19.292969 25.851562 19.574219 27.230469 19.625 C 27.84375 19.832031 28.25 20.464844 28.277344 21.101562 C 28.378906 22.289062 28.570312 23.46875 28.707031 24.652344 C 28.757812 24.929688 28.738281 25.214844 28.734375 25.496094 C 28.945312 25.582031 29.164062 25.664062 29.324219 25.835938 C 29.175781 26.085938 28.933594 26.292969 28.875 26.585938 C 28.839844 26.78125 29 26.917969 29.125 27.035156 C 29.234375 27.117188 29.257812 27.257812 29.296875 27.382812 C 29.164062 27.433594 29.035156 27.484375 28.90625 27.539062 C 29.023438 27.925781 29.25 28.277344 29.3125 28.683594 C 29.523438 29.832031 29.480469 31.007812 29.691406 32.160156 C 29.808594 33.03125 29.867188 33.910156 29.921875 34.789062 C 29.980469 35.066406 29.921875 35.351562 29.996094 35.625 L 29.996094 37.265625 C 29.894531 37.808594 29.851562 38.359375 29.761719 38.90625 C 29.28125 39.289062 28.855469 39.75 28.324219 40.070312 C 27.964844 40.296875 27.617188 40.539062 27.261719 40.769531 C 26.363281 41.382812 25.398438 41.886719 24.492188 42.488281 C 24.59375 42.769531 24.523438 43.074219 24.578125 43.363281 C 24.773438 46.234375 24.960938 49.109375 25.164062 51.984375 C 24.699219 52.257812 24.144531 52.285156 23.621094 52.328125 C 23.617188 53.277344 23.4375 54.21875 23.417969 55.167969 C 23.375 55.953125 23.21875 56.726562 23.175781 57.511719 C 23.113281 58.601562 22.867188 59.667969 22.738281 60.75 C 22.480469 62.578125 21.9375 64.351562 21.589844 66.160156 C 21.527344 66.621094 21.605469 67.085938 21.539062 67.546875 C 21.496094 68.148438 21.5625 68.753906 21.507812 69.355469 C 21.449219 69.675781 21.5 70.003906 21.457031 70.328125 C 21.359375 71.039062 21.28125 71.761719 21.371094 72.480469 C 21.394531 74.5 21.78125 76.503906 21.8125 78.523438 C 21.898438 79.003906 21.8125 79.492188 21.878906 79.976562 C 21.917969 80.515625 21.851562 81.058594 21.9375 81.59375 C 21.898438 82.503906 22.128906 83.390625 22.296875 84.277344 C 22.417969 84.980469 22.683594 85.679688 23.15625 86.222656 C 23.261719 86.386719 23.46875 86.320312 23.628906 86.332031 C 23.960938 86.410156 24.023438 86.800781 24.304688 86.949219 C 24.53125 87.09375 24.765625 87.230469 24.980469 87.390625 C 25.160156 87.59375 25.269531 87.84375 25.261719 88.117188 C 25.351562 88.191406 25.441406 88.269531 25.527344 88.347656 C 25.527344 88.476562 25.527344 88.601562 25.53125 88.730469 C 25.21875 88.855469 24.90625 88.984375 24.59375 89.105469 C 23.953125 89.363281 23.246094 89.453125 22.5625 89.351562 C 22.207031 89.300781 21.84375 89.324219 21.496094 89.234375 C 21.1875 89.054688 20.816406 88.996094 20.535156 88.765625 C 20.238281 88.460938 20.0625 88.027344 19.671875 87.824219 C 19.519531 87.726562 19.351562 87.800781 19.195312 87.828125 C 19.121094 87.90625 19.050781 87.984375 18.980469 88.0625 C 18.589844 88.070312 18.214844 87.945312 17.855469 87.816406 C 17.476562 87.65625 17.058594 87.523438 16.777344 87.207031 C 16.738281 86.855469 16.714844 86.503906 16.71875 86.152344 C 16.660156 85.796875 16.683594 85.433594 16.652344 85.074219 C 16.539062 85.054688 16.421875 85.035156 16.308594 85.019531 C 16.28125 84.882812 16.261719 84.742188 16.238281 84.605469 C 16.175781 84.113281 15.878906 83.675781 15.914062 83.167969 C 15.925781 82.660156 16.007812 82.15625 16.011719 81.652344 C 15.855469 80.421875 15.65625 79.191406 15.605469 77.953125 C 15.632812 77.207031 15.53125 76.46875 15.445312 75.734375 C 15.371094 75.132812 15.402344 74.523438 15.289062 73.925781 C 14.976562 71.917969 14.617188 69.917969 14.269531 67.914062 C 13.898438 65.695312 13.488281 63.480469 13.203125 61.246094 C 13.164062 62.253906 13.195312 63.265625 13.1875 64.273438 C 13.1875 66.8125 13.183594 69.351562 13.1875 71.890625 C 13.257812 72.347656 13.191406 72.808594 13.269531 73.261719 C 13.292969 73.546875 13.253906 73.832031 13.300781 74.117188 C 13.414062 75.292969 13.195312 76.460938 13.0625 77.625 C 12.96875 78.273438 13.003906 78.925781 13 79.578125 C 13.011719 80.921875 12.921875 82.289062 12.496094 83.574219 C 12.371094 83.917969 12.1875 84.28125 12.28125 84.65625 C 12.351562 85.539062 12.171875 86.417969 12.15625 87.300781 C 11.875 87.617188 11.460938 87.753906 11.066406 87.859375 C 10.671875 87.957031 10.265625 88.0625 9.859375 87.992188 C 9.652344 87.875 9.441406 87.757812 9.195312 87.730469 C 9.042969 87.769531 8.882812 87.789062 8.746094 87.875 C 8.324219 88.132812 8.074219 88.601562 7.628906 88.828125 C 7.347656 88.976562 7.023438 88.996094 6.730469 89.117188 C 6.316406 89.3125 5.847656 89.304688 5.410156 89.398438 C 5.105469 89.480469 4.800781 89.394531 4.496094 89.390625 C 3.632812 89.320312 2.828125 88.980469 1.996094 88.777344 C 2 88.617188 2.015625 88.460938 2.070312 88.3125 C 2.167969 88.265625 2.265625 88.214844 2.367188 88.171875 C 2.386719 87.894531 2.492188 87.613281 2.730469 87.453125 C 3.070312 87.238281 3.453125 87.09375 3.804688 86.894531 C 3.996094 86.777344 4.121094 86.582031 4.300781 86.449219 C 4.511719 86.332031 4.765625 86.390625 4.992188 86.382812 C 5.394531 86.136719 5.628906 85.722656 5.878906 85.339844 C 6.136719 84.835938 6.382812 84.269531 6.261719 83.691406 C 6.226562 83.105469 6.152344 82.523438 6.097656 81.9375 C 6.203125 81.851562 6.453125 81.847656 6.429688 81.664062 C 6.367188 80.492188 6.136719 79.320312 6.285156 78.144531 C 6.320312 76.878906 6.59375 75.632812 6.632812 74.371094 C 6.707031 73.9375 6.628906 73.496094 6.691406 73.0625 C 6.746094 72.253906 6.648438 71.441406 6.742188 70.636719 C 6.648438 69.109375 6.367188 67.601562 6.070312 66.105469 C 5.953125 65.097656 5.679688 64.121094 5.578125 63.113281 C 5.464844 62.109375 5.441406 61.101562 5.269531 60.105469 C 5.0625 58.808594 4.964844 57.5 4.808594 56.199219 C 4.75 55.21875 4.925781 54.246094 5.023438 53.273438 C 5.085938 52.898438 5.054688 52.515625 5.136719 52.148438 C 5.148438 52.113281 5.179688 52.039062 5.191406 52.003906 C 4.832031 51.839844 4.433594 51.765625 4.070312 51.609375 C 3.921875 51.566406 3.773438 51.457031 3.613281 51.511719 C 3.667969 51.363281 3.6875 51.203125 3.707031 51.046875 C 4.0625 48.1875 4.429688 45.328125 4.789062 42.46875 C 4.742188 42.28125 4.789062 42.058594 4.675781 41.894531 C 4.421875 41.648438 4.125 41.449219 3.832031 41.25 C 3.347656 40.914062 2.925781 40.5 2.46875 40.128906 C 2.148438 39.882812 1.925781 39.535156 1.65625 39.234375 C 1.261719 38.730469 0.859375 38.230469 0.519531 37.683594 C 0.316406 37.34375 0.09375 37.003906 0.0351562 36.601562 C -0.0429688 36.234375 0.046875 35.863281 0.046875 35.492188 C 0.09375 34.316406 0.371094 33.160156 0.433594 31.984375 C 0.515625 31.085938 0.660156 30.195312 0.824219 29.308594 C 0.964844 28.589844 1.136719 27.875 1.230469 27.148438 C 1.25 26.894531 1.496094 26.730469 1.5 26.476562 C 1.347656 26.410156 1.101562 26.277344 1.210938 26.074219 C 1.339844 25.925781 1.550781 25.867188 1.710938 25.753906 C 1.730469 25.675781 1.753906 25.597656 1.777344 25.519531 C 1.6875 25.40625 1.589844 25.289062 1.546875 25.144531 C 1.488281 24.820312 1.65625 24.519531 1.714844 24.207031 C 1.914062 23.179688 2.140625 22.15625 2.429688 21.148438 C 2.554688 20.753906 2.585938 20.335938 2.730469 19.945312 C 2.824219 19.65625 3.105469 19.464844 3.390625 19.386719 C 4.269531 19.160156 5.175781 19.078125 6.0625 18.898438 C 6.8125 18.730469 7.589844 18.632812 8.296875 18.3125 C 8.707031 18.132812 9.148438 17.984375 9.480469 17.671875 C 9.671875 17.464844 9.824219 17.21875 10.058594 17.058594 C 10.605469 16.667969 11.222656 16.382812 11.785156 16.015625 C 11.691406 16.316406 11.566406 16.601562 11.46875 16.902344 C 11.363281 17.230469 11.414062 17.601562 11.589844 17.898438 C 11.53125 18.308594 11.335938 18.6875 11.199219 19.078125 C 10.976562 19.660156 10.917969 20.289062 10.886719 20.90625 C 10.804688 21.429688 10.894531 21.953125 10.9375 22.472656 C 11.167969 23.890625 11.617188 25.289062 12.34375 26.539062 C 12.8125 27.402344 13.292969 28.273438 13.917969 29.035156 C 13.941406 29.023438 13.984375 29.003906 14.007812 28.992188 L 13.925781 28.867188 C 13.9375 28.011719 13.914062 27.15625 13.933594 26.300781 C 14.023438 25.824219 13.929688 25.339844 14.011719 24.863281 C 14.050781 24.109375 14.066406 23.359375 14.128906 22.609375 C 14.285156 21.542969 14.757812 20.546875 14.855469 19.46875 C 14.730469 19.316406 14.589844 19.175781 14.453125 19.035156 C 14.289062 19.117188 14.128906 19.210938 14.035156 19.371094 C 13.761719 19.699219 13.582031 20.09375 13.257812 20.378906 C 13.390625 19.835938 13.710938 19.363281 13.914062 18.847656 C 14.175781 18.363281 14.332031 17.785156 14.8125 17.460938 C 14.5 17.273438 14.160156 17.144531 13.835938 16.980469 C 13.269531 16.714844 12.65625 16.472656 12.203125 16.03125 C 12.136719 15.75 12.4375 15.710938 12.640625 15.738281 C 12.578125 15.792969 12.519531 15.847656 12.460938 15.90625 C 12.53125 16.007812 12.613281 16.105469 12.6875 16.203125 C 13.113281 15.972656 13.542969 15.734375 14.011719 15.601562 " fill-opacity="1" fill-rule="nonzero"/></g></svg>