<svg xmlns="http://www.w3.org/2000/svg" xmlns:xlink="http://www.w3.org/1999/xlink" width="40" zoomAndPan="magnify" viewBox="0 0 30 30.000001" height="40" preserveAspectRatio="xMidYMid meet" version="1.0"><defs><clipPath id="id1"><path d="M 10.1875 0 L 19.609375 0 L 19.609375 29.03125 L 10.1875 29.03125 Z M 10.1875 0 " clip-rule="nonzero"/></clipPath></defs><g clip-path="url(#id1)"><path fill="#d7ae54" d="M 17.433594 4.773438 C 17.429688 4.785156 17.421875 4.796875 17.417969 4.808594 C 17.433594 4.808594 17.449219 4.808594 17.464844 4.808594 C 17.460938 4.796875 17.460938 4.785156 17.457031 4.777344 C 17.453125 4.773438 17.441406 4.773438 17.433594 4.773438 Z M 12.109375 4.3125 C 12.113281 4.199219 12.125 4.152344 12.113281 4.117188 C 12.105469 4.089844 12.0625 4.070312 12.035156 4.046875 C 12.023438 4.082031 11.992188 4.117188 11.996094 4.148438 C 12 4.183594 12.039062 4.214844 12.109375 4.3125 Z M 13.699219 8.703125 C 13.953125 8.789062 14.136719 8.996094 14.425781 8.898438 C 14.390625 8.675781 14.238281 8.578125 14.0625 8.523438 C 13.929688 8.484375 13.8125 8.53125 13.699219 8.703125 Z M 14.3125 4.644531 C 14.125 4.898438 13.972656 5.109375 13.816406 5.316406 C 13.96875 5.515625 14.015625 5.546875 14.230469 5.652344 C 14.359375 5.714844 14.464844 5.707031 14.566406 5.578125 C 14.335938 5.320312 14.515625 4.949219 14.3125 4.644531 Z M 15.152344 7.171875 C 15.242188 6.84375 15.351562 6.523438 15.359375 6.160156 C 15.148438 6.085938 14.949219 6.019531 14.75 5.957031 C 14.730469 5.949219 14.703125 5.972656 14.667969 5.988281 C 14.808594 6.378906 14.949219 6.765625 15.089844 7.15625 C 15.09375 7.164062 15.117188 7.164062 15.152344 7.171875 Z M 13.160156 2.121094 C 13.339844 2.257812 13.492188 2.359375 13.632812 2.476562 C 13.777344 2.597656 13.910156 2.738281 14.082031 2.898438 C 14.070312 2.535156 13.988281 2.234375 13.8125 1.960938 C 13.710938 1.804688 13.558594 1.707031 13.367188 1.699219 C 13.210938 1.8125 13.105469 1.933594 13.160156 2.121094 Z M 17.773438 3.773438 C 17.675781 3.804688 17.644531 3.804688 17.621094 3.820312 C 17.277344 4.058594 16.945312 4.3125 16.523438 4.421875 C 16.410156 4.449219 16.316406 4.550781 16.226562 4.613281 C 16.222656 4.769531 16.238281 4.890625 16.351562 4.972656 C 16.699219 4.835938 17.527344 4.230469 17.730469 3.960938 C 17.753906 3.925781 17.753906 3.867188 17.773438 3.773438 Z M 17.65625 3.449219 C 17.566406 3.304688 17.496094 3.171875 17.339844 3.101562 C 17.105469 3.140625 17.121094 3.417969 16.941406 3.511719 C 16.757812 3.609375 16.578125 3.714844 16.410156 3.8125 C 16.351562 3.953125 16.363281 4.066406 16.417969 4.171875 C 16.945312 4.101562 17.296875 3.789062 17.65625 3.449219 Z M 18.046875 28.132812 C 18.25 28.132812 18.402344 28.144531 18.550781 28.128906 C 18.707031 28.109375 18.835938 28.019531 18.972656 27.9375 C 18.945312 27.707031 18.917969 27.488281 18.894531 27.273438 C 18.746094 27.242188 18.605469 27.222656 18.511719 27.316406 C 18.40625 27.417969 18.285156 27.414062 18.160156 27.433594 C 18.082031 27.445312 18.007812 27.472656 17.917969 27.5 C 17.964844 27.726562 18.007812 27.929688 18.046875 28.132812 Z M 13.074219 9.0625 C 13.078125 9.078125 13.074219 9.09375 13.082031 9.105469 C 13.324219 9.578125 13.78125 9.609375 14.230469 9.660156 C 14.257812 9.664062 14.285156 9.648438 14.3125 9.636719 C 14.519531 9.515625 14.722656 9.386719 14.796875 9.140625 C 14.808594 9.109375 14.789062 9.066406 14.785156 9.03125 C 14.746094 9.035156 14.703125 9.027344 14.695312 9.039062 C 14.59375 9.203125 14.449219 9.203125 14.289062 9.144531 C 14.144531 9.09375 14.003906 9.035156 13.855469 8.988281 C 13.707031 8.945312 13.558594 8.902344 13.40625 8.878906 C 13.257812 8.855469 13.132812 8.910156 13.074219 9.0625 Z M 16.007812 4.949219 C 15.664062 5.863281 15.46875 6.582031 15.472656 6.929688 C 15.5 6.921875 15.535156 6.925781 15.550781 6.90625 C 15.871094 6.574219 16.171875 6.21875 16.402344 5.8125 C 16.546875 5.558594 16.71875 5.316406 16.882812 5.070312 C 16.933594 4.996094 16.984375 4.917969 17.085938 4.773438 C 16.707031 4.910156 16.496094 5.164062 16.195312 5.3125 C 16.136719 5.195312 16.085938 5.101562 16.007812 4.949219 Z M 14.90625 8.675781 C 14.933594 8.585938 14.964844 8.523438 14.972656 8.453125 C 15.003906 8.21875 15.03125 7.980469 15.058594 7.746094 C 14.898438 7.566406 14.90625 7.5625 14.855469 7.351562 C 14.761719 6.957031 14.707031 6.550781 14.488281 6.195312 C 14.464844 6.15625 14.414062 6.132812 14.328125 6.066406 C 14.316406 6.835938 14.308594 7.554688 13.890625 8.1875 C 14.046875 8.246094 14.191406 8.269531 14.296875 8.347656 C 14.476562 8.480469 14.675781 8.574219 14.90625 8.675781 Z M 13.742188 8.304688 C 13.320312 7.929688 12.863281 7.597656 12.5 7.160156 C 12.265625 6.878906 12 6.625 11.746094 6.363281 C 11.71875 6.335938 11.671875 6.332031 11.613281 6.308594 C 11.570312 6.378906 11.53125 6.445312 11.480469 6.535156 C 11.6875 6.761719 11.804688 7.027344 11.886719 7.316406 C 12.015625 7.75 12.085938 8.191406 12.121094 8.640625 C 12.136719 8.835938 12.136719 9.03125 12.234375 9.242188 C 12.511719 9.078125 12.765625 8.90625 13.042969 8.773438 C 13.3125 8.648438 13.5625 8.507812 13.742188 8.304688 Z M 14.515625 28.46875 C 14.796875 28.65625 14.847656 28.679688 15.070312 28.679688 C 15.496094 28.671875 15.921875 28.691406 16.339844 28.597656 C 16.542969 28.550781 16.710938 28.554688 16.894531 28.6875 C 17.09375 28.828125 17.558594 28.730469 17.714844 28.546875 C 17.765625 28.484375 17.808594 28.398438 17.808594 28.320312 C 17.820312 28.054688 17.800781 27.792969 17.667969 27.523438 C 17.570312 27.539062 17.476562 27.554688 17.386719 27.574219 C 17.179688 27.621094 16.984375 27.691406 16.761719 27.683594 C 16.554688 27.675781 16.332031 27.765625 16.136719 27.726562 C 15.867188 27.671875 15.769531 27.902344 15.582031 27.96875 C 15.5 27.992188 15.421875 28.027344 15.347656 28.066406 C 15.082031 28.191406 14.820312 28.320312 14.515625 28.46875 Z M 18.09375 4.507812 C 17.558594 5 17.09375 5.515625 16.863281 6.203125 C 16.71875 6.636719 16.511719 7.023438 16.183594 7.351562 C 15.9375 7.597656 15.707031 7.867188 15.480469 8.136719 C 15.320312 8.332031 15.210938 8.550781 15.214844 8.847656 C 15.433594 8.847656 15.628906 8.851562 15.828125 8.847656 C 15.898438 8.84375 15.972656 8.847656 16.035156 8.820312 C 16.191406 8.757812 16.339844 8.78125 16.496094 8.816406 C 16.558594 8.832031 16.632812 8.820312 16.695312 8.820312 C 16.800781 8.703125 16.746094 8.570312 16.753906 8.449219 C 16.78125 8.042969 16.765625 7.628906 16.847656 7.234375 C 16.972656 6.632812 17.121094 6.023438 17.449219 5.492188 C 17.632812 5.191406 17.867188 4.929688 18.246094 4.855469 C 18.308594 4.84375 18.363281 4.800781 18.453125 4.75 C 18.316406 4.660156 18.21875 4.589844 18.09375 4.507812 Z M 15.578125 0.925781 C 15.601562 0.945312 15.609375 0.960938 15.621094 0.960938 C 15.703125 0.964844 15.789062 0.964844 15.875 0.964844 C 16.378906 0.976562 16.726562 1.285156 16.777344 1.78125 C 16.789062 1.878906 16.789062 1.976562 16.804688 2.074219 C 16.8125 2.132812 16.847656 2.191406 16.882812 2.285156 C 17.015625 2.160156 17.113281 2.0625 17.21875 1.972656 C 17.320312 1.890625 17.433594 1.894531 17.527344 1.980469 C 17.679688 2.125 17.753906 2.300781 17.730469 2.511719 C 17.71875 2.632812 17.691406 2.753906 17.664062 2.921875 C 17.933594 2.542969 18.027344 2.15625 18.050781 1.75 C 18.070312 1.429688 17.996094 1.117188 17.777344 0.886719 C 17.46875 0.570312 17.085938 0.347656 16.648438 0.25 C 16.40625 0.195312 16.152344 0.222656 15.949219 0.355469 C 15.753906 0.484375 15.589844 0.671875 15.578125 0.925781 Z M 11.3125 6.683594 C 11.191406 6.878906 11.171875 7.082031 11.175781 7.292969 C 11.175781 7.488281 11.179688 7.6875 11.171875 7.882812 C 11.15625 8.265625 11.195312 8.640625 11.269531 9.015625 C 11.3125 9.25 11.34375 9.488281 11.371094 9.722656 C 11.402344 10.003906 11.421875 10.285156 11.457031 10.5625 C 11.464844 10.640625 11.503906 10.714844 11.523438 10.777344 C 11.691406 10.8125 11.792969 10.734375 11.894531 10.652344 C 12.132812 10.453125 12.375 10.261719 12.609375 10.054688 C 12.785156 9.898438 12.945312 9.726562 13.132812 9.542969 C 13.015625 9.433594 12.914062 9.339844 12.796875 9.226562 C 12.433594 9.433594 12.050781 9.582031 11.75 9.902344 C 11.726562 9.828125 11.695312 9.785156 11.707031 9.757812 C 11.730469 9.695312 11.765625 9.628906 11.8125 9.582031 C 11.945312 9.449219 11.976562 9.292969 11.957031 9.117188 C 11.933594 8.890625 11.925781 8.667969 11.898438 8.445312 C 11.820312 7.859375 11.707031 7.28125 11.417969 6.757812 C 11.398438 6.726562 11.351562 6.710938 11.3125 6.683594 Z M 15.519531 1.371094 C 15.519531 1.617188 15.554688 1.847656 15.511719 2.058594 C 15.460938 2.285156 15.335938 2.496094 15.25 2.699219 C 15.472656 3 15.488281 2.996094 15.5625 3.398438 C 15.605469 3.644531 15.71875 3.761719 16.015625 3.695312 C 16.390625 3.609375 16.722656 3.414062 16.957031 3.101562 C 17.035156 2.992188 17.113281 2.90625 17.238281 2.871094 C 17.375 2.828125 17.460938 2.746094 17.484375 2.609375 C 17.503906 2.460938 17.523438 2.300781 17.339844 2.1875 C 17.148438 2.3125 17.050781 2.515625 16.921875 2.699219 C 16.882812 2.753906 16.859375 2.828125 16.738281 2.796875 C 16.707031 2.695312 16.660156 2.578125 16.640625 2.457031 C 16.605469 2.234375 16.578125 2.011719 16.554688 1.789062 C 16.511719 1.363281 16.136719 1.125 15.738281 1.265625 C 15.671875 1.289062 15.613281 1.328125 15.519531 1.371094 Z M 11.722656 4.222656 C 11.8125 3.730469 12.050781 3.277344 12.4375 2.886719 C 12.691406 2.636719 12.933594 2.386719 12.976562 2.007812 C 12.984375 1.945312 13.023438 1.886719 13.054688 1.804688 C 12.992188 1.785156 12.929688 1.742188 12.894531 1.753906 C 12.683594 1.835938 12.46875 1.910156 12.273438 2.023438 C 12.125 2.113281 11.976562 2.234375 11.875 2.375 C 11.652344 2.703125 11.480469 3.058594 11.40625 3.449219 C 11.347656 3.753906 11.304688 4.058594 11.269531 4.363281 C 11.21875 4.796875 11.175781 5.230469 11.132812 5.660156 C 11.105469 5.941406 11.078125 6.222656 10.976562 6.484375 C 10.929688 6.605469 10.933594 6.722656 10.972656 6.90625 C 11.140625 6.453125 11.429688 6.179688 11.789062 5.964844 C 11.871094 5.914062 11.949219 5.84375 12.011719 5.769531 C 12.214844 5.527344 12.507812 5.339844 12.527344 4.984375 C 12.449219 4.863281 12.371094 4.746094 12.300781 4.636719 C 12.191406 4.589844 12.074219 4.5625 11.988281 4.5 C 11.890625 4.425781 11.816406 4.320312 11.722656 4.222656 Z M 13.128906 2.257812 C 12.980469 2.574219 12.792969 2.8125 12.554688 3.015625 C 12.359375 3.183594 12.214844 3.390625 12.128906 3.621094 C 12.203125 3.910156 12.386719 4.132812 12.445312 4.410156 C 12.472656 4.535156 12.574219 4.667969 12.683594 4.746094 C 12.863281 4.875 13.070312 4.976562 13.277344 5.066406 C 13.507812 5.164062 13.734375 5.101562 13.878906 4.90625 C 14.21875 4.453125 14.3125 3.96875 14.050781 3.445312 C 13.875 3.09375 13.6875 2.75 13.359375 2.503906 C 13.285156 2.445312 13.226562 2.363281 13.128906 2.257812 Z M 13.78125 7.953125 C 14.203125 7.273438 14.15625 6.554688 14.074219 5.886719 C 13.867188 5.699219 13.707031 5.550781 13.539062 5.398438 C 13.277344 5.3125 13 5.222656 12.707031 5.128906 C 12.539062 5.570312 12.171875 5.84375 11.867188 6.1875 C 12.417969 6.78125 12.949219 7.378906 13.589844 7.867188 C 13.640625 7.90625 13.710938 7.921875 13.78125 7.953125 Z M 19.375 26.707031 C 19.226562 25.804688 19.304688 24.90625 19.269531 24.007812 C 19.261719 23.839844 19.25 23.671875 19.222656 23.503906 C 19.144531 23.003906 19.03125 22.515625 18.898438 22.027344 C 18.796875 21.660156 18.730469 21.28125 18.703125 20.90625 C 18.648438 20.21875 18.667969 19.53125 18.761719 18.847656 C 18.8125 18.457031 18.871094 18.066406 18.910156 17.675781 C 18.953125 17.273438 18.988281 16.867188 18.980469 16.460938 C 18.976562 16.125 18.984375 15.789062 18.902344 15.398438 C 18.871094 15.511719 18.855469 15.5625 18.84375 15.617188 C 18.664062 16.425781 18.519531 17.242188 18.261719 18.03125 C 18.128906 18.445312 18.023438 18.867188 17.894531 19.28125 C 17.769531 19.695312 17.75 20.105469 17.878906 20.523438 C 17.96875 20.820312 18.03125 21.125 18.070312 21.429688 C 18.164062 22.128906 18.253906 22.824219 18.257812 23.527344 C 18.261719 23.808594 18.261719 24.089844 18.261719 24.371094 C 18.261719 24.949219 18.238281 25.523438 18.390625 26.089844 C 18.457031 26.347656 18.472656 26.617188 18.515625 26.882812 C 18.523438 26.9375 18.546875 26.988281 18.558594 27.035156 C 18.933594 27.027344 18.933594 27.027344 19.375 26.707031 Z M 19.011719 5.269531 C 18.886719 5.207031 18.777344 5.136719 18.660156 5.101562 C 18.464844 5.046875 18.25 5.027344 18.082031 5.152344 C 17.867188 5.308594 17.671875 5.488281 17.542969 5.734375 C 17.367188 6.074219 17.265625 6.4375 17.152344 6.800781 C 17.003906 7.277344 16.960938 7.761719 16.972656 8.253906 C 16.976562 8.410156 16.972656 8.566406 16.980469 8.71875 C 16.988281 8.9375 16.863281 9.121094 16.570312 9.074219 C 16.324219 9.035156 16.097656 9.058594 15.859375 9.085938 C 15.675781 9.109375 15.488281 9.082031 15.308594 9.101562 C 15.230469 9.105469 15.132812 9.152344 15.09375 9.210938 C 14.875 9.546875 14.640625 9.875 14.300781 10.15625 C 14.441406 10.234375 14.542969 10.3125 14.660156 10.355469 C 14.859375 10.425781 15.066406 10.476562 15.269531 10.535156 C 15.945312 10.730469 16.644531 10.664062 17.332031 10.71875 C 17.453125 10.726562 17.554688 10.675781 17.621094 10.574219 C 17.679688 10.476562 17.746094 10.382812 17.785156 10.277344 C 18 9.65625 18.21875 9.035156 18.414062 8.40625 C 18.648438 7.652344 18.820312 6.886719 18.960938 6.113281 C 19.011719 5.851562 19.050781 5.585938 19.011719 5.269531 Z M 15.023438 10.734375 C 15.03125 10.925781 15.035156 11.09375 15.046875 11.257812 C 15.066406 11.539062 15.105469 11.816406 15.105469 12.097656 C 15.105469 12.730469 15.089844 13.359375 15.082031 13.992188 C 15.078125 14.132812 15.054688 14.273438 15.171875 14.410156 C 15.679688 14.542969 16.207031 14.621094 16.75 14.585938 C 17.246094 14.554688 17.738281 14.535156 18.230469 14.492188 C 18.566406 14.464844 18.90625 14.425781 19.191406 14.191406 C 19.234375 13.964844 19.199219 13.742188 19.164062 13.523438 C 19.109375 13.207031 19.023438 12.890625 18.976562 12.574219 C 18.894531 12.019531 18.792969 11.460938 18.769531 10.902344 C 18.730469 10.085938 18.832031 9.277344 19.003906 8.476562 C 19.152344 7.789062 19.269531 7.097656 19.28125 6.394531 C 19.28125 6.324219 19.3125 6.234375 19.195312 6.160156 C 19.15625 6.316406 19.113281 6.449219 19.089844 6.582031 C 19.003906 7.082031 18.875 7.570312 18.71875 8.050781 C 18.566406 8.519531 18.425781 8.992188 18.273438 9.457031 C 18.160156 9.804688 18.046875 10.152344 17.914062 10.492188 C 17.800781 10.773438 17.597656 10.953125 17.265625 10.945312 C 17.15625 10.941406 17.042969 10.941406 16.929688 10.933594 C 16.789062 10.929688 16.648438 10.910156 16.507812 10.914062 C 16.140625 10.925781 15.773438 10.921875 15.417969 10.800781 C 15.300781 10.761719 15.175781 10.757812 15.023438 10.734375 Z M 16.253906 27.421875 C 16.941406 27.515625 17.5625 27.21875 18.222656 27.128906 C 18.292969 26.964844 18.332031 26.8125 18.289062 26.636719 C 18.253906 26.488281 18.242188 26.332031 18.210938 26.179688 C 18.105469 25.667969 18.054688 25.152344 18.074219 24.632812 C 18.085938 24.265625 18.089844 23.898438 18.070312 23.535156 C 18.039062 23.003906 17.984375 22.472656 17.9375 21.941406 C 17.894531 21.460938 17.820312 20.992188 17.679688 20.53125 C 17.578125 20.207031 17.535156 19.871094 17.613281 19.535156 C 17.695312 19.179688 17.777344 18.820312 17.894531 18.476562 C 18.234375 17.492188 18.480469 16.480469 18.660156 15.457031 C 18.703125 15.214844 18.792969 14.96875 18.714844 14.707031 C 18.671875 14.699219 18.628906 14.679688 18.589844 14.683594 C 18.011719 14.726562 17.433594 14.773438 16.855469 14.820312 C 16.558594 14.84375 16.261719 14.855469 15.96875 14.773438 C 15.878906 14.75 15.773438 14.761719 15.660156 14.753906 C 15.605469 15.070312 15.5625 15.371094 15.550781 15.679688 C 15.539062 16.128906 15.519531 16.578125 15.503906 17.03125 C 15.492188 17.324219 15.441406 17.625 15.484375 17.914062 C 15.558594 18.453125 15.425781 18.972656 15.398438 19.503906 C 15.375 19.953125 15.335938 20.402344 15.421875 20.851562 C 15.527344 21.402344 15.617188 21.957031 15.726562 22.503906 C 15.945312 23.582031 16.117188 24.664062 16.101562 25.765625 C 16.097656 26.171875 16.128906 26.582031 16.140625 26.988281 C 16.144531 27.140625 16.148438 27.296875 16.253906 27.421875 Z M 12.226562 22.558594 L 12.21875 22.546875 C 12.1875 22.710938 12.160156 22.878906 12.132812 23.042969 C 12.015625 23.691406 11.894531 24.339844 11.785156 24.992188 C 11.742188 25.269531 11.710938 25.550781 11.703125 25.832031 C 11.691406 26.363281 11.695312 26.898438 11.703125 27.433594 C 11.707031 27.601562 11.738281 27.769531 11.78125 27.929688 C 11.832031 28.125 11.914062 28.183594 12.117188 28.1875 C 12.328125 28.195312 12.542969 28.175781 12.753906 28.183594 C 12.949219 28.195312 13.117188 28.15625 13.261719 28.023438 C 13.332031 27.957031 13.417969 27.914062 13.496094 27.863281 C 13.496094 27.644531 13.503906 27.449219 13.496094 27.253906 C 13.472656 26.707031 13.429688 26.15625 13.421875 25.609375 C 13.414062 24.972656 13.449219 24.335938 13.625 23.710938 C 13.628906 23.980469 13.589844 24.242188 13.578125 24.507812 C 13.539062 25.519531 13.621094 26.53125 13.664062 27.542969 C 13.667969 27.582031 13.679688 27.625 13.683594 27.667969 C 13.707031 27.796875 13.773438 27.890625 13.886719 27.972656 C 14.21875 28.214844 14.554688 28.269531 14.910156 28.027344 C 15 27.960938 15.09375 27.902344 15.195312 27.832031 C 15.195312 27.699219 15.195312 27.574219 15.195312 27.445312 C 15.183594 26.671875 15.058594 25.90625 14.964844 25.140625 C 14.933594 24.875 14.921875 24.859375 14.996094 24.5625 C 15.035156 24.871094 15.066406 25.136719 15.105469 25.398438 C 15.140625 25.648438 15.1875 25.898438 15.222656 26.148438 C 15.257812 26.414062 15.273438 26.679688 15.3125 26.945312 C 15.351562 27.203125 15.328125 27.46875 15.433594 27.75 C 15.539062 27.691406 15.621094 27.648438 15.703125 27.597656 C 15.785156 27.546875 15.863281 27.488281 15.941406 27.429688 C 15.941406 27.261719 15.949219 27.105469 15.941406 26.953125 C 15.925781 26.460938 15.90625 25.96875 15.882812 25.476562 C 15.871094 25.210938 15.855469 24.945312 15.839844 24.679688 C 15.808594 24.144531 15.726562 23.617188 15.621094 23.09375 C 15.496094 22.472656 15.394531 21.847656 15.269531 21.230469 C 15.195312 20.867188 15.144531 20.507812 15.164062 20.140625 C 15.175781 19.875 15.191406 19.609375 15.210938 19.34375 C 15.230469 19.089844 15.273438 18.835938 15.273438 18.585938 C 15.277344 17.769531 15.292969 16.953125 15.347656 16.140625 C 15.375 15.734375 15.355469 15.324219 15.449219 14.925781 C 15.464844 14.859375 15.453125 14.789062 15.453125 14.71875 C 15.394531 14.699219 15.355469 14.679688 15.316406 14.675781 C 14.886719 14.644531 14.851562 14.5 14.855469 14.128906 C 14.855469 14.058594 14.855469 13.988281 14.867188 13.917969 C 14.960938 13.429688 14.894531 12.9375 14.925781 12.445312 C 14.957031 11.921875 14.835938 11.410156 14.828125 10.890625 C 14.828125 10.808594 14.808594 10.726562 14.796875 10.640625 C 14.65625 10.578125 14.523438 10.527344 14.402344 10.460938 C 14.28125 10.390625 14.148438 10.324219 14.0625 10.21875 C 13.988281 10.132812 13.976562 9.996094 13.941406 9.890625 C 13.734375 9.832031 13.53125 9.777344 13.308594 9.714844 C 13.242188 9.769531 13.171875 9.835938 13.097656 9.898438 C 12.84375 10.121094 12.585938 10.34375 12.332031 10.566406 C 12.210938 10.667969 12.089844 10.765625 11.96875 10.859375 C 11.875 10.929688 11.8125 11.015625 11.777344 11.132812 C 11.664062 11.535156 11.53125 11.9375 11.433594 12.347656 C 11.222656 13.226562 11.167969 14.128906 11.160156 15.027344 C 11.15625 15.5625 11.15625 16.101562 11.203125 16.632812 C 11.277344 17.457031 11.429688 18.277344 11.464844 19.105469 C 11.480469 19.46875 11.511719 19.835938 11.507812 20.199219 C 11.503906 21.117188 11.328125 22.015625 11.203125 22.921875 C 11.105469 23.613281 10.949219 24.300781 10.824219 24.992188 C 10.78125 25.230469 10.761719 25.46875 10.714844 25.703125 C 10.628906 26.128906 10.535156 26.554688 10.4375 26.980469 C 10.398438 27.160156 10.359375 27.34375 10.453125 27.515625 C 10.492188 27.585938 10.554688 27.667969 10.625 27.683594 C 10.910156 27.753906 11.199219 27.796875 11.507812 27.707031 C 11.515625 27.421875 11.53125 27.15625 11.527344 26.890625 C 11.515625 25.558594 11.730469 24.257812 12.042969 22.96875 C 12.078125 22.824219 12.09375 22.664062 12.226562 22.558594 Z M 17.066406 5.300781 C 16.902344 5.347656 16.839844 5.496094 16.757812 5.621094 C 16.5625 5.925781 16.382812 6.246094 16.167969 6.539062 C 15.984375 6.785156 15.761719 7.007812 15.558594 7.238281 C 15.414062 7.398438 15.316406 7.582031 15.265625 7.789062 C 15.25 7.847656 15.226562 7.925781 15.3125 7.964844 C 15.339844 7.949219 15.375 7.945312 15.386719 7.925781 C 15.609375 7.613281 15.875 7.34375 16.128906 7.0625 C 16.253906 6.921875 16.425781 6.796875 16.398438 6.5625 C 16.394531 6.523438 16.460938 6.476562 16.492188 6.4375 C 16.539062 6.382812 16.605469 6.339844 16.621094 6.277344 C 16.71875 5.941406 16.902344 5.640625 17.0625 5.332031 C 17.066406 5.324219 17.058594 5.304688 17.058594 5.292969 C 17.15625 5.28125 17.183594 5.222656 17.171875 5.132812 C 17.050781 5.140625 17.046875 5.210938 17.066406 5.300781 Z M 19.128906 27.183594 C 19.082031 27.554688 19.335938 27.839844 19.195312 28.15625 C 18.824219 28.210938 18.507812 28.460938 18.125 28.355469 C 18.078125 28.414062 18.027344 28.457031 18.015625 28.503906 C 17.953125 28.746094 17.761719 28.839844 17.550781 28.890625 C 17.265625 28.960938 16.972656 29.003906 16.683594 28.859375 C 16.589844 28.8125 16.453125 28.792969 16.355469 28.824219 C 15.871094 28.96875 15.367188 28.917969 14.878906 29.011719 C 14.429688 29.097656 14.269531 28.941406 14.234375 28.476562 C 13.902344 28.234375 13.886719 28.226562 13.417969 28.1875 C 13.347656 28.242188 13.269531 28.304688 13.1875 28.355469 C 13.128906 28.390625 13.058594 28.425781 12.992188 28.425781 C 12.695312 28.4375 12.398438 28.4375 12.101562 28.441406 C 11.902344 28.445312 11.742188 28.386719 11.640625 28.199219 C 11.558594 28.046875 11.414062 28.011719 11.246094 28.007812 C 11.046875 28.003906 10.847656 27.988281 10.652344 27.953125 C 10.367188 27.902344 10.207031 27.71875 10.191406 27.429688 C 10.183594 27.304688 10.195312 27.175781 10.230469 27.054688 C 10.421875 26.304688 10.527344 25.539062 10.671875 24.78125 C 10.78125 24.199219 10.890625 23.621094 10.992188 23.039062 C 11.019531 22.902344 11.023438 22.761719 11.039062 22.621094 C 11.054688 22.480469 11.0625 22.339844 11.089844 22.203125 C 11.273438 21.300781 11.320312 20.390625 11.285156 19.476562 C 11.261719 18.925781 11.203125 18.382812 11.125 17.839844 C 11.003906 17.019531 10.96875 16.1875 10.949219 15.359375 C 10.925781 14.398438 11.007812 13.449219 11.191406 12.507812 C 11.285156 12.027344 11.4375 11.554688 11.566406 11.066406 C 11.363281 11.0625 11.273438 10.957031 11.257812 10.75 C 11.214844 10.273438 11.160156 9.800781 11.101562 9.328125 C 11.078125 9.117188 11.042969 8.910156 11.003906 8.703125 C 10.996094 8.652344 10.953125 8.605469 10.929688 8.558594 C 10.902344 8.496094 10.855469 8.433594 10.851562 8.371094 C 10.8125 7.824219 10.773438 7.277344 10.753906 6.730469 C 10.75 6.550781 10.816406 6.371094 10.839844 6.191406 C 10.925781 5.507812 11.003906 4.824219 11.09375 4.144531 C 11.144531 3.753906 11.1875 3.359375 11.273438 2.976562 C 11.375 2.507812 11.640625 2.128906 12.046875 1.855469 C 12.09375 1.824219 12.148438 1.804688 12.191406 1.769531 C 12.527344 1.46875 12.945312 1.46875 13.355469 1.488281 C 13.773438 1.507812 14.023438 1.765625 14.144531 2.148438 C 14.25 2.46875 14.328125 2.796875 14.417969 3.121094 C 14.496094 3.421875 14.546875 3.726562 14.511719 4.039062 C 14.5 4.148438 14.523438 4.265625 14.539062 4.375 C 14.582031 4.667969 14.628906 4.957031 14.679688 5.25 C 14.699219 5.359375 14.738281 5.464844 14.773438 5.574219 C 14.808594 5.691406 14.890625 5.761719 15.007812 5.792969 C 15.144531 5.828125 15.28125 5.863281 15.445312 5.910156 C 15.476562 5.84375 15.515625 5.773438 15.539062 5.699219 C 15.644531 5.382812 15.746094 5.058594 15.855469 4.742188 C 15.886719 4.648438 15.917969 4.542969 15.984375 4.480469 C 16.128906 4.347656 16.140625 4.1875 16.128906 4.007812 C 15.96875 3.980469 15.804688 3.960938 15.648438 3.925781 C 15.46875 3.882812 15.34375 3.777344 15.332031 3.578125 C 15.328125 3.507812 15.308594 3.4375 15.300781 3.367188 C 15.289062 3.207031 15.246094 3.0625 15.113281 2.957031 C 14.980469 2.851562 14.992188 2.714844 15.035156 2.574219 C 15.050781 2.523438 15.074219 2.46875 15.101562 2.421875 C 15.308594 2.042969 15.273438 1.628906 15.292969 1.226562 C 15.296875 1.199219 15.292969 1.164062 15.28125 1.140625 C 15.105469 0.796875 15.3125 0.554688 15.519531 0.320312 C 15.59375 0.234375 15.691406 0.171875 15.78125 0.105469 C 15.8125 0.078125 15.851562 0.0507812 15.890625 0.046875 C 16.171875 0.0273438 16.453125 0 16.734375 0 C 16.929688 0 17.128906 0.0507812 17.324219 0.0703125 C 17.742188 0.117188 17.988281 0.328125 18.097656 0.738281 C 18.136719 0.886719 18.164062 1.042969 18.222656 1.183594 C 18.371094 1.558594 18.332031 1.929688 18.21875 2.300781 C 18.148438 2.53125 18.082031 2.757812 18.003906 2.988281 C 17.882812 3.363281 17.878906 3.363281 18.054688 3.769531 C 18.015625 3.867188 17.972656 3.980469 17.929688 4.09375 C 17.953125 4.121094 17.964844 4.15625 17.984375 4.164062 C 18.316406 4.234375 18.523438 4.523438 18.832031 4.632812 C 18.855469 4.644531 18.886719 4.675781 18.882812 4.695312 C 18.863281 4.902344 19.023438 4.964844 19.152344 5.0625 C 19.191406 5.089844 19.21875 5.152344 19.234375 5.203125 C 19.402344 5.800781 19.503906 6.398438 19.421875 7.027344 C 19.34375 7.597656 19.292969 8.171875 19.132812 8.730469 C 19.097656 8.851562 19.085938 8.976562 19.070312 9.101562 C 19.027344 9.535156 18.976562 9.96875 18.945312 10.402344 C 18.910156 10.925781 18.988281 11.441406 19.070312 11.957031 C 19.175781 12.59375 19.289062 13.230469 19.394531 13.867188 C 19.40625 13.925781 19.421875 13.980469 19.421875 14.035156 C 19.433594 14.230469 19.382812 14.398438 19.183594 14.484375 C 19.132812 14.507812 19.089844 14.546875 19.03125 14.585938 C 19.066406 14.894531 19.101562 15.203125 19.136719 15.507812 C 19.203125 16.152344 19.210938 16.796875 19.128906 17.441406 C 19.039062 18.167969 18.960938 18.894531 18.878906 19.621094 C 18.875 19.664062 18.871094 19.707031 18.871094 19.746094 C 18.910156 20.519531 18.902344 21.289062 19.132812 22.042969 C 19.414062 22.976562 19.527344 23.9375 19.496094 24.917969 C 19.476562 25.476562 19.480469 26.039062 19.597656 26.597656 C 19.636719 26.773438 19.589844 26.925781 19.390625 27.003906 C 19.292969 27.046875 19.210938 27.128906 19.128906 27.183594 " fill-opacity="1" fill-rule="nonzero"/></g></svg>