<svg xmlns="http://www.w3.org/2000/svg" xmlns:xlink="http://www.w3.org/1999/xlink" width="40" zoomAndPan="magnify" viewBox="0 0 30 30.000001" height="40" preserveAspectRatio="xMidYMid meet" version="1.0"><defs><clipPath id="id1"><path d="M 12 4 L 29.515625 4 L 29.515625 25.167969 L 12 25.167969 Z M 12 4 " clip-rule="nonzero"/></clipPath><clipPath id="id2"><path d="M 0.484375 6 L 15 6 L 15 25 L 0.484375 25 Z M 0.484375 6 " clip-rule="nonzero"/></clipPath><clipPath id="id3"><path d="M 4 3.394531 L 7 3.394531 L 7 7 L 4 7 Z M 4 3.394531 " clip-rule="nonzero"/></clipPath><clipPath id="id4"><path d="M 0.484375 12 L 2 12 L 2 14 L 0.484375 14 Z M 0.484375 12 " clip-rule="nonzero"/></clipPath></defs><g clip-path="url(#id1)"><path fill="#d7ae54" d="M 26.675781 21.828125 C 26.636719 21.84375 26.617188 21.851562 26.605469 21.863281 C 25.4375 22.9375 24.015625 23.476562 22.488281 23.769531 C 21.816406 23.898438 21.132812 23.945312 20.453125 24.03125 C 20.382812 24.042969 20.308594 24.054688 20.207031 24.066406 C 20.253906 24.230469 20.300781 24.371094 20.34375 24.519531 C 20.40625 24.734375 20.34375 24.886719 20.113281 25.042969 C 19.933594 25.167969 19.753906 25.160156 19.570312 25.015625 C 19.402344 24.875 19.367188 24.730469 19.453125 24.507812 C 19.5 24.390625 19.523438 24.261719 19.570312 24.113281 C 18.839844 24.136719 18.160156 24.054688 17.519531 23.769531 C 16.867188 23.476562 16.359375 23.027344 16.03125 22.382812 C 15.902344 22.488281 15.796875 22.589844 15.679688 22.675781 C 15.472656 22.832031 15.25 22.851562 15.003906 22.722656 C 14.472656 22.449219 14.085938 22.019531 13.761719 21.53125 C 13.359375 20.910156 13.066406 20.242188 12.878906 19.523438 C 12.816406 19.285156 12.855469 19.089844 13.039062 18.9375 C 13.402344 18.632812 13.761719 18.332031 14.144531 18.042969 C 15.113281 17.320312 16.113281 16.617188 17.074219 15.875 C 17.757812 15.339844 18.359375 14.714844 18.832031 13.984375 C 19.261719 13.335938 19.523438 12.632812 19.441406 11.839844 C 19.371094 11.128906 19.195312 10.445312 18.921875 9.785156 C 18.820312 9.546875 18.746094 9.304688 18.949219 9.035156 C 18.613281 9.082031 18.308594 9.105469 18.015625 9.171875 C 17.296875 9.328125 16.59375 9.242188 15.886719 9.105469 C 15.4375 9.023438 14.992188 8.945312 14.539062 8.863281 C 14.429688 8.839844 14.390625 8.875 14.332031 8.972656 C 14.171875 9.230469 13.980469 9.476562 13.804688 9.722656 C 13.785156 9.714844 13.769531 9.710938 13.75 9.699219 C 13.785156 9.597656 13.828125 9.503906 13.863281 9.40625 C 13.59375 9.429688 13.46875 9.585938 13.492188 9.898438 C 13.652344 9.898438 13.808594 9.898438 13.980469 9.898438 C 14.007812 10.003906 13.949219 10.066406 13.839844 10.082031 C 13.746094 10.101562 13.644531 10.101562 13.515625 10.113281 C 13.738281 10.441406 14.191406 10.316406 14.390625 10.628906 C 14.332031 10.652344 14.289062 10.667969 14.238281 10.6875 C 14.289062 10.746094 14.335938 10.804688 14.402344 10.878906 C 14.320312 10.910156 14.253906 10.957031 14.191406 10.957031 C 13.886719 10.945312 13.585938 10.914062 13.289062 10.890625 C 13.253906 10.890625 13.21875 10.875 13.183594 10.863281 C 12.898438 10.761719 12.878906 10.734375 12.933594 10.441406 C 12.957031 10.3125 12.996094 10.1875 13.003906 10.058594 C 13.007812 9.878906 13.089844 9.839844 13.253906 9.875 C 13.277344 9.878906 13.300781 9.875 13.308594 9.875 C 13.308594 9.65625 13.308594 9.453125 13.308594 9.242188 C 13.226562 9.28125 13.121094 9.328125 13.003906 9.386719 C 13.007812 9.351562 13.007812 9.335938 13.015625 9.328125 C 13.621094 8.808594 14.277344 8.40625 15.121094 8.441406 C 15.609375 8.464844 16.109375 8.453125 16.597656 8.476562 C 17.382812 8.515625 18.132812 8.386719 18.855469 8.09375 C 19.253906 7.9375 19.671875 7.816406 20.078125 7.691406 C 20.183594 7.664062 20.207031 7.617188 20.191406 7.523438 C 20.15625 7.265625 20.132812 7.007812 20.085938 6.75 C 20.078125 6.703125 19.996094 6.644531 19.945312 6.628906 C 19.832031 6.597656 19.710938 6.605469 19.59375 6.59375 C 19.449219 6.582031 19.429688 6.503906 19.464844 6.375 C 19.507812 6.195312 19.53125 6.011719 19.546875 5.832031 C 19.554688 5.792969 19.484375 5.746094 19.453125 5.710938 C 19.460938 5.6875 19.460938 5.667969 19.464844 5.664062 C 19.652344 5.574219 19.746094 5.417969 19.820312 5.230469 C 19.875 5.09375 19.984375 4.984375 20.066406 4.859375 C 19.828125 4.652344 19.785156 4.453125 19.972656 4.300781 C 20.125 4.175781 20.308594 4.195312 20.484375 4.242188 C 20.507812 4.246094 20.535156 4.253906 20.546875 4.269531 C 20.789062 4.515625 21.121094 4.585938 21.417969 4.722656 C 21.824219 4.90625 21.945312 5.257812 21.789062 5.675781 C 21.730469 5.832031 21.660156 5.976562 21.605469 6.136719 C 21.542969 6.339844 21.589844 6.40625 21.78125 6.492188 C 21.902344 6.546875 22.03125 6.609375 22.121094 6.699219 C 22.285156 6.867188 22.253906 7.046875 22.0625 7.195312 C 22.03125 7.21875 22.019531 7.253906 21.992188 7.277344 C 21.898438 7.347656 21.804688 7.417969 21.707031 7.476562 C 21.640625 7.515625 21.570312 7.546875 21.5 7.582031 C 21.5 7.597656 21.5 7.617188 21.507812 7.632812 C 21.570312 7.632812 21.640625 7.640625 21.707031 7.632812 C 21.984375 7.605469 22.214844 7.6875 22.4375 7.875 C 22.894531 8.257812 23.371094 8.621094 23.828125 9 C 24.332031 9.421875 24.90625 9.675781 25.542969 9.820312 C 26.113281 9.949219 26.675781 10.140625 27.238281 10.335938 C 27.683594 10.488281 28.050781 10.757812 28.296875 11.183594 C 28.394531 11.359375 28.542969 11.511719 28.671875 11.667969 C 28.660156 11.679688 28.640625 11.691406 28.628906 11.703125 C 28.546875 11.628906 28.472656 11.550781 28.347656 11.433594 C 28.402344 11.714844 28.335938 11.914062 28.179688 12.085938 C 28.15625 12.109375 28.097656 12.101562 28.015625 12.113281 C 28.140625 11.820312 28.097656 11.597656 27.824219 11.441406 C 27.828125 11.5625 27.835938 11.675781 27.839844 11.785156 C 27.824219 11.792969 27.800781 11.792969 27.78125 11.796875 C 27.6875 11.476562 27.59375 11.152344 27.488281 10.839844 C 27.472656 10.792969 27.382812 10.75 27.320312 10.738281 C 26.488281 10.597656 25.652344 10.46875 24.824219 10.328125 C 24.371094 10.253906 23.992188 10.019531 23.617188 9.78125 C 23.367188 9.621094 23.125 9.445312 22.871094 9.300781 C 22.359375 9.011719 21.980469 9.136719 21.746094 9.664062 C 21.496094 10.222656 21.347656 10.816406 21.335938 11.433594 C 21.335938 11.527344 21.355469 11.640625 21.40625 11.714844 C 22.007812 12.597656 22.589844 13.492188 23.230469 14.347656 C 24.015625 15.394531 25.0625 16.125 26.261719 16.621094 C 27.296875 17.054688 28.347656 17.4375 29.394531 17.839844 C 29.429688 17.851562 29.464844 17.863281 29.496094 17.875 C 29.460938 18.921875 28.472656 20.300781 27.023438 21.324219 C 27.160156 21.699219 27.425781 21.96875 27.746094 22.203125 C 28.085938 22.449219 28.425781 22.699219 28.730469 22.980469 C 28.875 23.113281 28.964844 23.320312 29.046875 23.511719 C 29.132812 23.722656 29.074219 23.773438 28.839844 23.742188 C 28.371094 23.671875 28.027344 23.414062 27.730469 23.0625 C 27.378906 22.671875 27.027344 22.25 26.675781 21.828125 Z M 26.675781 21.828125 " fill-opacity="1" fill-rule="nonzero"/></g><g clip-path="url(#id2)"><path fill="#d7ae54" d="M 12.902344 9.902344 C 12.792969 10.277344 12.6875 10.628906 12.574219 10.996094 C 12.0625 10.816406 11.558594 10.632812 11.054688 10.457031 C 10.914062 10.410156 10.78125 10.347656 10.632812 10.3125 C 9.445312 9.992188 8.523438 9.242188 7.640625 8.433594 C 7.59375 8.386719 7.539062 8.347656 7.453125 8.265625 C 7.28125 8.75 7.089844 9.207031 6.96875 9.675781 C 6.867188 10.066406 6.808594 10.476562 6.804688 10.878906 C 6.796875 11.183594 6.878906 11.503906 6.972656 11.796875 C 7.207031 12.5 7.5 13.179688 7.710938 13.886719 C 7.828125 14.269531 8.039062 14.585938 8.253906 14.902344 C 8.738281 15.609375 9.222656 16.320312 9.746094 16.996094 C 10.078125 17.433594 10.5 17.816406 10.832031 18.253906 C 11.6875 19.378906 12.394531 20.59375 13.066406 21.828125 C 13.371094 22.382812 13.679688 22.9375 13.984375 23.496094 C 14.019531 23.558594 14.042969 23.628906 14.074219 23.699219 C 14.113281 23.808594 14.078125 23.875 13.960938 23.898438 C 13.527344 23.984375 13.132812 23.820312 12.878906 23.464844 C 12.667969 23.167969 12.445312 22.867188 12.230469 22.566406 C 12.15625 22.613281 12.085938 22.660156 12.03125 22.695312 C 10.667969 21.148438 9.257812 19.652344 8.042969 17.992188 C 7.441406 17.171875 6.75 16.417969 6.082031 15.644531 C 5.910156 15.441406 5.691406 15.277344 5.457031 15.0625 C 5.371094 15.238281 5.292969 15.359375 5.246094 15.492188 C 4.9375 16.480469 4.804688 17.476562 5 18.515625 C 5.28125 20.003906 5.515625 21.496094 5.746094 22.984375 C 5.78125 23.214844 5.609375 23.40625 5.394531 23.542969 C 5.40625 23.582031 5.417969 23.625 5.433594 23.660156 C 5.492188 23.839844 5.453125 23.96875 5.28125 24.039062 C 5.128906 24.097656 4.964844 24.125 4.804688 24.15625 C 4.710938 24.171875 4.605469 24.179688 4.511719 24.171875 C 4.417969 24.167969 4.269531 24.15625 4.253906 24.101562 C 4.222656 24.015625 4.234375 23.878906 4.289062 23.792969 C 4.386719 23.613281 4.523438 23.449219 4.644531 23.273438 C 4.679688 23.226562 4.710938 23.171875 4.78125 23.074219 C 4.640625 23.109375 4.546875 23.132812 4.433594 23.160156 C 4.417969 23.101562 4.386719 23.042969 4.371094 22.984375 C 4.101562 22.015625 3.832031 21.039062 3.558594 20.066406 C 3.429688 19.617188 3.289062 19.171875 3.160156 18.722656 C 2.953125 18.007812 2.972656 17.285156 3.058594 16.558594 C 3.195312 15.40625 3.339844 14.261719 3.488281 13.109375 C 3.539062 12.710938 3.609375 12.316406 3.667969 11.921875 C 3.75 11.394531 3.6875 10.875 3.617188 10.351562 C 3.585938 10.117188 3.558594 9.890625 3.492188 9.652344 C 3.453125 9.757812 3.40625 9.855469 3.371094 9.960938 C 3.023438 10.886719 2.65625 11.804688 2.042969 12.585938 C 1.996094 12.644531 1.953125 12.703125 1.902344 12.761719 C 1.664062 13.039062 1.746094 13.0625 1.363281 12.867188 C 1.183594 12.773438 1.011719 12.652344 0.832031 12.535156 C 1.101562 12.054688 1.351562 11.59375 1.617188 11.140625 C 2.289062 9.992188 2.691406 8.746094 2.964844 7.445312 C 3.128906 6.6875 3.046875 6.851562 3.734375 6.632812 C 4.058594 6.527344 4.398438 6.46875 4.761719 6.382812 C 4.6875 6.65625 4.628906 6.894531 4.558594 7.136719 C 4.445312 7.515625 4.488281 7.890625 4.546875 8.269531 C 4.617188 8.738281 4.675781 9.207031 4.761719 9.675781 C 5.335938 8.617188 5.75 7.511719 6.007812 6.3125 C 6.5 6.476562 6.96875 6.644531 7.445312 6.792969 C 7.828125 6.90625 8.136719 7.105469 8.417969 7.394531 C 8.746094 7.734375 9.113281 8.035156 9.476562 8.347656 C 9.96875 8.761719 10.515625 9.066406 11.132812 9.269531 C 11.722656 9.453125 12.300781 9.679688 12.902344 9.902344 Z M 12.902344 9.902344 " fill-opacity="1" fill-rule="nonzero"/></g><g clip-path="url(#id3)"><path fill="#d7ae54" d="M 5.300781 6.609375 C 5.195312 6.457031 5.082031 6.324219 5 6.171875 C 4.960938 6.09375 4.976562 5.984375 4.972656 5.890625 C 4.960938 5.675781 4.945312 5.457031 4.933594 5.210938 C 4.746094 5.292969 4.6875 5.21875 4.664062 5.089844 C 4.628906 4.90625 4.5625 4.726562 4.785156 4.609375 C 4.808594 4.597656 4.804688 4.527344 4.804688 4.488281 C 4.820312 4.328125 4.828125 4.164062 4.84375 4.007812 C 4.863281 3.820312 4.960938 3.703125 5.148438 3.664062 C 5.164062 3.65625 5.1875 3.667969 5.199219 3.65625 C 5.480469 3.394531 5.816406 3.511719 6.136719 3.515625 C 6.199219 3.515625 6.289062 3.570312 6.324219 3.621094 C 6.453125 3.796875 6.523438 3.976562 6.476562 4.222656 C 6.417969 4.503906 6.464844 4.800781 6.410156 5.082031 C 6.363281 5.335938 6.265625 5.574219 6.160156 5.808594 C 5.996094 6.183594 5.652344 6.386719 5.300781 6.609375 Z M 5.300781 6.609375 " fill-opacity="1" fill-rule="nonzero"/></g><g clip-path="url(#id4)"><path fill="#d7ae54" d="M 0.867188 13.867188 C 0.75 13.667969 0.65625 13.515625 0.574219 13.371094 C 0.503906 13.246094 0.5625 12.898438 0.667969 12.773438 C 0.714844 12.722656 0.753906 12.667969 0.800781 12.617188 C 0.949219 12.722656 1.078125 12.820312 1.207031 12.910156 C 1.335938 12.992188 1.476562 13.054688 1.644531 13.148438 C 1.59375 13.363281 1.535156 13.597656 1.46875 13.832031 C 1.347656 13.792969 1.347656 13.792969 1.3125 13.464844 C 1.160156 13.597656 1.007812 13.738281 0.867188 13.867188 Z M 0.867188 13.867188 " fill-opacity="1" fill-rule="nonzero"/></g><path fill="#d7ae54" d="M 4.804688 7.242188 C 4.792969 7.007812 4.78125 6.820312 4.769531 6.644531 C 4.804688 6.632812 4.820312 6.621094 4.828125 6.621094 C 5.042969 6.761719 5.246094 6.757812 5.46875 6.605469 C 5.582031 6.527344 5.667969 6.597656 5.664062 6.746094 C 5.664062 6.792969 5.652344 6.84375 5.640625 6.890625 C 5.582031 7.246094 5.582031 7.242188 5.253906 7.101562 C 5.199219 7.078125 5.125 7.09375 5.066406 7.113281 C 4.996094 7.128906 4.925781 7.175781 4.804688 7.242188 Z M 4.804688 7.242188 " fill-opacity="1" fill-rule="nonzero"/><path fill="#ffffff" d="M 20.945312 5.808594 C 20.945312 5.847656 20.925781 5.867188 20.886719 5.867188 C 20.847656 5.867188 20.828125 5.847656 20.828125 5.808594 C 20.828125 5.769531 20.847656 5.75 20.886719 5.75 C 20.925781 5.75 20.945312 5.769531 20.945312 5.808594 Z M 20.945312 5.808594 " fill-opacity="1" fill-rule="nonzero"/></svg>