<svg xmlns="http://www.w3.org/2000/svg" xmlns:xlink="http://www.w3.org/1999/xlink" width="40" zoomAndPan="magnify" viewBox="0 0 30 30.000001" height="40" preserveAspectRatio="xMidYMid meet" version="1.0"><defs><clipPath id="id1"><path d="M 2.910156 1.5625 L 26.859375 1.5625 L 26.859375 27.691406 L 2.910156 27.691406 Z M 2.910156 1.5625 " clip-rule="nonzero"/></clipPath></defs><g clip-path="url(#id1)"><path fill="#d7ae54" d="M 5.121094 17.777344 C 5.210938 17.675781 5.308594 17.582031 5.390625 17.476562 C 5.476562 17.371094 5.554688 17.257812 5.625 17.144531 C 6.210938 16.140625 6.539062 15.050781 6.699219 13.910156 C 6.785156 13.320312 6.882812 12.742188 7.191406 12.226562 C 7.457031 11.785156 7.574219 11.304688 7.535156 10.796875 C 7.492188 10.171875 7.425781 9.554688 7.355469 8.929688 C 7.25 7.964844 7.359375 7.039062 7.832031 6.15625 C 7.726562 6.113281 7.785156 6.050781 7.828125 5.980469 C 7.875 5.90625 7.921875 5.832031 7.980469 5.765625 C 8.113281 5.59375 8.3125 5.5 8.417969 5.300781 C 8.457031 5.226562 8.503906 5.167969 8.503906 5.082031 C 8.503906 5.015625 8.503906 4.945312 8.503906 4.886719 C 8.429688 4.855469 8.367188 4.835938 8.289062 4.800781 C 8.453125 4.6875 8.441406 4.566406 8.28125 4.4375 C 8.101562 4.296875 8.066406 4.179688 8.128906 3.976562 C 8.144531 3.925781 8.148438 3.867188 8.140625 3.8125 C 8.125 3.703125 8.085938 3.597656 8.066406 3.488281 C 8.027344 3.300781 7.992188 3.109375 7.960938 2.921875 C 7.910156 2.609375 8.191406 2.460938 8.320312 2.238281 C 8.371094 2.148438 8.472656 2.089844 8.535156 2.007812 C 8.785156 1.699219 9.09375 1.5625 9.488281 1.65625 C 9.53125 1.667969 9.585938 1.640625 9.632812 1.632812 C 9.726562 1.609375 9.816406 1.578125 9.914062 1.578125 C 10.019531 1.578125 10.125 1.609375 10.230469 1.617188 C 10.46875 1.621094 10.691406 1.625 10.925781 1.757812 C 11.164062 1.890625 11.316406 2.085938 11.484375 2.265625 C 11.632812 2.425781 11.589844 2.492188 11.382812 2.546875 C 11.402344 2.789062 11.421875 3.027344 11.425781 3.269531 C 11.425781 3.316406 11.382812 3.363281 11.367188 3.414062 C 11.34375 3.492188 11.285156 3.570312 11.292969 3.644531 C 11.316406 3.820312 11.367188 3.988281 11.417969 4.15625 C 11.457031 4.300781 11.417969 4.359375 11.261719 4.351562 C 11.238281 4.351562 11.210938 4.347656 11.183594 4.347656 C 11.023438 4.796875 11.023438 4.796875 10.914062 4.84375 C 10.957031 5.265625 10.828125 5.375 10.40625 5.265625 C 10.292969 5.242188 10.175781 5.210938 10.066406 5.175781 C 9.945312 5.144531 9.875 5.199219 9.855469 5.316406 C 9.84375 5.367188 9.824219 5.421875 9.839844 5.46875 C 9.898438 5.636719 9.886719 5.796875 9.785156 5.945312 C 10.027344 6.082031 10.101562 6.292969 10.113281 6.535156 C 10.113281 6.574219 10.121094 6.621094 10.140625 6.652344 C 10.230469 6.804688 10.320312 6.953125 10.414062 7.101562 C 10.429688 7.128906 10.457031 7.164062 10.484375 7.171875 C 10.667969 7.191406 10.722656 7.359375 10.761719 7.480469 C 10.796875 7.59375 10.761719 7.761719 10.691406 7.863281 C 10.617188 7.972656 10.617188 8.078125 10.660156 8.167969 C 10.785156 8.464844 10.765625 8.773438 10.734375 9.078125 C 10.71875 9.222656 10.703125 9.363281 10.679688 9.527344 C 10.917969 9.382812 11.179688 9.3125 11.300781 9.058594 C 11.320312 9.007812 11.363281 8.960938 11.40625 8.925781 C 11.523438 8.808594 11.515625 8.675781 11.480469 8.535156 C 11.46875 8.507812 11.46875 8.476562 11.453125 8.417969 C 11.554688 8.476562 11.628906 8.519531 11.703125 8.554688 C 12.015625 8.273438 12.113281 7.867188 12.3125 7.515625 C 12.527344 7.121094 12.449219 6.746094 12.316406 6.367188 C 12.269531 6.234375 12.183594 6.148438 12.035156 6.125 C 11.917969 6.101562 11.808594 6.058594 11.695312 6.027344 C 11.546875 5.980469 11.5 5.878906 11.558594 5.734375 C 11.574219 5.695312 11.605469 5.664062 11.601562 5.632812 C 11.585938 5.472656 11.585938 5.320312 11.6875 5.183594 C 11.703125 5.160156 11.671875 5.09375 11.648438 5.054688 C 11.554688 4.902344 11.554688 4.90625 11.710938 4.828125 C 11.960938 4.707031 12.148438 4.542969 12.140625 4.242188 C 12.140625 4.210938 12.15625 4.179688 12.171875 4.152344 C 12.261719 4.007812 12.351562 3.863281 12.449219 3.71875 C 12.523438 3.613281 12.613281 3.519531 12.691406 3.417969 C 12.703125 3.429688 12.707031 3.433594 12.71875 3.445312 C 12.730469 3.363281 12.734375 3.285156 12.746094 3.199219 C 12.753906 3.199219 12.765625 3.207031 12.773438 3.207031 C 12.773438 3.253906 12.773438 3.300781 12.773438 3.332031 C 12.882812 3.300781 12.988281 3.265625 13.09375 3.25 C 13.511719 3.191406 13.832031 3.464844 14.199219 3.578125 C 14.210938 3.578125 14.21875 3.585938 14.222656 3.59375 C 14.375 3.75 14.523438 3.910156 14.675781 4.058594 C 14.734375 4.117188 14.804688 4.199219 14.878906 4.0625 C 14.894531 4.035156 14.953125 4.027344 14.988281 4.019531 C 15.269531 4.003906 15.5 4.121094 15.679688 4.328125 C 15.746094 4.402344 15.757812 4.496094 15.699219 4.585938 C 15.640625 4.675781 15.652344 4.761719 15.695312 4.851562 C 15.777344 5.039062 15.683594 5.285156 15.503906 5.375 C 15.417969 5.414062 15.335938 5.445312 15.335938 5.570312 C 15.335938 5.605469 15.277344 5.660156 15.234375 5.675781 C 15.136719 5.699219 15.039062 5.707031 14.933594 5.722656 C 14.941406 5.75 14.964844 5.789062 14.984375 5.828125 C 15.179688 6.144531 15.359375 6.472656 15.574219 6.785156 C 16.402344 8.011719 17.347656 9.136719 18.542969 10.03125 C 19.128906 10.46875 19.765625 10.820312 20.507812 10.9375 C 20.632812 10.960938 20.761719 10.964844 20.859375 10.976562 C 20.851562 11.113281 20.8125 11.234375 20.828125 11.355469 C 20.871094 11.726562 20.941406 12.097656 20.988281 12.464844 C 21.015625 12.652344 20.972656 12.742188 20.871094 12.75 C 20.769531 12.761719 20.703125 12.683594 20.671875 12.507812 C 20.65625 12.40625 20.664062 12.296875 20.632812 12.203125 C 20.605469 12.128906 20.542969 12.03125 20.480469 12.011719 C 20.421875 11.996094 20.3125 12.042969 20.269531 12.101562 C 20.199219 12.191406 20.136719 12.308594 20.128906 12.417969 C 20.125 12.71875 20.140625 13.019531 20.164062 13.320312 C 20.171875 13.515625 20.09375 13.589844 19.917969 13.5 C 19.835938 13.453125 19.769531 13.359375 19.6875 13.265625 C 19.644531 13.355469 19.605469 13.464844 19.546875 13.558594 C 19.375 13.824219 18.792969 13.910156 18.539062 13.714844 C 17.992188 13.300781 17.5 12.835938 17.066406 12.3125 C 15.921875 10.933594 15.28125 9.335938 14.957031 7.59375 C 14.863281 7.085938 14.808594 6.574219 14.734375 6.058594 C 14.742188 6.058594 14.734375 6.058594 14.734375 6.058594 C 14.730469 6.066406 14.726562 6.074219 14.71875 6.085938 C 14.636719 6.277344 14.511719 6.410156 14.28125 6.355469 C 14.253906 6.351562 14.222656 6.363281 14.199219 6.371094 C 14.035156 6.472656 13.878906 6.503906 13.699219 6.355469 C 13.730469 6.488281 13.757812 6.589844 13.78125 6.683594 C 13.730469 6.609375 13.71875 6.519531 13.671875 6.460938 C 13.625 6.402344 13.539062 6.339844 13.46875 6.339844 C 13.390625 6.339844 13.347656 6.425781 13.34375 6.519531 C 13.332031 6.742188 13.34375 6.957031 13.453125 7.160156 C 13.601562 7.417969 13.726562 7.695312 13.890625 7.941406 C 14.136719 8.324219 14.238281 8.71875 14.167969 9.167969 C 14.160156 9.222656 14.160156 9.277344 14.148438 9.335938 C 14.128906 9.472656 14.101562 9.613281 14.242188 9.710938 C 14.269531 9.726562 14.28125 9.777344 14.296875 9.808594 C 14.117188 9.871094 14.03125 9.964844 14 10.160156 C 13.953125 10.5 13.898438 10.839844 13.863281 11.175781 C 13.851562 11.253906 13.894531 11.339844 13.90625 11.425781 C 13.910156 11.46875 13.894531 11.515625 13.890625 11.558594 C 13.878906 11.664062 13.867188 11.761719 13.855469 11.867188 C 13.851562 11.925781 13.867188 11.984375 13.855469 12.039062 C 13.839844 12.121094 13.851562 12.175781 13.953125 12.167969 C 14.585938 12.132812 15.160156 12.332031 15.703125 12.628906 C 16.566406 13.089844 17.296875 13.722656 17.988281 14.410156 C 19.203125 15.621094 20.253906 16.972656 21.238281 18.375 C 21.863281 19.261719 22.472656 20.171875 23.203125 20.980469 C 23.832031 21.675781 24.488281 22.347656 25.265625 22.894531 C 25.714844 23.210938 26.1875 23.449219 26.765625 23.375 C 26.78125 23.375 26.800781 23.378906 26.84375 23.390625 C 26.789062 23.410156 26.765625 23.425781 26.738281 23.433594 C 26.234375 23.628906 25.800781 23.921875 25.460938 24.339844 C 25.238281 24.609375 25.042969 24.90625 24.84375 25.191406 C 24.589844 25.546875 24.261719 25.800781 23.851562 25.941406 C 23.457031 26.085938 23.042969 26.164062 22.617188 26.179688 C 22.550781 26.179688 22.488281 26.132812 22.417969 26.113281 C 22.449219 26.054688 22.472656 25.972656 22.519531 25.9375 C 22.761719 25.738281 23.015625 25.539062 23.257812 25.34375 C 23.316406 25.296875 23.375 25.234375 23.414062 25.171875 C 23.441406 25.132812 23.449219 25.058594 23.433594 25.035156 C 23.414062 25 23.332031 24.980469 23.296875 24.992188 C 23.152344 25.039062 22.988281 25.070312 22.875 25.164062 C 22.601562 25.378906 22.34375 25.609375 22.105469 25.859375 C 21.773438 26.203125 21.40625 26.480469 20.933594 26.585938 C 20.542969 26.671875 20.148438 26.75 19.753906 26.832031 C 19.734375 26.835938 19.710938 26.824219 19.6875 26.824219 C 19.664062 26.601562 19.867188 26.523438 19.964844 26.382812 C 19.785156 26.375 19.605469 26.445312 19.394531 26.601562 C 19.082031 26.839844 18.742188 27.019531 18.378906 27.15625 C 17.667969 27.421875 16.925781 27.527344 16.179688 27.554688 C 14.96875 27.597656 13.773438 27.460938 12.589844 27.183594 C 12.15625 27.085938 11.730469 26.9375 11.304688 26.796875 C 11.171875 26.757812 11.050781 26.6875 10.988281 26.535156 C 11.03125 26.519531 11.0625 26.496094 11.09375 26.492188 C 11.457031 26.417969 11.707031 26.195312 11.855469 25.867188 C 11.96875 25.628906 12.0625 25.386719 12.136719 25.140625 C 12.664062 23.378906 12.75 21.578125 12.589844 19.769531 C 12.453125 18.179688 12.242188 16.59375 12.074219 15.007812 C 12 14.292969 11.910156 13.574219 11.988281 12.855469 C 12 12.734375 11.960938 12.65625 11.820312 12.601562 C 11.527344 12.492188 11.242188 12.359375 10.964844 12.207031 C 10.710938 12.0625 10.472656 11.890625 10.234375 11.730469 C 10.210938 11.785156 10.191406 11.875 10.15625 11.890625 C 10.054688 11.925781 10.050781 11.996094 10.050781 12.074219 C 10.050781 12.1875 10.046875 12.296875 10.050781 12.414062 C 10.0625 13.257812 10.113281 14.097656 9.980469 14.945312 C 9.738281 16.519531 9.535156 18.105469 9.308594 19.683594 C 9.132812 20.890625 8.996094 22.09375 9.070312 23.316406 C 9.113281 24.035156 9.171875 24.753906 9.363281 25.449219 C 9.457031 25.804688 9.570312 26.175781 9.929688 26.386719 C 9.945312 26.398438 9.964844 26.414062 9.964844 26.421875 C 9.960938 26.519531 10.035156 26.519531 10.09375 26.539062 C 10.242188 26.597656 10.394531 26.652344 10.527344 26.730469 C 10.660156 26.804688 10.667969 26.929688 10.558594 27.035156 C 10.480469 27.109375 10.375 27.167969 10.273438 27.195312 C 9.863281 27.285156 9.453125 27.332031 9.042969 27.179688 C 8.90625 27.125 8.757812 27.101562 8.609375 27.066406 C 8.527344 27.050781 8.4375 27.050781 8.339844 27.046875 C 8.339844 27.105469 8.339844 27.148438 8.339844 27.199219 C 8.054688 27.199219 7.777344 27.195312 7.503906 27.199219 C 7.085938 27.207031 7.054688 27.183594 6.992188 26.777344 C 6.992188 26.773438 6.984375 26.765625 6.980469 26.761719 C 6.941406 26.757812 6.894531 26.75 6.832031 26.742188 C 6.921875 24.863281 7.007812 23 7.097656 21.089844 C 7.070312 21.152344 7.054688 21.179688 7.046875 21.210938 C 6.640625 22.476562 6.222656 23.738281 5.824219 25.011719 C 5.640625 25.605469 5.503906 26.210938 5.359375 26.816406 C 5.296875 27.074219 5.316406 27.078125 5.058594 27.074219 C 5.050781 27.074219 5.046875 27.085938 5.003906 27.117188 C 5.058594 27.152344 5.105469 27.183594 5.148438 27.226562 C 5.242188 27.316406 5.273438 27.445312 5.222656 27.550781 C 5.183594 27.617188 5.070312 27.679688 4.984375 27.679688 C 4.707031 27.691406 4.433594 27.675781 4.15625 27.664062 C 4.007812 27.660156 3.898438 27.585938 3.835938 27.453125 C 3.792969 27.363281 3.75 27.269531 3.714844 27.175781 C 3.664062 27.03125 3.628906 26.886719 3.574219 26.746094 C 3.539062 26.644531 3.484375 26.550781 3.347656 26.550781 C 3.3125 26.550781 3.269531 26.507812 3.238281 26.472656 C 3.152344 26.382812 3.066406 26.296875 2.992188 26.195312 C 2.957031 26.144531 2.925781 26.074219 2.929688 26.011719 C 2.933594 25.703125 2.976562 25.410156 3.109375 25.125 C 3.558594 24.160156 3.988281 23.183594 4.429688 22.214844 C 4.707031 21.59375 5.046875 20.984375 5.269531 20.339844 C 5.570312 19.46875 5.789062 18.566406 6.039062 17.675781 C 6.042969 17.648438 6.042969 17.617188 6.042969 17.601562 C 5.71875 17.675781 5.402344 17.75 5.085938 17.824219 C 5.125 17.796875 5.121094 17.789062 5.121094 17.777344 Z M 18.167969 10.460938 C 18.707031 11 19.335938 11.402344 20.023438 11.71875 C 20.113281 11.761719 20.179688 11.761719 20.253906 11.667969 C 19.480469 11.320312 18.675781 11.011719 18.109375 10.332031 C 18.085938 10.355469 18.0625 10.382812 18.039062 10.40625 C 18.082031 10.425781 18.140625 10.429688 18.167969 10.460938 Z M 11.691406 10.257812 C 11.484375 10.332031 11.308594 10.394531 11.113281 10.460938 C 11.347656 10.570312 11.566406 10.667969 11.78125 10.765625 C 11.792969 10.757812 11.808594 10.75 11.820312 10.742188 C 11.777344 10.585938 11.734375 10.425781 11.691406 10.257812 Z M 11.691406 10.257812 " fill-opacity="1" fill-rule="nonzero"/></g></svg>