<svg xmlns="http://www.w3.org/2000/svg" xmlns:xlink="http://www.w3.org/1999/xlink" width="40" zoomAndPan="magnify" viewBox="0 0 30 30.000001" height="40" preserveAspectRatio="xMidYMid meet" version="1.0"><defs><clipPath id="id1"><path d="M 1.234375 5.003906 L 15 5.003906 L 15 22.425781 L 1.234375 22.425781 Z M 1.234375 5.003906 " clip-rule="nonzero"/></clipPath><clipPath id="id2"><path d="M 14 5.003906 L 29.515625 5.003906 L 29.515625 22.425781 L 14 22.425781 Z M 14 5.003906 " clip-rule="nonzero"/></clipPath><clipPath id="id3"><path d="M 3 19 L 13 19 L 13 22.425781 L 3 22.425781 Z M 3 19 " clip-rule="nonzero"/></clipPath><clipPath id="id4"><path d="M 26 20 L 28 20 L 28 22.425781 L 26 22.425781 Z M 26 20 " clip-rule="nonzero"/></clipPath><clipPath id="id5"><path d="M 17 20 L 18 20 L 18 22.425781 L 17 22.425781 Z M 17 20 " clip-rule="nonzero"/></clipPath></defs><g clip-path="url(#id1)"><path fill="#d7ae54" d="M 12.667969 17.390625 C 12.597656 17.707031 12.574219 18.03125 12.519531 18.425781 C 12.210938 18.28125 11.960938 18.167969 11.695312 18.042969 C 11.835938 16.507812 11.988281 15.019531 12.105469 13.527344 C 12.324219 10.742188 11.214844 8.589844 8.949219 7.007812 C 8.648438 6.796875 8.316406 6.632812 7.988281 6.464844 C 7.667969 6.300781 7.359375 6.339844 7.078125 6.566406 C 6.40625 7.113281 5.671875 7.601562 5.070312 8.222656 C 4.0625 9.265625 3.496094 10.566406 3.324219 12.003906 C 3.09375 13.992188 3.066406 15.992188 3.4375 17.976562 C 3.449219 18.039062 3.4375 18.105469 3.4375 18.175781 C 3.238281 18.316406 3.042969 18.453125 2.847656 18.585938 C 2.796875 18.621094 2.734375 18.640625 2.59375 18.703125 C 2.527344 18.351562 2.445312 18.023438 2.40625 17.691406 C 2.125 15.253906 2.304688 12.832031 2.675781 10.417969 C 2.828125 9.441406 3.214844 8.535156 3.800781 7.738281 C 4.757812 6.433594 6.097656 5.863281 7.6875 5.871094 C 8.242188 5.871094 8.75 6.082031 9.210938 6.386719 C 11.023438 7.574219 12.238281 9.246094 12.597656 11.359375 C 12.933594 13.34375 13.09375 15.375 12.667969 17.390625 Z M 6.355469 7.753906 C 6.746094 7.449219 7.132812 7.144531 7.535156 6.832031 C 8.082031 7.003906 8.542969 7.285156 9.035156 7.691406 C 8.085938 7.75 7.238281 7.800781 6.386719 7.851562 C 6.375 7.820312 6.367188 7.785156 6.355469 7.753906 Z M 9.128906 15.34375 C 8.148438 16.273438 6.878906 16.089844 6.152344 14.941406 C 5.578125 14.03125 5.210938 13.050781 5.160156 11.957031 C 6.09375 11.585938 7.050781 11.332031 7.773438 10.542969 C 8.417969 11.34375 9.324219 11.605469 10.324219 11.828125 C 10.296875 13.136719 10.136719 14.386719 9.128906 15.34375 Z M 7.902344 17.910156 C 7.390625 17.628906 7.027344 17.179688 6.664062 16.730469 C 6.601562 16.65625 6.59375 16.472656 6.644531 16.390625 C 6.695312 16.304688 6.84375 16.261719 6.957031 16.238281 C 7.03125 16.222656 7.125 16.269531 7.207031 16.296875 C 7.742188 16.46875 8.261719 16.449219 8.769531 16.183594 C 8.84375 16.144531 8.925781 16.128906 9.007812 16.105469 C 9.027344 16.101562 9.050781 16.117188 9.070312 16.125 C 9.242188 16.753906 8.890625 17.300781 7.902344 17.910156 Z M 4.003906 17.0625 C 3.757812 16.660156 3.707031 15.671875 4.003906 14.976562 C 4.003906 15.683594 4.003906 16.386719 4.003906 17.0625 Z M 13.179688 18.84375 C 13.09375 18.757812 13.054688 18.578125 13.0625 18.441406 C 13.085938 18.054688 13.148438 17.667969 13.179688 17.277344 C 13.246094 16.480469 13.339844 15.679688 13.351562 14.878906 C 13.359375 14.140625 13.226562 13.402344 13.238281 12.664062 C 13.261719 11.222656 12.761719 9.945312 12.101562 8.703125 C 11.445312 7.472656 10.410156 6.625 9.285156 5.867188 C 9.058594 5.710938 8.78125 5.617188 8.511719 5.535156 C 6.789062 5.003906 4.449219 5.894531 3.359375 7.503906 C 2.816406 8.300781 2.382812 9.164062 2.25 10.125 C 2.070312 11.457031 1.917969 12.796875 1.820312 14.140625 C 1.714844 15.53125 1.777344 16.925781 2.019531 18.296875 C 2.125 18.882812 2.175781 19.390625 1.789062 19.890625 C 1.640625 20.089844 1.570312 20.363281 1.503906 20.617188 C 1.382812 21.089844 1.242188 21.574219 1.421875 22.175781 C 1.570312 22.050781 1.71875 21.988281 1.753906 21.886719 C 1.824219 21.683594 1.828125 21.460938 1.867188 21.246094 C 2.050781 20.273438 2.425781 19.410156 3.304688 18.867188 C 4.273438 18.265625 5.328125 17.792969 6.121094 16.933594 C 6.621094 17.476562 7.074219 17.960938 7.515625 18.4375 C 7.433594 18.445312 7.269531 18.417969 7.152344 18.480469 C 7.011719 18.554688 6.859375 18.6875 6.808594 18.828125 C 6.660156 19.21875 7.269531 20.011719 7.695312 20.019531 C 8.023438 20.023438 8.597656 19.605469 8.683594 19.269531 C 8.71875 19.128906 8.75 18.945312 8.6875 18.832031 C 8.585938 18.644531 8.410156 18.5 8.273438 18.347656 C 8.679688 17.960938 9.097656 17.5625 9.445312 17.230469 C 9.980469 17.589844 10.484375 17.957031 11.023438 18.277344 C 11.390625 18.496094 11.796875 18.664062 12.199219 18.828125 C 12.886719 19.105469 13.285156 19.601562 13.390625 20.332031 C 13.433594 20.628906 13.464844 20.933594 13.503906 21.234375 C 13.53125 21.449219 13.542969 21.671875 13.609375 21.871094 C 13.644531 21.976562 13.789062 22.042969 13.996094 22.230469 C 13.996094 21.707031 14.03125 21.34375 13.992188 20.992188 C 13.902344 20.210938 13.792969 19.4375 13.179688 18.84375 " fill-opacity="1" fill-rule="nonzero"/></g><g clip-path="url(#id2)"><path fill="#d7ae54" d="M 21.425781 15.890625 C 20.710938 15.671875 20.203125 15.222656 19.878906 14.582031 C 19.664062 14.160156 19.496094 13.703125 19.378906 13.246094 C 19.273438 12.839844 19.085938 12.527344 18.738281 12.308594 C 18.515625 12.171875 18.25 12.066406 18.367188 11.71875 C 18.480469 11.378906 18.761719 11.460938 19.011719 11.457031 C 19.027344 11.457031 19.042969 11.429688 19.058594 11.417969 C 19.195312 10.363281 20.292969 9.566406 21.421875 9.75 C 22.222656 9.878906 23.011719 9.945312 23.796875 9.6875 C 24.167969 10.324219 24.527344 10.9375 24.898438 11.546875 C 24.9375 11.613281 25.03125 11.648438 25.117188 11.707031 C 25.300781 11.59375 25.476562 11.480469 25.652344 11.371094 C 25.941406 11.796875 25.910156 12.089844 25.5625 12.304688 C 25.453125 12.371094 25.320312 12.402344 25.203125 12.460938 C 24.96875 12.578125 24.898438 12.726562 24.929688 13.03125 C 25.128906 14.953125 23.261719 16.449219 21.425781 15.890625 Z M 22.25 17.871094 C 21.683594 17.664062 21.136719 17.46875 20.5625 17.261719 C 20.417969 16.894531 20.453125 16.53125 20.644531 16.125 C 21.628906 16.578125 22.621094 16.621094 23.707031 16.195312 C 23.746094 16.492188 23.777344 16.703125 23.816406 16.972656 C 23.289062 17.273438 22.769531 17.574219 22.25 17.871094 Z M 22.179688 21.621094 C 21.8125 20.871094 21.519531 20.28125 21.203125 19.636719 C 21.5625 19.328125 21.917969 19.023438 22.308594 18.691406 C 22.574219 18.921875 22.832031 19.144531 23.136719 19.40625 C 22.835938 20.109375 22.539062 20.792969 22.179688 21.621094 Z M 18.789062 9.273438 C 18.832031 9.171875 18.910156 9.054688 19.003906 9.019531 C 19.074219 8.996094 19.191406 9.085938 19.382812 9.164062 C 19.105469 9.339844 19.015625 9.410156 18.914062 9.445312 C 18.890625 9.453125 18.773438 9.308594 18.789062 9.273438 Z M 19.078125 8.1875 C 19.371094 7.523438 20.003906 6.929688 20.570312 6.835938 C 20.574219 7.324219 20.089844 7.417969 19.898438 7.71875 C 19.691406 8.039062 19.453125 8.335938 19.238281 8.632812 C 18.953125 8.515625 19 8.363281 19.078125 8.1875 Z M 29.503906 21.65625 C 29.394531 20.726562 29.25 19.804688 29.167969 18.875 C 29.128906 18.421875 28.878906 18.226562 28.511719 18.085938 C 27.359375 17.640625 26.214844 17.179688 25.054688 16.757812 C 24.566406 16.582031 24.296875 16.296875 24.304688 15.761719 C 25.105469 14.976562 25.480469 14.015625 25.4375 12.914062 C 26.476562 12.574219 26.714844 11.398438 25.800781 10.777344 C 26.089844 9.320312 26.078125 8.660156 25.660156 7.589844 C 25.546875 7.296875 25.363281 6.921875 25.121094 6.820312 C 24.722656 6.664062 24.445312 6.375 24.097656 6.175781 C 23.855469 6.035156 23.59375 5.886719 23.328125 5.84375 C 21.625 5.574219 20.117188 5.945312 18.988281 7.320312 C 18.695312 7.679688 18.4375 8.136719 18.363281 8.582031 C 18.246094 9.257812 18.277344 9.960938 18.292969 10.65625 C 18.296875 10.859375 18.285156 10.996094 18.144531 11.167969 C 17.675781 11.742188 17.746094 12.253906 18.355469 12.644531 C 18.65625 12.835938 18.820312 13.078125 18.902344 13.410156 C 19.109375 14.21875 19.414062 14.976562 20.007812 15.59375 C 20.210938 15.804688 20.171875 16.039062 19.933594 16.1875 C 19.804688 16.265625 19.65625 16.316406 19.515625 16.363281 C 18.402344 16.730469 17.296875 17.117188 16.179688 17.453125 C 15.65625 17.613281 15.390625 17.898438 15.324219 18.449219 C 15.242188 19.140625 15.089844 19.820312 14.96875 20.503906 C 14.890625 20.929688 14.804688 21.355469 14.742188 21.785156 C 14.714844 21.980469 14.707031 22.195312 15.074219 22.21875 C 15.125 22.058594 15.199219 21.886719 15.234375 21.707031 C 15.4375 20.640625 15.644531 19.574219 15.820312 18.503906 C 15.863281 18.242188 15.933594 18.046875 16.199219 17.964844 C 17.191406 17.664062 18.179688 17.359375 19.296875 17.019531 C 18.957031 17.472656 18.683594 17.828125 18.425781 18.191406 C 18.1875 18.527344 18.191406 18.695312 18.464844 19 C 18.648438 19.207031 18.867188 19.382812 19.089844 19.59375 C 18.941406 19.78125 18.777344 19.933594 18.683594 20.125 C 18.609375 20.28125 18.535156 20.539062 18.609375 20.65625 C 18.917969 21.148438 19.277344 21.617188 19.640625 22.078125 C 19.785156 22.261719 19.976562 22.265625 20.113281 21.972656 C 19.765625 21.480469 19.40625 20.972656 19.035156 20.445312 C 19.234375 20.214844 19.414062 20.027344 19.566406 19.820312 C 19.75 19.574219 19.925781 19.328125 20.070312 19.058594 C 20.113281 18.984375 20.050781 18.824219 19.984375 18.738281 C 19.960938 18.703125 19.777344 18.742188 19.707031 18.796875 C 19.59375 18.886719 19.515625 19.019531 19.390625 19.167969 C 19.164062 18.964844 18.96875 18.785156 18.746094 18.585938 C 19.15625 18.050781 19.519531 17.578125 19.96875 16.996094 C 20.167969 18.039062 20.222656 18.984375 20.726562 19.789062 C 21.21875 20.578125 21.351562 21.59375 22.246094 22.265625 C 23.261719 20.777344 23.757812 19.128906 24.433594 17.527344 C 24.652344 17.847656 24.867188 18.167969 25.085938 18.496094 C 24.945312 18.742188 24.816406 18.964844 24.691406 19.183594 C 24.527344 19.109375 24.398438 19.050781 24.191406 18.953125 C 24.09375 19.777344 24.875 20.007812 25.089844 20.585938 C 24.980469 20.792969 24.859375 21.019531 24.738281 21.25 C 24.628906 21.460938 24.5 21.664062 24.421875 21.886719 C 24.390625 21.980469 24.476562 22.113281 24.507812 22.226562 C 24.613281 22.183594 24.769531 22.171875 24.816406 22.09375 C 25.066406 21.683594 25.285156 21.257812 25.519531 20.84375 C 25.683594 20.550781 25.628906 20.308594 25.394531 20.082031 C 25.261719 19.949219 25.152344 19.789062 25.023438 19.628906 C 25.167969 19.367188 25.28125 19.132812 25.425781 18.917969 C 25.636719 18.601562 25.605469 18.316406 25.382812 18.023438 C 25.222656 17.8125 25.082031 17.585938 24.847656 17.242188 C 25.097656 17.300781 25.175781 17.3125 25.25 17.339844 C 26.242188 17.726562 27.226562 18.121094 28.222656 18.492188 C 28.523438 18.605469 28.679688 18.777344 28.710938 19.097656 C 28.800781 19.984375 28.90625 20.867188 29.011719 21.753906 C 29.03125 21.910156 29.085938 22.0625 29.121094 22.21875 C 29.527344 22.144531 29.53125 21.898438 29.503906 21.65625 " fill-opacity="1" fill-rule="nonzero"/></g><g clip-path="url(#id3)"><path fill="#d7ae54" d="M 11.570312 20.550781 C 11.152344 19.886719 10.546875 19.613281 9.742188 19.730469 C 8.949219 19.847656 8.261719 20.167969 7.640625 20.648438 C 7.445312 20.519531 7.292969 20.398438 7.121094 20.308594 C 5.992188 19.707031 4.839844 19.828125 3.941406 20.691406 C 3.675781 20.945312 3.523438 21.335938 3.363281 21.6875 C 3.257812 21.929688 3.363281 22.105469 3.738281 22.113281 C 3.894531 21.574219 4.085938 21.101562 4.558594 20.792969 C 5.339844 20.285156 6.230469 20.300781 7.0625 20.855469 C 7.652344 21.25 7.636719 21.226562 8.246094 20.832031 C 8.605469 20.601562 9.007812 20.40625 9.417969 20.292969 C 10.46875 19.996094 11.007812 20.296875 11.402344 21.304688 C 11.464844 21.46875 11.511719 21.640625 11.601562 21.785156 C 11.648438 21.859375 11.773438 21.886719 11.863281 21.9375 C 11.917969 21.832031 12.042969 21.703125 12.019531 21.628906 C 11.894531 21.257812 11.773438 20.878906 11.570312 20.550781 " fill-opacity="1" fill-rule="nonzero"/></g><g clip-path="url(#id4)"><path fill="#d7ae54" d="M 26.777344 20.378906 C 26.722656 20.980469 26.675781 21.582031 26.652344 22.183594 C 26.652344 22.261719 26.808594 22.34375 26.890625 22.425781 C 26.957031 22.347656 27.070312 22.277344 27.078125 22.195312 C 27.125 21.59375 27.152344 20.988281 27.171875 20.386719 C 27.175781 20.320312 27.082031 20.253906 26.980469 20.121094 C 26.871094 20.253906 26.78125 20.3125 26.777344 20.378906 " fill-opacity="1" fill-rule="nonzero"/></g><g clip-path="url(#id5)"><path fill="#d7ae54" d="M 17.371094 20.816406 C 17.328125 20.804688 17.175781 20.9375 17.171875 21.007812 C 17.148438 21.375 17.148438 21.742188 17.167969 22.105469 C 17.171875 22.167969 17.320312 22.277344 17.386719 22.269531 C 17.464844 22.261719 17.574219 22.148438 17.589844 22.066406 C 17.628906 21.878906 17.621094 21.683594 17.632812 21.457031 C 17.632812 21.339844 17.664062 21.175781 17.625 21.039062 C 17.59375 20.945312 17.472656 20.851562 17.371094 20.816406 " fill-opacity="1" fill-rule="nonzero"/></g></svg>