<svg
	xmlns="http://www.w3.org/2000/svg"
	xmlns:xlink="http://www.w3.org/1999/xlink" width="60" zoomAndPan="magnify" viewBox="0 0 45 37.5" height="50" preserveAspectRatio="xMidYMid meet" version="1.0">
	<defs>
		<linearGradient id="grad1" x1="0%" y1="0%" x2="100%" y2="0%">
			<stop offset="0%" style="stop-color:#B86b77" />	
			<stop offset="22%" style="stop-color:#eabfb9" />	
			<stop offset="45%" style="stop-color:#f6cfca" />	
			<stop offset="50%" style="stop-color:#ffe8e5" />
			<stop offset="78%" style="stop-color:#eabfb9" />
			<stop offset="100%" style="stop-color:#B86b77" />
		</linearGradient>
		<clipPath id="b3039c2d74">
			<path d="M 1.578125 2.339844 L 43.738281 2.339844 L 43.738281 33.425781 L 1.578125 33.425781 Z M 1.578125 2.339844 " clip-rule="nonzero"/>
		</clipPath>
	</defs>
	<path fill="url(#grad1)" d="M 7.53125 17.421875 L 6.703125 16 L 5.875 17.421875 L 6.703125 18.800781 Z M 7.53125 17.421875 " fill-opacity="1" fill-rule="nonzero"/>
	<path fill="url(#grad1)" d="M 16.917969 14.027344 L 16.136719 12.605469 L 15.308594 14.027344 L 16.136719 15.40625 Z M 16.917969 14.027344 " fill-opacity="1" fill-rule="nonzero"/>
	<path fill="url(#grad1)" d="M 39.414062 17.421875 L 38.585938 16 L 37.757812 17.421875 L 38.585938 18.800781 Z M 39.414062 17.421875 " fill-opacity="1" fill-rule="nonzero"/>
	<path fill="url(#grad1)" d="M 29.984375 14.027344 L 29.15625 12.605469 L 28.375 14.027344 L 29.15625 15.40625 Z M 29.984375 14.027344 " fill-opacity="1" fill-rule="nonzero"/>
	<g clip-path="url(#b3039c2d74)">
		<path fill="url(#grad1)" d="M 37.390625 23.292969 L 34.398438 13.433594 L 28.742188 20.816406 L 23.40625 10.269531 L 25.015625 7.058594 L 22.667969 2.378906 L 20.277344 7.058594 L 21.886719 10.269531 L 16.550781 20.769531 L 10.984375 13.433594 L 7.992188 23.339844 L 1.550781 15.957031 L 5.96875 29.898438 L 6.015625 29.992188 L 6.015625 33.382812 L 39.277344 33.382812 L 39.277344 29.992188 L 39.367188 29.761719 L 43.738281 15.957031 Z M 37.710938 29.210938 L 34.078125 29.210938 L 36.792969 26.089844 Z M 33.847656 16.414062 L 36.332031 24.53125 L 32.742188 28.660156 L 29.476562 22.191406 Z M 31.457031 29.210938 L 24.09375 29.210938 L 28.511719 23.429688 Z M 21.792969 7.058594 L 22.621094 5.453125 L 23.449219 7.058594 L 22.621094 8.707031 Z M 22.667969 11.78125 L 27.820312 22.007812 L 22.667969 28.796875 L 17.515625 21.964844 Z M 8.542969 26.136719 L 11.214844 29.210938 L 7.625 29.210938 Z M 21.242188 29.210938 L 13.835938 29.210938 L 16.78125 23.339844 Z M 11.535156 16.414062 L 15.859375 22.101562 L 12.59375 28.660156 L 9.050781 24.578125 Z M 4.863281 21.917969 L 7.488281 24.898438 L 6.660156 27.558594 Z M 37.898438 32.007812 L 7.394531 32.007812 L 7.394531 30.585938 L 37.898438 30.585938 Z M 38.632812 27.46875 L 37.851562 24.851562 L 40.425781 21.917969 Z M 38.632812 27.46875 " fill-opacity="1" fill-rule="nonzero"/>
	</g>
</svg>