<svg
	xmlns="http://www.w3.org/2000/svg"
	xmlns:xlink="http://www.w3.org/1999/xlink" width="40" zoomAndPan="magnify" viewBox="0 0 30 30.000001" height="40" preserveAspectRatio="xMidYMid meet" version="1.0">
	<defs>
        <linearGradient id="grad1" x1="0%" y1="0%" x2="100%" y2="0%">
			<stop offset="0%" style="stop-color:#B86b77" />	
			<stop offset="22%" style="stop-color:#eabfb9" />	
			<stop offset="45%" style="stop-color:#f6cfca" />	
			<stop offset="50%" style="stop-color:#ffe8e5" />
			<stop offset="78%" style="stop-color:#eabfb9" />
			<stop offset="100%" style="stop-color:#B86b77" />
		</linearGradient>
		<clipPath id="6863cdec7a">
			<path d="M 1.933594 13 L 28.066406 13 L 28.066406 29.03125 L 1.933594 29.03125 Z M 1.933594 13 " clip-rule="nonzero"/>
		</clipPath>
	</defs>
	<path fill="url(#grad1)" d="M 17.867188 14.828125 L 17.867188 9.363281 L 18.699219 10.195312 L 19.507812 9.386719 L 15.339844 5.210938 L 15.339844 2.117188 L 16.890625 2.117188 L 16.890625 1.4375 L 15.339844 1.4375 L 15.339844 0.0078125 L 14.660156 0.0078125 L 14.660156 1.4375 L 13.105469 1.4375 L 13.105469 2.117188 L 14.660156 2.117188 L 14.660156 5.277344 L 10.492188 9.453125 L 11.296875 10.261719 L 12.128906 9.429688 L 12.128906 14.828125 L 15 13.222656 Z M 13.742188 9.957031 C 13.742188 9.265625 14.308594 8.699219 15 8.699219 C 15.691406 8.699219 16.257812 9.265625 16.257812 9.957031 L 16.257812 11.984375 L 13.742188 11.984375 Z M 13.742188 9.957031 " fill-opacity="1" fill-rule="nonzero"/>
	<g clip-path="url(#6863cdec7a)">
		<path fill="url(#grad1)" d="M 15 13.867188 L 6.613281 18.96875 L 6.949219 19.527344 L 7.003906 19.617188 L 1.933594 22.703125 L 2.527344 23.679688 L 4.722656 22.347656 L 4.722656 29.023438 L 10.378906 29.023438 L 10.378906 18.015625 L 10.835938 17.734375 L 10.835938 29.019531 L 13.554688 29.019531 L 13.554688 24.589844 C 13.554688 23.792969 14.203125 23.140625 15 23.140625 C 15.792969 23.140625 16.445312 23.792969 16.445312 24.589844 L 16.445312 29.019531 L 19.160156 29.019531 L 19.160156 17.734375 L 19.617188 18.015625 L 19.617188 29.023438 L 25.277344 29.023438 L 25.277344 22.347656 L 27.46875 23.679688 L 28.0625 22.703125 L 22.992188 19.617188 L 23.199219 19.277344 L 23.386719 18.96875 Z M 8.816406 26.628906 L 6.300781 26.628906 L 6.300781 24.601562 C 6.300781 23.910156 6.867188 23.34375 7.558594 23.34375 C 8.25 23.34375 8.816406 23.910156 8.816406 24.601562 Z M 23.695312 26.628906 L 21.179688 26.628906 L 21.179688 24.601562 C 21.179688 23.910156 21.746094 23.34375 22.4375 23.34375 C 23.128906 23.34375 23.695312 23.910156 23.695312 24.601562 Z M 23.695312 26.628906 " fill-opacity="1" fill-rule="nonzero"/>
	</g>
</svg>